<svg xmlns="http://www.w3.org/2000/svg" viewBox="0 0 653.24 547.49"><defs><style>.cls-1{fill:#fcfcfd;}.cls-2{fill:#0a1c3f;}.cls-3{fill:#e5e5e4;}.cls-4{fill:#1f3768;}.cls-5{fill:#e2e3e3;}.cls-6{fill:#306091;}.cls-7{fill:#e3e3e3;}.cls-8{fill:#316295;}.cls-9{fill:#1e3667;}.cls-10{fill:#316294;}.cls-11{fill:#316193;}.cls-12{fill:#fafafb;}.cls-13{fill:#326394;}.cls-14{fill:#0fb8e4;}.cls-15{fill:#04a0c6;}.cls-16{fill:#336394;}.cls-17{fill:#1e3565;}.cls-18{fill:#04aed8;}.cls-19{fill:#326294;}.cls-20{fill:#079abf;}.cls-21{fill:#e0e1e1;}.cls-22{fill:#1e3464;}.cls-23{fill:#0696bb;}.cls-24{fill:#08b1db;}.cls-25{fill:#03a0c6;}.cls-26{fill:#fbfbfc;}.cls-27{fill:#0cb3de;}.cls-28{fill:#0db5e0;}.cls-29{fill:#10b7e3;}.cls-30{fill:#f9fafb;}.cls-31{fill:#0699be;}.cls-32{fill:#306294;}.cls-33{fill:#0bb4de;}.cls-34{fill:#dddfdf;}.cls-35{fill:#0cb1db;}.cls-36{fill:#0db7e2;}.cls-37{fill:#0eb5e0;}.cls-38{fill:#dfe0e0;}.cls-39{fill:#00a7cf;}.cls-40{fill:#079bc0;}.cls-41{fill:#356495;}.cls-42{fill:#0697bc;}.cls-43{fill:#e9eaec;}.cls-44{fill:#0fbae6;}.cls-45{fill:#306193;}.cls-46{fill:#00a8d0;}.cls-47{fill:#2f6091;}.cls-48{fill:#f7f7f8;}.cls-49{fill:#13bbe8;}.cls-50{fill:#069cc1;}.cls-51{fill:#0b8eb2;}.cls-52{fill:#11b9e5;}.cls-53{fill:#09b4df;}.cls-54{fill:#14bce9;}.cls-55{fill:#0697bb;}.cls-56{fill:#f8f9fb;}.cls-57{fill:#049dc2;}.cls-58{fill:#1e3465;}.cls-59{fill:#04afd9;}.cls-60{fill:#326090;}.cls-61{fill:#0993b7;}.cls-62{fill:#0894b9;}.cls-63{fill:#0eb7e3;}.cls-64{fill:#11b8e4;}.cls-65{fill:#08b3dd;}.cls-66{fill:#1e3566;}.cls-67{fill:#2d5e90;}.cls-68{fill:#e9eaed;}.cls-69{fill:#0890b6;}.cls-70{fill:#0698bc;}.cls-71{fill:#22507e;}.cls-72{fill:#2e6092;}.cls-73{fill:#103456;}.cls-74{fill:#c1c7d1;}.cls-75{fill:#2a598a;}.cls-76{fill:#2c5d8e;}.cls-77{fill:#095a81;}.cls-78{fill:#084d73;}.cls-79{fill:#285888;}.cls-80{fill:#a4abb6;}.cls-81{fill:#055177;}.cls-82{fill:#485c74;}.cls-83{fill:#586c86;}.cls-84{fill:#b4b8c0;}.cls-85{fill:#0c2b4c;}.cls-86{fill:#eff1f5;}.cls-87{fill:#0f2548;}.cls-88{fill:#10294c;}.cls-89{fill:#10284b;}.cls-90{fill:#0b1d40;}.cls-91{fill:#f5f6f9;}.cls-92{fill:#262727;}.cls-93{fill:#f7f8fa;}.cls-94{fill:#0b2144;}.cls-95{fill:#0e3255;}.cls-96{fill:#fafbfc;}.cls-97{fill:#0d4064;}.cls-98{fill:#0d2b4e;}.cls-99{fill:#0e4368;}.cls-100{fill:#0e2f52;}.cls-101{fill:#0e2e50;}.cls-102{fill:#104b6f;}.cls-103{fill:#0b2345;}.cls-104{fill:#113255;}.cls-105{fill:#0e4468;}.cls-106{fill:#0e3154;}.cls-107{fill:#0d2b4d;}.cls-108{fill:#e8ebf0;}</style></defs><g id="Layer_2" data-name="Layer 2"><g id="Layer_1-2" data-name="Layer 1"><g id="kFURrs.tif"><path class="cls-1" d="M380,535q-95.14,0-190.3,0c-4.4,0-10.14,1-12.53-2.39-10.29-14.8-23.59-7.41-35.75-5.3-36,6.23-71.95,13.24-107.95,19.75C13.92,550.62-4.26,530.52.88,511,5.73,492.64,11,474.37,16,456c6.35-23.1,26.83-25.16,45.14-28.78C77.69,424,93.9,418.43,111.21,419c6.34.21,2.25-5.13,1.72-7.52C99.69,351.91,102.23,293.35,126.7,237c20.52-47.24,52.12-85.53,104.81-96.3,19.89-4.06,16.44-16.95,21.35-27.35,1.8-3.8-3.14-2.12-4.65-2.13-22.69-.21-45.39-.34-68.07-.1-27.84.29-50.53-10.84-69-30.92-8.14-8.88-7.83-18.91.44-27.68,18.6-19.7,41.74-29.7,68.84-29.88,36.61-.24,73.23-.11,109.84,0A18.08,18.08,0,0,0,301.56,19c33.32-23.63,54.24-27.21,84.52.86,5.89,5.46,20.51,3.23,25.13-3.39,4.17-6,9.62-10.26,17.36-9.79C455.73,8.29,483,9.11,509.38,17a12.76,12.76,0,0,0,5.79-.11c10.76-2,20.91-2.24,29.64,6.19,2.17,2.1,5.92,3.32,9.06,3.57,17.56,1.42,30.35,12.36,43,22.47,17.87,14.32,12.71,43.62-8.51,52.15-4.64,1.87-6.12,4.2-6.54,8.84-2.61,29-6.12,58.11-16,85.36-6.12,16.84-8.54,36-23.22,49.46-11.46,10.52-24.31,17.35-39.59,16-20.34-1.76-39.11,5.2-58.62,7.89-3.37.46-4.83,1.79-4.71,5.44,1,30.69,17.57,54.7,33.9,78.79.61.91,2.81,1.46,4,1.15,19.26-5.1,39.89-2.81,58.57-11.37,10.64-4.88,22.64-1.65,34.09-4.83,13.56-3.76,28-5.25,42-7.46,25.89-4.09,43.3,11.84,40.79,37.65C651.36,385,651,403,642.92,418.6,633.54,436.82,618,446.77,597,447.41c-10.74.33-21.51.77-31.52,5.54-2.66,1.27-4.14,1.78-1.42,5.15a188,188,0,0,1,27.34,46.3c7.2,17.33-1.59,30.55-20.28,30.57Q475.55,535.07,380,535Z"/><path class="cls-2" d="M380.34,524.26c-62.4,0-124.81-.15-187.22.17-8.1,0-14-2.13-18.16-8.93-3.2-5.24-7.17-5.33-13.11-4.09-24.74,5.15-49.37,10.54-74.65,13.5-17.47,2-35.14,6.38-52.49,10.66-7.35,1.82-13.2.21-18.23-4.9s-6.6-11.37-4.56-18.43c4-13.81,7.83-27.65,11.8-41.47,7-24.52,14-29.76,39.41-33.32,20.48-2.88,40.64-7.92,61.37-9.23,6.61-.42,3.07-4.38,2.34-7.08-16.59-61.2-15.16-121.64,10.17-180.2,19-44,48.78-77.89,97.39-90.68,8.36-2.2,17.27-2.39,26-3.24,2.72-.26,4.94-.37,6.2-3.35,1-2.3.57-3.76-1.13-5.42-9.52-9.31-6-17.19,2.58-24.79,3-2.67,8.13-4.57,6.2-10.28-2-6-7.11-2.69-10.53-2.73q-41.78-.48-83.55-.13c-23.28.17-42.35-9.07-58.74-24.92-6.34-6.12-6.13-11.73.22-17.72C138.24,42,158,33.63,180.8,33.46q55.71-.42,111.41,0c6.34.05,10.8-2.17,15.89-5.74,30.07-21.14,45.91-24.29,73,2.64,6.86,6.82,16.75,1.78,25.2,2.69,6.34.69,13.5,2.1,13.5-8.78,0-4.43,4.87-7.25,9.82-6.87,10.62.81,22.46-3.64,31.05,6.75.33.41,1.78.18,2.56-.12,8.7-3.36,17.66-3.26,26.56-1.52,12.3,2.41,26.42,2.76,36.63,5.88,17.4,5.32,38.41,6.84,52.27,22.16a12.51,12.51,0,0,0,5.08,2.88c12.48,4.35,12.36,14.67,11.32,24.84-.88,8.59-7,12.45-15.2,13.82-7.64,1.28-7.87,7.92-8.46,13.47-3.05,28.9-7.16,57.63-15.55,85.5-3.93,13-8.21,26.41-15,38.09-10.61,18.27-28.62,22.28-48.86,21-20.82-1.35-40.24,7.45-60.55,10.25-4.13.57-2.47,4.47-2.64,7-2.25,33.8,15.34,60.3,31.89,87.36,6.43,10.5,12.95,13.21,25.31,9.19,12.11-3.93,25.64-3.36,38.44-5.39,4.65-.74,9-3.23,13.5-5,10.75-4.31,22.27-1.42,33.6-4.48,14.69-4,30.31-5.95,45.51-7.86,19.75-2.48,32.61,17.41,24,35.54-3.16,6.67-3.59,12.88-3.61,19.68,0,21.18-18.69,40.06-39.87,40-12.84,0-25.37,1.06-37.2,6.53a7.53,7.53,0,0,1-3.7.95c-24.62-3-11,7.67-5.32,15,11.62,15.14,21.89,31.08,29.42,48.65,4.9,11.42,1.43,16.56-11,16.57Q475.12,524.28,380.34,524.26Z"/><path class="cls-3" d="M134.24,335.2c1.52-46.66,13.07-97.44,52.58-138.06,17.64-18.13,39.38-28.56,64.38-32.27a30.21,30.21,0,0,1,3.81-.08,13,13,0,0,1-2.16,2.63C210.37,198.13,195.35,243.12,189,292c-5.25,40.5-1,80.1,17,117.48,2,4.07,1.86,4.55-3.37,5.47-14,2.47-17.29-4.91-20.4-16.37-10.85-39.95-15.27-80.2-9.25-121.35a43.48,43.48,0,0,0,.11-5.36c-2.73.29-2.66,2.75-3.38,4.49C151.57,320,148.47,364.93,158.13,411c.72,3.41,5.3,8.92-1.87,10.79-6.43,1.68-10.63-.25-12.53-8C138,390.44,134.38,366.92,134.24,335.2Z"/><path class="cls-4" d="M398.27,290.35c-1.26,21.23-2.56,42.45-3.71,63.69-.17,3.06-1,5.25-3.71,7a94.1,94.1,0,0,1-49.5,15.12c-4.62.12-6.21-2.22-7.25-6.21-3.86-14.88-8.08-29.68-11.88-44.58-.87-3.39-1.57-4.62-5.52-3.59-7.66,2-15.5,4-23.35,4.4s-6.69,3.44-4,8.37q8.44,15.6,16.4,31.44c1,2,4.37,4.44,1.44,6.33-1.18.75-5.82-1.48-7-3.46-7.17-12.15-13.87-24.58-20.56-37-3.7-6.86-7.56-12.5,6.42-10.21,22.13,3.64,40-7,55.33-21.73,11.18-10.77,22.53-20.92,37-27.17a42.25,42.25,0,0,1,21.11-3.1c8.2.74,12.53,4,12.38,13.68-.33,22.37-1.77,44.53-6.52,66.42-.54,2.47-.88,6.14-4,5.58-3.73-.66-1.34-4-1.25-6.4C400.85,329.32,401.54,309.66,398.27,290.35Z"/><path class="cls-1" d="M188.29,84.1C171,86.14,155.14,83,141.08,72c-5.92-4.64-5.39-7.45.94-10.83,12.64-6.76,25.67-11.4,40.33-11.29,35,.24,70,0,105,.2,3,0,9.21-1.91,8.58,1.88-.67,4.07-2.85,10.33-10.32,10.26-27.53-.27-55.07-.15-82.6,0-3,0-7-1.63-8.32,3.21-.35,4.74-4.19,7-6.82,9.58,3-2,5.09-5.75,8.7-7.73l1.68-1.42c1.28-1.21,2.89-.86,4.37-.82,1.95.05,4.28-.68,5.43,1.73s0,4.47-1.35,6.4C202.19,79.48,196.22,83.42,188.29,84.1Z"/><path class="cls-5" d="M208.16,294.89a255.67,255.67,0,0,0,27,106c.92,1.85,5.34,5.79.54,6.39-5.77.72-13.51,9.58-17.53.66-17.91-39.82-22.5-81.36-12.69-124.18a25.5,25.5,0,0,1,2-4.51,47.64,47.64,0,0,1,.6,4.89C208.22,287.69,208.16,291.29,208.16,294.89Z"/><path class="cls-6" d="M301.35,93.88c-2.23,3.77.36,8.75-4,9.56-3.4.63-4.28-3.24-4.68-5.94-.62-4.33-1.17-9.1,3.81-11.45a5.76,5.76,0,0,1,8.17,3.72c9.15,33.56,40,38,65.81,48.93,4.12,1.75,6,2.79,3.32,7.34-3.9,6.61-7.38,13.48-10.84,20.35-2.57,5.12-7.58,5.4-11.23,3.71-4.79-2.23.55-5.44.94-8.29.85-6.15,9.48-14.4,3.33-17.28s-5.69,8.38-8.07,13.24c-7.24,14.74-7.21,15.27-21.11,2.75-12.37-11.14-24.53-22.54-20.71-42.26C307.61,110.35,304.63,102.25,301.35,93.88Z"/><path class="cls-7" d="M505.78,473.59l3.09,4.86c1.4,2,1,2.9-1.51,2.68-8.24-7.19-16.51-14.35-24.69-21.61-1-.93-1.6-2.39-2.38-3.61,1.54-.73,3.06-2.06,4.63-2.11,10.76-.35,21.63.43,31.87-4.12,3.35-1.48,4.54,1.72,6,3.53,11.54,14.28,21.45,29.61,28.29,46.68,1.12,2.78,6.27,7.79,1.14,9.18-4.87,1.31-12.1,3.86-16.43-3.67-7.56-13.13-16.35-25.41-28.23-35.14-3.07-.62-4.69-2.88-6.15-5.34a33.1,33.1,0,0,1,4,8A4.79,4.79,0,0,0,505.78,473.59Z"/><path class="cls-8" d="M188.29,84.1c4.49-2.83,9.26-5.31,13.37-8.61,2.44-2,5.8-5.74,5.26-7.8-1-3.77-5.76-.63-8.67-1.88,9.88-3,19.71.65,29.64.19,17-.79,34-.37,51-.06,2.78,0,9.46-2.35,7.76,3.11-1.62,5.21,2,15.23-8.71,15.26C248.08,84.4,218.19,84.19,188.29,84.1Z"/><path class="cls-9" d="M349.49,258.88c12.39-3.23,24.77-6.49,37.17-9.65,2.71-.69,6.58-3.38,7.47,1.53.66,3.63,2.46,9.72-2.92,10.66-28.67,5-45,28.47-66.84,43.67-4.82,3.36-6.72,3.05-7.39-2.71-1.6-13.75-3.52-26.89-21.79-13.05-1.12.85-2.94,1-4.45,1.08-12.5.55-20.53,3.91-12.3,18.36.73,1.28.15,3.29.18,5-1.71-.27-3.45-.47-5.14-.85a7.41,7.41,0,0,1-5.59-4.82c-2.56-6.69-8.85-15.13-6.74-19.64,2.81-6,12,.78,18.69,0C292,286.93,303,283.62,312,275.26a19.58,19.58,0,0,1,11.48-5.58,35.69,35.69,0,0,0,.42,20.09c1.09,3.46,2.2,5.09,5.7,2.45,7-5.25,12.94-11.53,18.76-18,2-2.24,2.15-5.06,1.6-7.95C349.47,263.87,348.2,261.44,349.49,258.88Z"/><path class="cls-10" d="M444.07,159.8c-4.76.77-6.85-.06-4.42-5.54,7.72-17.41,17.07-33.89,27-50.11,4.9-8,11.24-11.64,19.82-8.9,8.35,2.67,11.27,10.27,11.34,18.39A265.55,265.55,0,0,1,492,170.19c-.44,2.09-.37,5.85-2.82,5.41-3.13-.55-1.94-4.26-1.7-6.66,1.91-18.87,3.95-37.74,5.9-56.61a23,23,0,0,0-.05-5.38c-.34-2.42-1.7-4.88-4.12-4.91-2.85-.05-2,3.12-2.42,4.88-2.93,13.53-6.94,27-8.15,40.7-1.46,16.52-9.87,17-22.15,12.5,2.91-4.37,3.86-9.42,5.14-14.37a423.37,423.37,0,0,1,13.21-41c-6.51,6-10.07,13.84-14.32,21.24C454.24,136.84,450.67,149.06,444.07,159.8Z"/><path class="cls-11" d="M451.07,166c21.46.09,36.32,11,36.17,26.55-.14,14.73-17.51,31-33.07,30.94-14.66,0-26.79-15.73-26.9-34.82C427.16,170.45,431.92,165.91,451.07,166Z"/><path class="cls-12" d="M414.12,100.16c3.57.43,7.44-1.11,7.82,3.75.68,8.69,6.7,11.09,13.91,11.15,6.46,0,7.66,1.37,3.89,7.09s-6.56,12.19-9.8,18.32c-2.73,5.16-4.48,13.61-8.43,14.8-9.08,2.74-19.24,2.46-29,2.38-4.91,0-.84-3.37-.21-4.5,5.39-9.65,10.4-19.45,13.75-30,1.27-4,2.07-8.06.5-12.06C403.3,102.7,407.64,100.44,414.12,100.16Z"/><path class="cls-8" d="M375.32,100.13c.87,6.65-1.13,7.76-6.07,6.56-17.25-4.18-34.57-8.08-51.92-11.86-4.51-1-8.1-3.11-8.47-7.62-.41-5.1,4.88-3.29,7.43-4.28,16.42-6.33,30.75-15.65,42.5-28.67,4.13-4.57,6.06-3.92,8.33,1.4C373.41,70.4,374.13,86.09,375.32,100.13Z"/><path class="cls-13" d="M307.64,229.48c-12.65.06-23.75-1.76-28.94-14.37-5.9-14.35-2.91-27,7.86-38.18,10.3-10.68,22.93-11.76,36.35-8.92,4.36.92,4.06,4.44,2.44,8-6.62,14.72-8,30.12-5.84,46C321.17,234.18,311,226.89,307.64,229.48Z"/><path class="cls-14" d="M561.54,382.09c.55-11.76,15-21.47,26.35-17.71.72.24,1.8.51,2,1,5.17,13.28,8.82,1.06,12.54-1,5.18-2.84,9.91-6.49,16.17-6.36,3.4.07,6.23,1.46,6.55,5.16s1.37,8-3.87,9.52c-2.69.8-5.73,5-7.55-1.23-.69-2.36-2.81-1.52-4.35-.19-2.35,2-4,4.54-1.73,7.25,1.76,2.06,4.47,3.31,6.75,4.92,2.76,5.25,1.87,7.95-3.23,9.72-3.25,1.12-6.6.44-9.9.47-5-.51-8.34-3.24-10.15-7.86-.54-.58.41-1.84-.74-2.05-1-.18.38-.14-.42.59a9,9,0,0,1-4.49,3.92c-2.94.56-5.38.08-6.51-3.12-1-1.77,1.65-5.45-1.53-5.5s-2.82,4.18-4.12,6.48c-1.2,4.43-4.1,6.5-8.52,5.2C559.75,389.87,560.46,385.94,561.54,382.09Z"/><path class="cls-15" d="M386.59,420.85c.2,1.78.4,3.56.59,5.33q1.24-2.79,2.5-5.6c3.33,2,7.51,2.25,10.39,5.15-.25,9.27,1.68,19.18-7.63,25.77-22.89,10.18-12.15-8.34-14.36-17.85-1.85,6-3.92,10.64-4.58,15.44-1.22,9-8.7,8.84-14.68,11-3.18,1.13-2.69-1.57-2.53-3.06,1.26-12.12,2.68-24.23,4-36.34,2.07,4.15,5.31,6.51,10.07,6.57,1.52,2.24.17,4.24.07,5.79,2-1.73-.74-6.18,3-7.94C379.16,427.79,382.55,423.32,386.59,420.85Z"/><path class="cls-16" d="M397.62,174c5.83-1.23,6.95,2,5.9,7.48-2.16,11.36-4,22.87-2.67,34.37.51,4.3,4.28,8.21,6.56,12.3-5.33-.57-7.07-7-11.68-7.83-7.9-1.46-14.83,3.42-22.24,5.21-6.87,1.66-9.05,0-8.28-6.74s.89-13.82,2-20.62C370.93,175.91,372.68,174.61,397.62,174Z"/><path class="cls-17" d="M279.56,268c-23.38-.39-41.21-18.3-41.38-41.34-.21-29,12.77-48.69,38-57.44,2.75-1,7.08-3.43,8.21-.54,1,2.64-3.21,5.39-6.36,6.52-13.12,4.71-22,13.95-28,26.12-11.21,22.8-4.42,57.44,27.47,60,3.24.26,7.61.78,7.66,4.89C285.21,269.16,281.41,267.47,279.56,268Z"/><path class="cls-18" d="M69.38,485.42c1.2-8.86,2.49-17.7,3.56-26.57.81-6.72,6.26-7.6,10.72-6.89,5.9.93,1,5.55,1.33,8.47.42,4.26-5.5,11.06.46,12.25,6.8,1.36,3.61-7.29,5.42-11.27,1.25-2.73,1-6.12,2.15-8.93,1.85-4.61,6.85-5.3,10.42-4.7s1.17,4.7.7,7.14c-2.11,10.79-4.47,21.54-6.73,32.31-6.1,4.66-6.48,4.57-10.2-1.76-1.78-3-4.13-2.78-6.62-.82-.6,1.88-1.2,3.77-1.81,5.65-1.58,2.82-3.44,5.67-7.17,3.84S68.45,488.76,69.38,485.42Z"/><path class="cls-19" d="M364.21,238.27c-5-8.6-17.5-8.35-30.82-5.6-3.65.75-4.7-2-5.38-5.08-2.88-13-2.33-26,.54-39,1.79-8,6.09-11.4,14.63-10.59,7.34.7,17.56-3.1,21.52.52,4.49,4.11-2.21,13.39-2.56,20.64C361.43,214,353.71,229.7,364.21,238.27Z"/><path class="cls-20" d="M431.71,422.39v17.47l1,.18,5-24c2.33,3.61,6.69,4.27,9.83,6.71-2.34,21.42-4.43,23.5-25,26.56-5.75.86-2.93-3.14-3.59-5.25s2-5.44-2.35-6.05c-3.64-.51-4.67,2.46-4.79,4.74-.4,7.26-5.74,8.81-11.11,10.55-3.52,1.77-4.63-1.12-4.15-3.12,2.49-10.3,3.22-21.1,8.32-30.67,4.38,0,6.81,5.3,11.57,4.19,1.94-1.92,1.83-1.94,2.23-5.36.34-2.8-.72-6.5,3.89-7C424.7,415.79,425.75,421.11,431.71,422.39Z"/><path class="cls-10" d="M302.93,79.83c-3.11,2.48-6.69,1.2-10.11,1.28.53-3.19.44-6.64,1.66-9.54,9.38-22.18,26.1-36.2,48.9-43.55,5.71-1.84,7.52,2.25,9.62,5.4,2.69,4,7,8.44,1.77,13.6s-10.69,10.2-16,15.3c-4.31-4.08-6.84-9.51-10.69-14-2.37-2.73-4.88-3.93-7.86-1.32a63.81,63.81,0,0,0-18.05,25.34C301.11,75,302.17,77.41,302.93,79.83Z"/><path class="cls-21" d="M491,510.06c-7.83,1.43-13.08-2.52-18.34-7.63a266.29,266.29,0,0,1-28.89-33c-1.24-1.68-4.94-3.84-1.5-6.24,2.41-1.69,5.62-4.66,8.91-1.19a429.25,429.25,0,0,0,49,44.52c.66.5.89,1.56,1.32,2.36Z"/><path class="cls-22" d="M295.56,389.85c.55-8,.6-12.55,12.53-9,25.08,7.48,50.3,3.13,74.27-7.28,5.65-2.45,11-5.57,16.68-8,2.61-1.12,5.87-3,7.86,1.31,1.21,2.61,2.84,5.73.71,7.92-3.09,3.18-3.72-2.05-5.85-2.49-1.36-.28-3.79-.34-4.17.36-8.37,15.21-26.33,6.69-36.87,14.74s-20.62.43-30.76,2.33c-4.83.9-10.17-.57-15.21-1.38s-10.33-3.58-10.7,5.23c-.1,2.24-2.84,2.79-5,2.3C295.76,395.16,295.57,392.52,295.56,389.85Z"/><path class="cls-23" d="M304.74,433.19c-.3,7.84-.68,15.67-.83,23.52,0,2,.69,4.06,1.06,6.09.49-1.85.95-3.71,1.46-5.55.39-1.41.86-2.81,1.3-4.21,4.39,6.48,7,2.27,9.74-1.58,2.23-.3,3.12,2.12,5,2.47,2.08,1,4.39,1.66,5.47,4-8.29,12.81-22.68,10.72-34.82,13.8-3.07.78-1.62-3.46-2.16-5.44s2.06-5.12-1.55-5.66c-3.33-.5-4.76,2-5.35,5.18-.4,2.19-1,5.22-2.56,6.16-3.18,1.92-7.65,4.42-10.51,3.47-3.44-1.16.57-5.13.51-7.92a32.77,32.77,0,0,0-.84-5.06c-3.23-3.89-3.35-7.69.37-11.36.69,2.59,1.39,5.18,2.08,7.77,1-2.86,1.88-5.73,2.88-8.58.75-2.12,1.59-4.21,2.4-6.32,2.47,2.89,5.58,3.52,9.13,2.56,3.27,1.76,3.72-4.2,7-2.55,4.15,3.24,5.69,1.42,6.39-3C301.36,438.07,299.8,434,304.74,433.19Z"/><path class="cls-24" d="M447.55,422.76c-5.15.48-10.77,1.67-9.83-6.71.93-6.87,1.89-13.72,2.77-20.59,1-7.49,7.94-6.64,12.48-8.11,5-1.63,11.38-4.79,16,.24,3.59,3.9,2.34,9.45.09,13.87a53.46,53.46,0,0,1-8.22,11.93c-2.41,2.62-3.76,4.66-1.58,7.84-1.08,5.48-4.43,6.13-9,4.21Z"/><path class="cls-25" d="M145.62,475.37l-.47,8.81c-.87,2.35-1.23,5-3.72,6.42-2.33,1.36-4.82,2-7.27.73s-2.16-3.7-1.36-6V475.09c-3,8.23-4.77,13.45-6.73,18.6-1.56,4.11-2.06,10.23-8.44,8.63-5.84-1.46-1.94-6.72-2.25-10.27s-.06-6.87-.06-12.3c-1.74,4.72-2.82,7.68-3.91,10.63-3.11,4.35-6.54,6.34-10.9,1.49q3-10.9,6.07-21.79c7.54,5.06,11.43,4,15.83-4.36.61-1.16,1.32-2.23,2.93-1.54.7,1.15-.79,4.55,2.8,2.71,5.88,1.22,12.25-1.47,17.83,2.21C146.16,471.21,146.4,473.32,145.62,475.37Z"/><path class="cls-26" d="M302.93,79.83c-5.34.41-5.09-2.33-3.75-6.17,4.19-12,11.87-21.45,21.21-29.8,2.43-2.18,4.35-2.34,6.41.27,4.49,5.73,11.05,10.1,11.91,18.19A144.57,144.57,0,0,1,302.93,79.83Z"/><path class="cls-27" d="M244.32,450.07c.62-5.83,1.55-11.64,1.78-17.48.48-11.72,10.45-9.89,17.33-12.36,4.7-1.7,9.73-1.39,12.23,3.33,3.6,6.8.28,12.78-4,18.23-1.38,1.75-2.67,3.58-4,5.37,1.9,4.07-1.21,4.89-3.87,5.31-2.48.39-5.06,0-7.16,1.83a14.48,14.48,0,0,1-4.42,2.31C247.56,456.81,242.28,457.79,244.32,450.07Z"/><path class="cls-28" d="M521.19,397.47c3.6-8.52,7.83-16.68,15-22.75,4.29-3.63,9.13-7.56,15.13-5.06,7.57,3.15,6.64,10.64,7.25,17.13,1.95,6.57.21,12.06-4.8,16.62-4.76,1.41-7.46-.41-8.22-5.24-.77-2.49.91-6.48-2.56-7.24s-5,2.76-6.75,5.28c-2.85,4.14-2.67,10-7.48,13-4.44,1.66-8.55,2.32-10.71-3.32A8.28,8.28,0,0,1,521.19,397.47Z"/><path class="cls-29" d="M310.92,434.7c3-8.67-2.9-21.12,11.72-24.82,15-3.8,23,3,20.25,18.34a98.4,98.4,0,0,1-2.73,9.54c-6.61,4.76-8.93,3.81-11.29-4.64-.84-2.17,1.2-5.87-1.71-6.39-1.56-.28-1.52,3.79-2.11,5.91-1,3.61-1,7.63-4.42,10.22-2.71,1.71-5.68,3-8.52.87C309,441.31,310,437.9,310.92,434.7Z"/><path class="cls-30" d="M444.07,159.8c5.77-21.51,16.83-40.45,28.91-58.88,1.36-2.08,3.59-2.11,5.43-1.1.54.3.39,2.7-.09,3.87-6.95,16.87-13.07,34-16.68,51.94-.63,3.14-2.33,4.27-5.16,4.49Z"/><path class="cls-31" d="M599.94,391.77c5-2.48,15.66,5,14.46-8.28,8.89,6.41,7.21,14.82,2.91,22.35-5.09,8.9-12.89,14.63-24.19,12.19-2-.42-4.48-2.53-5.6-1.88-18.65,10.75-12.16-7.82-16.36-13.81,3.73-.17,7.45-.41,11.16-.87,3,2.31,5.66,6.69,9.68.94,1-1.42,3.36-.56,5.13-.26,2,.34,4.28,1.22,5.68-.8,1.69-2.44-.44-4.24-1.73-6.06A4.74,4.74,0,0,1,599.94,391.77Z"/><path class="cls-21" d="M325.22,509.65C310,513.32,299,502,286.76,493.92c-.83-.56-1.09-2-1.62-3,.92-.31,1.85-.6,2.76-.93,22.72-8.33,37.46,9,55,17.13.58.26.92,1,1.37,1.59a10.41,10.41,0,0,1-2.82.87C336.62,509.69,331.74,509.65,325.22,509.65Z"/><path class="cls-32" d="M349.49,258.88c9.4,14.69-3.45,21-11.29,28.81-4,4-9.14,6.9-13.77,10.3-1.83-6.8-4.19-13.53-5.2-20.45-.34-2.37,2.72-5.23,4.22-7.86C332.92,268,342.36,266.2,349.49,258.88Z"/><path class="cls-33" d="M287.62,447.06c-1.87,2.18-3.94,4-7.11,2.8-2.95-1.11-1.4-3.92-2.08-5.89,3.59-12.07,1.51-27.46,20.67-29.61,6.73-.75,8-.09,7.09,6-.63,4.27-1,8.57-1.45,12.86-2.68,2.8-1.63,6.34-1.52,9.51.14,4.21-1.58,5.88-5.55,6.53-5.43.88-2.72-3.64-4-5.48-3-3.81-.92-7.76-.38-12.88C291.57,437.12,293.49,443.57,287.62,447.06Z"/><path class="cls-34" d="M263.81,509.71c-7.2,0-14.41-.28-21.59.09a7.86,7.86,0,0,1-8.62-7.08c-.49-4.54,4.55-3.24,7.53-3.71,3.3-.51,7.26.12,9.81-1.5,16.21-10.32,26.79,1.64,38.54,9.12a9.94,9.94,0,0,1,1.8,2.13,15.5,15.5,0,0,1-3.56.9C279.75,509.74,271.78,509.7,263.81,509.71Z"/><path class="cls-35" d="M150.08,476.42c1.61-10.89,3-21.83,5-32.66,1-5.69,21.51-10.68,27.51-7.05,1.15,1.5.31,2.63-.67,3.75a24.75,24.75,0,0,1-10.1,7.75c-5.14,2.33-5,6.64-.15,9.36,5.41,3.05,5.32,8.83-.28,12.2-2.36,1.42-5.39,1.67-7.22,4.06C158.52,482.28,154.94,482.93,150.08,476.42Z"/><path class="cls-36" d="M431.71,422.39c-12.27,4.11-8.32-5.74-9.6-11.09-3.62.36-2.08,3.52-2.67,5.34-.85,2.62-.5,5.68-3.52,7.23-5.8,3.86-9.16,3-9.08-4.64-2.59-3.08-.76-5.43,1.3-7.73,1.71-12.63,11.25-21.19,23.07-20.75,3.09.12,2.93,2.16,2.76,4.29Q432.83,408.7,431.71,422.39Z"/><path class="cls-37" d="M38.41,485.37c3.82-10.81.56-25.13,18.52-28.23,9.56-1.65,9.78.42,8.52,7.72a84.64,84.64,0,0,0-.64,8.45c-1.82,4.2.42,8.83-1.35,13-2,2.94-4.87,3.35-7.91,2.14-3.44-1.37-3.65-4.36-3.18-7.5.75-2.54-1.08-5.72,1.88-7.74-3.07,1.86-1,5.08-2,7.48-1.53,3.68-1.45,8.12-5.1,10.82C42,492.66,37.69,492.55,38.41,485.37Z"/><path class="cls-38" d="M437.8,374c-1.66-.65-4.27-.87-4.74-2C426.47,356.26,414.83,342,418,323.34a19.51,19.51,0,0,1,1.71-4.09,26.67,26.67,0,0,1,2.39,3.69A241.29,241.29,0,0,0,446,365.72c1,1.39,3.06,3.32,1.21,4.54C444.52,372,441.12,372.72,437.8,374Z"/><path class="cls-22" d="M555.67,113.92c-3.39,25.7-7.28,51.46-14.38,76.61-.85,3-1.72,8.08-5.4,7.42a65.16,65.16,0,0,1-18.61-6.75c-2.16-1.14,1.07-2.09,2.16-1.88,17.86,3.55,18.48-10.77,21.55-21.44,5.22-18.18,9-36.71,10-55.72.12-2.3,1.8-4.51,2.76-6.77C557.3,107.57,554.55,111,555.67,113.92Z"/><path class="cls-39" d="M582.3,402.2c-3.68,2.71-7.37,4.37-11.14.14-5.07,3-4.14,8.65-4.33,12.88-.29,6.6-5.42,9.69-9,9.3-8.69-1,.33-7.59-2.23-11.09a103.94,103.94,0,0,1,4.26-26.67c.54-1.55,1.09-3.11,1.63-4.67.47,3-.53,6.69,4,7.79,5.48,1.32,4.65-3.92,6.74-6.11,2.61,1,5.12-.8,7.71-.33.5,3.87,3.43,3.39,6.1,3.4C586.74,392.42,581.15,396.48,582.3,402.2Z"/><path class="cls-40" d="M38.41,485.37c.81,5.76,5.15,5,9.12,4.89,2.77.27,2.28-1.83,2.85-3.49.87-2.56-.49-6.35,3.61-7.35,0,6.53,1.54,10.72,9,6,2.09,4.25,1.15,8.62.47,13l-.24,4.32c-5.48,6.49-8.46,6.49-12.31,0-5-.87-7,1.74-7.54,6.33-.35,3.18-1.2,6.16-5,6.93-2.71.55-6.34,2.37-7.94,1.27-2.79-1.91.39-5.09,1-7.61C33.47,501.47,36.05,493.45,38.41,485.37Z"/><path class="cls-41" d="M474.86,89c-1.07,0-3,.28-3.1,0-3.88-11.59-5.9-24-1.57-35.17,3.05-7.9,12.95-4.91,20.22-4.89,3,1,2.61,3.72,3,6.05,4.06,10.83,3.25,22.21-.52,32.3-2.16,5.8-10.63-.07-16.12,1.37,6.6-9.63,2.21-20.65,3.88-30.91a1.93,1.93,0,0,0-2.29-2.33c-2.48.28-4.44,1.34-5,4-1,5.06-.68,10.15-.07,15.22C473.87,79.39,475,84.12,474.86,89Z"/><path class="cls-42" d="M547.52,395.9c-.14,4.42,1.33,7.25,6.44,6.46a2.34,2.34,0,0,1,0,3.18c-4.06,8.35-8.86,16.15-16.67,21.57-4.23,2.93-8.86,5.82-14.1,3.06-6.8-3.57-6-10.59-6.66-16.85-.6-3.33-1.61-6.83,3.28-7.87,2.29,5.69,6.11,2.31,9.47,1.58,2.7,1.33.89,6.91,5.35,6.2,3.54-.56,4.89-4,6.71-6.79C543.65,403,542.35,397.58,547.52,395.9Z"/><path class="cls-43" d="M428.18,57.86c-9.13,5.57-19.28,4.3-29.24,4.3-1.76,0-4.13.36-5.19-.59-3.75-3.36-7.06-7.21-10.54-10.88,3.94-2.81,8.38-1.09,12.55-1.21,10.28-.29,20.58-.15,30.87,0,2.82,0,6.69-1.21,6.61,3.92C432.46,55.86,432.16,58.91,428.18,57.86Z"/><path class="cls-23" d="M238.21,462.54c.24,3,.49,6,.74,9.08l3.66-11.08c5.74,6.75,7.2-1.07,10.38-3.05,2.77,1.35,5.78,1.34,8.76,1.5,2.56,1.67,5.47,2.83,7.62,5.11-5.69,11.24-16,15.06-27.48,17-2,.34-4.44-.59-6.12.21-11.48,5.5-12.18-.39-10.23-9.33,1.82-3.34,7.06-1.24,8.4-5.32C235.11,465,235.06,462.1,238.21,462.54Z"/><path class="cls-17" d="M315.51,263.32c-23.25.09-43.67-19.67-43.2-41.84,0-1.51-1.29-3.94,1.32-4.36.69-.11,2.12,2,2.6,3.37,2.07,5.75,3.15,12,6,17.3,7.53,14.22,22.06,20.39,40.13,17.63,4.3-.66,10.12-3.07,10.77,2.78.49,4.43-6.22,3.95-9.92,5C320.8,263.86,318.08,263.32,315.51,263.32Z"/><path class="cls-44" d="M212,454.79c1.2-4.09,3.24-8.15,3.44-12.3.67-14,11.53-14.78,21.27-17,4.68-1.07,3.46,2.12,2.84,4.63-1.58,5.16.45,10.59-1.15,15.75-.05,1.44-.11,2.87-.16,4.31-1.79,2.94-3.19,6.74-7.68,5.62s-3.1-5.49-4-8.48c-1.43,2.92-1.48,6.33-3.7,8.85C218.84,458.92,215.06,459.63,212,454.79Z"/><path class="cls-45" d="M412,84.16c-10.47,3.32-17-2.34-16.79-14.15.13-8.36,7.82-3.14,12-4,12.91-2.79,17.42,6.93,21.93,15.92C430,83.74,429.16,84.15,412,84.16Z"/><path class="cls-46" d="M470.12,420.48l4.5-26.39c2.76,2.32,4.62,6.12,9.14,5.5,7,1.5,7.32-5.95,11.34-8.43,4.13.24,4.24,4.34,6.33,6.55.13,7.58-13.24,10.87-6.58,20.54-3.8,5.51-5.42,5.67-10.5,1.05-1.09-2.84-2.19-2.84-3.28,0-.91,3.71-1.71,7.75-6.75,7.42C470.66,426.49,469,424.25,470.12,420.48Z"/><path class="cls-47" d="M324.15,107.72c13.22,4.19,26.3,7.39,38.56,12.53,9.63,4,16.06,1.62,22.3-5.45,1.24-1.4,2.67-5,5.24-2.46,1.21,1.17,1.57,4.88.61,6.32-5.72,8.58-10.45,18.29-24.4,10.72-12.79-6.94-26.81-11.6-40.22-17.43-1.44-.63-2.38-2.43-3.56-3.68Z"/><path class="cls-48" d="M442.64,61c-2.08-7.09-4.42-14.13-6.11-21.32-.61-2.56-4.11-6.89-.33-7.8,4.36-1.06,10.42-2.36,13.79,3.3a59.16,59.16,0,0,1,3.18,7c4.21,9.71,13.44,21.22-7.81,21.89C442.4,64.89,443.83,61.79,442.64,61Z"/><path class="cls-49" d="M181.13,439.41c.48-.9,1-1.8,1.42-2.7,7.09-3.79,14.85-7.68,22.27-2.92,8.53,5.48,4.33,14.69,4,22.55-2.45,4.2-6.05,4.24-10.06,2.79a3.85,3.85,0,0,1-1.94-2.71c-.59-2.74,1.8-5.74-.7-8.3-1.73-.93-2.89.12-4.07,1.14-8.46,6.28-12,5.21-13.11-3.95C179.52,443.29,179.48,441,181.13,439.41Z"/><path class="cls-50" d="M197.85,457.86l11-1.52a45,45,0,0,1-16.74,28c-3.57.41-6.66,2.45-10.19,3-4.88.75-8.67-.21-9.29-6a32.56,32.56,0,0,1,3.16-16.88c4.45-.58,8.87-1.44,13.35-1.87,2.3,3.17.14,6.46.24,9.21C192.85,467.83,191.34,460.49,197.85,457.86Z"/><path class="cls-51" d="M174.59,480.78c.39,6.08,4.19,5.64,8.13,3.91,3.19-1.41,6.14-2.68,9.37-.34-5.18,6.11-12,8.66-19.8,8.88-1.48-1.89-3.14-3.17-5.58-1.5a23.46,23.46,0,0,0-3,.39c-5.52,1.42-13.4,7.2-15.87,3.7-3.45-4.9-.29-13,2.27-19.4,6.84,5.66,9.71,1,12.22-4.66,1.38,5.18,4.29,8.75,9.82,10C173.47,482,173.39,480,174.59,480.78Z"/><path class="cls-52" d="M145.28,468.62c-5.84.63-12,4.26-17.14-1.73,4.08-9.66,2-22.85,16.44-26.51,5.7-1.45,6.07.48,5.38,4.92-1,6.26-1.87,12.55-2.8,18.83C145.29,465.11,147,467.56,145.28,468.62Z"/><path class="cls-53" d="M125.34,464.18c-1.91,5.39-2.19,11.2-10.86,11.62-5.66.27-7.57-.54-7.9-5.72,3.72-7.77-.47-19.22,12.13-23,9-2.68,11.09-.82,8,7.72-1.66,2.93.36,6.37-1.31,9.3Z"/><path class="cls-54" d="M501.43,397.71c-4.55.36-4-4.29-6.13-6.25-4.55,2.07-7.17,6.44-11.06,9.31-6.85,3-9.69.26-9.62-6.68-1.66-10,6.12-11.21,12.62-12.84,5.39-1.36,12.05-5.18,16.27.95C506.8,387,505.68,393,501.43,397.71Z"/><path class="cls-55" d="M484.35,419.3c3.78,2.36,7.25,1.73,10.5-1.05,3.91.16.94,9.28,6.48,5.66,2.37-1.55,2.13-7.08,3.07-10.8,3.72-1.2,7.17-3.47,11.35-2.78a3.28,3.28,0,0,1-.24,3c-2.93,6.6.7,16.17-7.28,20.18C494.76,440.31,487.09,435.35,484.35,419.3Z"/><path class="cls-56" d="M474.86,89c-5.83-10.61-5.45-22.09-3.3-33.28.77-4,6.76-4.66,10.69-3.77,4.36,1,1,4.61,1.07,7,.08,6.66-.65,13.37.05,20,.61,5.72-.31,9.25-6.64,9.69Z"/><path class="cls-57" d="M212,454.79a9.57,9.57,0,0,0,10.6,0c.91.58,1.06,1.73,1.68,2.41,1,1.07.81-.43.75-.67-1.15-4.77,2.85-9.23.83-14,.5-1.3,1-2.6,1.51-3.9,2.86,1.39,1.33,4,1.71,6.11.57,3.15-1.75,7.38,1.51,9.31s4.81-3,7.65-3.84l0,12.37-1.77,6.17c-7.15,2.81-15.37,1.28-22.16,6.63-3,2.36-6.86-.24-5.6-5.4Q210.33,462.37,212,454.79Z"/><path class="cls-58" d="M498.29,237.1a6.57,6.57,0,0,1-1.54,0c-3.63-1-7.26-2-10.88-3,2.73-3.5,6.46-1.07,9.69-1.56,15-2.3,25.24-10.31,30.72-24.53.87-2.25.33-6.86,4.47-5.8,4.38,1.13,3.08,5.16,2.35,8.42C529.4,227.11,516.26,237.11,498.29,237.1Z"/><path class="cls-59" d="M515.15,410c-2.54,4.66-6.3,5.05-10.75,3.08C506,403,507.47,393,509.3,382.92c1-5.59,7-6.22,10.35-6.05,4.3.2,1,4.93,1.14,7.62.17,2.22-.7,4.51-1.11,6.77C518.05,397.48,520.47,404.69,515.15,410Z"/><path class="cls-60" d="M422.55,185.13c0,4.87-.33,9.53.09,14.11.53,5.77-8.88,15.08-14.8,14.31-3.29-.43-2.41-3-2.32-4.72.43-8.72,1.54-17.42,1.53-26.13,0-9.22,6.34-11.06,12.6-9.83C427.69,174.45,419.41,181.48,422.55,185.13Z"/><path class="cls-61" d="M470.12,420.48c4.85,10.71,7.67,2.6,10.95-1.18-1.67,7.71,1.48,18.81-10.06,20.23-5.28.65-12.57,3.32-15.65,1.29-3.54-2.32-3.55-10-5.09-15.38,3.2-1,6.91-.86,9-4.21.42.27,1,.43,1.24.82,2.05,3.75,4,7.55,6,11.33Q468.32,426.93,470.12,420.48Z"/><path class="cls-62" d="M100.51,491.87c3.94,1.75,7.48.59,10.9-1.49-1.75,13.61-13.53,21.22-25.55,15-4.56-2.34.07-9.07.33-13.79.23-4.31,2.5-9.58-5.6-7,2-3.12,6.15-3.19,6.78-.79,1.89,7.19,6.12,4.12,10,3.37.14,2.55.27,5.11.41,7.67Z"/><path class="cls-63" d="M399.23,425.5c-3.76-.54-9.14,2.07-9.55-4.92,3.4-8.18-1.83-20.23,10.85-24.23,2.12-.67,4.37-1,6.55-1.41-.44,2.07-1,4.13-1.31,6.22-.3,1.76-.41,3.55-.6,5.33C404.28,413.17,405.8,420.59,399.23,425.5Z"/><path class="cls-64" d="M370.19,427.32c-8.67,5.74-9.92.52-9.85-6.65,1.66-6.25-3.94-14.65,7.38-18.05,7.6-2.28,7,.61,6.48,5.59C372.43,414.49,375.52,421.78,370.19,427.32Z"/><path class="cls-65" d="M386.59,420.85c-3.19,1.33,1,8.64-5.34,7-2.33-.6-6.94,3.86-7.07-2.62-2.48-3.58-1.37-6.59,1.51-9.31.85-3.17,2.11-6.3,2.47-9.53.59-5.27,4.4-7.39,8.36-6.73,4.11.69,1.51,5.1,1.52,7.71C388.06,411.84,387.13,416.35,386.59,420.85Z"/><path class="cls-66" d="M413,259.32c0,3.19.09,5.5-3.56,5.1-6.95-.75-10.29-4.15-10.35-11.46-.05-5.62,2.07-10.08,7.38-9.28C416.66,245.22,408.32,255.48,413,259.32Z"/><path class="cls-66" d="M303.38,160.8c-5-7.27-16.72,4.4-19.89-7.62-.61-2.32.6-9.38,4.85-7.74,7.73,3,14.69,8.15,21.45,13.12C310.45,159.05,305.88,158.94,303.38,160.8Z"/><path class="cls-67" d="M478.62,36.24c9.54.16,18.21,2.81,25.72,8.74.88.7,1.33,2,2,3a22.49,22.49,0,0,1-3.48-.78c-8-3.1-16-5.35-24.7-3.78-2.89.53-5.84.73-8.75,1.07-.09-1.73-.75-3.69-.16-5.16C471,34.72,475.35,36.89,478.62,36.24Z"/><path class="cls-68" d="M428.18,57.86l5.06-4.51c4.4,7.93,2.34,16.26,1.48,24.51-.16,1.48-1.22,4-2.2,1.61C429.68,72.66,416.56,67.54,428.18,57.86Z"/><path class="cls-69" d="M69.38,485.42c.26,7.14,2.45,10.56,9.4,4.88-.55,7.83,1.78,16.73-9.12,20.21-4.19,1.33-5.34.45-4.64-3.42C66.34,499.84,67.91,492.64,69.38,485.42Z"/><path class="cls-70" d="M330.86,431.41c-.18,6.89,2.63,9.43,9.3,6.35A42.14,42.14,0,0,1,328,457.93l-6.33-3.41C322.55,446,324.63,437.86,330.86,431.41Z"/><path class="cls-71" d="M493.37,55c-1-2-2-4-3-6.05C509.87,53.08,514.49,61,509,82.32c-1.58,6.13-1.32,13.26-7.13,17.8-3.18-6.84,2.45-11.8,4.09-17.51,3.08-10.81,6.6-21.16-7.1-27.36C497.12,54.48,495.32,52.59,493.37,55Z"/><path class="cls-50" d="M208.68,469.94c.57,3.72,2.3,5.85,6.09,3.43,6.69-4.27,14.12-4.63,21.68-4.66-2.82,3.83-7.06,2.89-10.91,3.25-3.31-.14-6.72.4-7.15,4.21-.86,7.6-6.49,12.56-12.07,10.27-5.43-2.23.84-9,1-13.89C207.3,471.67,208.19,470.81,208.68,469.94Z"/><path class="cls-72" d="M288.71,117.85c3.79,5.55,10.57,7.39,11.62,14.11.33,2.08.29,5.7-3.11,4.49-5.88-2.09-12.58-3.82-15.75-9.6C280.81,125.65,285.78,121.38,288.71,117.85Z"/><path class="cls-73" d="M399.23,425.5l5.94-19c.45,2-.22,4.64,3,5-.43,2.58-.87,5.15-1.3,7.73q-4.39,15-8.77,29.95c-.65,2.27-.31,4.08,2.65,4.13-3.75,3.92-5.26-2.37-8.28-1.81C396.82,443.38,397.85,434.4,399.23,425.5Z"/><path class="cls-70" d="M310.92,434.7c-.27,7.29,2,10.78,9.53,6.32,2.78,4.19,3.09,7.93-1.94,10.71-2.47,2.64-.09,9-6.29,8.63-4.46-.27-4.44-4-4.49-7.32Q309.32,443.88,310.92,434.7Z"/><path class="cls-74" d="M442.64,61l2.72,3c-1,7.84-1.61,15.76-3.11,23.5C441,93.86,439.4,99.5,449.3,98c.73-.11,1.61.82,2.41,1.27-.39.6-.75,1.7-1.17,1.72-4.06.2-8.44,1.19-12.12,0s-.73-5-.44-7.43C439.29,82.73,441.05,71.89,442.64,61Z"/><path class="cls-75" d="M530.53,48.71c.46,3.58-.23,6-5.06,6-4.38,0-6-1.5-5.58-5.75.33-3.8-.26-8.13,5.47-8C530.45,41,530.56,44.78,530.53,48.71Z"/><path class="cls-57" d="M269.37,464.1c-3.39-.11-7.26.63-7.88-4.41a20.66,20.66,0,0,0-6.29-8.08c3-4.67,10.54,3.33,12.41-4.45l3.46,3.94q-.18,5.67-.37,11.36C270.26,463,269.82,463.56,269.37,464.1Z"/><path class="cls-51" d="M132.8,485.34c.44,2.1.08,4.85,3.42,4.83,4.26,0,6.64-3,8.93-6,.22,4.53,1.18,9.58-3.45,12.37-2.71,1.63-8.62,3.2-9.12,2.39C130,494.75,130.86,489.87,132.8,485.34Z"/><path class="cls-57" d="M253.43,457.89c-2.68,2.6.55,9.12-6,9.11-4.34,0-4.45-3.4-4.85-6.46l1.71-10.47c.4,7,5.84,4.1,9.45,4.77A2.09,2.09,0,0,1,253.43,457.89Z"/><path class="cls-47" d="M544.61,54c.36,3.73-.43,5.7-4.42,5.91-5.49.28-5.46-3.48-5.93-7s1.34-4.54,4.57-4.42C542.79,48.59,545.49,49.72,544.61,54Z"/><path class="cls-69" d="M51,502.72c4.11,5.24,8.21,2.1,12.31,0,3,9-3.85,10.07-9.66,11.55C51,514.91,50.87,514.37,51,502.72Z"/><path class="cls-76" d="M556.05,57.32c.11,2.4.17,5-3.18,4.88-3.74-.1-5.48-2.34-5.15-6.08.21-2.33-1-5.55,3.37-5.3C554.18,51,555.92,53.25,556.05,57.32Z"/><path class="cls-77" d="M375.69,415.89c-.5,3.1-1,6.21-1.51,9.31-1.19,3.06-2.37,6.11-4,10.26v-8.14q2-9.56,4-19.11C374.7,410.77,375.19,413.33,375.69,415.89Z"/><path class="cls-78" d="M554,405.54c0-1.06,0-2.12,0-3.18l4.65-15.57a9.37,9.37,0,0,0,1.3,0l-4.26,26.67C555.1,410.8,554.56,408.17,554,405.54Z"/><path class="cls-79" d="M559.91,59c.4-1.59-1.11-4.75,1.79-4.82,3.39-.08,4.54,3,4.37,6.06-.1,2,1.12,5.32-2.8,4.93C559.82,64.85,559.91,61.87,559.91,59Z"/><path class="cls-80" d="M197,510.11c-2.26-.25-5.37.55-5.59-2.47-.2-2.78,2.86-3.22,5-3.41,2.69-.23,5.64,1.15,5.73,3.75C202.2,511.5,198.65,509.38,197,510.11Z"/><path class="cls-81" d="M515.15,410l4.53-18.77c.5,2.07,1,4.14,1.51,6.21q-.66,4-1.33,8c-1.09,2.63-2.18,5.25-3.28,7.88l-.53.05h-.54Z"/><path class="cls-82" d="M505.78,473.59c-3.19-4.19-6.41-8.37-9.54-12.6-.34-.46-.18-1.29-.25-1.95.65.25,1.48.33,1.91.78,3.27,3.44,6.46,6.95,9.67,10.43Z"/><path class="cls-83" d="M196.57,67.23c-3,6.22-8.38,9.61-15.68,12.93l13.8-14.78Z"/><path class="cls-69" d="M63.5,498.37q-.24-6.48-.47-13,.88-6.06,1.78-12.1Q64.16,485.84,63.5,498.37Z"/><path class="cls-84" d="M507.36,481.13c.5-.9,1-1.79,1.51-2.68,2.36,1.95,4.25,4.15,4,7.49Z"/><path class="cls-57" d="M238.4,445.86c0-5.28-1.48-10.66,1.15-15.75C239.55,435.39,240.63,440.75,238.4,445.86Z"/><path class="cls-51" d="M145.28,468.62q.93-2.25,1.88-4.49-.78,5.61-1.54,11.24Q145.44,472,145.28,468.62Z"/><path class="cls-25" d="M125.36,464.12c-.08-3.17-1.07-6.47,1.31-9.3Q126,459.47,125.36,464.12Z"/><path class="cls-85" d="M166.71,491.73c2.34-1.27,5.21-4.53,5.58,1.5Z"/><path class="cls-8" d="M351.82,370.18c-8,2.95-9.43.72-10.44-3.67-3.38-14.72-7.12-29.36-11-43.95-.88-3.3-.08-5.39,2.27-7.43,7.95-6.88,16-13.72,23.77-20.76,3-2.74,3.72-2.32,4.26,1.67,2.87,21.54,7.28,43,8.57,64.6C370.06,374.58,354.92,366.59,351.82,370.18Z"/><path class="cls-86" d="M332.74,130.48c-6-4.87-5.84-4.78-11.92,4.69-1.53,2.38-1.67,7.58-6.39,5.79-3.78-1.43-3.95-5.31-3.79-9.17.79-19.32.69-19.3,17-9.43,4.16,2.51,8.54,4.66,12.65,7.26,2.4,1.53,7.72,2.11,6.38,5.13-1.57,3.55-5-1.75-7.93-1.1l.09,0-6.12-3.25Z"/><path class="cls-87" d="M349.8,142.76c-3.67,7-7.05,13.62-10.65,20.1-.36.64-2.8,1-3.12.61-.83-1.06-1.78-2.94-1.36-3.93,2.71-6.36,5.8-12.56,8.71-18.84.84-1.83,2.18-2.21,3.66-1.17A17.28,17.28,0,0,1,349.8,142.76Z"/><path class="cls-88" d="M338.74,133.65c4.28,9.34-3.85,14.26-7.55,20.73a2.76,2.76,0,0,1-2.65.27c-.81-.74-1.82-2.55-1.47-3.07,3.95-5.94,4.6-14.07,11.76-17.89Z"/><path class="cls-89" d="M332.71,130.44c-2.38,5.05-4.65,10.15-7.24,15.09-.58,1.09-2.2,1.85-3.5,2.24-.48.14-2.17-1.55-2-1.9,1.94-4.88,4.09-9.67,6.21-14.48,1.69-3.85,4.42-.42,6.59-.91Z"/><path class="cls-90" d="M473.08,179.17a14.06,14.06,0,0,1,.35-1.7c1.92,1.53,4.5,2.69,5.66,4.67,4.68,7.94,4.93,16.34-.51,23.88-6.42,8.9-15.38,13.67-26.63,11.69-9.22-1.63-14.85-7.7-17-16.7-.77-3.18-.76-6.55-1.1-9.84,2.3,1.74,4.43,3.76,6.92,5.15,7.58,4.22,15.3,3.49,22.69-.46C469.09,192.84,473.45,188.66,473.08,179.17Z"/><path class="cls-91" d="M445.93,171.57c5.62.13,12.28.07,11.63,6.36-.78,7.61-8.92,8.41-15,9.28-5,.73-8.79-2.09-8.83-8.07C433.66,169.05,441.89,173.36,445.93,171.57Z"/><path class="cls-92" d="M425.52,125.61c-3.72,6.76-7.07,13.09-10.76,19.21-.43.7-2.77.25-4.22.34a11.4,11.4,0,0,1,.12-3.47c2.09-5.8,4.34-11.53,6.51-17.29.61-1.62.76-4,3.43-2.38C422.24,123,423.7,124.27,425.52,125.61Z"/><path class="cls-93" d="M349.93,99.84c-12.56-2.69-21.1-4.42-29.59-6.4-2.64-.61-5.76-1.1-6.08-4.83-.36-4.16,3.24-3.88,5.62-5,6.05-2.75,12.74-4.61,18-8.43,7.29-5.29,9.1-2.26,10.19,4.59.72,4.55,1.79,9,2.72,13.54C351.64,97.38,351.19,100.21,349.93,99.84Z"/><path class="cls-1" d="M309.61,214.94c-5.63-.93-8.77-1.08-11.67-2-6.27-2-15.38-2.65-17.11-8.57-2.15-7.39,4.21-14.27,9.58-19.84a40.44,40.44,0,0,1,9.8-7.25c5.73-3.1,13.13-6.1,18.15-2.55,3.53,2.5-2.52,8.79-3.09,13.69-.81,6.84-2,13.64-2.53,20.5C312.45,212.93,312,215.68,309.61,214.94Z"/><path class="cls-94" d="M582.3,402.2c-6.51-7.05,2.82-10.18,3.82-15.36l3.36-4.76c1.87-.61,2.36.77,2.93,2,.52,4.5,4.23,5.88,7.53,7.66,2.67,3.2,9.36,4.56,6.26,10.48-2.67,5.09-7.25,3.08-11.4,1.25-.81-.36-2.83.06-3.08.64C585.26,419.13,585.37,403,582.3,402.2Z"/><path class="cls-95" d="M580,383.44,572.86,388c-.18-1.41-.37-2.81-.55-4.21.36-3.1-.52-7,4.18-7.53a31.65,31.65,0,0,1,6,.42Z"/><path class="cls-39" d="M592.41,384.11l-2.93-2,2.69-2.86Z"/><path class="cls-96" d="M370.79,205.92c1.73-22.81,5.24-26.56,23-25.7,3.21.16,4.47.64,4,4.4-2.25,19.11-10.94,28.87-24.71,27.23C367.5,211.19,372.56,207.11,370.79,205.92Z"/><path class="cls-1" d="M343.77,216.24c-12.54,3.59-14.79-1-13.9-10.77,2-21.88,4.24-24.19,26.18-23.68,4.73.11,4.83,2,4.09,5.7-1.58,8-2.82,16.12-4.12,24.19C354.4,221.74,346,214,343.77,216.24Z"/><path class="cls-97" d="M415.92,423.87c1.11-4.41,2.17-8.83,3.37-13.21a40,40,0,0,1,1.78-4.37q.51,2.5,1,5c-.5,4.24-1,8.48-1.49,12.72-.28,2.43.3,6-3.46,5.47S417,425.65,415.92,423.87Z"/><path class="cls-98" d="M318.51,451.73q1-5.36,1.94-10.71c.92-3.71,1.53-7.53,2.84-11.1,1.16-3.14-.79-9.47,4.93-8.49,5,.85,2.27,6.42,2.64,10l-9.21,23.11C318.27,456.2,318.9,453.39,318.51,451.73Z"/><path class="cls-99" d="M287.62,447.06c.46-1.41.88-2.84,1.37-4.24,1.47-4.19,3-8.38,4.45-12.57q.12,6.75.25,13.5c-2.18,2.22.84,7.29-3.82,7.83C286.79,451.93,288.28,448.66,287.62,447.06Z"/><path class="cls-100" d="M451,407.31c.42-6.17,1-10.52,7.41-9.88,2.28.23,3.78,1.17,2.61,3.29a19,19,0,0,1-9.18,8.82Z"/><path class="cls-101" d="M253.43,457.89c.11-1,.23-2,.34-3.05l1.43-3.23c6.14-.44,10.3.66,6.29,8.08C258.47,460.58,254.19,467.07,253.43,457.89Z"/><path class="cls-102" d="M260.2,440.57c-3.64.13-3.24-1.56-3-3.07.51-2.76.71-5.93,4.88-5.26,1.82.29,4.21,1.32,3.21,3.23C264.12,437.73,261.56,439.28,260.2,440.57Z"/><path class="cls-103" d="M547.52,395.9c-1.8,4.67-3.29,9.51-5.51,14-1.94,3.9-5.14,8.08-9.81,7-5.05-1.16-2.19-6.42-2.87-9.87,2.14-4.87,3.87-10,6.56-14.53,1.72-2.88,4.41-6.35,8.57-5.16C548.82,388.59,547,392.82,547.52,395.9Z"/><path class="cls-85" d="M174.59,480.78c-5.19,7-9.35,1.44-13-1.67-1.09-.93.37-4.82.66-7.35,1.22-3.53,4.38-3,7.09-3.3,3.89-.36,4-3.35,4.5-6.11.44-2.57-1.13-2.78-3.19-3s-6.48,2.75-5.46-2.9c.75-4.1-1.43-10.11,5.49-10.94,4.4-.53,7.8-1.82,9.16-6.39,0-.12.46-.23.65-.18s.4.31.59.48c-.12,1.88-.25,3.76-.37,5.64-1,2.63-.63,5.28-.1,7.94-.56,3-.34,6.2-1.38,9.17a3.6,3.6,0,0,1-1.65,1.62Q176.12,472.29,174.59,480.78Z"/><path class="cls-104" d="M54,479.42c-.5,3.65-1.07,7.3-1.45,11-.2,1.86-.37,3.7-2.69,3.75-2.77.06-1.89-2.37-2.32-3.88l5.1-18.62,1.36.26Z"/><path class="cls-105" d="M225.86,442.49c3.95,6.15,2.09,13,.43,18.82-1.27,4.39-5.15,4.2-4.12-2,.24-1.49.29-3,.43-4.51Z"/><path class="cls-106" d="M484.24,400.77c1.47-5.73,2.83-11.59,11.06-9.31.55,6.23-4.45,8.6-8.37,11.51C484.8,404.56,484.83,401.93,484.24,400.77Z"/><path class="cls-107" d="M197.85,457.86c-2.51,5.76-4.92,11.56-7.62,17.22-.68,1.42-2.3,2.39-3.49,3.57a38,38,0,0,1,0-4.89c.45-3.75,1.08-7.47,1.63-11.2-2.72-3.56-2.48-7.31.54-10.22,2.1-2,1.62-4.65,2.93-6.72,2.05-1.77,4.11-1.81,6.19-.05,1.29,3.05.87,6.16.32,9.28Z"/><path class="cls-35" d="M191.81,445.62q-1.74,8.46-3.47,16.94c-3.24,3.28-6.35,7.67-10.71,1.22a1.63,1.63,0,0,1,.26-1.23c1.87-3-.23-6.52,1.37-9.53l1.5-8c.86,2.14-1.06,5.85,2.78,6.22C187.55,451.67,189.91,448.77,191.81,445.62Z"/><path class="cls-50" d="M198.32,454.85c-.11-3.09-.21-6.19-.32-9.28C200.78,448.57,200.3,451.69,198.32,454.85Z"/><path class="cls-108" d="M418.81,188.58c.54,6.38,1.95,12.56-6.55,13.28-4.29.36-4-3.26-3.2-5.22,2.41-5.68-3.77-15.7,6.49-16.91C423.17,178.83,416.71,186.45,418.81,188.58Z"/><path class="cls-50" d="M179.26,453c0,3.24,1.23,6.66-1.37,9.53C178.35,459.37,178.8,456.19,179.26,453Z"/></g></g></g></svg>