<svg xmlns="http://www.w3.org/2000/svg" viewBox="0 0 713.83 339.1"><defs><style>.cls-1{fill:#f0dde7;}.cls-2{fill:#261029;}.cls-3{fill:#fffffe;}.cls-4{fill:#ffd04b;}.cls-5{fill:#79456f;}.cls-6{fill:#fefdfe;}.cls-7{fill:#78456f;}.cls-8{fill:#fdce4c;}.cls-9{fill:#9e6894;}.cls-10{fill:#9f6995;}.cls-11{fill:#b5bdd1;}.cls-12{fill:#b6bfd2;}.cls-13{fill:#b8c0d3;}.cls-14{fill:#b4bbcf;}.cls-15{fill:#b4bccf;}.cls-16{fill:#bac2d4;}.cls-17{fill:#c3d1e3;}.cls-18{fill:#b3bacd;}.cls-19{fill:#b8bfd1;}.cls-20{fill:#b5bed2;}.cls-21{fill:#b4bdd0;}.cls-22{fill:#c2d0e2;}.cls-23{fill:#b6bdd0;}.cls-24{fill:#c2cfe1;}.cls-25{fill:#29142d;}.cls-26{fill:#bfcddd;}.cls-27{fill:#b7bfd1;}.cls-28{fill:#c3d0e2;}.cls-29{fill:#fbcc4f;}.cls-30{fill:#604d6b;}.cls-31{fill:#b1b8cb;}.cls-32{fill:#614f6d;}.cls-33{fill:#5f4c6a;}.cls-34{fill:#c2d0e1;}.cls-35{fill:#b1b7cb;}.cls-36{fill:#c0cddf;}.cls-37{fill:#b5bcd0;}.cls-38{fill:#c3d2e3;}.cls-39{fill:#9c6692;}.cls-40{fill:#63516f;}.cls-41{fill:#5e4b69;}.cls-42{fill:#c5d3e5;}.cls-43{fill:#becbdd;}.cls-44{fill:#c1cee0;}.cls-45{fill:#9390a8;}.cls-46{fill:#9492ab;}.cls-47{fill:#594463;}.cls-48{fill:#bfccdd;}.cls-49{fill:#c0ccde;}.cls-50{fill:#594464;}.cls-51{fill:#9898af;}.cls-52{fill:#8f8ca4;}.cls-53{fill:#9694ad;}.cls-54{fill:#665573;}.cls-55{fill:#695976;}.cls-56{fill:#9796ae;}.cls-57{fill:#756985;}.cls-58{fill:#9a6490;}.cls-59{fill:#99668f;}.cls-60{fill:#9694ac;}.cls-61{fill:#655472;}.cls-62{fill:#5e4b6a;}.cls-63{fill:#5d4968;}.cls-64{fill:#7f7590;}.cls-65{fill:#9493ab;}.cls-66{fill:#928fa7;}.cls-67{fill:#8c87a0;}.cls-68{fill:#afa1af;}.cls-69{fill:#ab9dab;}.cls-70{fill:#8f8ba4;}.cls-71{fill:#918ea5;}.cls-72{fill:#9a9ab2;}.cls-73{fill:#978497;}.cls-74{fill:#988598;}.cls-75{fill:#938094;}.cls-76{fill:#b5a7b4;}.cls-77{fill:#887488;}.cls-78{fill:#b1a2b0;}.cls-79{fill:#958295;}.cls-80{fill:#a899a8;}.cls-81{fill:#7b657c;}.cls-82{fill:#786279;}.cls-83{fill:#8d88a1;}.cls-84{fill:#7d687d;}.cls-85{fill:#371e2e;}.cls-86{fill:#311d35;}.cls-87{fill:#28112b;}.cls-88{fill:#3f2c45;}.cls-89{fill:#3a253f;}.cls-90{fill:#928fa8;}.cls-91{fill:#8a859f;}</style></defs><g id="Layer_2" data-name="Layer 2"><g id="Layer_1-2" data-name="Layer 1"><g id="GCSRpS.tif"><path class="cls-1" d="M446.57,238.42c4,1.18,6.84.8,9.63.8q121.65,0,243.29,0a66.45,66.45,0,0,1,6.77.12,7.84,7.84,0,0,1,7.15,5.36c1.26,3.57-.43,6.36-3.1,8.23A83,83,0,0,1,697,261c-5.15,2.33-6.42,5.77-6.33,11.13.31,18.73.15,37.47.11,56.21,0,9.08-3.39,11.89-12.14,10.39-24.44-4.17-49-7.71-73.56-10.86-25.25-3.24-50.56-5.89-75.93-8.12-26.51-2.34-53-4.27-79.62-5.44-41.28-1.81-82.56-3.17-123.88-2.23-28.41.65-56.83,1.56-85.19,3.22-26.53,1.55-53,3.95-79.47,6.63q-58.14,5.86-115.81,15.2c-8.53,1.37-11.82-1.5-11.85-10.07-.06-16.48-.29-33,.13-49.44.14-5.57-1.57-8.8-6.59-10.84C20.19,264,14.53,259.38,8.1,256.1a28.59,28.59,0,0,1-2.85-1.82c-3.33-2.23-6.19-4.78-5-9.36,1-3.77,4.11-5.63,9.7-5.65q36.59-.09,73.19,0,85,0,170.09,0c2.45,0,5,.38,7.89-.61-3-3.46-7.11-4.91-10.6-7.11-5-3.12-10.14-5.88-15.17-8.87-6.06-3.6-9.48-8.55-9.21-16,.68-18.71-.51-37.45.8-56.17.47-6.8.17-7.34-6.21-6.76-10.66,1-16.43-3.72-9.81-16.55,2.85-5.53,6.83-10.2,12.45-13,3.21-1.57,3.91-3.7,3.87-7-.12-9.25,0-18.49.38-27.75.29-6.8,3.12-11.61,8.86-14.87q51.15-29.13,102.33-58.2c2.35-1.33,4.72-2.63,7.06-4,5.81-3.33,11.63-3.12,17.37.1Q398.67,22.34,434,42.24c13,7.29,25.88,14.67,38.9,21.85,6.76,3.73,10.37,9.14,10.2,16.93,0,.22,0,.45,0,.67-.66,8.5.72,15.46,7.54,22.29,8.57,8.59,11.51,20.7,12.19,32.92.35,6.33-2.4,9.08-8.73,9.42-.45,0-.9,0-1.35,0-9.64.18-9.65.18-9.65,9.53,0,16.25-.06,32.51,0,48.76,0,8.41-3.07,14.62-10.78,18.73C463.92,227.86,455.8,233,446.57,238.42Z"/><path class="cls-2" d="M423.2,246.35H705.8c.11.43.23.86.34,1.29-5.72,3.39-11.27,7.14-17.22,10.06-3.92,1.92-4.85,4.46-4.81,8.49.16,20.31.1,40.63.06,60.95,0,5.51-.06,5.34-5.68,4.46-24-3.75-48-7.54-72.2-10.49Q568,316.43,529.65,313c-25.84-2.35-51.68-4.07-77.58-5.38q-63.6-3.24-127.27-2.12c-28.64.5-57.29,1.34-85.88,3.06q-58,3.5-115.74,10.51c-25.66,3.14-51.21,7.12-76.82,10.74-6.17.87-6.21.9-6.22-5.52,0-17.38-.18-34.76.1-52.14.08-4.52-1.49-6.9-5.36-8.93-8.36-4.38-16.49-9.22-24.7-13.91-.9-.51-2.15-.8-2.22-2.9H287.17c-3.42-4.42-7.49-5.78-10.92-7.86-11.76-7.11-23.57-14.15-35.59-20.78-5.64-3.11-7.88-7.07-7.68-13.57.61-20.07-.12-40.16.91-60.24.37-7.18.09-7.19-7.34-7.21-2,0-4.07,0-6.1,0-5.91-.12-6.23-.68-3.47-6.14,2.52-5,6-9.26,11.34-11.06,5.09-1.72,5.93-4.88,5.79-9.72-.28-9.46.28-18.94.21-28.42,0-5.32,2-8.76,6.74-11.43Q294.63,39.67,348,9.06c4.32-2.47,8.14-2.67,12.65-.11q53.83,30.48,107.89,60.59c5.62,3.12,8.44,7.16,7.77,13.56-.12,1.12.09,2.27,0,3.38-.89,8,.8,14.21,7.49,20,8.24,7.18,10.72,17.92,12.09,28.64.42,3.24-.46,4.59-3.86,4.41-3.61-.2-7.25.19-10.84-.1-3.9-.32-5,1.21-4.92,5,.16,16.93.08,33.86.06,50.79,0,19.58,1.53,16.88-16,27.14-12.05,7-24.14,14-36.2,21.09C423.52,243.76,422.85,244.12,423.2,246.35Z"/><path class="cls-3" d="M335,117.29l-7.73.52a19.66,19.66,0,0,0-7.9,1.14,10.64,10.64,0,0,1-8.46-.69c-12.23-5.88-23.93-5.18-34.89,3.15-4.38,3.32-9.47,5.16-14.52,7.06-6.9,2.61-10.64,1.29-15.39-5.19,1.06-11.7,6.59-18.12,18.26-21.13.24,2.55-2.81,3-3.2,5-.32.6-.41,1.19.21,1.64.38.27.78.14,1.12-.26l0,0a3.2,3.2,0,0,0,1.44-1.21h0a7.06,7.06,0,0,1,1.62-1.16,3.61,3.61,0,0,0,1-.42c.64-.17,1.12-.69,1.78-.84l10.06-2.2-.06-.08-.75-1.67c4.71-10.26,14.22-10.53,23.45-11,2.23-.11,1.64.25,1.15-1.7-.93-3.68,4.62-8.79,9.67-9.34a15.58,15.58,0,0,1,6.67.52,21,21,0,0,0,2.38.21c0-.24.09-.49.15-.73-1.53-5.2-5.93-6.42-10.41-6.92-3.71-.41-4-1.67-2.57-4.74,6-13.17,16.27-21.36,29.68-25.91a61.19,61.19,0,0,1,16.11-3.23c-3.59,3.11-7.23,4.57-10,8.71C354,43.34,363.37,41,373.11,43.93c-1.22,3.31-4.38,2.74-6.87,3.25-11.08,2.3-20.16,7.62-26.56,17.11-.85,1.25-2.43,2.6-1.48,4.18s2.93.73,4.36.45c6-1.21,12-1.6,18.08,0,8.14,2.07,9,4.46,3.45,10.74a10.46,10.46,0,0,0-2.21,3.06c7.69-5.15,15.82-.88,23.71-1.68.27-.15.54-.28.82-.42l.9-.23c4.79-3.62,8.67-8.42,14.57-10.62a36.28,36.28,0,0,1,26.27-.3l-4.87,2.06C436.08,74,446,79.22,449.2,92.57c-3.49.71-5.87-1.77-8.71-3-17.12-7.28-34-8.23-50.27,2.34-4.2,2.7-6.81,7.25-11.26,9.67-7.37,1.1-13.73,4.6-19.95,8.44-6,1-11.49,3.56-17.07,5.82C339.72,116.76,337.6,118.36,335,117.29Z"/><path class="cls-4" d="M388.65,91c17.06-12.07,34.91-10.84,53.07-3,2.65,1.15,5,3,7.48,4.54,1.46,2.18,1,3.59-1.51,4.59s-5.06,1.92-6.13,4.76l-.12-.11c2.72.64,5.38-.14,8-.45,19.15-2.26,34.38,7.9,39.3,26.31,2.1,7.83,2.1,7.84-6.19,7.85q-28.77,0-57.54,0c-5.81,0-6.33-1-3.77-6.11,2.18-4.36,5.78-7.41,9.74-10.6-12.74.57-22.2,5.9-27.62,17.25-1.69,3.54-4.28,3.34-7.2,3.34H327.83c-2.94,0-5.87-.06-8.8,0-3.51.06-3.87-1.56-2.27-4.17,3.68-6,8.16-11.28,14.7-14.4,4.63-1.75,9.24-3.58,14-4.91a6.72,6.72,0,0,1,1.93.36c4.18,2.59,8.06,2.07,12.73.38,7.78-2.81,16-4.34,23.27-8.65,2.94-1.74,6.16-.36,9.22.41,1.15.28,2.32.18,2.81-1.13s-.46-2-1.47-2.61c-.59-.33-1.24-.53-1.85-.81C382.82,99.71,382.72,99.31,388.65,91Z"/><path class="cls-5" d="M332,157.65c-2,5.78-5.58,10.75-8.27,16.18-1.85,3.75-1.3,4.85,2.75,5.07,4.27.24,8.57.07,12.86.09,3.33,0,4,1.51,2.28,4.25-.23.38-.55.72-.77,1.1-5.45,9.23-9,10.52-19.15,7.1a6.78,6.78,0,0,1-3.55-2.89c-2-3-4.19-5.87-6.3-8.79-2.31-3.2-3.91-6.79-8.38-8.22-2.22-.7-3.78-3.71-5.45-5.83-3.45-4.38-3.75-4.56-7.22-.09-4.17,5.37-8.43,11-13.91,14.66-7.43,4.91-13.95,10.87-21.24,15.87-1.65,1.14-3.66,1.74-5.45,2.68-1.47.77-3.73.6-3.76,3.19s1.56,3.47,3.4,4.55q17.7,10.53,35.32,21.2c9,5.45,17.93,11,28.1,17.26-4.07.85-6.57,1-9.22-.68-19.09-11.9-38.19-23.81-57.41-35.5-3.14-1.91-4.23-4-4.21-7.6.15-19.41,0-38.81.08-58.22,0-5.86.1-5.86,6.64-5.84,3.22,4.47,1.48,9.6,1.82,14.43.43,6,1,6.62,6.95,5.52a27.18,27.18,0,0,0,13.79-6.75c3.4-3.15,6.71-3.89,10.95-1.43,6.66,3.85,13.34,3.41,19.74-.94,2.28-1.55,4.87-3.3,7.47-1.52C316.74,151.21,324.56,154,332,157.65Z"/><path class="cls-5" d="M460.47,139.93c6.78-.07,6.82-.07,6.83,6.25,0,18.26-.09,36.52.07,54.78,0,3.81-1.07,6.17-4.44,8.2-19.26,11.62-38.39,23.46-57.53,35.27-2.51,1.56-5,1.53-8.73.49,7.65-4.76,14.57-9.17,21.58-13.42,13.85-8.39,27.75-16.69,41.62-25,2.8-1.7,4.76-11.35,2.88-14-.93-1.3-2.42-1.28-3.69-1.07-4.59.75-7.63-1.52-10.5-4.69-3-3.34-6.42-6.34-9.55-9.58-4.61-4.76-11.51-6.82-14.89-13.13-1.23-2.3-3.14-.5-4.38.82-4.62,4.92-9.64,9.46-13.77,14.86-1.73,2.27-3.38,4.77-6.85,4.93s-4.14,3.24-5.08,5.64c-1.85,4.69-5.2,6.94-11.16,7.63,2.27-3.9,4.07-7.1,6-10.24,1.39-2.31,3-4.49,4.33-6.84,3.15-5.64,3.08-5.71-3.24-5.83h-2c-11.37.07-9.72-.12-5.42-8.42,2.76-5.34,5-11.07,8.71-15.89,5.93-3.45,11.83-4.88,18.41-1.25a16.26,16.26,0,0,0,16.78-.24c4.7-2.78,8.31-1.89,12.08,1.63s8.72,5.37,13.88,6.48c4.37,1,6.25-.38,6.32-5C458.73,148.15,457.52,143.7,460.47,139.93Z"/><path class="cls-6" d="M355.56,169.75c-5.35,0-10.73-.11-16.09,0-3.39.09-4.79-.75-2.86-4.18,3.43-6.08,6.9-12.15,10.13-18.34a5.15,5.15,0,0,1,5.32-3.1c9.48.11,19,0,28.43.06,4.5,0,4.54.19,2.4,4.61-4.61,9.53-9.28,19-13.91,28.55-.57,1.18-1.46,2.32-.94,4.24H383.8l-20.44,34.81c2.68,1.37,5.46.2,8.19,1.14-.94,3.22-3.83,4.83-5.85,7-5.47,6-11.14,11.8-16.76,17.66a19,19,0,0,1-3.44,3.21,4.46,4.46,0,0,1-5.09.06c-1.58-1.28,0-2.88.59-4.16,4.52-9.31,9.14-18.58,13.7-27.87,3.18-6.46,3.16-6.47-3.77-6.52-3.39,0-6.77-.07-10.16,0s-4.65-.56-2.51-4.16c5.18-8.7,10.06-17.6,15-26.45C354.31,174.49,356,172.77,355.56,169.75Z"/><path class="cls-7" d="M402.37,50.33c-6.07-4.76-11.32-10.48-18.51-13.92-5.08-2.43-10.72-2.36-15.7-4.74a2.64,2.64,0,0,1,.43-.51,2.38,2.38,0,0,1,.62-.21c-8.81-8.32-15.13-9.2-24.7-2.58-4,2.8-9.2,3.57-12.55,7.42l-13.87,7.82C307.25,49.78,296.9,56.74,286,62.88,277,68,268.32,73.6,259.14,78.26c-7.06,3.59-9.29,8.43-8.24,15.68.25,1.78.65,3.53.9,5.31-3,1.84-5.89,7-8.07,5.81-3.09-1.75-1.21-7-1.18-10.64.11-17.15-2.51-13.58,14-23.18,28.18-16.39,56.76-32.09,84.83-48.65,8.54-5.05,15.12-7,24.62-.88C384.3,33.46,403.79,43.38,422.81,54c12.15,6.8,24.33,13.55,36.48,20.35,2.73,1.52,6.48,2.48,7.48,5.37,1.48,4.21.53,8.91.41,13.4,0,.93-.5,1.93-1.57,1.82-2.95-.32-6.25,1.52-8.82-1.32,3.87-7.92,2.34-11.48-5.76-13.35-5.49-9.41-13.7-15-24.27-17.36-3.25-.72-6.8.66-9.84-1.45.21-.87,2.3-1.87.66-2.47C412,57,407.87,52.45,402.37,50.33Z"/><path class="cls-4" d="M386.9,81.74c-.64,2-1.74,3.32-4,2.23-8.59-4.21-16.58-2-24.89,2.65.49-5,3.68-7.51,6.38-10.34,3-3.1,2.76-3.81-1.33-5.08-8-2.48-16-1.57-24,.23-1.47.34-3.21,1.65-4.33,0-1-1.41.34-3,1-4.36,6.8-13,18-19.63,32.07-22.12,1.76-.31,3.62-.13,5.26-1,10.36,1.22,18.79,5.84,25,14.28,1.43,1.94,3.64,4,2.32,6.59s-4.11,2.39-6.64,2.36c-7-.09-13.4,1.32-18.91,7.44,5.41-.57,9.82-3.8,14.74-1.79.36,2.87-2.95,4.6-2.31,7.53l.13-.12A1.37,1.37,0,0,0,386.9,81.74Z"/><path class="cls-8" d="M246.07,123.28c6.38,5.28,12.91,5.88,20.21,1.49,2.61-1.58,5.59-2.5,8.13-4.48,11.82-9.17,24.5-10.59,37.79-3.4a9.46,9.46,0,0,0,6.5.81c2.86-.47,5.7-1.14,8.53.11-5,2.57-10.86,2.71-15.83,5.65-5.28,3.14-10.52,6.23-13.92,11.51a6.46,6.46,0,0,1-6.21,3.14c-7.23-.13-14.46,0-21.68-.08-5.18-.07-5.17-.16-3.36-5.29a11,11,0,0,0,.35-1.88c-13.8,1.35-27.47.35-41.29.67C228.53,123.41,236,120.55,246.07,123.28Z"/><path class="cls-9" d="M332,157.65c-8.12.21-14.48-4-20.69-8.42-2.62-1.86-4.28-2.61-7.33-.06-6.92,5.79-15.28,6.07-23,1.08-2.73-1.77-4.38-2.47-6.7.27-5.24,6.19-12.66,8-20.17,9.56-3.82.78-5.24-.83-5.08-4.71.24-6.05.1-12.12.12-18.18,2.24-.08,4.49-.21,6.73-.22,1.4,0,3,.26,2.79,2.05-.47,4.46,2.59,3.87,5.24,3.87,10.59,0,21.17-.09,31.75,0a7.13,7.13,0,0,0,6.69-3.44,28.19,28.19,0,0,1,11.27-9.7c-.54,3.85-3,6.37-4,9.53-1.13,3.59-.27,5,3.57,4.93,7.2-.13,14.4,0,21.61-.05,3.31,0,4.95.73,2.62,4.2C335.37,151.33,334.41,154.92,332,157.65Z"/><path class="cls-10" d="M460.47,139.93c0,5.17-.15,10.35.12,15.5.2,4-1.41,5.41-5.15,4.64-7.5-1.54-14.88-3.38-20.18-9.54-1.92-2.24-3.38-2.56-6.12-.62-6.81,4.81-14.2,5.09-21.48.82-3.26-1.91-6.25-3.12-9.85-.65-1.9,1.3-4.38.61-6.61.59,1-4.9,3.79-7.37,9-6.5,4.28.7,6.43-1.08,7.55-5.43,1.16-4.53,4.22-8.12,8.62-11.26-2.83,12.18-2.83,12.15,9.71,12.19C437.57,139.71,449,139.84,460.47,139.93Z"/><path class="cls-10" d="M251.8,99.25c-1.13-.15-2.52-.35-2.57-1.66-.17-4.49-.12-9-.13-13.47,0-2.57,2.36-3.32,3.92-4.18,14.28-7.81,27.91-16.75,42.33-24.34,6.71-3.53,13-7.86,19.45-11.88,1.14-.71,2.12-1.86,3.29-.11-6.58,5.61-12.55,11.74-16,19.82-1,2.34-2.42,3.24-5,3.76-13.84,2.83-24,10-27.67,24.45-.62,2.41-1.87,3.29-4.21,3.45A34.72,34.72,0,0,0,251.8,99.25Z"/><path class="cls-11" d="M595,281.79c-.06-6.07.11-12.16-.26-18.21-.25-4.05.85-5.83,5.17-5.51,5.6.41,11.24.32,16.86.57,14.76.66,21.72,12.1,15.82,25.91-4.92,3.64-9.94,2.38-15,.35-2.21-1.29-1.66-3.25-1.16-5.16.62-2.4.78-4.71-1-6.74-1.68-1.48-3-1.41-3.68.93-.5,3,.17,6.22-1.73,8.94C603.73,286.51,600.44,286.27,595,281.79Z"/><path class="cls-12" d="M505.5,256.48a193.34,193.34,0,0,1,24.9.06c10.06.54,15.8,6.58,18.37,16,.93,7.54-.13,8.89-7.2,9.05a15.1,15.1,0,0,1-7.21-1.14c-2.71-1.74-2.78-5-4.25-7.48-1.1-1.86-2.46-3.22-4.83-3s-2.79,2.15-2.95,3.92c-.51,5.71-3.68,7.8-9.14,7.19-5.87-.65-8.88-3.07-9-8.86C504,267,502.41,261.49,505.5,256.48Z"/><path class="cls-13" d="M253.35,276.38c-.12-5.6-.16-11.2-.38-16.78-.09-2.45.53-3.82,3.26-3.82,8.06,0,16.14-.92,24.16.24,10.59,1.53,16.28,8.46,16.23,19.41-5.7,2.91-11.25,3.28-16.52-.95a23.5,23.5,0,0,1-1.94-3.43c-1.17-2.11-2.89-3.33-5.38-3.07-2.67.28-2.76,2.46-3.09,4.42a11.53,11.53,0,0,1-.9,3.18,5.78,5.78,0,0,1-1.39,1.6,6.59,6.59,0,0,1-2,1C261.23,278.58,256.92,279.9,253.35,276.38Z"/><path class="cls-14" d="M643.53,286.11c-4.81-6.09-3.88-15.65,2.14-22s18.24-8,25.8-3.47a3.39,3.39,0,0,1,2,3.19c-.05,1.8,0,3.62-.22,5.4-1,8.67-1.38,8.81-8.82,4.89-2.75-1.45-6.37-3.74-8.42-.35-2.29,3.82,2.19,5.14,4.58,6.89a51.18,51.18,0,0,0,4.65,2.75c1.22.93,2.91,1.77,2.64,3.51s-2.15,2.36-3.62,2.23C657.3,288.59,650.08,289.54,643.53,286.11Z"/><path class="cls-15" d="M555.5,257.73c9.87.07,19.73.21,29.6.14,3.4,0,5.33,1.05,4.46,4.64-.72,3,1.57,7.94-4.55,7.81-4-.09-8.06-.27-12.1-.38-1.89-.05-3.62.08-3.7,2.69-.07,2.36.56,3.9,3.28,3.94,2.92,0,5.83.29,8.74.31,2.67,0,4.4.8,4,3.87a18.1,18.1,0,0,0-1.37,1.4h0c-8.42,2.34-16.88.88-25.29,0a4.48,4.48,0,0,1-3.8-4.94C555.11,270.71,553.84,264.17,555.5,257.73Z"/><path class="cls-16" d="M395.32,256.71l.07,3.57c-1.68,4.94.41,10.18-1.2,15.13v0a8.86,8.86,0,0,1-5.58,2.07c-10.54.45-21.09,0-31.63-.19a6.93,6.93,0,0,1-4.81-2.12q-.42-8.07-.85-16.15c-.07-1.4,0-3,1.62-3.25a37.21,37.21,0,0,1,12.1.09c1.85.36,1.36,2.51,1.32,4.07-.34,11.94-.33,11.94,11.45,11.55a10.28,10.28,0,0,0,1.33-.23c1.56-3.68.66-7.55.68-11.31,0-3.23,1.14-4.63,4.35-4.23C387.87,256.19,391.75,254.71,395.32,256.71Z"/><path class="cls-17" d="M90.54,298.41c1.85,3.9,1.89,8.29,3.34,12.3.64,1.76-.3,2.48-1.83,2.72-2.44.38-4.9.64-7.34,1-3.59.6-6.37.13-6.21-4.44.11-3.08-1.59-3.84-4.28-3.51-1.56.19-3.13.3-4.7.35-3.42.09-5.73,1.53-5.53,5.2.25,4.75-2.54,5.27-6.34,5.64-8.72.84-8.66,1-6.7-7.74a44.28,44.28,0,0,1,2.66-9C60.79,294.6,84.45,292.94,90.54,298.41Z"/><path class="cls-18" d="M57.91,280.74c1.55-5.17,3.54-10.27,4.11-15.67.42-4.13,2.55-5,6.31-5.1,13-.35,13-.48,16.18,12.15.72,2.84,1.42,5.68,2.12,8.52,1.27,3.78-.49,5.61-4.07,6a16.41,16.41,0,0,1-7.36-.55c-2.57-1.7-3.87-3.82-2.71-7-1.29,2.8-.67,7.06-4.69,8.42C58.52,288.86,57.06,287.86,57.91,280.74Z"/><path class="cls-19" d="M100.13,283.14c-.11-6.72-.06-13.46-.37-20.17-.17-3.6,1.31-4.56,4.66-4.77,11.2-.7,11.11-.77,16,9.43,1.94,4,4.34,7.84,6.53,11.75a1.7,1.7,0,0,1,0,2.7l0,0c-3.81,2.64-7.84,3.34-12.18,1.41l-2.55.12C108.11,286.16,104.05,286.64,100.13,283.14Z"/><path class="cls-20" d="M320.91,275.28a15.22,15.22,0,0,1-.35-2c-.29-7.32-.28-7.49-7.41-7.76-3.23-.11-4.51-1.26-4.23-4.43.22-2.62-.52-5.67,3.77-5.66,9.91,0,19.82,0,29.73-.08,2,0,4.22.48,3.58,2.75s1.28,6.19-3.21,7.09c-2.68.53-6.42-1.6-7.88,1.88-1,2.34-.46,5.31-.61,8C329.88,278.51,325.42,278.3,320.91,275.28Z"/><path class="cls-21" d="M158.18,274c1.23-3.37,2.7-6.67,3.28-10.26a7.53,7.53,0,0,1,.75-2.59c3.85-6.43,10.15-2.07,15.19-3.34,3.17-.8,4.53,1.28,5,4,.91,5.13,2.72,10,4.37,14.89.64.95.82,1.86-.29,2.62h0c-3.13,3.05-6.87,2.16-10.55,1.63-2.48-1.42-4.92-4.37-7.58-.2-4.13.45-9.21,5-11.46-2.66a4.66,4.66,0,0,0,.21-1.05C157.6,276,157.43,274.82,158.18,274Z"/><path class="cls-22" d="M673.35,309.26c-4.47,7.72-7.93,9.48-16.36,8.46-3.79-.46-7.65-.48-11.34-1.59-6.08-1.83-6.71-2.82-6-9.09,1.15-9.69,1.14-9.67,9.59-4.7,3.09,1.81,6.14,4,10.07,2.61,2.8-8.07,8.66-9,15.27-2.43l-.06,2.57C673.53,306.3,674.56,308.1,673.35,309.26Z"/><path class="cls-22" d="M190.66,291.68c.09.21.19.41.26.63,3.86,12.19,3.45,12.67-9.36,12.29-2.25-.07-2.81-1.28-2.83-2.9-.06-4.74-2.92-4.88-6.43-4.19a22.06,22.06,0,0,1-4,.59c-2.61,0-4.53.81-4.47,3.76.09,4.08-2.38,4.86-5.7,4.74a5.17,5.17,0,0,0-.68,0c-9.3.57-9.3.57-6.06-8.22,1.37-1.1.3-3,1.33-4.18h0c1.08-1.91,1.94-3.92,4.5-4.49,9.88-2.18,20-1.38,30-2.16.84-.07,1.62.7,2.33,1.24h0C190.17,289.67,190,290.86,190.66,291.68Z"/><path class="cls-22" d="M546.08,293.23c-3.2,7.3-9.38,10.08-16.77,10.44a129.6,129.6,0,0,1-23.61-1.38c-3.93-4-.25-7.74.3-11.6,4-5.6,7-5.78,15.09-1,2.87,1.69,5.95,1.35,9,.83,4-1.52,8-2.93,12.28-2C544.83,289.06,547.49,289.61,546.08,293.23Z"/><path class="cls-23" d="M200.28,277.94c-.11-5.57-.06-11.16-.41-16.72-.23-3.67,1.34-4.83,4.68-4.56a13.32,13.32,0,0,0,3.34,0c6.16-1,10,1.23,12.29,7.23,1.76,4.51,4.74,8.55,7.17,12.8-.46,1.36-1.47,2.71-2.72,2.65C216.51,278.91,208.2,281.78,200.28,277.94Z"/><path class="cls-24" d="M443,289.11c-1.61,6.5-6.76,8.88-12.48,9.58a65.08,65.08,0,0,1-14.82-.28c-7.17-.76-12.71-6.76-12.48-12.82.11-3.09,1.05-5.15,4.76-5,4,.19,8-.64,9.52,5,.87,3.22,4.59,3.08,7.55,3.19,2.4-.6,4.11-2.14,6-3.73C435.72,281.09,442.21,283.45,443,289.11Z"/><path class="cls-25" d="M506.55,290.28a59.7,59.7,0,0,0-.85,12c-4.41-1.38-3.79-4.88-2.46-7.64,3.25-6.82,2.48-13.47.18-20.19-1.66-4.85-.62-9.79-.76-14.68-.06-1.73,1.14-2.85,2.84-3.3.09,5.61.34,11.22.21,16.83-.08,3.59,1.06,5.55,4.88,5.52a53.64,53.64,0,0,1,5.37.39c3.12.32,4.26-.94,4.48-4.18.2-2.92-2.6-7.8,3.95-7.85,5.4,0,7.56,1.76,8.83,8,.27,1.32.48,2.64.71,4a6.78,6.78,0,0,1,1.22,5.28,10.51,10.51,0,0,1-.43,1.76,28.14,28.14,0,0,1-1.33,3.28c-.85,1.6-2.36,2.5-3.76,3.52-3.23.24-6.51.77-9.43-1.32-1.27-2.47-1.3-5.85-4.34-7C510.47,282.52,508.36,286.26,506.55,290.28Z"/><path class="cls-26" d="M568.77,293.06c.41,2.36,2.19,2.43,4.07,2.57,4,.3,8.1.61,12.12,1.14,4.57.6,4.54,1.05,4.15,7.8-.21,3.72-1.47,5.26-5.32,4.79-9.39-1.13-18.8-2.07-28.21-3.08-1.42-3.55-1.1-7.12-.2-10.71l.17-2.52C559.51,288,563.77,288,568.77,293.06Z"/><path class="cls-27" d="M452.64,275.08c0-4.95.09-9.91-.12-14.85-.12-2.94,1-4.16,3.87-3.92a18.28,18.28,0,0,0,4.05,0c6.16-.91,10.07,1.29,12.42,7.34,1.61,4.12,4.53,7.74,6.87,11.58a3.06,3.06,0,0,1-3.55,3.15c-6.56-1.15-13.07,1-19.58,0a6.42,6.42,0,0,1-2.89-1.6h0A4.2,4.2,0,0,1,452.64,275.08Z"/><path class="cls-28" d="M292.59,289.19c-4.68,7.06-12,9.21-19.73,10.08-4.91.55-9.94.06-14.86.57-4.62.48-5.57-1.52-4.73-5.43,1.17-2.48.2-5.14.64-7.68a2.89,2.89,0,0,1,1.22-1.49c3.8-.83,7.58-2.46,11.45-.3,1,.64,1.74,1.68,3,1.91a12.64,12.64,0,0,0,8.68-1.2c.57-.37,1.16-.69,1.76-1,.33-.18.64-.32,1-.49a11,11,0,0,1,8.45-.36C291.8,284.7,294,286,292.59,289.19Z"/><path class="cls-29" d="M320.83,80.27c-5.92-.46-11.6-.47-16.29,4.28-2.53,2.56-2.39,3.83.94,5a3.1,3.1,0,0,1,2.6,2.84c-11.53-1.73-22.31-.68-30.53,8.58-3.17-10.5,8.35-25.18,19.84-24.13-.58,2.34-3,4-2.48,7.39,4.12-2.63,7.44-6,12.34-7.11,5.06-1.11,9.19,1.28,13.77,1.84l-.12-.15A1,1,0,0,1,320.83,80.27Z"/><path class="cls-8" d="M388.65,91c-3.28,8.57-3.26,8.52,5.89,11.87,1.76.65,5.15,0,3.89,3.84-1.15,3.48-3.69,4.83-7.09,3.25-3.93-1.83-7.12-1.7-10.38,1.54-2.95,2.92-7.47,2.58-11.17,4.13-4.84,2-10.16,2.92-15.18,4.82-2.36.89-6.27-.24-7.95-3.61h0c-5,1.77-9.47,5.16-15.2,3.94,1.17-1.17,2.34-2.33,3.5-3.5,7.66-3.78,15.19-7.92,24-8.6a3,3,0,0,1,.06,3c9-4.27,19.39-5.57,29.73-6.18-2.36-2.38-7-1.68-9.27-5.17A27.17,27.17,0,0,1,388.65,91Z"/><path class="cls-30" d="M352.16,275.19l42,.24c1.45,6.08,1.41,12.29,1.49,18.48,0,1.59.84,3.72-1.77,4.32-1.83-2.05-1.52-4.61-1.7-7.06-.51-7.16-2.41-8.33-9-5.5a5.08,5.08,0,0,1-2.53.78c-.21-2.77-1-4.78-4.49-4.29a25.73,25.73,0,0,1-5.41,0c-2.93-.2-4.17,1.09-3.86,4a9.19,9.19,0,0,1,0,2c-.41,3.26,1.8,7.68-1.19,9.56-3.56,2.23-8.34.69-12.6.71a2.34,2.34,0,0,1-2.51-2.6c.39-4.61-1-9.41,1.37-13.82a5.2,5.2,0,0,1,1.84,3.69c.05.89,0-.24.1.65.52,3.58-1.69,8.88,5.14,8.64,6.29-.22,4.09-5.12,4.56-8.52.69-4-1.05-5.56-5-5.22-2.12.18-4.34.65-6.42-.37Z"/><path class="cls-18" d="M429.62,265.53c-.07-9.61-.07-9.41,9.59-9.37,4.07,0,5.78,1.06,5.18,5.34-.39,2.86,0,5.82-.22,8.72-.14,2.27,1.16,5.61-2.21,6.21-3.65.65-7.57,1-11.19-.55-1.09-.45-1.14-1.83-1.15-3Z"/><path class="cls-17" d="M131,309.1c-2.47.61-4.16-.11-5.21-2.61-1.2-2.81-2.7-5.49-4.07-8.23-1.87-3.9,0-6.25,3.62-6.75,5.05-.7,10.1-2.09,15.28-1.14a3.64,3.64,0,0,1,1.75,1.42c.83,4-.62,8.14.86,12.09l-.07,2.54a4.72,4.72,0,0,1-1.32,1.35,1.55,1.55,0,0,1-1.07.21C137.68,309.43,134.17,307.61,131,309.1Z"/><path class="cls-23" d="M417.23,266.32v2c0,8.31-.35,8.65-8.63,8-5.78-.45-5.78-.45-5.83-6.39,0-2.91.15-5.84-.16-8.72-.4-3.63.54-5.63,4.59-5.09a21.92,21.92,0,0,0,2.69,0c8.82.1,7.58-.6,7.37,7.47,0,.89,0,1.79,0,2.69Z"/><path class="cls-31" d="M130,262.9c-.37-3.61,1-5.47,4.87-5.11a22.78,22.78,0,0,0,4.67-.08c3.23-.36,4.33,1,4.18,4.19-.29,6.21-.31,12.44-.45,18.67-3.73,2.74-7.66,3.93-12,1.47l0,0C129.2,275.79,131.54,269.21,130,262.9Z"/><path class="cls-32" d="M453.71,276.75c6.89,0,13.79.08,20.68,0,1.88,0,4.11.84,5.34-1.54,1.7.67.54,3,2.38,3.85,0-5.9-.08-11.67.05-17.43,0-1.76-1.15-4.17,1.75-5,2.4,3.11,1.78,6.79,1.62,10.24-.27,5.65,1,9.62,7.67,9.64a3.94,3.94,0,0,1,2.32,1.2c.05,2.87.11,5.74.16,8.6-8.1-.66-16.08-3.63-24.35-1.38a11.38,11.38,0,0,1-1-.85c-1.51-1.56-1.12-5.63-3.06-5.18-2.78.64-1,4.1-1.2,6.32s.49,4.42-.23,6.6c-2.81-.34-2.59-2.71-3.11-4.58.1-2.83-1.66-3.26-4-3.2s-3.17,1.31-3,3.49c-.45,2.61.46,5.83-3.15,7A46.6,46.6,0,0,1,453.71,276.75Z"/><path class="cls-33" d="M200.28,277.94c9.05.14,18.13.87,27.07-1.29a7.76,7.76,0,0,1,1,.74c.55.56.73,1.89,1.64,1.6,1.52-.49-.25-1.68.25-2.5a12.26,12.26,0,0,1,13.2-.1c-.07,5.6.93,11.18.14,16.78-3.36-.77-2.79-3.66-3.25-6,0-1.8-.68-3.05-2.75-3.05-6.3,0-12.55.23-18.26,3.41-2.91-1.77-2.37-6.21-6.45-8.22,1.26,6.61,1.14,12.59,1.17,18.56,0,1.63.82,3.76-1.72,4.49-2.78-3.61-1.6-7.84-1.89-11.83-.68-5.07-2.38-6.29-6.61-4.51-1.16.49-1.84,2-3.44,1.62C199.4,284.43,201.45,281.17,200.28,277.94Z"/><path class="cls-34" d="M629.79,298.49c2,3.22,3.93,6.46,5.92,9.68,1.84,3,1.6,4.69-2.38,5.47-9.16,1.81-12,.39-15.52-8.47-1.29-1.07-.08-3-1.41-4.05h0c-.75-.79-.56-2-1.15-2.82a1.82,1.82,0,0,1-.31-1.17c4.9-4.59,8.31-4.63,13.76-.15h0A13.78,13.78,0,0,1,629.79,298.49Z"/><path class="cls-35" d="M243.41,276.39c-4.4.54-8.8,1.07-13.2.1,0-5.35,0-10.7-.12-16.05-.09-2.83,1-4.2,3.86-4,.44,0,.89,0,1.34,0,9.37,0,8.69-.79,8.3,7.9C243.42,268.37,243.46,272.38,243.41,276.39Z"/><path class="cls-36" d="M242.12,286.29c.93,2.2-.07,4.8,1.43,6.88,0,7.19,0,7.19-7,7.69a19.63,19.63,0,0,0-2.66.25c-4.44.91-7.86.06-9.45-4.79a28.32,28.32,0,0,0-2.53-4.68c-1.1-2-1.19-4.46,1.14-4.94C229.36,285.42,235.71,282.09,242.12,286.29Z"/><path class="cls-37" d="M495.52,277.71c-11.7.27-11.73.27-11.84-11.69,0-3.13-.81-6.28.23-9.39,3.78.12,8.38-1.59,11.12.75,3,2.53.51,7.2.79,10.93A29.11,29.11,0,0,1,495.52,277.71Z"/><path class="cls-38" d="M495.65,294.39c.08.89.11,1.78.23,2.65.52,3.59-.52,4.41-4.54,4.84-9.6,1-14.31-3.64-17.16-11.74-1.85-3.57-.05-4.95,3.26-5.17,2.66-.17,5.31.36,8,.51C494.43,286,494.43,286,495.65,294.39Z"/><path class="cls-39" d="M332,35.79c-1.54-2.42,1.26-2.42,2-2.92,5.76-3.81,11.74-7.28,17.56-11a4.53,4.53,0,0,1,5-.35c5.31,2.63,10.2,5.92,15.94,9.57l-4.3.58C355.82,30.62,343.69,31.42,332,35.79Z"/><path class="cls-40" d="M555.5,257.73c0,5.86.08,11.73-.19,17.57-.19,3.8,1.2,5.15,5,5.31,7.87.32,15.83-.33,23.6,1.53,2.15,7.34,1.19,8.4-6.12,7.32a86.58,86.58,0,0,0-8.69-.43c-4.46-1.12-9.08-.5-13.57-1.34A132.22,132.22,0,0,1,554,263C554.05,261.2,552.89,258.88,555.5,257.73Z"/><path class="cls-41" d="M595,281.79c4.86,1.21,9.72,2.77,14.64.21,2.32.8,4.9.21,7.15,1.36a52.76,52.76,0,0,0,15.8,1.19c-.95,3.35-5.09,4.71-5.31,8.52-7.26-1-14.61-.76-21.87-1.85-3.48-.53-7.55-1-7.42,4.66-.45,1.8-.64,3.79-3.07,4.1C594.13,293.91,594.91,287.85,595,281.79Z"/><path class="cls-42" d="M380.7,286.45a9.24,9.24,0,0,1,11-4.05c1.78.73,2.21,2.19,2.27,3.78.14,4,1.09,8.05-.09,12.05l-1.34,0C380.49,298.25,380.49,298.25,380.7,286.45Z"/><path class="cls-43" d="M113.38,305.41c-.6,1.75,1.13,4.46-1.57,5.23-3.59,1-7.43,2.27-11.08.84-1.88-.74-.51-3.19-.71-4.86,1.2-2.29.46-4.75.6-7.13.16-2.81-.6-6.07,2.76-7.48s6.48-1.36,8.9,1.85C113.7,297.61,111.88,301.67,113.38,305.41Z"/><path class="cls-44" d="M594.87,300c1.1-1.26.7-2.92,1.14-4.35,2.46-3.63,5.94-3.75,9.6-2.55,4,1.32,3.31,4.84,3.34,7.94,0,2-.08,4.06,0,6.08.19,3.8-1.46,4.93-5,3.6-.66,0-1.32.05-2,0-7.3-.33-7.3-.33-7.15-7.45C594.91,302.18,594.88,301.08,594.87,300Z"/><path class="cls-45" d="M604,310.7c2.72-.13,5-.7,4.35-4.28a16,16,0,0,1-.06-2.69c-.1-10.16-2.12-11.49-12.3-8.1.24-6.77.25-7,6.45-6.63,6.84.44,13.63,1.72,20.52,1.3,2.26-.14,2.78,1.95,4.25,2.77.35,1.35,1.75,2.31,1.47,3.9-4.6-1.66-9.2-2.19-13.76.15-3-1.72-5.51-2.42-5.22,2.6.14,2.43.16,4.86.13,7.29C609.8,312.15,609.77,312.15,604,310.7Z"/><path class="cls-46" d="M90.54,298.41c-1.46-.51-2.73-1.5-4.43-1.43-10.94.49-21.91.71-32.5,4l.45-3.77c.54-.9.33-2.12,1.22-2.87h0c3.19-4.95,7.69-3,12-2.31a15.2,15.2,0,0,0,6,0c.63-.25,1.28-.46,1.92-.71.33-.14.65-.26,1-.41,4.63-1.13,9.35-2.87,13,2.06C89.81,294.74,90.86,296.4,90.54,298.41Z"/><path class="cls-47" d="M131.19,282l12-1.47,0,11.25a.76.76,0,0,1-1.27-.14h0q-11.91-5.87-23,1.38a32,32,0,0,1-4.06-9.59c4-1.29,8.09-1.17,12.18-1.41.62,1.1,1.26,2.33,2.69,2.32S130.92,283,131.19,282Z"/><path class="cls-48" d="M334.42,289c.58,8.26.58,8.26-6.41,8.46-7.92.22-7.92.22-7.43-7.84.07-1.11.21-2.23.32-3.34,2.32-4.2,6.53-3.57,10.17-3.55C335.25,282.72,332.82,287.09,334.42,289Z"/><path class="cls-49" d="M452.58,294.54c1.46-2.56.53-5.53,1.4-8.2,3.48-4,7-2.14,10.48,0,.67,1.78.07,3.88,1.39,5.5,0,8.23,0,8.23-8,8-1.34,0-2.67-.05-4-.07a5.53,5.53,0,0,1-1.36-1.53Z"/><path class="cls-38" d="M212.31,289c.31,4.46,1.18,8.92,0,13.38-2.87.15-5.74.21-8.59.47-3.56.33-4.18-1.49-3.5-4.42,1.38-1.76.71-3.82.71-5.72,0-2.87.53-5.4,3.53-6.34S210.59,285.45,212.31,289Z"/><path class="cls-50" d="M643.53,286.11c6.71-.35,13.33.82,20,1.25,1.2.08,3,.85,3.56-.65.52-1.32-1.41-2-1.84-3.27,6.31,1.67,6.33,8.13,9.36,12.3-7.65-.6-15.15-3.81-23-1.33A13.55,13.55,0,0,1,643.53,286.11Z"/><path class="cls-51" d="M189.48,288.84c-10.27,2-20.8.76-31.13,2.57-2.43.43-3.9,1.64-5.65,2.84-.24-2,.83-3.58,1.44-5.32,2.62-4.87,7-5.15,11.6-4.1,3.34.76,6.58,1.26,9.82-.3,4.84-1.49,9.79-3.81,13.65,1.85Z"/><path class="cls-52" d="M118.86,293.05c-.48-3.86,1.91-5.18,5.1-5.34,4.86-.24,9.74-.14,14.6-.29,3.14-.09,3.77,1.62,3.34,4.25-5.57-.22-10.94,1.79-16.56,1.44-3.42-.21-3.67,2.53-3.58,5.15C119.82,297.06,119.86,294.76,118.86,293.05Z"/><path class="cls-53" d="M495.65,294.39a2.68,2.68,0,0,1-1.11-2.3c.43-4.16-2-4.61-5.37-4.62-4,0-7.95.51-11.9-.85-3.17-1.09-2.95,1.55-3.09,3.52-1.08-.44-1.36-1.44-1.69-2.41-.18-.65-.69-1.12-.89-1.76l-.27-1c.33-1.3.6-2.51,2.37-2.69,6.48-.67,12.76,1.18,19.17,1.41,1.44.05,1.74,1.9,2.81,2.66C495.78,289,496.4,291.7,495.65,294.39Z"/><path class="cls-54" d="M533.87,286.28l.06-7.15c2.48.1,5,.26,7.42.31,7.32.14,7.32.12,7.42-6.91.37.55,1.05,1.09,1.06,1.64a59.34,59.34,0,0,1-2.45,17.57c-1.2-2.29-2.71-3.83-5.66-3.87C539.08,287.82,536.3,287.71,533.87,286.28Z"/><path class="cls-55" d="M280.4,272.49c1,2.12,2.31,3.5,5,3.28,3.72-.3,7.47-.24,11.21-.34-.69,2.68.91,5.75-1.41,8.14-5,.83-10-.66-15,.16C278.78,280,278,276.19,280.4,272.49Z"/><path class="cls-56" d="M242.12,286.29c-5.82-.84-11.4,1.67-17.19,1.27-3.07-.21-2.85,2.08-3,4.08-1.61-.9-1.73-2.76-2.67-4.09.21-1.63-.58-4,2.17-4,5.76-.07,11.37-1.73,17.19-1.4C241.68,282.31,242.59,283.55,242.12,286.29Z"/><path class="cls-57" d="M651.62,294.41c.14-1.12.35-2.52,1.58-2.59,7.44-.44,14.87-.6,21.41,3.92,0,.9.06,1.79.08,2.69-3.21,1.38-6.11-.59-9.16-.91s-5.18.33-5.77,3.66Z"/><path class="cls-58" d="M402.37,50.33c.31-.29.78-.9.91-.83,6.31,3.32,12.6,6.7,19.27,10.28-2.19,2.13-4.11,1-5.63,1.72l-2.29,0c-1.42.56-2.82.89-4.12-.28C407.65,57.68,405.64,53.53,402.37,50.33Z"/><path class="cls-59" d="M451,80.31c.16-.64.17-1.73.51-1.84,2.12-.71,7.75,2.36,8.77,4.63s.09,9.37-1.54,10.47c-.47.31-1.31.07-2,.09Z"/><path class="cls-60" d="M443,289.11c-3.09-4.49-7.88-5.58-12.09-2.47-1.82,1.35-3.36,2.91-5.86,2.15,1.76-1.26,3.91-1.93,4.77-4.36.61-1.71.15-4.48,2.79-4.76,2.85-.3,6.29-1,8.51.24C444.52,281.76,444.7,285.55,443,289.11Z"/><path class="cls-61" d="M176,286.34c-3,2.2-6.26,1.58-9.45.63-4.49-1.34-8.7-1.28-12.43,2q1.38-5.46,2.75-10.92c.84,2.44,2.82,2.59,4.9,2.34,2.43-.29,4.84-.69,7.26-1,.32,3.95,3.07,5.41,6.42,6.27C175.65,285.83,175.84,286.08,176,286.34Z"/><path class="cls-47" d="M113.38,305.41c-1.61-3.54-.43-7.4-1.28-11-3.51-5.4-4.23-5.48-12-1.3,0-3.31,0-6.63,0-9.94l12.12.44C114.08,290.78,113.87,298.09,113.38,305.41Z"/><path class="cls-62" d="M67.54,294.09c-4.12-1.49-8.22-1.74-12.27.28,1.39-4.44.11-9.4,2.64-13.63-.06,5.74-.06,5.75,5.5,5.54,1.75-.06,3.51-.2,5.26-.3C70.78,289,69.44,291.6,67.54,294.09Z"/><path class="cls-32" d="M89.17,293a14.88,14.88,0,0,0-13.46.14,3.28,3.28,0,0,1-1.24-3.55A2.76,2.76,0,0,1,77.05,287a2.08,2.08,0,0,0-.35-.08c-1.35-.06-2.8,0-2.51-2.05,3,.8,6.06,0,9.09,0,3.21.09,3.39-1.9,3.35-4.22C88.34,284.57,88.12,288.9,89.17,293Z"/><path class="cls-63" d="M268.22,288.58c-1.34-.19-1.4-1.32-1.69-2.28-3.41-4.66-5.64-4.68-12-.09h0c-.34.54-.74.62-1.2.15q0-5,0-10l13.34.33C270.6,280.23,270.88,284.21,268.22,288.58Z"/><path class="cls-40" d="M320.91,275.28l13.39-.19.11,7.12c-4.52-.22-9.05,1.55-13.56-.08Z"/><path class="cls-56" d="M659.76,301.18c.42-1.95-1.43-3.13-2.1-5.16,6.2-.83,11.79-.54,17,2.41a7.39,7.39,0,0,1-.07,4.09c-3-2.09-6.75-1.28-10-2.56a2.3,2.3,0,0,0-3.34,2c-.15,1.31-.24,2.66-1.93,3Z"/><path class="cls-61" d="M189.21,286.38c-4.39-2.3-8.79-2.09-13.19,0l-.54-.52c-1.46-2-2.1-4.09-1-6.46l12-.12C187.47,281.59,189.4,283.58,189.21,286.38Z"/><path class="cls-64" d="M100.12,293.08c1.38-1.7,1.52-4,4.8-4.53,6.58-1,6.84-1.23,7.18,5.83a10.59,10.59,0,0,0-5-1.4c-3.88-.21-5.7,1.33-5.9,5.31-.13,2.78.89,5.79-1.14,8.33C99.21,302.1,100,297.59,100.12,293.08Z"/><path class="cls-65" d="M533.87,286.28c4-1.94,8.06,0,12,.33,2.32.22,1.07,3.33,1.5,5.13l-1.3,1.49c-2.23-3.15-8.31-4.25-12.42-2.1-1.32.68-2.29,2.07-4,1.84l3-3.9c.51-.88.27-2.1,1.23-2.79Z"/><path class="cls-66" d="M555.53,287.69c4.75-1.85,9.46-3.26,13.57,1.34l-.33,4c-4.41-1.5-8.81-4.1-13.22,0C555,291.26,555.41,289.47,555.53,287.69Z"/><path class="cls-67" d="M352.36,286.35c-.11-1.44-.22-2.87-.32-4.3l.18-1.13c2.14-1.58,4.62-1.41,7.09-1.4,6.24,0,6.24,0,6.11,6.81A32.1,32.1,0,0,0,352.36,286.35Z"/><path class="cls-68" d="M295.05,169.16a3.05,3.05,0,0,1,1.79,1.86c.28.87-.34,1-.91,1.33-4.32,2.63-8.61,5.25-7.19,11.55.22,1-1.22,2.78-1.81,2.3a12.74,12.74,0,0,1-3-4.5c-.36-.76,9.61-12.65,10.5-12.78C294.62,168.89,294.85,169.07,295.05,169.16Z"/><path class="cls-69" d="M425.24,171.07c0,1.34-1.33.93-1.81,1.47-2.92,3.3-7.94,5.48-6.2,11.4.17.57-.75,1.55-1.31,2.22s-1.22.23-1.17-.43c.18-2.1-4-2.58-2.06-5,3.05-3.88,6.39-7.54,9.7-11.21.7-.78,1.66-.37,2.3.38A4.92,4.92,0,0,1,425.24,171.07Z"/><path class="cls-70" d="M212.31,289a9.41,9.41,0,0,0-5-1.44c-3.83-.15-5.87,1.2-5.77,5.33,0,1.88.66,4.07-1.32,5.54-.72-3.6.08-7.18.15-10.77,1.32-4.85,5.13-4.52,8.82-4.07C212.38,284,212.59,286.42,212.31,289Z"/><path class="cls-71" d="M320.85,282.13c4.53-2.08,9-2.31,13.56.08,0,2.25.78,4.5,0,6.75-2.36-5.39-4.95-5.92-13.52-2.72C320.89,284.87,320.87,283.5,320.85,282.13Z"/><path class="cls-72" d="M280.54,283.71c4.87-2.3,9.75-2.9,14.67-.14,0,.39-.1.79-.17,1.18-.7.86-.51,2.05-1.08,3l-1.37,1.48c-2.71-4.79-4.82-5.32-12.51-3.17C279.58,285.12,279.56,284.32,280.54,283.71Z"/><path class="cls-73" d="M304.21,203.77c-2.6-5.48-5.47-10.81-8.52-17.15C305.07,190.26,301.44,198.44,304.21,203.77Z"/><path class="cls-30" d="M395.32,256.71a29.37,29.37,0,0,0-3.32-.53c-10.82-.55-10.77-.53-11.13,9.92-.06,1.8.94,4.17-1.74,5.17,0-4,.18-8,0-12.06-.12-3.18,1.26-4.72,4.33-4.27C387.44,255.52,391.85,253.07,395.32,256.71Z"/><path class="cls-74" d="M416.5,203.08c-.12,5.55-1,10.74-7.22,13.75C409.79,210.94,415.57,208.23,416.5,203.08Z"/><path class="cls-75" d="M275.87,188.87,264.77,199C267.18,192.48,270.89,189,275.87,188.87Z"/><path class="cls-76" d="M430.13,198.57c-1.74-4-4.61-7.32-7.1-11.84C430.35,188.88,430,193.94,430.13,198.57Z"/><path class="cls-77" d="M396.23,198.47c2.07-3.55,1.18-9.65,7.64-9.81C401.15,191.76,399.57,195.72,396.23,198.47Z"/><path class="cls-78" d="M313.87,212.55c1.33,3.45,5.23,5.19,6.12,9.24C314.67,219.35,314.67,219.35,313.87,212.55Z"/><path class="cls-47" d="M130,262.9c1.82,3.84.76,7.89.84,11.86.05,2.45-.23,4.91.44,7.32-1.65-.51-1.67-1.89-1.64-3.22C129.69,273.54,129.83,268.22,130,262.9Z"/><path class="cls-79" d="M287.06,206.3c.4,3.3-.28,6.21-3.12,8.29-.63.46-1.2,1.5-2.14.7a1.86,1.86,0,0,1-.14-2.47c1.66-2.28,3.52-4.42,5.31-6.6Z"/><path class="cls-80" d="M445.68,210.13c-4.06-1.95-6.11-4.56-6.77-8.58C444.47,206,444.47,206,445.68,210.13Z"/><path class="cls-81" d="M438.39,186.46c-3-1.45-4.19-4.26-6.34-7.49C437.3,179.68,437.25,183.57,438.39,186.46Z"/><path class="cls-30" d="M394.19,275.41c1-5-1.27-10.25,1.2-15.13C395.29,265.35,397.14,270.57,394.19,275.41Z"/><path class="cls-82" d="M309.92,187.45c-2.77-2-4.07-5.16-7-8.44,6,.66,6,5,7.28,8.12Z"/><path class="cls-52" d="M141.91,291.68a3.21,3.21,0,0,1,1.27.14c.21,4,.79,8,.09,12.06C141,300,142.33,295.75,141.91,291.68Z"/><path class="cls-66" d="M555.38,295.57q.11,5.35.2,10.71C552.91,302.76,554.36,299.16,555.38,295.57Z"/><path class="cls-52" d="M131,309.1c3.05-2.21,6.46-1.2,9.77-1.12C137.69,309.53,134.35,309.17,131,309.1Z"/><path class="cls-83" d="M253.3,286.36a2.73,2.73,0,0,1,1.2-.15c-.24,2.76.73,5.7-1.23,8.2C252.61,291.72,253.14,289,253.3,286.36Z"/><path class="cls-84" d="M262.46,108.56c-.53,1.23-1.76,3-2.6,2.21-1.29-1.15-.05-2.67,1.27-3.59Z"/><path class="cls-51" d="M152.71,294.24c.23,1.6.4,3.19-1.33,4.18C151.33,296.87,151.21,295.3,152.71,294.24Z"/><path class="cls-56" d="M673.35,309.26c-.17-1.56-.36-3.12,1.21-4.17A3.83,3.83,0,0,1,673.35,309.26Z"/><path class="cls-7" d="M410.51,61.2l4.12.28C413.18,62.57,411.75,63.2,410.51,61.2Z"/><path class="cls-45" d="M616.4,301.12c1.76.9,1.55,2.48,1.41,4.05A4.21,4.21,0,0,1,616.4,301.12Z"/><path class="cls-51" d="M190.66,291.68a2.21,2.21,0,0,1-1.17-2.83C190.78,289.42,190.89,290.48,190.66,291.68Z"/><path class="cls-47" d="M127,282.08l0-2.7C128.41,280.29,129,281.2,127,282.08Z"/><path class="cls-55" d="M294,287.71a2.89,2.89,0,0,1,1.08-3A2.48,2.48,0,0,1,294,287.71Z"/><path class="cls-62" d="M55.28,294.36a2.57,2.57,0,0,1-1.22,2.87C53.81,296,53.86,294.89,55.28,294.36Z"/><path class="cls-45" d="M615.25,298.29a2.23,2.23,0,0,1,1.15,2.82A2.42,2.42,0,0,1,615.25,298.29Z"/><path class="cls-61" d="M186.49,279.24c.09-.87.19-1.75.29-2.62C188,277.63,188.51,278.58,186.49,279.24Z"/><path class="cls-61" d="M158.18,274a2.85,2.85,0,0,1-1.08,3A2.41,2.41,0,0,1,158.18,274Z"/><path class="cls-79" d="M287,206.22a2.44,2.44,0,0,1,.5-2.31s.69.31.73.54a1.47,1.47,0,0,1-1.14,1.85Z"/><path class="cls-82" d="M311.38,188.7a2,2,0,0,1,.57.25c.09.07.07.28.1.42l-.58-.76Z"/><path class="cls-82" d="M310.24,187.13a1.51,1.51,0,0,1,1.14,1.57l.09-.09a1.37,1.37,0,0,1-1.55-1.16Z"/><path class="cls-32" d="M452.64,275.08c.36.56.72,1.12,1.07,1.68C452.73,276.6,452.43,276,452.64,275.08Z"/><path class="cls-84" d="M263.93,107.32a1.29,1.29,0,0,1-1.44,1.21A1.18,1.18,0,0,1,263.93,107.32Z"/><path class="cls-84" d="M265.55,106.16a1.41,1.41,0,0,1-1.62,1.16A1.26,1.26,0,0,1,265.55,106.16Z"/><path class="cls-84" d="M268.3,104.9a1.38,1.38,0,0,1-1.78.84A1.23,1.23,0,0,1,268.3,104.9Z"/><polygon class="cls-79" points="289.01 201.92 288.9 201.48 289.21 201.51 289.01 201.92"/><path class="cls-29" d="M278.3,102.62l.06.08Z"/><path class="cls-40" d="M583.89,282.15l1.37-1.4C585.3,281.71,584.89,282.22,583.89,282.15Z"/><path class="cls-45" d="M629.79,298.49a1.28,1.28,0,0,1-1.1-1.53A1.21,1.21,0,0,1,629.79,298.49Z"/><path class="cls-32" d="M452.49,298.19l1.36,1.53C452.78,299.76,452.31,299.26,452.49,298.19Z"/><path class="cls-32" d="M471.6,286a1.54,1.54,0,0,1,.89,1.76A1.59,1.59,0,0,1,471.6,286Z"/><path class="cls-52" d="M141.88,307.77a1.77,1.77,0,0,1,1.32-1.35C143.39,307.48,142.93,307.91,141.88,307.77Z"/><path class="cls-85" d="M379.44,100.35c5.4,1.19,11,2,14.35,7.89-8.72-1-17-1.65-24.28,3.77a1.63,1.63,0,0,1-2.34,0c-2.51-2.34-2.61-2.44-4.27-1.08-2.42,2-4.7,4.16-7.31,6.49-.43-3.65,2.62-5.79,3.33-8.74A31.37,31.37,0,0,1,379.44,100.35Z"/><path class="cls-2" d="M386.9,81.74c-.35-.69-.76-1.41.54-1.52Z"/><path class="cls-2" d="M320.83,80.27c0-.5.05-1,.07-1.48.36.16,1,.27,1,.5C322.11,80.11,321.57,80.35,320.83,80.27Z"/><path class="cls-2" d="M441.44,101.81l-.38.72c0-.11,0-.25.05-.31a2.71,2.71,0,0,1,.45-.3Z"/><path class="cls-86" d="M616.74,283.36c-2.65.93-5.68,3.89-7.15-1.36l.14-10.6a6.94,6.94,0,0,1,6.69-.06C620.81,275.23,618.4,279.31,616.74,283.36Z"/><path class="cls-41" d="M616.42,271.34l-6.69.06C611.93,268.23,614.17,269.29,616.42,271.34Z"/><path class="cls-87" d="M280.54,283.71c-.15.77-.31,1.54-.46,2.31v0a4.7,4.7,0,0,1-1.29,1.48c-3.34,2.21-6.91,2.12-10.58,1.06-.08-4-.15-8-1.53-11.87h0a3,3,0,0,0,1.14-1.69,4.12,4.12,0,0,1,0-1.31c1-2.81-2.59-7.56,3.52-8.17,5.61-.56,7.34.75,9.08,6.94C280.26,276.23,282.26,280,280.54,283.71Z"/><path class="cls-63" d="M267.81,275c.17.94-.15,1.53-1.14,1.69Z"/><path class="cls-88" d="M74.19,284.82c1.16,2.73,4.06.67,6.18,2.44-4.65-.16-5.3,2.41-4.66,5.85l0,0a9.61,9.61,0,0,0-1.55,1.13,15.07,15.07,0,0,1-6.58-.11c-.58-2.84.91-5.39,1.13-8.11,2.21-2.42.73-6.14,3.36-9C73.77,279.48,73.59,282.28,74.19,284.82Z"/><path class="cls-89" d="M174.52,279.36c1,2,1.71,4.15,1,6.46a11.15,11.15,0,0,1-2,.39c-6.38.21-6.72-.34-4.47-6.9,1.24-1.91.79-4.58,2.67-6.56C173.82,274.75,172.73,277.67,174.52,279.36Z"/><path class="cls-90" d="M506.55,290.28c0-7.67,3.61-10.35,10.68-8a3.56,3.56,0,0,1,2.65,3.4c.15,2,.22,4,.32,6C515.22,287.29,511.75,286.94,506.55,290.28Z"/><path class="cls-54" d="M533.85,286.28a2.62,2.62,0,0,1-1.23,2.79C532.39,287.86,532.53,286.81,533.85,286.28Z"/><path class="cls-83" d="M254.51,286.21c.81-3.79,3.74-5.45,8.49-5.37,4.23.07,3.74,2.75,3.53,5.46C262.54,284.09,258.51,287,254.51,286.21Z"/><path class="cls-72" d="M278.8,287.52a1.47,1.47,0,0,1,1.29-1.48A1.32,1.32,0,0,1,278.8,287.52Z"/><path class="cls-4" d="M346.66,116.85c0-.43,0-.86.13-1.27a2.37,2.37,0,0,1,1.45-1.94c.19-.07.77.32.8.54.11,1-.6,1.53-1.26,2.06a7.09,7.09,0,0,1-1.12.61Z"/><path class="cls-17" d="M352.36,286.35c5.29-3.88,7.66-3.88,13.06,0,.06,1.77.16,3.55.2,5.33.12,5.69.11,5.69-5.79,5.76-8,.1-8,.1-7.62-7.74Z"/><path class="cls-91" d="M464.46,286.32c-3.49.3-7-1.39-10.48,0-.87-3.91,1.4-4.53,4.5-4.31C461.37,282.23,465.24,281,464.46,286.32Z"/><path class="cls-62" d="M74.12,294.2a1.74,1.74,0,0,1,1.55-1.13A1.36,1.36,0,0,1,74.12,294.2Z"/></g></g></g></svg>