<svg xmlns="http://www.w3.org/2000/svg" viewBox="0 0 663.33 643.31"><defs><style>.cls-1{fill:#eb4397;}.cls-2{fill:#eb4596;}.cls-3{fill:#94235b;}.cls-4{fill:#8f2158;}.cls-5{fill:#b0296c;}.cls-6{fill:#7a1d4c;}.cls-7{fill:#111c44;}.cls-8{fill:#6d1b44;}.cls-9{fill:#fff;}.cls-10{fill:#6198c2;}.cls-11{fill:#fefefe;}.cls-12{fill:#ed489a;}.cls-13{fill:#89bfe8;}.cls-14{fill:#ee4899;}.cls-15{fill:#ee499a;}.cls-16{fill:#8ac0e8;}.cls-17{fill:#f5f5f9;}.cls-18{fill:#ed4799;}.cls-19{fill:#fdfdfe;}.cls-20{fill:#8bbfe7;}.cls-21{fill:#8bc0e8;}.cls-22{fill:#8bc1e8;}.cls-23{fill:#6097c1;}.cls-24{fill:#fcf7fa;}.cls-25{fill:#8bc0e7;}.cls-26{fill:#eb4a9a;}.cls-27{fill:#ec4799;}.cls-28{fill:#ed499a;}.cls-29{fill:#ed4a9a;}.cls-30{fill:#89bfe7;}.cls-31{fill:#fcf8fb;}.cls-32{fill:#fcf9fc;}.cls-33{fill:#88bee6;}.cls-34{fill:#fcfafc;}.cls-35{fill:#ec499a;}.cls-36{fill:#faf6f9;}.cls-37{fill:#fafafb;}.cls-38{fill:#f8f7f9;}.cls-39{fill:#f8f8f9;}.cls-40{fill:#fbfbfc;}.cls-41{fill:#ed4899;}.cls-42{fill:#f6f5f7;}.cls-43{fill:#f6f8fa;}.cls-44{fill:#f9f9fa;}.cls-45{fill:#8bbee6;}.cls-46{fill:#f8f8fa;}.cls-47{fill:#87bce4;}.cls-48{fill:#8abee6;}.cls-49{fill:#f4f4f6;}.cls-50{fill:#ea4b9a;}.cls-51{fill:#ec4899;}.cls-52{fill:#f7f7f8;}.cls-53{fill:#f5f4f6;}.cls-54{fill:#f2f1f4;}.cls-55{fill:#8cc0e8;}.cls-56{fill:#ebedf2;}.cls-57{fill:#89bde5;}.cls-58{fill:#6297c1;}.cls-59{fill:#6096c0;}.cls-60{fill:#fbf8fb;}.cls-61{fill:#6197c1;}.cls-62{fill:#e84e9b;}.cls-63{fill:#8bbbe3;}.cls-64{fill:#f4d5e4;}.cls-65{fill:#faf8fb;}.cls-66{fill:#f6d7e6;}.cls-67{fill:#f1d6e4;}.cls-68{fill:#f5d6e5;}.cls-69{fill:#6095bf;}.cls-70{fill:#ee8eba;}.cls-71{fill:#ec90bb;}.cls-72{fill:#ee91bc;}.cls-73{fill:#ed91bb;}.cls-74{fill:#f092bd;}.cls-75{fill:#f0f0f3;}.cls-76{fill:#f08bb9;}.cls-77{fill:#f2f2f4;}.cls-78{fill:#ea8db9;}.cls-79{fill:#f7c1d9;}.cls-80{fill:#6398c0;}.cls-81{fill:#8ab9e1;}.cls-82{fill:#ef8dba;}.cls-83{fill:#ee95be;}.cls-84{fill:#f3d0e1;}.cls-85{fill:#f1f2f4;}.cls-86{fill:#e8e9ed;}.cls-87{fill:#578cb7;}.cls-88{fill:#f6c1d9;}.cls-89{fill:#f0c1d7;}.cls-90{fill:#e44898;}.cls-91{fill:#e88cb7;}.cls-92{fill:#ed85b5;}.cls-93{fill:#f3ccdf;}.cls-94{fill:#db4091;}.cls-95{fill:#86bae1;}.cls-96{fill:#e98db8;}.cls-97{fill:#ed89b7;}.cls-98{fill:#e7c7d9;}.cls-99{fill:#dee0e6;}.cls-100{fill:#e8c0d5;}.cls-101{fill:#dc93b8;}.cls-102{fill:#ebcadb;}.cls-103{fill:#e5c5d7;}.cls-104{fill:#f0cdde;}.cls-105{fill:#f18ab9;}.cls-106{fill:#edcbdd;}.cls-107{fill:#eacddd;}.cls-108{fill:#ebc8db;}.cls-109{fill:#edcede;}.cls-110{fill:#f2cfe0;}.cls-111{fill:#efd1e0;}.cls-112{fill:#eccddd;}.cls-113{fill:#eac8da;}.cls-114{fill:#f497c0;}.cls-115{fill:#f5d1e2;}.cls-116{fill:#f0cedf;}.cls-117{fill:#edcfdf;}.cls-118{fill:#eed1e0;}.cls-119{fill:#e6e9ef;}.cls-120{fill:#598bb3;}.cls-121{fill:#eecdde;}.cls-122{fill:#dd8eb5;}.cls-123{fill:#e68fb8;}.cls-124{fill:#ef90bc;}.cls-125{fill:#eaedf2;}.cls-126{fill:#d693b8;}.cls-127{fill:#deadd0;}.cls-128{fill:#f2f0f3;}.cls-129{fill:#dbabcf;}.cls-130{fill:#eeedf0;}.cls-131{fill:#b1bac9;}.cls-132{fill:#c3448f;}.cls-133{fill:#afb7c5;}.cls-134{fill:#e5c0d5;}.cls-135{fill:#bcc1cc;}.cls-136{fill:#445c7f;}.cls-137{fill:#a6aebe;}.cls-138{fill:#dbbacf;}.cls-139{fill:#7c8ea9;}.cls-140{fill:#efadcc;}.cls-141{fill:#2b486d;}.cls-142{fill:#15284f;}.cls-143{fill:#90bfe7;}.cls-144{fill:#d7acd0;}.cls-145{fill:#d9b2d4;}.cls-146{fill:#fffefe;}.cls-147{fill:#1f3054;}.cls-148{fill:#233255;}.cls-149{fill:#283759;}.cls-150{fill:#2d3a5b;}.cls-151{fill:#374265;}.cls-152{fill:#505074;}.cls-153{fill:#323e63;}.cls-154{fill:#474c6f;}.cls-155{fill:#20254d;}.cls-156{fill:#e78eb8;}</style></defs><g id="Layer_2" data-name="Layer 2"><g id="Layer_1-2" data-name="Layer 1"><g id="qDDJIu.tif"><path class="cls-1" d="M587.92,206.94l-29.68,19.19,1,2.25c9.74-1.63,19.42-4,29.23-4.73,15.24-1.14,29.55-7.58,45-7.22,13.23.32,29.53,15.89,29.7,29.16.17,12.93.12,25.87,0,38.8-.1,12.62-8.5,23.93-20.87,25.68-34.4,4.85-68.24,12.79-102.64,17.65-12,1.7-23.84,4.89-36.05,5.86-5,.4-8.64,3.45-11.36,8.28-14.81,26.24-30,52.29-45.15,78.31-2.14,3.66-2.75,6.19.62,9.74,3.67,3.88,5.77.86,8.44-.61A163.61,163.61,0,0,1,474,420.41c-3.44,6.06-8.28,10.88-13.6,15.1-3.27,2.6-4.38,4.27-.71,7.47,3.87,3.39,6.75,9.65,10.9,10.5,4.61.94,7.49-6,11.28-9.3,22.2-19.26,47-34.53,72.58-48.73,1.48-.82,2.95-2.51,5.72-1.27-8.14,10.5-18.46,18.17-28.89,25.65-16.66,11.94-33.35,23.83-50.23,35.45-4.83,3.32-6.09,6-.93,9.85a15.63,15.63,0,0,1,3.18,3.76c3.27,4.83,6.37,4.7,10.65.76,5.45-5,11.59-9.25,17.43-13.83l1.38,1.58c-5.29,5.1-10.24,10.62-16,15.17-5.16,4.11-4.48,6.76-.1,10.91,6,5.65,10.79,12.54,16.87,18a30.48,30.48,0,0,1-1,45.5c-15.29,12.9-29.65,26.89-44.53,40.28-11.18,10.06-27.75,9.93-38.24-.89-14.25-14.71-27.94-30-41.9-45-1.72-1.85-3.05-5.68-6.45-2-2.26,2.42-6.07,3.44-3.11,8.83,19.44,35.44,5.94,74.49-30.82,90.49C311,654.63,265.27,627,262.16,587.56c-.9-11.45.58-22.26,5.3-34.8L257,560.86q-2.24.43-1.8-1.8c4.25-5.34,8.5-10.66,12.73-16,1.23-1.55,3.73-3.23,1.1-5.17-2.18-1.6-3.24,1.19-4.35,2.39-13.71,14.89-27.11,30.09-41,44.77-11.76,12.41-26.56,13.08-39.56,1.8-14.22-12.35-28.07-25.14-41.82-38-4.44-4.15-8.25-6.85-14.5-3.14a23.35,23.35,0,0,1-14.68,3.18c-.47-2.18,1.15-2.83,2.21-3.46,10.2-6,16.26-13.84,13.82-26.72-.88-4.64,2.51-8.91,5.64-12.51,6.8-7.81,13.68-15.54,20.53-23.3-.35-.31,1.11-1.08-.2-1.05-.55,0-1.11.6-1.7.86l-50.73,44.15c-1.37.32-1.92-.21-1.64-1.59a329.16,329.16,0,0,1,90.58-85.13c1.19-.76,2.41-1.48,3.6-2.24,10.45-6.7,11.15-9.27,5.08-20-4.54-8-9.47-15.75-13.74-23.87-1.94-3.68-4.75-5.11-8-3.76-10,4.16-20.91,3.23-30.93,5.7-16.65,4.1-33.53,6.46-50.28,9.7-21.14,4.09-42.42,7.55-63.46,12.12C18,421.27-4.79,402.89.89,384.45c3.36-10.87,2.06-23.39,0-35-2.47-14,3.91-23.24,18.09-25.66,20.29-3.46,40.42-8.42,60.85-10.3,16.58-1.52,30.64-7.16,44.31-15.9,7.51-4.8,1.48-8.13-.08-11.95-2.36-5.81-5.11-1.28-7.43.13-4.1,2.48-8,5.28-12,7.94L103,291.86c4.07-3.69,7.92-7.67,12.26-11,6.63-5.13.5-8.82-1.47-12.45-2.47-4.56-4.63.26-6.6,1.33-4.47,2.44-8.68,5.35-13.93,6.82,4.21-3.78,8.21-7.84,12.69-11.26,3.58-2.74,3.56-5,1.4-8.74Q56.73,169.31,6.31,82c-2.83-4.9-5.23-9.64-2-15.17S12.72,61,18.4,61q94.11.15,188.2,0c2,0,4.76,1.1,5.84-.82s-1.39-3.67-2.45-5.4c-7.05-11.5-12.81-23.48-16-36.73C191.05,5.9,197.23-1.72,209.38.33,245.76,6.49,282,13.09,317.9,21.94c9,2.21,18.73,1.5,28.13,1.45,47.84-.23,92.91,9.73,133.72,35.71,3,1.9,6.1,2,9.43,2q71.1,0,142.21,0c13.34,0,18.25,8.42,11.58,20q-38,66.12-76.17,132.17c-.43.74-.77,1.52-1.87,3.7l23-11.51c.44.33.58.66.43,1S588.07,206.94,587.92,206.94Z"/><path class="cls-2" d="M80.13,501.89c24.62-31.52,54.15-57.59,87.51-79.46C138.39,448.86,113.58,480.1,80.13,501.89Z"/><path class="cls-3" d="M153.38,482.69c1.88-3,4.56-5,9.76-7.85-3.35,4.14-4.86,6.74-7.86,8Z"/><path class="cls-4" d="M587.92,206.94c0-.49,0-1,0-1.46,1.63-2.54,4.33-3.14,7-3.83C593,203.93,591.08,206.26,587.92,206.94Z"/><path class="cls-5" d="M255.2,559.06l1.8,1.8-5.88,5.34C252,562.17,253.34,560.45,255.2,559.06Z"/><path class="cls-6" d="M101,525.25l1.64,1.59c-.79,1.42-2,3.45-3.49,2.08S99.61,526.14,101,525.25Z"/><path class="cls-7" d="M550,234.4c14-2.39,26.76-5.36,39.73-6.58,12.2-1.14,23.7-5.21,35.77-6.7,18.71-2.32,33.63,10.65,33.51,29.49-.08,11.21.09,22.41,0,33.62s-7.37,19.91-18.23,21.88q-46.69,8.46-93.43,16.61-24.87,4.36-49.83,8.3c-3.2.5-4.89,2.14-6.38,4.73q-25,43.41-50.26,86.69c-1.88,3.2-1.06,4.84,1.14,7.23,23.11,25.14,46,50.44,69.17,75.56,11.28,12.24,11.13,26.69-1.11,38-14.5,13.45-29.17,26.71-43.84,40-10.92,9.87-24.43,9.82-34.54-.81-15.9-16.72-31.47-33.77-46.88-50.95-3.53-3.92-4.47-3.23-7.29.76-5.22,7.39-6,13.11-1.11,21.91C397,590.92,368.06,637.62,326,639c-27.94.9-59.33-23.07-60.12-56.9-.28-11.94,2.56-23.33,9.39-33.45,2.4-3.55-1.54-16.57-5.53-18.1-2.38-.91-3,1.58-4.11,2.76-13.4,14.54-26.84,29.06-40,43.81-15.4,17.24-27.32,17.72-44.15,1.87-13-12.27-26.43-24.14-39.65-36.2-11.59-10.57-12.63-24-2.32-35.47q33.72-37.6,67.83-74.85c2.77-3,3.6-5.23,1.31-9q-9.9-16.27-19.1-33c-3.24-5.9-9.09-6-13.18-4.14-5.33,2.45-10.71,3.42-16.2,4.19-29.77,4.19-59.18,10.43-88.76,15.69-12.64,2.25-25.26,4.64-37.87,7-16.77,3.2-30.53-11-28.15-27.9a117.31,117.31,0,0,0-.25-36.55c-2-11.71,2.88-19,14.8-21.05C39.47,324.46,59,320.29,78.61,318c15.43-1.84,30.11-8.4,46.16-6.74,4.29.45,9-3.2,13.72-4.65,3.81-1.16.13-4-.76-5.52Q115,261.21,92,221.53,50.68,150.06,9.37,78.6c-4.64-8-1.71-13.22,7.55-13.23q98,0,196,0h8.57c-5.21-8.86-10.07-16.8-14.6-24.92a92.22,92.22,0,0,1-8.78-23.76c-2.17-9.06,1.39-13.45,10.46-12,30.35,4.92,60.74,9.72,90.53,17.43,14.49,3.76,29,5.12,43.92,5.47,33.44.77,66.75,2.77,98.05,16.59,11.43,5,22.75,10.32,33.4,16.83A29.87,29.87,0,0,0,491,65.46c46.22-.19,92.44-.12,138.66-.09,4.13,0,8.61-1,11.16,3.91,2.47,4.78-.71,8.07-2.76,11.61q-42.66,73.95-85.4,147.85C551.84,230.15,551.27,231.69,550,234.4Z"/><path class="cls-8" d="M122.06,307.07c1.22-1.63,1.42-2.19,1.75-2.28,3.16-.9,5.23-4.63,9.11-3.53.27.07.6,1.05.48,1.16C130.52,305.13,127.1,306.5,122.06,307.07Z"/><path class="cls-9" d="M409.4,151.45l-1.33,1.68c-1.57,6-6.16,10.61-7.84,16.53-1,3.43-3.28,7.06,1.47,10,2.65,1.62,1.2,4.53.16,6.39-4.06,7.3.19,14.26.52,21.35.09,1.72,1.52,2.86,3.48,2.89,1.18,0,2.83-.27,3.38.62,4.63,7.53,8,2.08,11.1-1.22,8.82-9.4,20.54-13.12,32.26-16.73,14.74-4.53,29.89-6.21,45.33-6.52,7-.14,11.12,5.61,17.5,6.4,2.12.27.68,3.65.79,5.77,5.42-1.87,9.37-5.11,13.25-8.61,1.68-1.51,3.33-4.35,6.42-2.2.11.07.1.41.05.6a3.13,3.13,0,0,1-.34.62c-7.94,17.07-22.8,26.51-38.67,34.66a68.29,68.29,0,0,1-19.5,6.53c2.87-4.12,5.77-8.22,8.59-12.37,1.15-1.71,3.17-3.56,1.88-5.64-1.06-1.7-3.53-1-5.28-.67-36,6.52-70.37,16.91-95.62,45.62-10,11.37-21.89,14-36.92,11.24l37-47.83c-8.77.45-15.29,4.82-22.54,9.21,2.31-12.41,7.79-22.7,14.3-33.47-21,1.52-35.8,14.36-52.73,25.7,3.1-16.92,10.05-30.48,19.57-43.06-7.12-.43-12.39,2.15-25.71,12.55-5-10.61-3.89-21-.17-31.26,1.59-4.38,4.24-8.37,6.34-12.57.81-1.61,3.28-2.92,2.26-4.78-1.16-2.11-3.83-1.05-5.82-1.1-7-.17-13.26,2.58-20.61,5.54,4.1-13.91,10.7-25.53,18.47-36.59,2.74-1.09,1.65,2.44,3.26,2.7,1.18,0,2.36,0,3.53.11,4.47.34,10.19-.19,12.76,2.93,3.61,4.38-4.21,6-4.73,10-.11.87-1,1.63-1.24,2.51-1.17,3.8-4.15,8.47-2.91,11.23,1.63,3.65,6.41-.82,9.9-.09a11.67,11.67,0,0,0,2.81-.15c12.84-.5,12.89-.49,10.3,11.72a54.47,54.47,0,0,0-.7,17c4.76-3.13,9.14-6,13.49-8.88,3-2,4.38-1.69,4.8,2.34.55,5.43,3,10.25,6.64,15.49,5.84-12.56,8.48-26.13,18.49-35.73a6.46,6.46,0,0,1,3.31-3.63c-1.57,1.36-4.13,1.24-6.31,2.21-8.78,5.63-13.27,14.24-16.3,24-3.53-4.8-3.77-6.51-2.4-16.92-7.18.12-11.86,4.7-17.39,9.27-.81-6.69,1.57-11.94,4.25-16.89,1.83-3.39.9-4.31-2.35-5.27-7.07-2.1-14.27-1.36-22.08-1.07,2.92-7.15,7.2-12,14-14.46,5.06-1.12,3.14-3.22.84-5.51s-6.13-3.2-7.4-7.17-1.15-6.87,3-8.61c5.66-2.33,11.08-5.2,16.73-7.51,4.9-2,13.91.37,15.49,3.69,1.12,2.37.34,3.42-7.56,9.88,3.37,1.56,6.42,1.23,9.49.48a59.42,59.42,0,0,1,7.55-1.75c1.65-.18,3.48-.34,4.34,1.44.68,1.42-.36,2.68-1.13,3.87-1.63,2.52-4.44,4.07-6,7.11a48.11,48.11,0,0,0,16-3c2.15-.85,4.93-2.1,6.46.31s-1.11,4.18-2.47,6c-.67.89-1.69,1.49-2.43,2.84,9.53-3.34,18.24-8.41,28.38-8.71a7.2,7.2,0,0,1,4,0c7,.73,11.78-3.33,16.49-7.63,2.17-2,3.94-4.65,7.72-4,22.68,4.1,45.43.55,68.15.5,3.68,0,7.61-1,10.62,2.23,8.35,4.44,14.25,10.18,11.19,20.78-.36,1.24,0,2.51,1.42,2.75,6.41,1.06,3.54,4.92,2.17,7.82a29.6,29.6,0,0,1-15,14.76c2.29.66,5.19.09,6,2.56.75,2.24-1,4-2.64,5.42-5,4.41-10.75,6.75-17.56,5.14a142.42,142.42,0,0,1-28.44-10.45c-5.31-2.54-10.72-5-15.78-8-14.2-8.36-29.95-9-45.7-9.47-6.62-.2-12.2,3.15-17,7.53C415.21,145.26,412.34,148.4,409.4,151.45Z"/><path class="cls-10" d="M249.48,126.16c3.1-3.19,9,1.42,11.29-4-1.87-5.33-5.72-8.89-10.35-11.82-7.62-4.81-7.56-7.35.18-12.12,1.58-1,3.42-1.53,4.7-3a73.69,73.69,0,0,0,34.54-6.65c-23.1-1-41.47-9.72-53-30.21.61-2.63-1.34-4.37-2.22-6.49C233.84,50,232.49,48,234,46c1.62-2.18,3.81-.92,5.8-.4.81.21,1.59.87,2.55.25-1-2.86-3.55-4.32-5.52-6.26-1.45-1.43-3.82-3-2.25-5.21,1.4-1.94,3.9-.71,5.88,0a8.23,8.23,0,0,1,4.46,3.27c4.65,5.93,11.88,8.17,17.79,12.29,3.71,2.58,7.39,5,10,8.75,4,5.72,2.73,8.9-4.11,10.28a24.39,24.39,0,0,1-6.29.82c8.87,3.09,17.75,5.88,28.81,7.14-8.36-10.74-16.17-20-26.93-26.44-2-1.2-4.37-1.87-5.24-4.39-.33-.88.16.21-.18-.67C254.49,34.2,255.63,33,268.1,34.56c4.66.57,9.44,1.81,14.12-.15,9.64.93,18.5,5,27.91,6.87,3.91.77,7.86,1.29,11.79,1.92,22.34,2,43.71,8.46,65.23,14.23,2.05.54,4.83,3.45,6-1.79.54-2.5,4.47-2.38,6.94-1.9,18.37,3.56,35.82,9.53,51.36,20.27,1.94,1.34,3.76,2.94,3.27,5.75l4.09,7.1c-4.44,1.24-8.44.63-12.63-.86-13.07-4.66-26.24-9.07-39.39-13.5-2-.68-4.29-1.73-6.17-1.32-24.8,5.34-52.07,1.14-73.41,19.92-16.48,14.49-26.61,32.72-33.71,53-2.29,6.54-4.14,13.23-6.84,21.93l25.65-13c-1.42,5.33-2.68,9.27-3.5,13.3-2.88,14.15-.07,27.32,8.4,38.85,2.29,3.11,2.3,5.34,1.7,8.54q-2.1,11.1-3.61,22.3c-.22,1.62-1.57,4.61,2.31,4.42.9,2-.52,2.79-1.89,2.76-3.46-.08-6.32,1.17-9.27,2.82-3.85,2.15-5.7.09-6.11-3.74a89,89,0,0,1-.19-12c.13-5-2-7.48-7.15-7.2a24.48,24.48,0,0,1-3.53-.08c-6.71-.57-8.13-2.75-6-9.33,1.09-3.36,2.81-6.47,4.08-9.77,1.68-4.4.21-6.44-4.42-5.8-5.37.73-10.76,1.19-16.12,2-2.09.3-4.51.29-5.77-1.74s.09-4.1,1.24-5.86a37.94,37.94,0,0,1,8.32-9.54c3.51-2.74,2.92-4.94-.84-6.79-4.87-2.39-10-4.24-15-6.15-2.06-.78-5.21-.81-5.12-3.89.08-2.62,2.66-3.7,4.77-4.74,5.33-2.65,11.17-3.63,16.86-5.12a6.65,6.65,0,0,0,4.13-2.18c-4.76-4.88-11.05-6.79-17-9.2-5-2-10.41-3.1-15.29-5.46s-4.81-4.6-.41-7.52a43.65,43.65,0,0,1,6.93-3.49c.67-.29,1.56-.08,2-.87A3.13,3.13,0,0,1,249.48,126.16Z"/><path class="cls-11" d="M405.32,535.1l-22.17-23.92c-1.16-5.56-.54-6.07,7.61-6.33,8.68-.19,17.25-2.13,26-1.69,2.8.14,5.66-.15,8.21,1.4,6.64,3.19,10.62,9.52,16.28,13.86a52.47,52.47,0,0,0,8.36,5.76c-1.69-6.87-6.69-11.48-10.15-17-1.69-6.24,3.65-6.06,6.71-6.22,9.39-.5,18.73-1.82,28.11-1.71,3,.2,1.35-1.26.67-2.19-4.49-6.16-10.55-10.86-15.61-16.52a16.57,16.57,0,0,1-1.33-1.7c-9.12-4.58-18.67-2.29-28.05-1.6-5.61.41-11.13,1.5-16.36-1.51L399.81,459.9c-1.91-4-3.29-8.08-.77-12.38,7.54-5,16.11-3.33,24.33-3.7,1.39-.15,2.2-.77,1.1-2.1a50.94,50.94,0,0,0-7.42-7.11c-5.48-6.47-12.14-11.84-17.37-18.54-4.38-5.15-8.72-10.32-13.21-15.37-1.53-1.71-3.5-3.18-3.44-5.84,2.85-5.75,5.41-6,10-.93,36,39.78,72.28,79.29,108.45,118.91,9.47,10.36,9.33,14-.82,23.2q-23,20.85-46.1,41.63a3.21,3.21,0,0,1-2.57.7c-2.13-.29-5,1.15-6.09-1.67-.89-2.41,1.07-4.27,2.69-5.93a17.65,17.65,0,0,1,2.11-1.75c12.74-11.46,25.08-23.36,38.87-35.49a90.7,90.7,0,0,0-17.89.14c-19,1.61-37.89,3.65-57,3.58C411.43,537.23,408.14,537.21,405.32,535.1Z"/><path class="cls-12" d="M162.76,302.62c-14.44,3.11-14.44,3.11-21.84-9.72Q79.33,186.12,17.63,79.39c-3.87-6.67-2.24-7.23,4.4-7.22q102.93.27,205.86.12c1.88,0,3.77,0,5.65.1a3.19,3.19,0,0,1,3.19,2.3c.5,1.84-1.13,2.4-2.33,3-6.09,3-12.21,6-18.33,9-16,2.06-32,.86-48,1-24.29.21-48.57,0-72.86.08A46.88,46.88,0,0,1,84,86.7C66.76,69.32,66.76,69.32,48.06,86a2.92,2.92,0,0,1-.6.34c-3.29.79-7.31.83-6.28,6.08-3.83,6.59-2.86,12.38,2.38,17.94,8.06,8.55,15.83,17.39,23.72,26.11,2.32,3.2,4.53,6.48,6.53,9.9,9.28,12.23,15.86,26.09,23.57,39.25,21,35.91,41.68,72,62.46,108.09C161.39,296.41,164.14,298.88,162.76,302.62Z"/><path class="cls-11" d="M270.63,509.69,247.2,535.16c-7.89,3.73-16.16,2-24.31,1.55-19.49-1-38.92-3.16-59.9-3.77,13.24,12.69,25.84,24.06,38.61,35.25a10.15,10.15,0,0,1,1.47,1.46c1.73,2.31,5.05,4.64,2.88,7.64-1.61,2.22-5,1.42-7.6.29q-25.12-22.71-50.24-45.45c-5.5-5-4.58-10.72-.15-15.62,30-33.15,60.14-66.12,90.15-99.25,3.91-4.31,4.72-.89,6.07,1.89,1.94,4.36-.83,7.07-3.47,9.8-4.18,4.33-8.72,8.37-11.86,14.13,8.43,2.83,17.71-1.86,24.7,4.81,2,3.79.59,7.49-.33,11.19l-14.56,16.71a14,14,0,0,1-10.76,1.81c-9.25-2-18.54-1-27.8-1a15.22,15.22,0,0,0-8.46,5.91c-4.12,5.3-9,9.95-14,15.75a159.72,159.72,0,0,0,28.62,2.52c3.22,0,8-1.15,7.93,4.84-3.58,6.09-9.18,10.94-12.17,19.28,10.63-5.78,16.61-14.74,25-20.7,8.36-3.36,16.88-.37,25.31-.56,3.44-.08,6.85,1.13,10.34,1.16C266,505.41,271.09,503,270.63,509.69Z"/><path class="cls-13" d="M249.48,126.16l7.77.72-18.1,9c9.33,3.33,17.23,6,25,9a69.55,69.55,0,0,1,8.86,4.4c2.81,1.55,7.11,2.84,6.62,6.38-.43,3.13-4.88,1.63-7.46,2.47-7.23,2.35-15.15,2.81-21.95,8.33a133.27,133.27,0,0,1,23.22,9.21c4.71,2.44,4.52,5,.44,7.54s-6.56,6-9.26,9.54c-1.12,1.48-3.26,3.05-2.21,4.78,1.22,2,3.83.87,5.82.6,5.1-.7,10.15-1.69,15.26-2.3,7-.84,8.76,1.41,6.21,7.89-1.55,3.93-3.08,7.88-4.82,11.73-2.06,4.54-.36,6,4.17,5.73,1.88-.13,3.78.13,5.65,0,5.44-.51,8,1.69,7.4,7.31-.23,2.33,0,4.7,0,7.06,0,9.42.28,9.87,7.92,5.06,3.17-2,5.27,4.94,7.56-.06l3.9-2.58c3.26-1.32,5.63-4.16,9-5.29,2.24-.75,4.55-1.92,6.68-.29s1.34,4.23.9,6.53c-.52,2.71-2.26,5.14-2,8.08,15-2.35,15-2.35,14.27,5.73-6.91,10.55-16.92,17.36-27.83,24.13-1.42-6.29-.07-11.36,1.05-16.29,1.08-4.77,3.09-9.32,5.08-15.06-8.68,2.6-15.24,7.2-21.27,12.59-6.72,6-12.12,13.15-17.19,20.56-.85,1.25-1.5,3.41-3.58,2.67s-1.23-2.85-1.21-4.37c.23-12.15,2.24-23.92,8.1-34.75,2.25-4.17,1.59-5.75-3.46-5.4a66.74,66.74,0,0,0-29.45,8.55c1.22-15.63,10.17-26.49,17.54-39-17.66.31-31.43,8.36-46,18.37,5.34-17.72,13.16-32.1,26.68-44.08-16.77-4.6-31.59-2.1-47.13,5.38,10.42-16.9,25.05-25.71,42.52-32.11-12.35-8.21-25.23-11.93-40.18-14.24C225.44,131.12,236.75,126.85,249.48,126.16Z"/><path class="cls-10" d="M237.18,121.32c-16.94,4.49-29.94,11.82-40.5,25.92,12.65.08,23.91,1.18,35.34,6.85-13.89,7.4-21.7,19.2-29.31,31.5-2.8,4.5-8.35,7.47-13,10.62-14.81,10-24.46,24.58-34.28,39-.88,1.3-3,3,.36,4.09,6.3,2.12,6.3,2.14,1.47,10.35-6.79-11.7-12.51-23.5-20.06-34s-7.74-19.07.6-28.56c3.3-3.75,5.86-8.17,10.1-14.19v19c10.36-15.57,19.59-29.33,30.39-41.92a127.65,127.65,0,0,1,20.81-20c1-.69,2.28-1.33,2.64-2.29,5.59-14.79,17.13-9.5,27.46-8.19C231.28,119.74,233.32,120.41,237.18,121.32Z"/><path class="cls-14" d="M180.65,225.17l-15.78,3.58c7.08-9.06,12.11-17.83,22.45-22.3.18,3,.32,5.2.54,8.66,11.14-6.75,21.78-13.09,35-16a127.58,127.58,0,0,0-7.7,40.38c0,.94-.3,1.88-.27,2.81.56,13.3,3.24,27-8.56,38.14l2.26,1,12.78-7.28c-2.84,7.18-3.72,14.38-7.75,18.46-6.56,6.65-17.19,2.58-25.5,6.35-3.52,1.6-4.49-3.33-6-5.72-3.13-5-5.86-10.19-8.81-15.28-11.57-20-10.76-29.7,4-48.18C178.22,228.75,179,227.57,180.65,225.17Z"/><path class="cls-10" d="M285.46,501.25c13.31-11.21,23.94-25,35.58-37.75,4.26-4.68,6.49-4.74,10.67,0,10.5,12,21.58,23.37,32.43,35-5.9,10.84-12.41,21.34-18,32.34a2.52,2.52,0,0,1-2.16,1.51c-13-4.33-26-3.75-39,.06-4.39-6-7.47-12.78-11.24-19.14A106.38,106.38,0,0,0,285.46,501.25Z"/><path class="cls-12" d="M605.19,86.45,588.72,72.34c15.41,0,29.34-.4,43.23.22,4.71.21.78,3.6,0,4.9-9.83,17.4-19.87,34.68-29.84,52-18.44,32-37.36,63.75-55,96.18-5.65,10.39-13.54,13-23.69,13.5-1.53-3.18.83-5.39,2.16-7.68,16.87-29,33-58.49,50.82-87q15.31-17.06,30.63-34.11c7.23-8,7.57-11.59,1.85-20.54C609.35,86.85,607.53,86.36,605.19,86.45Z"/><path class="cls-10" d="M200.31,95.29c-22.17,12.48-43.15,26.64-61.63,44.24-3.14,3-4.91,2.1-7.37-.62-13.22-14.66-26.55-29.21-39.85-43.8,2.59-2.68,6-2.45,9.27-2.46q45.2-.14,90.41,0C194.38,92.67,197.83,92.43,200.31,95.29Z"/><path class="cls-15" d="M292.37,612.93c-16.57-16.41-18.18-41.62-3.86-60.19,13.86-18,39.47-22.9,58.87-11.37,1.42.84,2.8,1.74,4.19,2.61,4.51,8.52,1.16,16.8-1.89,24.44-10.14,25.39-28.68,40.72-56.24,44.28Z"/><path class="cls-16" d="M535.6,189c-3.72-1.4-4.52,2.33-6.19,3.92-4.75,4.51-10.61,6.7-17.55,10.24l3.9-9.73c-4.72,2-6.7-1.12-9.67-2.94-6.32-3.89-13.83-2.1-20.76-1.61-14.32,1-28.21,4.36-41.85,9-10.58,3.61-19,10-26.77,17.75-2.15,2.13-7.08,8.38-7-1.75,0-2.28-1.45-3-3.27-1.59-3.21,2.48-5.36.72-5.5-2.16-.41-8.59-6.47-17.17-.34-25.85.64-.91.88-2.11,1.72-4.21-5.59,2.48-6.39,1-5.7-4.11,1.24-9.11,5.82-16.15,11.5-22.83,3.5,4.71,6.22-2.24,10.17,0-2,6.42-4.3,13.16-6.18,20-3.5,12.72-.72,17.2,12.42,16.34,25.76-1.7,51.45-4.48,77.14-7.09,9.33-.95,18.56-2.82,27.87-4,3.35-.43,7.9-2.5,9.84.93S537.78,186,535.6,189Z"/><path class="cls-17" d="M162.76,302.62Q117.88,225.09,73,147.54a5.33,5.33,0,0,1-.36-1.36c-.26-1.46.4-1.91,1.75-1.59,11.62,11,22.72,22.5,30.83,36.32,21.52,36.68,42.65,73.59,63.88,110.44C175,301.61,174.94,301.66,162.76,302.62Z"/><path class="cls-10" d="M415,410.23c-6.41-7.11-12.69-14.34-19.29-21.27-2.68-2.82-2.69-4.62,0-7.48,8.55-9,17.41-17.82,25-27.62,8.9-11.5,20.42-15.44,34.17-15.18.88,2.33-.55,4.11-1.56,5.89-12.39,21.61-25,43.09-37.23,64.82A2.54,2.54,0,0,1,415,410.23Z"/><path class="cls-10" d="M375.29,352.49c3.54-3.62,8-2.38,12.32-2.76,9.07-.79,18-2.77,27-4.18a47.92,47.92,0,0,1,5.77,0l-50.33,55c-7.26.66-14.49,1.69-21.81,1.29-3.25-3.3,0-5.66,1.53-7.79q10.63-15.23,20.79-30.76C372.75,359.93,375.27,356.74,375.29,352.49Z"/><path class="cls-18" d="M204.34,104.16c-15.66,22.17-35.84,40.44-50,66-1.31-8.21,1.45-13.48,1.63-20.08-7.77,6.17-13,13.56-18.33,20.75-4.07,5.47-7.66,11.3-11.37,17-1.73,2.66-2.88,3-5,0-7.66-11-7.72-10.91,1.58-20.25,23-23.1,47-44.95,76-60.52Z"/><path class="cls-19" d="M256.42,421.44c-8-13.73-15.42-26.77-23.05-39.7-2.13-3.6-.35-4.47,2.74-5,14-2.31,28.06-4.77,42.14-6.89,3.82-.58,7.61-2.31,12.09-1.16Z"/><path class="cls-20" d="M433.67,113.79c-11.9,1.49-22.49,7.19-34.56,10L409,113.2c-8.92,2.75-17.58,3.86-28.11,4.59l13.44-14.08c-9.67,1.52-17.79,5.7-27.19,1.21,3.39-2.39,6.27-4.58,9.31-6.52s4.52-3.21-.19-5.31-8.68-2.77-13.3-.06c-3.63,2.13-7.66,3.56-11.55,5.22-6.67,2.85-7.09,7.21-1.32,11.92,2.43,2,6,3.54,5.59,7.43-.21,2-2.46,1.71-4.13,1.49,2.67-1.5,3.09-2.64.08-4.64-6.24-4.16-13.45-5-21-6.45,6.66-11.71,17.73-15.51,31-19.29-3.65,0-5.25-.08-6.84,0-2.1.12-4.24.74-6.28.47a5.18,5.18,0,0,1-4.27-3.61c14.65-1,28.18-1.77,41.94,6.52,26.84,16.15,27.36,15.28,57.84,8.42,1.93-.43,3.89-.74,6.87-1.31-4.21,5.85-9.4,8.5-14.25,11.56C435.83,112,433.77,111.9,433.67,113.79Z"/><path class="cls-21" d="M405.32,535.1c21.61,1,43-1.79,64.5-3.38a142.76,142.76,0,0,1,24.18.55L452,570.4c-8.44-6.72-15.49-14.89-23.1-22.45-5.21-5.18-10-10.6-18.39-9.7-1.29.13-2.67-.78-3.9-1.48Z"/><path class="cls-22" d="M200,569.37,156.94,531c31.61-.55,60.81,5.05,90.26,4.14l-1.32,1.69c-.87.34-1.77,1-2.61.95-10.84-.79-16.39,7.23-23.18,13.47C213.46,557.37,208.53,565.36,200,569.37Z"/><path class="cls-12" d="M466.49,336.57l18.42-3.91c-2.29,4.07-4,7.23-5.81,10.34-14.79,25.64-29.79,51.17-44.27,77-3.53,6.29-6,7.48-10.21,1.08a70.24,70.24,0,0,0-5.41-6.45c13.42-21.23,25.25-43.39,38-65C459.91,345,461.77,339.76,466.49,336.57Z"/><path class="cls-23" d="M266.72,254c-8.8,12.37-15.8,22.84-21.43,34.12-.5,1-18,3.7-18.68,2.91-1.63-1.89,0-3.57.7-5.11,4.08-8.73,8.31-17.39,12.49-26.07,1.49-3.1,3-6.2,5.59-11.69-6.8,4.22-11.47,7-16,10-3.15,2-4.39,1.55-4.8-2.39-.69-6.45.38-11.64,5.73-16.24a106.06,106.06,0,0,1,26.47-16.64c-3.94,10.88-7.52,20.71-7.59,31.44,0,6.36,1.49,7.59,6.92,4C258.51,256.72,261.54,256,266.72,254Z"/><path class="cls-24" d="M200.31,95.29,91.46,95.11,84,86.7a31.11,31.11,0,0,1,5.42-1q60.61-.07,121.23,0a31.25,31.25,0,0,1,5.43,1Z"/><path class="cls-21" d="M214.2,505.65c-1.16-3.3-4-2.65-6.52-2.79-10.07-.54-20.14-1.11-30.21-1.59-3.21-.16-4.84-1-2-4,7.25-7.66,14.58-15.24,21.89-22.85,11.26,1.45,22.71,0,33.93,2.12,1.94.37,4.22-1,5.8,1.15Z"/><path class="cls-25" d="M409.4,151.45c7.83-14.08,21.93-19,38.07-18.34,18,.76,32.51,8.94,47.76,16.21a192,192,0,0,0,28.13,11.09c8.81,2.61,15.48-.57,22-8.07l-13.7-.92c12-5.12,19.89-11.56,23.38-22.24-7.61,1.24-7.82,1.18-5.67-6.28,2.74-9.55-4.19-14-9.61-19.37,4.26.93,7.61,3.62,11.08,6,11.35,7.7,12.69,11.9,8.17,24.74-2.34,6.65-4.39,13.39-8.42,19.33C542.13,166,534,168.8,519.8,163.72c-16.59-6-33.14-12-49.75-17.91-6.63-2.37-13.54-4.05-20-6.79-14.49-6.14-26-1.37-36.42,8.85C412.31,149.16,410.81,150.26,409.4,151.45Z"/><path class="cls-26" d="M454.69,79.76c-6.69-7.78-16-11.41-25.06-15.11-11.43-4.65-23-9.15-37-9.53L399.21,63c-26.79-8.32-52.2-13.4-77.28-19.84,30.53,1.19,61.3-.25,91.19,8.12C430,56,445.67,63.49,461.24,71.38c5.78,2.93,5.52,6.84,3.09,10.66-3.18,5-4.95-1.52-7.64-1.83A18,18,0,0,1,454.69,79.76Z"/><path class="cls-21" d="M477.56,501.12c-10.2.59-20.42,1-30.6,1.87-2.83.24-7-.71-7.52,4.17l-23.17-28.55a2.18,2.18,0,0,1,2.36-2c11.19,0,22.26-2.15,33.51-1.59,4.1.2,6.49,2,8.48,5.08l0,0c4.64,6.6,11.75,11,15.92,18C477.09,499.06,478.07,499.81,477.56,501.12Z"/><path class="cls-27" d="M582,72.29c-2.6,2-4.08,2.56-4.74,3.66-7,11.54-17.08,11.35-29,9.44-22.31-3.55-44.9-5.45-67.35-8.15-1.79-.21-4.89.68-4.72-2.68.13-2.64,2.61-2.25,4.42-2.25C513.84,72.28,547.07,72.29,582,72.29Z"/><path class="cls-16" d="M425,504.56l-33.8,2.22A73.38,73.38,0,0,1,379,495c-4.71-5.58-8.77-11.79-17.12-12.35-1.36-.09-2.65-1.17-1.47-3,1.92-1.65,4.29-1.88,6.62-1.82,10.54.28,20.93-1.76,31.44-2.1Z"/><path class="cls-28" d="M347.67,400.09l17.91-1.1c1.7-.11,3.77-1.32,4.51,1.49q-8.47,9.11-16.94,18.23c-6.54,4.57-14.29,2.78-21.45,4.09-4.92-.21-9.7,1.13-14.57,1.36-4.32.19-8.89,1.33-12.61-2.19a123.27,123.27,0,0,1,18.07-19.78C330.75,399.17,339,397.35,347.67,400.09Z"/><path class="cls-16" d="M262.47,506.85l-35.41-2.62,26.78-28.44c9.79.71,19.62,1,29.31,2.7,4.92,2.52,1,4.56-.64,6.12C275.22,491.49,269.16,499.45,262.47,506.85Z"/><path class="cls-29" d="M332.25,442l-16.89,18.26c-4,2.39-8.57,2.12-13,2.75-8.65,1.22-17.4.94-26,2.19-3.45.5-7.12.79-10-2.12,5.65-6.55,11.16-13.24,17.8-18.86,10.2-4.79,21.24-3.72,32-4.64,3.26.11,6.29-1.62,9.58-1.22C328.39,438.66,331.53,438.18,332.25,442Z"/><path class="cls-30" d="M347.67,400.09a124.83,124.83,0,0,1-25.08,2.1c3.68-2.75,4.06-9.93,11.11-8.32.31.07,1.12-1.28,1.43-2.08,5.87-15,19.37-23.88,28.94-35.92,2.62-3.31,7.41-2.4,11.22-3.38,4.19.78,2.37,2.7,1.09,4.87C367.62,372.15,357.58,386.08,347.67,400.09Z"/><path class="cls-21" d="M126.84,150.31l-7.24,7.06c-3.47,1-5.17-1.72-7-3.62C94.51,135.3,77.57,115.81,60,96.9c-4.18-4.5-3.07-8.9-.17-13.4L61.36,82c10.14,6.59,17.91,15.81,26,24.51C100.72,120.92,114.28,135.17,126.84,150.31Z"/><path class="cls-10" d="M59.83,83.5c-2.24,6.59.34,11.1,5.06,16,16.6,17.3,32.59,35.2,48.87,52.81a67,67,0,0,0,5.84,5c-7.92,8.81-7.86,8.75-15.65-.29-15.06-17.5-30.25-34.89-45.3-52.39C49.1,93.59,49.17,93.53,59.83,83.5Z"/><path class="cls-29" d="M383,394.86a160.83,160.83,0,0,1,18.61,20.85c.64,7.68.56,15.38.49,23.07,0,3,.07,6.13-2,8.7q-.15,6.21-.31,12.42a183.58,183.58,0,0,1-18.63-21.35c-3.47-13.79-4.05-27.57.21-41.32Z"/><path class="cls-31" d="M398.49,475.75c-.69,3.85-3.78,2.73-6.15,2.9-10.7.78-21.41,1.48-32.12,2.21-.79,2.06-2.12,1.49-3.5.71l-18.86-20.1c-.3-2.79,2.11-3.21,3.65-3.12,14.78.87,29.8-.25,44.15,4.7C390.83,466.38,394.47,471.26,398.49,475.75Z"/><path class="cls-32" d="M266.36,463.06c13.77-1,27.54-2,41.31-2.86,2.55-.17,5.13,0,7.69,0L297.23,480.1c-2.81,2.11-6.05,2-9.32,1.85a5.5,5.5,0,0,1-3.24-1.6q-12.65-.87-25.27-1.74c-2.24-.16-4.95.56-5.56-2.82Q260.09,469.42,266.36,463.06Z"/><path class="cls-33" d="M282.22,34.41c.27,1,3.57,2.66-.48,2.68-5.84,0-11.69.39-17.5-1.09-2-.52-5.13-1.39-6.48.92-1.14,2,1.06,3.78,2.24,5.48.76,1.1,3.28,2.43-.28,3.16a21.17,21.17,0,0,1-15.5-7.17c-2.35-2.61-5.74-2.54-10.85-5.1,5.27,6.43,11.94,8.55,12.41,15.71-3.82.82-6.83-2.71-10.52-2.78-1.61,4.55,5.64,7.6,1.6,12.21a244.58,244.58,0,0,1-18-30c-.83-1.63-2.56-3.41-1.27-5.12s3.53-.78,5.33-.5C242.84,25.9,262.63,29.63,282.22,34.41Z"/><path class="cls-34" d="M466.49,336.57q-21.51,37.64-43,75.26c-.91,1.59-1.71,3.53-4.23,2.8L415,410.24c.56-7.7,5.95-13.09,9.46-19.31,9.91-17.55,20.26-34.85,30.43-52.25Z"/><path class="cls-35" d="M368.33,570.45c8.24,24.4-13.38,55.11-39.06,55.43-4,0-8-.18-12-.28.24-2.88,2.74-3.59,4.66-4.81,18-11.44,32.8-25.86,41.72-45.65C364.59,573.1,365.37,570.61,368.33,570.45Z"/><path class="cls-28" d="M385.66,463.05c-12.11-.8-24.2-1.74-36.32-2.3-3.8-.18-7.83-2.05-11.49.72-9.51-9-9.51-9,2.6-19.42a45.64,45.64,0,0,1,27.79,2.36Z"/><path class="cls-36" d="M576.44,144.47c0,4.83-3.23,8.24-5.4,12q-23.68,41.38-47.58,82.63c-3.92.69-7.72,2.25-11.81,1.74-2.21-2.69,0-4.79,1.1-6.85,2.55-4.64,5.15-9.27,8.67-13.29,14.7-13.09,24.46-29.47,31.71-47.55C557.93,161.24,568.58,154,576.44,144.47Z"/><path class="cls-37" d="M569.91,272.06c-.27-8-.42-15.92-.88-23.87-.16-2.88,1.47-2.81,3.42-3.13,6.69-1.13,13.38-2.27,20-3.67,5.57-1.18,8.33,1.53,8.29,6.49,0,5.14,2.13,10.78-2.24,15.43-.36.38.62,2,1,3.08C595,270.69,575.94,274.34,569.91,272.06Z"/><path class="cls-38" d="M332.45,313.63c-.23-7.75-.09-15.54-.83-23.25-.36-3.71,2.2-3.29,3.76-3.61,7.14-1.42,14.38-2.38,21.54-3.72,4.76-.88,6.2,2.87,6.19,5.65,0,5.35,2.59,11.24-2.16,16.1-1.24,1.27.69,2.48,1,3.75-2.87,4.93-7.67,2.85-11.79,3.24l.13,0C344.47,313.32,338.88,317.53,332.45,313.63Z"/><path class="cls-39" d="M187.19,340.06a3.06,3.06,0,0,0-.85.12c-3.11,2.29-6.27,4.13-10,1.08-.22-7.76-.17-15.54-.8-23.26-.28-3.48,1.75-3.28,3.74-3.62,3-.52,6.24-2.66,8.28,2a73.68,73.68,0,0,0,9.8,16.67c0-5.48.1-11,0-16.43-.11-4.25,5.45-8.56,9.5-7.25,1.64.52,1.16,1.57,1.11,2.73-.36,8-.63,15.95-.93,23.92C201.17,341.1,194.42,341.75,187.19,340.06Z"/><path class="cls-40" d="M380.47,286.12c-1.84-6.05.6-8.35,6.71-8.66,4.84-.25,9.61-1.71,14.43-2.53,7.87-1.34,10.2.54,10.1,8.77,0,4.45,1.77,9.49-2.84,13.09-.16.13.92,1.85,1.42,2.83-2.7,5.44-7.76,3.18-12,3.68l.13,0c-3.9,1.38-7.59,3.53-11.94,3.34-3.75-.16-6.07-1.47-5.9-5.87A113.07,113.07,0,0,0,380.47,286.12Z"/><path class="cls-41" d="M229.75,417.32c-9.45,13.36-9.42,13.35-17.21-.27-5-8.76-9.68-17.77-15.34-26.1-4-5.9-1.58-7.56,3.77-8.4,2.75-.43,5.58-.37,8.38-.53.45-.27,1.05-.41,1.23-.09C217.44,393.47,225.22,404.52,229.75,417.32Z"/><path class="cls-42" d="M19.81,348.53c-1.78-4.66-.38-6.75,4.79-7.2a137.47,137.47,0,0,0,17.28-2.87c6.24-1.35,8.45,1.51,9.08,7.24.69,6.25-1.21,12.1-2.08,18.11-1.29,2.67-3.78,3.46-6.37,3.62-4.69.28-9.18,1.49-13.74,2.36-7,1.34-8.88-.26-8.94-7.25C19.79,357.87,19.86,353.2,19.81,348.53Z"/><path class="cls-43" d="M126.84,150.31c-8.42-3.55-12.42-11.74-18.28-17.86-15.38-16-29.22-33.54-46.39-47.84-.58-.49-.55-1.7-.81-2.58,3.93-4,7.59-2.85,10.9.76,18.63,20.32,37.18,40.72,55.86,61C131,146.93,129.64,148.6,126.84,150.31Z"/><path class="cls-40" d="M459.07,291.63c-.37-7.95-.63-15.9-1.19-23.84-.17-2.3.76-3.06,2.64-3.08,3.17,0,6.88-3.06,9.2,1.87a81.91,81.91,0,0,0,10,16.82c0-6,.09-12.06-.05-18.08,0-1.52-1.57-3.49.81-4.08,2.9-.73,6.15-1.54,8.9-.87,2.15.52,0,3.18,0,4.89.45,5.11-.16,10.26.27,15.36.49,5.77-1.88,8.79-7.57,9.47-2.77.33-5.49,1.1-8.31,1-2.72-.63-5.25-.67-7.83,1C463.78,293.48,461.22,293.82,459.07,291.63Z"/><path class="cls-44" d="M433,180.35c-4.71-.94-10.68,2.5-12.76-2.13s.59-10.37,3.23-14.65c2.08-3.37,5.94-3.5,10.37-1.77,5.72,2.24,11.44,6.06,18.53,2.56,3.6-1.77,6.21,5.5,11,3.19.46,2.76,1.33,5.54,1.24,8.28-.08,2.23-2.57,1.49-4,1.65C451.22,178.52,441.87,179.44,433,180.35Z"/><path class="cls-23" d="M350.42,252.66c.18-5.34-1.73-6.86-7.2-5.16-3.56,1.1-6.72,2.94-11.36,4.68,1.78-5.66,3.19-10.45,4.81-15.16,1.37-4,.11-4.72-3.51-3.34-3.87,1.47-7.79,2.82-11.68,4.22,11.75-10.06,24.64-18.47,39.75-27.88C355.31,225.18,353.93,239.15,350.42,252.66Z"/><path class="cls-45" d="M316.42,441.35l-32.26,2.85L304.52,422l27.21-1.08C329.48,429.84,323.17,435.75,316.42,441.35Z"/><path class="cls-10" d="M200,569.37c10-10.28,19.88-20.75,30.19-30.74,4.38-4.25,10.41-1.2,15.66-1.78Q228,556.73,210.06,576.58c-3.5,3.85-7.5,4.27-11.71,1,2.35-.41,6.05,1.66,6.85-.92C206.27,573.21,201.42,572.14,200,569.37Z"/><path class="cls-28" d="M289.5,388c3.51-7.6,9-13.91,13.59-20.78a4.42,4.42,0,0,1,4.69-2.23c4.63,9.09,2.12,18.65,1.79,28.06,0,.9-.43,1.81-.54,2.74l-17.35,19.55a3.52,3.52,0,0,1-2.54-3.1C288.65,404.13,286.61,396,289.5,388Z"/><path class="cls-10" d="M406.65,536.77c10-1.76,17.58,1.79,23.78,9.83,6.55,8.48,16.43,14,21.61,23.8a4.58,4.58,0,0,0-.51.47c-1.52,1.92-5.28,3.24-4.37,5.63,1.21,3.19,4.9.55,7.42,1.17-4.56,3.44-8.46,2.22-12-1.66Q424.62,556.38,406.65,536.77Z"/><path class="cls-39" d="M532.88,278.09c-.3-7.7-.4-15.42-1-23.1-.23-3,1.55-2.87,3.33-3.2,8.27-1.51,16.59-2.8,24.79-4.6,3.88-.86,4.18,1.26,3.67,3.7s2.75,7.57-3.45,7c-4.36-.43-8.31,1.16-12.46,1.4-5.47.32-5.62,3.65-5.24,7.7.57,6.07,4.75,2.11,6.84,2,4.47-.15,10.17-3.23,7.52,5.67C549.15,277.65,541.52,281.45,532.88,278.09Z"/><path class="cls-42" d="M57.29,362.44c-.39-7.95-1.23-15.91-1-23.84.12-5.06,5.34-3.31,8.25-4,3.77-.89,2.24,2.1,2,4.05a28.16,28.16,0,0,0-.21,7.71c.47,2.59-2.62,7.51,3.22,7.2,4.37-.23,10-.11,8.73-7.59-.44-2.52.49-5.36-.27-7.71-1.83-5.64,1-6.27,5.6-7.21,5.75-1.17,5.39,1.17,4,5,.1,5.83,0,11.66.08,17.49.07,3.53-1.3,6.22-4.78,6.66-7.58,1-15.1,2.24-22.6,3.65C59.23,364.08,58.15,363.29,57.29,362.44Z"/><path class="cls-46" d="M619.23,264c-5-2.61-13.13-.71-12.85-10.53.39-13.88.46-14.45,14.56-17,3.69-.66,7.38-1.4,11.09-1.77s5.11,2.56,5.3,5.32,2.34,7.15-2.39,8.25c-2.33.55-5.57,3.86-7.8-1.51-1.46-3.51-5.3-.12-8.07-.16-2,0-2.75,1.2-2.81,3.21-.09,2.84,1.88,3.32,3.9,4.13,4.54,1.84,9,3.87,13.51,5.83C630.23,265.93,624.44,264,619.23,264Z"/><path class="cls-47" d="M255.3,95.29c-.27.88-.3,2.3-.86,2.55-11.25,5.08-8,8.79.53,13.58,3.18,1.79,8.59,4.7,5.8,10.77-12.85-7-27-9.72-42.09-12.51C229,98,240,91,255.3,95.29Z"/><path class="cls-48" d="M289.5,388c1.92,9-.63,18.39,2.18,27.34L270.82,439c-3.61-6.43-2.43-13.17-1.3-19.91A275,275,0,0,1,289.5,388Z"/><path class="cls-49" d="M474.87,161.9c-.64,4-2.48,7.42-4.86,11.68-3.37-5.71-1.64-11.27-2.95-17.14-5.82,6-10.56,6.87-12-4.43-4.14,6.62-7.58,12.69-11.44,2.56-3.07.38-3.81,6.49-6.69,3.33-2.49-2.74-8-4.88-6.29-9.75,1.41-4.12,4.68-7,10-5.12,11.3,4,22.68,7.8,34,11.68C476.3,157.06,475.55,159.48,474.87,161.9Z"/><path class="cls-50" d="M354.66,547c5.14,2.76,5.4,7.07,4,12.06-7.78,27.18-24.28,46.64-50.49,57.82-6.64,2.83-11.7,2.15-15.77-4l.13-.14c10.75-2.25,21.31-4.91,30.48-11.45C340,589.18,350.46,573,353.05,552.07,353.28,550.26,352.69,548.23,354.66,547Z"/><path class="cls-51" d="M369.79,505.59c9.39,10.49,9.4,10.49,2.29,22.92-3.11,5.43-6.27,10.83-9.44,16.32L350,535.26c4.8-8.54,9.62-17.07,14.83-25.37C366,508,366.77,505.44,369.79,505.59Z"/><path class="cls-52" d="M423.23,296.93c.44-8.15,3.32-15.87,3.89-24.09.34-4.94,6.46-2.68,9.89-3.86,3.89-1.34,6.35-1.44,6.27,4.61-.08,6.63,2.19,13.28,3.43,19.92-1.52,3.91-4.63,3-7.59,2.51-2.36-.94-3.23-3-3.93-5-.36,2.28-.92,4.67-2.89,6.46C429.16,299.39,426.07,300.38,423.23,296.93Z"/><path class="cls-39" d="M99.63,354.47c-.43-8.5,3-16.45,4-24.79.63-5.17,9.18-3.31,14.17-4.15,3.45-.57,1.35,3,1.7,4.67,1.41,6.39,2.5,12.86,3.72,19.29-1.44,4.62-4.92,4.81-8.82,4.08-1.59-.55-1.66-2.59-3.18-3.31-1.45,1.67-1.61,4.34-4.08,5.17C104.47,356.23,101.91,356.38,99.63,354.47Z"/><path class="cls-39" d="M297.35,317.29c0-7.54,2.59-14.7,3.64-22.09.88-6.24,8.64-3,13.17-4.42s2,2.83,2.33,4.56c1.4,6.85,2.65,13.74,3.95,20.61-1.62,3.43-4.58,3.3-7.65,2.89-3.27-1-4.05-3.51-3.89-6.61a13.82,13.82,0,0,1-2,6C301,323,299.18,322.77,297.35,317.29Z"/><path class="cls-44" d="M218.85,333.93c.09-8.67,3.38-16.81,4.36-25.41.53-4.7,8.38-3.07,13-3.95s2,3,2.42,4.71c1.47,6.87,2.71,13.79,4,20.69a7.36,7.36,0,0,1-8.32,2.4c-3.89-1.88-2.6-6.06-3.85-9.12-.42-.83-1.33.3-.49-.13.28-.15.38,0,.55.45,1.24,3.13.24,5.89-1.37,8.57C226.05,334.62,223,337.34,218.85,333.93Z"/><path class="cls-51" d="M298.89,535.55l-3.45,2.28c-9.81,6.41-9.81,6.41-15.82-4.19-.58-1-1.09-2.07-1.68-3.08-7.38-12.82-7.38-12.81,2.94-23.26a4.46,4.46,0,0,1,3.92,2.55C289.51,518.41,295.24,526.41,298.89,535.55Z"/><path class="cls-53" d="M254.53,327.43c-2.13-26.45.53-29.54,26.91-31.27,1.82-.12,4.3-.63,3.76,2.37-.46,2.6,2.38,6.27-2.18,7.7a5.31,5.31,0,0,1-.7,0c-5.76,1-12.88.38-16.88,3.6S265,320.54,263.77,326C261.17,329.68,258,329.84,254.53,327.43Z"/><path class="cls-54" d="M496,285a16.5,16.5,0,0,1-.33-2.07c-.93-25.65.91-27.62,26.67-29.28,2.8-.18,4.8.05,4.28,3.46-.39,2.58,1.83,6.38-3.46,6.82-4.87.41-9.67,1.65-14.54,2.23-2.33.28-3.28,1.4-3.52,3.5.1,3.29.15,6.59,0,9.88C504.91,286,502.79,287.21,496,285Z"/><path class="cls-55" d="M252.1,447.24c-7.23-.41-14.47-.77-21.7-1.26-1.77-.12-4.17.86-5.17-1.07-1.1-2.13,1.32-3.2,2.47-4.5,4.34-4.92,8.72-9.81,13.22-14.57,1.84-1.95,3.41-3.86,3.26-6.7q4.4,8,8.78,16.07C253.71,439.29,256.76,443.54,252.1,447.24Z"/><path class="cls-56" d="M229.75,417.32a308,308,0,0,1-20.4-35.3c7.46-3.6,12.61-2,15.93,6.1a61.86,61.86,0,0,0,8.06,14C238.64,409.05,236.26,413.52,229.75,417.32Z"/><path class="cls-57" d="M381.39,397.23l-.21,41.33c-5.35-5.87-10.61-11.83-16.1-17.56-2.26-2.37-2.37-4.11-.06-6.47C370.58,408.85,376,403,381.39,397.23Z"/><path class="cls-58" d="M316.42,441.35l15.31-20.46,21.42-2.17L332.25,442C327.12,438.15,321.67,442.28,316.42,441.35Z"/><path class="cls-59" d="M592.1,82.41c11.81,10.12,11.8,10.11,1.77,21.67-6.75,7.78-13.47,15.6-21.62,22.73l7-23.51c5.79-5.26,13-9.68,11.8-19.23A3.65,3.65,0,0,1,592.1,82.41Z"/><path class="cls-60" d="M369.79,505.59q-7.55,12.54-15.08,25.09c-1.16,1.94-1.68,4.51-4.67,4.58l-6.1-2.88c5.43-12.06,10.74-24.2,20.2-33.85C366.16,500.77,369,502.38,369.79,505.59Z"/><path class="cls-61" d="M284.67,480.35l4.36.27c2.25.78,4.82-.78,7,.91q-12.66,14.09-25.34,28.15c-1.45-4.62-5.54-1.63-8.17-2.83,0-7.27,7.19-9.54,10.38-14.68C275.71,487.56,280.65,484.24,284.67,480.35Z"/><path class="cls-62" d="M252.1,447.24q.43-6,.86-12c2.26,3.4,4,5.5,6.74,0s6.5-10.77,9.82-16.13c1.92,6.54.51,13.3,1.3,19.91l-17.6,20.14C252.85,455.13,252.48,451.19,252.1,447.24Z"/><path class="cls-61" d="M356.72,481.57l3.5-.71c8.79-.67,14.26,4.26,18.62,11.05,3.5,5.46,10.2,8.26,12.31,14.87-2.45,1.86-8.6-3-8,4.39Z"/><path class="cls-63" d="M309,395.76c-2-10.21-.2-20.56-1.25-30.8,3.24-.06,7.55-5.09,9.45.4,2.08,6,11,11.54,2.53,19.2C315.93,388,312.59,392,309,395.76Z"/><path class="cls-64" d="M505.34,297.19a12.57,12.57,0,0,0,11.41-2.78c1.59-2.64,3.47-5.09,7-3.77,4.25,1.6,2.52,5.18,2.24,8.21-1,4.45-3.85,6.6-8.39,7-3.49.31-6.94,1.06-10.39,1.68-10.16,1.85-12,.21-11.26-10.27C500.83,291.82,502.27,291.81,505.34,297.19Z"/><path class="cls-35" d="M316.47,625.58c-2.73.45-5-1-9.11-2.47,28.83-12.65,48.12-32.65,56.31-62.8,2.79,1.28,3.2,3.63,4.18,5.54-8.19,24.73-24.4,42.79-46.51,55.95C319.56,622.86,317.33,623.35,316.47,625.58Z"/><path class="cls-65" d="M298.89,535.55c-6.45-6.07-9.13-14.57-13.94-21.7-1.44-2.13-2.72-4.37-4.07-6.55,1.52-2,3.05-4,4.58-6.05.92.07,2.37-.2,2.67.27,6.3,9.92,13.85,19.18,16.81,30.92Z"/><path class="cls-66" d="M50.39,375.31c.92,10.6-.75,12.87-10.75,14.7-5.52,1-11,2-16.53,3.17-4.91,1.07-4.56-1.35-3.33-4.57.12-10.41.56-10.9,8.82-9.89,2.81.92,5.68.62,8.53.28,2.67.09,3.4-2.57,5.22-3.69C45,373.76,47.72,373.11,50.39,375.31Z"/><path class="cls-67" d="M548,290.75c3.2-.66,6.37-1.52,9.61-1.93,2.07-.27,5.52-4.64,6,1.2.27,3.22,2.1,7.72-4.08,8.5-6.71.83-13.37,2.13-20,3.57-5.32,1.15-9.1,1.28-7-6,.5-1.74.25-3.71.35-5.57,2.25-4,5.63-4.17,8.41-1.34C543.54,291.4,545.52,291.32,548,290.75Z"/><path class="cls-68" d="M285,334.37c.52,11.15-.67,12.63-11.34,14.3a62.44,62.44,0,0,0-9.7,1.83c-4.46,1.47-7.26.25-8.85-4.08-.63-9.08,1.17-10.72,8.69-7.9,3.9,3.79,7.67.27,11.49-.19C277.08,333.52,279.69,330.66,285,334.37Z"/><path class="cls-68" d="M620.43,277.84l7.27-1.72c2.1-6.85,4.26-7.46,9.67-2.72.93,7.46-1.52,12.25-9.75,13a92.75,92.75,0,0,0-13.12,2.26c-3.33.8-5.43-.16-6.87-3.1-1.07-2.24-.41-4.63-.53-6.95-.14-2.59,1.47-3.86,3.74-4.39,1.9-.45,3.84-.65,4.59,1.83C616.31,279,618.24,278.74,620.43,277.84Z"/><path class="cls-69" d="M521.42,220.74c-1.3,7.67-7.8,12.8-9.78,20.14l-26.21,5.68C495.19,232,510.31,229.2,521.42,220.74Z"/><path class="cls-70" d="M99.63,354.47l8.48-.79c2.15-.14,4.06-1.47,6.28-1.28,3.13-.37,6.42-.28,8.79-2.92,1,4.32,2.42,8.56,2.15,13.08-2.46,2.38-5.57,2.78-8.78,2.86-4.38-2-7.91-.75-10.84,2.83-2.85-.87-6-.13-8.75-1.44C96.77,362.46,98.11,358.44,99.63,354.47Z"/><path class="cls-71" d="M311.69,317.55l8.75-1.6,2.61,11.38a36.55,36.55,0,0,1-8.66,4.33c-3.51-3.53-7-1.47-10.56,0-3.21.87-6.42,1.72-9.81,1.18,1.11-5.18,2.23-10.37,3.33-15.53,2.47,4.92,5.52,2,8.46.64C307.77,317.73,309.76,318.13,311.69,317.55Z"/><path class="cls-72" d="M438.09,294.94c2.9-.33,5.92.12,8.62-1.44,1.48,4,2.8,8,2.7,12.39-2.85,1.43-6.1,1.69-9,3.08-4.08-3.33-7.49-1.46-10.77,1.39-3.11.75-6.12.84-8.71-1.49-.31-4.19,1.31-8,2.27-11.95a11,11,0,0,0,8.6-.64C433.91,295.83,435.91,295,438.09,294.94Z"/><path class="cls-73" d="M234.15,331.25l8.49-1.28a31.67,31.67,0,0,1,2.75,12.68c-2.87,1.12-6.07,1.27-8.73,3-3.63-5-7.26-.88-10.89,0-3.24.21-6.29,1.84-9.63,1.28q1.35-6.5,2.71-13l9.08-2C230,332,232.07,331.38,234.15,331.25Z"/><path class="cls-74" d="M29.06,380.82c-8.83-4.22-8,3-9.29,7.8q0-20.08,0-40.11c.17,5.12.51,10.22.45,15.31-.05,3.87,1.79,5.05,5.21,4.42,7.81-1.43,15.61-2.95,23.41-4.43,3.52,3.44,1.55,7.6,1.51,11.5l-8.25,1.61a2.82,2.82,0,0,1-1.51-1.18c-1.23-1.77-.92-5.09-4.14-4.87-2.87.19-4.44,2.3-5.28,4.92C30.66,377.53,30.66,379.51,29.06,380.82Z"/><path class="cls-75" d="M155,344.5c.39-8.15,2.87-16,3.55-24.17.47-5.73,7.24-2.49,12-4.88-2.49,10.38-4.7,19.57-6.9,28.76C160.89,346.3,158,346.89,155,344.5Z"/><path class="cls-76" d="M57.29,362.44c8.36-1.39,16.68-3,25.07-4.1,4-.54,5-2.57,5-6.19-.07-5.37.22-10.75.36-16.11q0,19.93.06,39.82c-2.6-2.49-4.93-5.48-9.17-4.89-.65-8.81-3.18-10.49-10.16-7.11-4.27,2.06-1,6-2.56,8.65-2.83,2.3-5.68,2.35-8.56.09C57.29,369.21,57.29,365.83,57.29,362.44Z"/><path class="cls-77" d="M141.16,347.39c-1.91-7.4-4.06-14.75-5.65-22.23-1.26-5.9,4.51-2.76,6.68-4.41,1.12-.86,4.54-1.79,4.37,1.9-.34,7.36,3.17,14.06,3.34,21.31C149.24,350.84,145.21,349.13,141.16,347.39Z"/><path class="cls-78" d="M569.91,272.06c9.92-1.59,19.91-2.78,29.58-5.67,2.65,4,1.16,8.42,1.13,12.69-4,.29-6.07,3.93-9.46,5.27a22.29,22.29,0,0,0-.34-4.19c-.86-3.2,2.54-9.2-3-9-4.08.14-9.49,3.37-8.36,10a7.23,7.23,0,0,1-.26,2.08c-3.19.65-6.24,1.83-9.38,2.68Q569.89,279,569.91,272.06Z"/><path class="cls-79" d="M354.66,547c-2,32.39-23.57,58.63-53.8,65.2-2.7.58-5.57.41-8.36.59-.14-2.48,1.69-2.37,3.33-2.52,30.29-2.77,58-34,55.74-66.29C353.66,543.91,354.1,545.51,354.66,547Z"/><path class="cls-80" d="M446.58,240.63c3.16,2.9,4.2,7.5,8.19,9.76-12.44,8-23.57,6.05-32-5.43C430.79,244,438.91,243.57,446.58,240.63Z"/><path class="cls-81" d="M368.24,444.41l-27.79-2.36c12-15.4,12-15.41,24.81-1.48C366.35,441.76,367.25,443.13,368.24,444.41Z"/><path class="cls-82" d="M473.11,289.56c15.87-3.38,15.86-3.38,15.94-19.5,0-1.61.22-3.23.34-4.82q0,21.52-.07,43c-1.93-8.25-8-8.73-14.79-7.89l-4.2-8.36C469.6,289.3,471.9,290,473.11,289.56Z"/><path class="cls-83" d="M141.16,347.39c3-.92,7.21,1.19,8.74-3.45,1.38,2.37.31,5.58,3,7.82L155,344.5l8.69-.29c-.66,4.76-.75,9.65-3,14.08-5.86-1.87-11.2,2.47-17,1.46C142,355.81,141.57,351.61,141.16,347.39Z"/><path class="cls-84" d="M143.74,359.75c5.6-1.31,10.75-7.72,17-1.46-1.86,3.59,3.73,10-4.86,11.21C145.4,371,145.45,371.36,143.74,359.75Z"/><path class="cls-85" d="M446.58,240.63c-6.94,7-15.3,6.07-23.82,4.33-.91-1.29-2.69-2.73-1-4.23,5.39-4.79,12.85-3.91,19.16-6.35C443.55,233.37,445,238.19,446.58,240.63Z"/><path class="cls-86" d="M491,174.49c6.4-14.17,2.81-11.69,16.07-8.75a44.41,44.41,0,0,1,14.58,6Z"/><path class="cls-87" d="M518.64,91.32c-16.17,3.62-31.9.56-47.7-.82-1.31-.12-3.2-.58-2.82-2.36.54-2.54,2.91-1.93,4.66-1.74C488.07,88,503.36,89.67,518.64,91.32Z"/><path class="cls-88" d="M316.47,625.58c-1.12-1.54-.52-2.48,1-3.28,23.29-12.1,39.4-30.59,48.86-55,.23-.59,1-1,1.51-1.45l.48,4.61c-10.77,24.15-27.55,42.74-51,55.14l-.42.13Z"/><path class="cls-89" d="M207.07,347c.08,2.82,0,5.66.3,8.46.36,3.5-1.08,5.16-4.51,5.7s-6,.56-7.25-3.39a62.83,62.83,0,0,0-2.78-6.44c-1-3.95,1.56-5.47,4.58-6.33C200.87,344,204.64,342.56,207.07,347Z"/><path class="cls-90" d="M467.54,227.66c-3.88,4.44-7,10.41-11.85,12.75-3.64,1.75-6.07-4.75-8-8.21-1.8-3.18,2-3.08,3.57-3.64,4-1.4,8.12-2.42,12.23-3.42C465.29,224.7,467.23,224.67,467.54,227.66Z"/><path class="cls-91" d="M380.47,286.12c.2,4.14.79,8.32.49,12.43-.42,5.75,2.2,6.83,7.14,5.92,3.4-.64,6.75-2.12,10.34-1.21-3.68,3.66-10,5.52-8.61,12.64-3.66,1.27-6.87,2.89-7.16,7.49-.05.94-.5,2.41-2.21,1.73Z"/><path class="cls-92" d="M207.07,347c-5.77-1.9-11-2-14.24,4.33l-5.64-11.27,19.85-4Z"/><path class="cls-71" d="M548,290.75c-2.09,1.54-4.4,1.77-6.28,0-3-2.74-5.83-1.83-8.82-.31,0-4.13,0-8.27,0-12.39l24-3.43c-1,5.79-6,3.84-9.28,4.33-5.41.83-4.9,4.22-5.13,8.09C542.17,292.1,545.68,290.31,548,290.75Z"/><path class="cls-93" d="M474.53,300.36c12.19-5.66,13.73-4.84,14.78,7.9-5.8,5.19-8.78,4.83-12-1.56C476.27,304.64,475.45,302.48,474.53,300.36Z"/><path class="cls-94" d="M434.84,91.24c-12,4.21-17.87,2.34-30.08-9.61C409.61,81.2,429.37,87.5,434.84,91.24Z"/><path class="cls-95" d="M591.87,83.68c2.51,7.83-5.76,20.71-12.61,19.62.51-2,.68-4.17,1.57-6,2.58-5.34,1.34-8.4-4.78-9C581,85.53,586,83.34,591.87,83.68Z"/><path class="cls-96" d="M637.37,273.4c-4.16-2.42-7.48-1.84-9.67,2.72,1.67-7.19-2.47-10.31-8.47-12.13,4.45-2.61,10.16-.95,14.43-4.2C641.21,262.61,636.47,268.77,637.37,273.4Z"/><path class="cls-97" d="M332.45,313.63l17.88-1.88c-4,3.44-9.81,5.61-8.73,12.58-5.29,0-5.71,5.77-9.25,7.85Z"/><path class="cls-98" d="M294,332.8c3.1-1.85,6.18-3.78,9.81-1.18-.35,2.75-1.11,5.53-.91,8.25.13,1.84.41,3.48-1.57,3.86-3.17.61-6.62,1.51-9.57.76-2.14-.54.21-3.2.48-4.9A67.72,67.72,0,0,1,294,332.8Z"/><path class="cls-99" d="M256.92,285.74a68.82,68.82,0,0,1,11.91-18.91C271.45,284.59,271.11,285.15,256.92,285.74Z"/><path class="cls-100" d="M363,318.75c.16,2.54-.16,5.23.57,7.59,2.54,8.29-4.07,8-8.12,7.56-5.18-.51-1-5-1.6-7.57C353.83,317.73,355.75,316.14,363,318.75Z"/><path class="cls-101" d="M526,298.85c-1.09-8.29-2.15-8.8-9.21-4.44l.42-13.63c2.54-2.51,7.19-3,7.33-7.8,1.46-.7,2.45-.07,2.32,1.36C526.07,282.5,527.71,290.73,526,298.85Z"/><path class="cls-102" d="M421,308.87c2.94.29,6.17-1.12,8.71,1.49-1,5,1.77,12-7.49,12.35-3.95.14-5.92.15-4-4.5A95.74,95.74,0,0,0,421,308.87Z"/><path class="cls-103" d="M216.14,346.92c3-2.15,6-4.43,9.63-1.28a53.55,53.55,0,0,0-1,6.84c-.07,1.94,1.54,4.39-1.69,5a41.56,41.56,0,0,1-8.93,1c-1.33,0-.88-1.8-.55-2.91C214.43,352.7,215.28,349.81,216.14,346.92Z"/><path class="cls-104" d="M97,366.81c3.18-1.15,6.56-3.43,8.75,1.44-.37,5.44,1.07,11.87-8.12,11.48-3.77-.16-4.41-.9-3.15-4.24C95.49,372.68,96.13,369.71,97,366.81Z"/><path class="cls-105" d="M505.34,297.19c-3.18-4.61-6.29-1.5-9.42.08q0-6.15.08-12.28c6.83.6,9.86-2.28,8.82-9.28-.29-2,.16-4.07.28-6.09Q505.22,283.43,505.34,297.19Z"/><path class="cls-106" d="M185.85,352.63a39.3,39.3,0,0,1,.2,6.31c-.19,1.66,2.66,3.86-.19,4.81a33.8,33.8,0,0,1-9.62,1.44c-1.4,0-1-1.65-.83-2.83.4-2.77.63-5.56.93-8.34C178.92,349.56,181.89,347.69,185.85,352.63Z"/><path class="cls-107" d="M116.55,365.42c2-3.69,5.59-2.73,8.78-2.86a20.6,20.6,0,0,1,1.4,3.81c.5,3.25,5.4,7.15-2.71,8.83-7.58,1.57-7.13-2.29-7.12-7A21.39,21.39,0,0,0,116.55,365.42Z"/><path class="cls-108" d="M569.84,285.92c2-4.78,5.37-4.9,9.38-2.68.1,1.62-.15,3.37.36,4.86,2.74,8.08-3.46,7.71-7.86,7.69-6.72,0-.39-4.94-2.09-7.15C569.22,288.1,569.75,286.84,569.84,285.92Z"/><path class="cls-109" d="M440.44,309c1.76-4.59,5-4.86,9-3.08.52,1.76,1,3.54,1.57,5.3s2.9,4.25.49,5.48c-2.77,1.41-6.23,1.62-9.42,1.91-1.43.12-1.17-1.55-1.19-2.7C440.8,313.57,440.59,311.27,440.44,309Z"/><path class="cls-110" d="M332.35,332.18c1.48-4.51.58-11.81,9.25-7.85.25,2.54.48,5.09.77,7.63.2,1.73,1.55,3.89-1.28,4.58s-5.71,1.78-8.17,1.14C330.31,337,332.37,334.11,332.35,332.18Z"/><path class="cls-111" d="M314.39,331.66c1.14-4.93,4.93-4.58,8.66-4.33.59,2,1.32,4,1.75,6.06s2.83,4.5.52,5.68c-2.77,1.41-6.92,2.65-9.38,1.54C312.86,339.21,315.57,334.65,314.39,331.66Z"/><path class="cls-112" d="M236.66,345.63c1.08-6.36,5-4.35,8.73-3,.39,4.28,7.85,10.12-3.32,11.68C232.31,355.7,238.86,348.23,236.66,345.63Z"/><path class="cls-113" d="M411.49,317.88c.55,2,3.07,4.52.2,5.91s-6.42,2.21-9.31,1.59c-2.59-.56-.08-3.52-.12-5.42,0-2.29.23-4.59.36-6.88,1.57-3,4.18-3.74,7-2.5C413,312.08,411.6,315.24,411.49,317.88Z"/><path class="cls-114" d="M263.78,338.52c-6.19-1-9,1.69-8.68,7.91-2-6.29-.69-12.66-.57-19l9.24-1.4Q263.78,332.29,263.78,338.52Z"/><path class="cls-115" d="M591.16,284.35c1.6-4.54,3.52-8.52,9.46-5.27.1,1.61.55,3.3.23,4.82-.49,2.29,3.15,5.2-.47,6.7-2.68,1.11-6.35,2.14-8.69,1.14C588.85,290.53,591.59,286.89,591.16,284.35Z"/><path class="cls-116" d="M380.46,325.12c1.56-4.67-.31-12.82,9.37-9.21.24,2.5.3,5,.77,7.5.36,1.81,1.51,3.91-1.11,4.5-3,.68-6.05,2.14-9.18,1C380,328.78,380.39,326.43,380.46,325.12Z"/><path class="cls-117" d="M57.28,372.6l8.56-.09c.17,2.31.32,4.61.52,6.92.16,1.87,2.27,4.33-.79,5.32-2.78.89-6.11,1.82-8.69,1s0-3.62,0-5.57C56.84,377.68,57.14,375.14,57.28,372.6Z"/><path class="cls-118" d="M468.56,311c-.23,6.58-5.77,4.07-8.68,4.28-4.33.31-1.28-3.23-1.29-5,0-2.77.3-5.55.48-8.33,7.11-3.35,9.09-2.32,9.3,4.87A26,26,0,0,0,468.56,311Z"/><path class="cls-119" d="M548.55,96.05c5.54.51,11.08,1.1,16.63,1.52,3.65.27,4.13,2.15,3.27,5.24s-2.6,4.27-5.66,2.69l-14.72-7.58Z"/><path class="cls-120" d="M397.31,260.58c3.85-3.57,6.2-6.19,9-8.19,2.09-1.49,4.24-5.56,6.8-3.17,1.68,1.57,1.3,5.76,1.19,8.76-.16,4.38-3.75,2.35-5.94,2.54C405.35,260.77,402.31,260.58,397.31,260.58Z"/><path class="cls-121" d="M78.56,371c6.88-5.51,8.68-1.53,9.17,4.89.66,1.68,2.1,4-.07,4.88a18.73,18.73,0,0,1-9.5,1.35c-2.14-.38,0-3.14,0-4.84C78.09,375.16,78.4,373.06,78.56,371Z"/><path class="cls-91" d="M411.49,317.88c-.23-6.65-3.48-7.7-8.87-4.8-.89-3.5,1.21-8.32-4.31-9.78l12-3.69C412.85,305.56,411.75,311.75,411.49,317.88Z"/><path class="cls-122" d="M468.56,311c-1-5.26-1.14-11.49-9.49-9.1V291.63c4.85.46,9.08-3.31,14.05-2.08L470.33,292C465.72,298,469.9,304.74,468.56,311Z"/><path class="cls-123" d="M285,334.37c-4.08-.73-7.38.44-9.71,4q.23-7.51.44-15c2.91-3.06,6-2.82,9.27-.59Z"/><path class="cls-124" d="M185.85,352.63c-3.61-2.56-6.61-.94-9.51,1.39q0-6.37,0-12.76l10-1.08Q186.1,346.41,185.85,352.63Z"/><path class="cls-97" d="M363,318.75c-5.68-.64-8.93,1.65-9.15,7.59-2.1-4.64,2.9-11.06-3.69-14.55L362,308.55C364.43,311.74,363.21,315.3,363,318.75Z"/><path class="cls-125" d="M591.87,83.68c-4.87,2.91-10,5.09-15.82,4.64-.88-5.31,3.92-6.65,6.85-8.5s6.82-.76,9.2,2.59A5,5,0,0,0,591.87,83.68Z"/><path class="cls-126" d="M620.43,277.84a3.31,3.31,0,0,1-4.39.84c-7.3-4.07-8.09-3.64-8.3,4.83,0,.69-.07,1.39-.11,2.08-3.27-10.25-1.62-15.18,5.2-16.18,3.17-.47,4.37.2,3.5,3.54S616.43,278.42,620.43,277.84Z"/><path class="cls-127" d="M460.62,480.07c-5.52-6-12.78-4.53-19.55-4.14-8.29.48-16.53,1.76-24.8,2.69l-2.69-2.91c12.69-.48,25.39-.92,38.08-1.46C456.12,474.06,459.63,475.05,460.62,480.07Z"/><path class="cls-128" d="M285,322.72l-9.27.59c-2.18-8.27,5-6.39,8.75-8.41C285.84,317.64,285.19,320.2,285,322.72Z"/><path class="cls-129" d="M237.07,477.69l-39.73-3.27c13.82-1,27.54,1,41.32,1.37Z"/><path class="cls-130" d="M524.5,273c4.26,8.89-2.49,7.45-7.33,7.8C514.44,273.32,520.55,274.16,524.5,273Z"/><path class="cls-131" d="M331.21,370.43c-2.13-2.9-5.85-5.34-3.59-9.2.86-1.47,4.63-2.43,5.62-1.09C335.84,363.67,331.7,366.74,331.21,370.43Z"/><path class="cls-132" d="M474.78,242.06c-4.24,4.59-5.73,8.84-10.88,7.28-1.28-.38-3.41-1.76-2.72-2.53C464.06,243.6,468.35,243.62,474.78,242.06Z"/><path class="cls-133" d="M480.41,176.13l-4.83-.94a12.63,12.63,0,0,1,.89-3.19c1.69-2.88,2.88-.46,4.22.5.34.25.92.54,1.24.42,1.95-.75,5.1-4.21,5.41.15C487.64,177.17,482.55,174.48,480.41,176.13Z"/><path class="cls-134" d="M41.18,92.42c-.91-2-4-4.38-2.59-5.87,2.23-2.38,5.84-1.49,8.87-.21Q44.31,89.37,41.18,92.42Z"/><path class="cls-135" d="M474.87,161.9l-.18-7.19c4.33,1,10.93.28,6.63,8C478.66,165.06,478.17,155,474.87,161.9Z"/><path class="cls-136" d="M393.8,140.41a16.32,16.32,0,0,1,12.59-4.68l-9.59,6.09Z"/><path class="cls-137" d="M485.59,158.86c3.66-.08,6,.1,5.86,3.41-.05,1-1.15,2.88-1.6,2.83C486.52,164.7,487.33,161.39,485.59,158.86Z"/><path class="cls-138" d="M74.39,144.59l-1.75,1.59a24.94,24.94,0,0,1-5.36-9.71C70.18,138.71,73,141.06,74.39,144.59Z"/><path class="cls-139" d="M323.66,113.39c-2.31.58-1.94-2.08-3.26-2.7a18.85,18.85,0,0,1,6.82-7.33C328,107.66,322.52,109.38,323.66,113.39Z"/><path class="cls-140" d="M605.19,86.45c2-1.58,4.38-2,5.91-.08,1.06,1.37-.65,2.76-2.18,3.45Z"/><path class="cls-16" d="M296,481.53c-2.26-.77-4.85.82-7-.92l8.23-.51Z"/><path class="cls-141" d="M433.67,113.79l-1.73-1c1.31-1.28,2.72-2.33,4.71-2l.12,1.62Z"/><path class="cls-142" d="M244.22,38.39l15.5,7.17c15,7.3,24.87,19.93,35.67,33.92a130.92,130.92,0,0,1-40.42-11c5.83-.57,9.94-1.3,14.06-1.31,6.44,0,5.08-3.26,2.82-6.54-4.41-6.38-11.45-9.52-17.51-13.9C250.84,44.19,244.89,44.37,244.22,38.39Z"/><path class="cls-143" d="M400.12,447.48c.23-10.61-2.05-21.34,1.52-31.78,5,6.16,11.63,10.82,15.87,17.63,2.69,2.5,5.09,5.27,7.68,7.87,1.2,1.2,3.12,2.37,1.57,4.6Z"/><path class="cls-144" d="M477.56,501.12c-4.46-8-13-12.68-17-21.08,7,5.26,12.51,11.9,18,18.59C479.75,500,479.93,501.12,477.56,501.12Z"/><path class="cls-145" d="M426.76,445.8c-1.45-5.36-7.45-7.35-9.24-12.47,4.76,1.79,7.1,6.3,10.56,9.54C429.77,444.45,429.23,445.73,426.76,445.8Z"/><path class="cls-146" d="M329.25,556.59c-.36,13.77-12.93,29.12-26,31.77-10.69,2.17-18.1-3.75-18.35-14.66-.33-14.8,12.61-31,27.09-34C321.94,537.71,329.55,545.15,329.25,556.59Z"/><path class="cls-147" d="M579.51,258.85c-1.11-7.35,4.42-6,8.17-6.76,2.35-.5,3.83.54,3.24,3-1.2,5-5.85,6.8-9.72,8.08C578.3,264.11,580.14,260.11,579.51,258.85Z"/><path class="cls-148" d="M342.05,301.35c-1.47-8.13,4.56-6.33,8.39-7.41,2.11-.59,3.38.18,3.09,2.26-.79,5.45-5.74,7.33-9.69,8.86C340.38,306.4,343,302.07,342.05,301.35Z"/><path class="cls-149" d="M390.26,293c-1.58-8.62,5-6.6,8.93-7.79,1.84-.56,3.5.39,3.13,2.51-1,5.69-6.28,7.47-10.42,9.14C388.71,298.1,391.3,293.67,390.26,293Z"/><path class="cls-150" d="M29.33,356.41c-1.47-7.89,4.56-6.61,8.46-7.66,2.51-.67,3.58,1,3.26,3.2-.79,5.68-6.06,7.12-10,8.6C28,361.65,29.92,357.52,29.33,356.41Z"/><path class="cls-151" d="M438.09,294.94c-1.31,4.08-3.47,4.21-6.26,1.34.81-2.93,1.63-5.86,2.55-9.18C437.37,289,436.63,292.53,438.09,294.94Z"/><path class="cls-152" d="M114.39,352.4c-1.47,3.46-3.54,4-6.28,1.28.78-3.05,1.55-6.1,2.91-11.42C112.61,347,113.5,349.72,114.39,352.4Z"/><path class="cls-153" d="M311.69,317.55c-1.78,3.1-3.68,4.23-5.88.36l2.32-8.24C311.58,311.41,310,315.23,311.69,317.55Z"/><path class="cls-154" d="M234.15,331.25c-1.76,3.05-3.66,4.89-6.21.68l2.38-9.63C233.44,324.66,232.19,328.63,234.15,331.25Z"/><path class="cls-155" d="M29.06,380.82a26,26,0,0,0,.11-4.13c-.73-6.06,4.32-7.74,8-8.61,4.73-1.1,2.85,4.37,4.34,6.67-.78,2.29,0,5.56-3.72,6C34.92,380.42,32,382.78,29.06,380.82Z"/><path class="cls-156" d="M37.84,380.75c2.93-.95,3.15-3.58,3.72-6,.19.72.38,1.44.58,2.16C41.9,379.54,41,381.42,37.84,380.75Z"/></g></g></g></svg>