<svg xmlns="http://www.w3.org/2000/svg" viewBox="0 0 716.17 321.51"><defs><style>.cls-1{fill:#fcdabb;}.cls-2{fill:#341212;}.cls-3{fill:#381615;}.cls-4{fill:#a34b36;}.cls-5{fill:#a34b37;}.cls-6{fill:#d3705b;}.cls-7{fill:#d2705b;}.cls-8{fill:#a24b36;}.cls-9{fill:#a14b36;}.cls-10{fill:#381515;}.cls-11{fill:#a24c37;}.cls-12{fill:#f6f3f3;}.cls-13{fill:#9d4834;}.cls-14{fill:#cec1be;}.cls-15{fill:#cdbfbc;}.cls-16{fill:#cbbdba;}.cls-17{fill:#bdaaa7;}.cls-18{fill:#b26253;}.cls-19{fill:#c5b5b3;}.cls-20{fill:#c7b7b5;}.cls-21{fill:#f1eded;}.cls-22{fill:#cf6d59;}.cls-23{fill:#c4b3b1;}.cls-24{fill:#c5b4b1;}.cls-25{fill:#c3b2b0;}.cls-26{fill:#ccbfbd;}.cls-27{fill:#d2c5c3;}.cls-28{fill:#c8b9b7;}.cls-29{fill:#bfacaa;}.cls-30{fill:#c3b2af;}.cls-31{fill:#cfb2ac;}.cls-32{fill:#c2b1ae;}.cls-33{fill:#c0afad;}.cls-34{fill:#cfc1bf;}.cls-35{fill:#cabbb9;}.cls-36{fill:#a85243;}.cls-37{fill:#5c3838;}.cls-38{fill:#c6b5b3;}.cls-39{fill:#c4b3b0;}.cls-40{fill:#a04a36;}.cls-41{fill:#c19e97;}.cls-42{fill:#cdc1bf;}.cls-43{fill:#d1c3c1;}.cls-44{fill:#ccbebb;}.cls-45{fill:#91716f;}.cls-46{fill:#d0c2c0;}.cls-47{fill:#d1c3c0;}.cls-48{fill:#795251;}.cls-49{fill:#c09b94;}.cls-50{fill:#ccbdbb;}.cls-51{fill:#c9b9b7;}.cls-52{fill:#d6cac8;}.cls-53{fill:#c9bab8;}.cls-54{fill:#957675;}.cls-55{fill:#cabbb8;}.cls-56{fill:#563031;}.cls-57{fill:#cdbebc;}.cls-58{fill:#967776;}.cls-59{fill:#cabab8;}.cls-60{fill:#c2b2af;}.cls-61{fill:#876563;}.cls-62{fill:#cfc2bf;}.cls-63{fill:#e37f42;}.cls-64{fill:#4a2424;}.cls-65{fill:#bc604e;}.cls-66{fill:#7f5a59;}.cls-67{fill:#d4c8c6;}.cls-68{fill:#7c5958;}.cls-69{fill:#d2c6c3;}.cls-70{fill:#896766;}.cls-71{fill:#9b7d7c;}.cls-72{fill:#a58a88;}.cls-73{fill:#b19999;}.cls-74{fill:#ccbebd;}.cls-75{fill:#9b807f;}.cls-76{fill:#a08482;}.cls-77{fill:#9b7b7b;}.cls-78{fill:#aa918f;}.cls-79{fill:#c3b3b1;}.cls-80{fill:#5b3636;}.cls-81{fill:#856260;}.cls-82{fill:#ed8848;}.cls-83{fill:#3f1c1c;}.cls-84{fill:#3f1b1b;}.cls-85{fill:#3d1819;}</style></defs><g id="Layer_2" data-name="Layer 2"><g id="Layer_1-2" data-name="Layer 1"><g id="_7WgVKO.tif" data-name="7WgVKO.tif"><path class="cls-1" d="M613.41,235.88q45.84,0,91.7,0c4.42,0,8.93-.08,10.6,5.18,1.78,5.62-1.88,9.17-6.17,10.55-14.52,4.65-17.68,14.64-16.1,28.56,1.13,10.06.06,20.35.26,30.54.18,9.28-4.46,11.7-13,10.54-53-7.22-106.27-12.91-159.7-16.67a2267.94,2267.94,0,0,0-235.37-4.75c-79.49,2.66-158.72,8.84-237.55,19.76-12.31,1.71-14.69-.38-14.71-12.52a35.58,35.58,0,0,1,0-6.11C37.57,277.16,32,258.9,6.24,251.28c-4-1.2-7.44-4.77-5.83-10.08s6.05-5.33,10.49-5.33q89,0,178-.06a39.89,39.89,0,0,0,6.17-.95,51.35,51.35,0,0,0-5.46-2.13c-8.49-2.24-9.65-7.21-6.61-14.92,16.78-42.62,44.54-77.72,74.67-111.45,43.53-48.73,99.61-78,158.26-103.27,16.15-6.94,33.47,0,50.25,0C506,3.24,536,24.9,565.9,47c7.94,5.85,10.07,14.09,4.4,21.94-5.13,7.1-5.08,13.82-3.44,21.51,6.72,31.53-6.14,55.28-28.46,76.57a58.54,58.54,0,0,0-18.51,45.67,35.66,35.66,0,0,1-3.39,16.44c-3.56,7.26,0,6.87,5.2,6.85C552.27,235.81,582.84,235.88,613.41,235.88Z"/><path class="cls-2" d="M242.8,240.86c-17.34-5-34.7-10-52-15-4.6-1.34-1.82-4.19-.94-6.44,14.86-37.8,39.21-69.28,65.14-100C299.07,67.15,357,35.82,418.21,9.49c14.74-6.33,30.81.22,46.26.28C503,9.93,532.2,30.46,561.19,52c4.36,3.24,7.52,8.4,3.94,12.06-10.57,10.81-5.35,22.67-4,34.3C564.26,125.53,553,146,532,162.06c-4,3.09-3.62,9.15-7,12-12.65,10.72-9.9,25.68-11.64,39.32-2.42,19-8.52,25.54-27.06,27.58a21.6,21.6,0,0,0-2.5.59,13,13,0,0,0,2.82.64q85.28.18,170.54.29c15.85,0,31.7,0,47.56.06a16.82,16.82,0,0,1,3.68.83c-.9.9-1.66,2.33-2.72,2.62-18.9,5.26-20.74,19.13-18.92,35.62,1,8.72-.12,17.65.27,26.47.25,5.42-1.12,6.94-6.82,6.18-44.8-6-89.68-11.14-134.75-14.67a2358.44,2358.44,0,0,0-269.29-6c-49.5,1.78-98.86,5.17-148.15,9.78-22.24,2.08-44.45,4.6-66.67,6.93-4.09,1-8.27-.37-12.55,1.5-3.8,1.66-6.86-1.6-7-6.62-.19-9.26-.54-18.56.12-27.78a76.28,76.28,0,0,0-1.08-18.75,31.74,31.74,0,0,1-.2-6.09c.19-8.9,1-9.69,9.6-9.69,19.89,0,39.78,0,59.67,0,1.79,0,4.58-1.25,5.17,1.55.43,2.07-1.41,3.74-3.19,4.83-5.17,3.16-11,4.21-16.88,4.29-6.33.08-12.65.13-18.87,1.37-3.93.23-7.9.13-11.85.38-2,.13-4.81-.13-4.21,3.44,5.47,9,3.37,18.64,2,28.08-.6,4.14-4.76,4.14-8,4.79-1.31,4.47,1,6.85,6,6.13,3.38-.49,5.71-3.34,9-4,2.34-.41,4.26.81,6.3,1.58a15.33,15.33,0,0,0,10.2-1.13c2.47-2.4-1-3.35-1.25-5.08a5,5,0,0,1,.18-3c4.73-5.46,10.53-5.71,16.84-3.46,5,3.53,0,7.54.57,11.28,1.45,2.53,3.81,2.06,6,1.69,5.69-1,11.25-3.18,17.19-1.48a3.14,3.14,0,0,0,3.09-1c6.11-6.49,13.93-4,21.24-4.14.9,0-.23,0,.67,0,3.12-.23,6.94,1.26,9.17-1s-1.6-5.15-1.3-8.05c.1-.88-.12-1.79-.05-2.7.1-1.59-.18-3.19,0-4.78.14-5.09-.78-10.26,1.24-15.2.4-1,1.25-2.08-.13-2.86a3.11,3.11,0,0,0-3.18.33,8,8,0,0,0-3.11,4.24c-1.71,4.38-4.43,8.24-6.37,12.51-1.46,2.68-1.86,6.68-5.87,6.61s-5-4-6.7-6.87a11.66,11.66,0,0,1-1.67-5.44,24.28,24.28,0,0,0-7.57-14.75c-1.83-1.67-4-3.58-3.17-6.31,1.07-3.34,4.26-1.8,6.48-1.81,36.3-.09,72.6,0,108.9-.16C238.79,242.77,241.84,244.63,242.8,240.86Z"/><path class="cls-3" d="M159.75,271.62c0,2.1,0,4.19,0,6.29-2.45.82-4.25,2.17-4.85,4.91-.74,3.42-3.52,5.55-5.54,8.15-6.91.22-14.3-2.54-20.13,4-2.32,2.62-27.54,2-30.25-.23a7.4,7.4,0,0,1,4.25-1.54c7.82-1,7.82-1,3.68-8-.51-1.5-1-3-1.62-4.48-.43-2.24-2.27-4-2.25-6.38a3.54,3.54,0,0,1,1.14-2.61c4.54-.28,5.18,3.51,6.72,6.4.91,1.7,1.39,4.31,4.12,3.5,2.33-.69,1.49-3,1.42-4.68-.14-3,.5-5.84.7-8.76.28-4.34-1.07-5.68-5.53-4.17-3.65,1.23-5.21,4-7.05,6.81-5.92-.76-5.57-6.24-7.24-10-1.49-3.39-3-6.1-7.26-5.62-1.26.15-3.33.4-2,2.26,4.65,6.75,0,11.3-3.46,16.18a4.09,4.09,0,0,1-1.79.6c-.23,0-.45-.06-.68-.07-2.57-.11-4.36-4.91-7-2.08-2.13,2.32.06,6.11-.62,9.21-.11.5.13,1.14.51,1.09.69-.08,1-.82,1.43-1.35,1.71-2.16,2.29-5.74,6.29-5.05,1.46,1.83.49,3.79.33,5.71a14.85,14.85,0,0,1-.58,2.88c-1.45,5.08-5,8.92-7.85,13.14l-6-2.66a4.19,4.19,0,0,1-.4-.54c-1.33-2.5,1.12-6.52-1-7.46-1.8-.81-2.07,3.64-4,5.19-3.56,2.9-7.71,2.16-12.09-2.47,2.25-3.43,9.5,3.14,9.23-4-.35-8.83,5.09-18.64-3.64-26.34,6.71-2,9.48-.07,9.44,6.53,0,.9-.21,1.79-.24,2.69,0,1.3-.49,3.46.72,3.57,1.59.15,1.33-2,1.24-3.16-.5-6.33,2.28-11.33,6.13-15.95,10.67-3.17,22.13.29,32.68-3.92,2.66-1.07,7-1.57,6.63-4.53-.34-2.47-4.66-1.05-7.16-1.07-18.75-.12-37.49.09-56.24-.16-5.12-.07-7.19,1.16-7.09,6.74.32,17.76,0,35.52.17,53.28,0,5.35,1,10.27,8.32,6.06,3.42-2,6.52,1.08,9.85.76-5,.89-10.06,1.68-15.06,2.7-4.61.95-6.35-.36-6.22-5.43.33-13.56,0-27.14.2-40.7.06-3.62-.94-5.5-4.28-7.13-7.92-3.85-15.59-8.21-23.29-12.48-1.71-.95-4.62-3.18-4.45-3.51,1.29-2.49,3.93-1.18,6-1.18q96.33-.13,192.64-.07c9.72,0,19.45.07,29.17-.08,2.31,0,5,1,6.81-1.56,2.9,4-1.05,2.62-2.26,2.62-14.27.11-28.53.07-42.8.07-14.71,0-29.5-.84-44.12.32a140,140,0,0,1-26.62-.24c-1.37-.15-2.86.71-4.3,1.1.75,1.29,1.24,2.88,2.3,3.83,5.43,4.88,9,10.6,9.12,18.13-3.79,0-4.26-3.39-5.69-5.71-1.29-2.09-2.1-4.53-4.22-6-1.33-.91-3.1-1.45-4.36-.26s.4,2.32,1,3.36c2.84,5,1.44,10.52,1.73,15.82a39.82,39.82,0,0,1,0,6.82,17.46,17.46,0,0,1-.9,5.89c-.43,1.48-2.79,3-.39,4.6a4.19,4.19,0,0,0,4.47-.26c2.18-1.37.53-3.15.19-4.77-.28-4.25-1.65-8.36-1.58-12.65.73-3.19,2.57-4.31,5.69-3.1,5,2,4.16,7.43,6.51,11,3.58,5.27,3.58,5.27,7.3-.92,2-2.82,2-6.53,4.16-9.27C152.12,264.89,155.89,269.68,159.75,271.62Z"/><path class="cls-4" d="M336.2,242.36C316,245,307.52,228.75,297,216.83c-12.94-14.73-20.71-31.78-15.5-52.29a12.52,12.52,0,0,0,0-3.18,26.81,26.81,0,0,0-4.95,1.39,223.81,223.81,0,0,0-63.46,46.95,40.39,40.39,0,0,1-4.93,3.81,50.7,50.7,0,0,1,2.64-6c15.7-26.12,38.75-44.38,64.2-60.1,29.59-18.29,61.4-29.38,96.45-30a25.61,25.61,0,0,1,5.11.94c-.5,1.14-.76,2.5-1.55,3.4-27.14,30.75-35.25,66.18-26.53,106C351.74,242.28,351.41,242.35,336.2,242.36Z"/><path class="cls-5" d="M416,242.35c-6.34,0-12.76-.67-19,.16-9.12,1.21-13.22-2.73-16.11-11-11.2-32.09-9-64.44-3-97,.17-.89,1.12-1.63,1.71-2.44.52.71,1.32,1.34,1.53,2.13,6,23.3,23.65,35.4,43.51,45.34,3.66,1.83,4.28,4.65,4.36,8.32.28,12.45,1.25,24.84,6.7,36.32,1.54,3.23,4.08,6,5.74,9.15s8.13,3.37,6.31,7-7.43,1.9-11.42,2C429.52,242.45,422.73,242.35,416,242.35Z"/><path class="cls-6" d="M519.91,37.08c9.88,11.13,21.09,21.21,28,34.74.88,1.75,2.12,4.49,1.39,5.61-1.34,2.09-2.88-1.43-4.35-1.07a12.72,12.72,0,0,0-5.16,2.69c-5.8,5.06-11.65,10.1-17,15.56-4.6,4.66-6.16,3.37-7.4-2.38-1-4.92-2.39-9.58,0-14.52.6-1.26,2.58-2.72.81-4.57-1.25,1.26-2.84,2.33-3.69,3.83-2.35,4.11-2.29,8.7-1.67,13.22a58.92,58.92,0,0,0,1.75,6.92l-6-4.29c-7.8.32-12.59-4.68-17.41-9.72-3.07-3.21-3-6.2.92-8.17,5-2.46,4.33-5.18,1.69-9C486.45,58.27,482.14,50,474,44.82c-1.52-1-3.18-2.4-2.81-4.3.47-2.44,3-2.28,4.92-2.74,1.41-.33,3.59.41,3.89-1.69.24-1.7-1.46-2.71-2.76-3.55-7.21-4.66-15.31-6.44-23.72-7-4.5-.3-9,.18-13.52-.22-2.17-.2-5.26.48-5.49-3.26,19.29-6.24,38.7-2.72,58-.38,7.29.88,14.76,2.12,20.77,7.12C515.39,31.65,519.23,33.11,519.91,37.08Z"/><path class="cls-5" d="M434.5,22.07c10.83,3.22,22.52-.83,33.19,3.93,3.47,1.55,7.16,2.69,10.48,4.51,3,1.63,6.58,4.32,5.75,7.63s-5.14.88-7.83,1.51c-1.22.29-2.45.55-3.68.82A14.55,14.55,0,0,0,475,43.1c10.73,6.27,15.31,17.5,21.68,27.19,3.1,4.72-2.65,4.85-4.81,5.66-4.55,1.7-4.8,2.9-1.15,6.14,4.8,4.28,9.05,9.19,15.69,10.73-3.4-.19-6.77-.69-8.64,3.41-1,2.2-2.64,1.7-4.35.24-6.29-5.37-12.69-10.61-19-15.9-.5-.42-.93-.91-1.39-1.36a10.73,10.73,0,0,0-.33,2.54c.73,6.11,7.47,6,10.34,9.89,2.35,3.2,8.76,5.91,5.53,10-3.39,4.27-9.08,1.94-13.23-1.6-1.37-1.16-2.9-2.12-4.36-3.18-9.74-4.38-16.93-12.22-24.88-18.93-3.25-2.75-6.19-5.6-10.24-7.08l-8.54-2.3c2.28-2.44,4.55-4.89,6.84-7.32,1.7-1.8,3.46-3.54,5.14-5.37,12.41-13.51,11.52-19.27-4.3-28.75-1.4-.85-3.94-.89-3.65-3.24C431.44,23.14,433.4,22.66,434.5,22.07Z"/><path class="cls-7" d="M263,126.44C304.93,78.51,357.7,45.78,414.5,18.79c6.19-2.94,12.74-5.92,20.08-4.33-5.06,3.13-10.33,6-15.13,9.43-10.8,7.81-21.59,15.68-32,24a62.47,62.47,0,0,1-23.32,12c-6,1.6-9,4.71-8.61,10.93-1.67,4-5.52,5.11-9,6.65C319.16,89.67,294.34,106,271.21,124.9,266.57,128.7,266.08,128.9,263,126.44Z"/><path class="cls-8" d="M263,126.44c6.4,1.13,8.34-5,12.11-7.85a402.35,402.35,0,0,1,80.47-47.71C357,79.16,362.51,85,367.82,90.8,371,94.25,370.31,95.13,366,96,319,105.19,276.81,124.8,239,154.07a14.06,14.06,0,0,1-2.15,1.11,7.37,7.37,0,0,1,1-2.18Q250.39,139.68,263,126.44Z"/><path class="cls-9" d="M427.64,116.85c.08,1,.17,2,.25,2.93-2.18,2.24-4.79,1-7,.43-12.23-3.36-24.61-6.14-36.63-10.23l-2.92-1.44c9.16-7.65,12-19.93,20.48-28.05,7.06-2.93,14.22-.19,21.33-.29,2.41,0,3.64,2.43,4.6,4.53a30.34,30.34,0,0,1,3,9c.68,5.54,3.55,8.52,9,9.13a12,12,0,0,1,2.15.52c.86.28-.17-.19.62.22,2.84,1.46,8.35,1.17,7.82,4.81-.61,4.11-6,3.51-9.64,4.1-5.24.85-10.74-1.39-15.8,1.39-5.33.52-9.79-3.52-15.15-2.88-.82-.37.21.1-.59-.32a22.86,22.86,0,0,0-6.24-2.3,25.28,25.28,0,0,1,6,2.18c6,.5,11.47,3.33,17.38,4.29C427.25,115,427.65,115.87,427.64,116.85Z"/><path class="cls-10" d="M439.84,104.71c-3.4-1.14-8.86.14-9.3-4.88-1.62-18.61-13-22-28.69-19.34,10.34-5.39,21-.36,31.5-.57,3.33-.06,7.78,2.22,9.42-1.09,2.32-4.66-3.68-4.25-5.81-6.3a8.85,8.85,0,0,1-1.1-1.68C447.21,73,453.07,83.11,462,88.79c3.35,2.12,6,5.34,9,8.06-2.51,2.16-8.29,2.84-3.7,8.2-.27,3.08-2.72,2.35-4.59,2.63-3.17.49-6.27,1.09-7.89,4.37q0,4.73,0,9.43a3.56,3.56,0,0,1-3.13,1c-8.86-2.55-17.81-4.81-26.49-8-.29-.11-.3-.74-.28-1.23-.88-2.78.83-2.95,2.87-2.94,3.84,0,7.7.09,11.53-.18,3.34-.23,6.66-.9,10-1.37L441.13,105c1.34-1.89,3.36-1.84,5.26-1.59a5.16,5.16,0,0,0,5.39-2.67c2.41-1.78,7.07.9,7.77-2.33s-3.8-4.44-5.94-6.61c-4.27-4.33-4.73-.94-5.2,2.51-2.38,2-5.17.58-7.75.92-1.56.2-3.27.33-4.18,1.74-1.29,2,.88,2.59,1.79,3.65S440.49,102.9,439.84,104.71Z"/><path class="cls-11" d="M433.06,124.74l-1.22,3.42c-1.6,1.57-3.22.74-5,.23-7.53-2.18-15.31-3.32-22.83-5.57-.08,0-.35.29-.41.49a1.65,1.65,0,0,0,0,.66A80.83,80.83,0,0,0,415,155.48a13.5,13.5,0,0,1,1,2.94c-.93-.35-2.12-.45-2.76-1.1-8.89-9-17.84-18-25.1-28.44-3.94-5.66-2.76-12.1-2.57-18.37,15.94,2.55,31.05,8.18,46.48,12.64C432.71,123.35,432.93,124.07,433.06,124.74Z"/><path class="cls-12" d="M526.8,156.58c-2.7,5.46-5.33,10.94-8.14,16.34-.56,1.05-1.78,1.76-2.7,2.62-.33-1.21-1.11-2.49-.93-3.61,1.52-9.27-2.39-11.85-11.23-10.37a27.35,27.35,0,0,1-13.38-1.14c-10.47-3.87-11.9,1.09-11,9.69.19,1.77,1.06,4.46-1.26,5.3-.62.23-2.5-2.57-3.57-4.14a11.58,11.58,0,0,1-1.58-3.72c-1.48-6.09-2.86-12.21-4.27-18.32,5.87-.94,10.31,3.24,15.63,4.38,5.88,1.25,11.43,1.79,17-1.6a8.34,8.34,0,0,1,10.08.53A12.45,12.45,0,0,0,521,155.2C523.14,154.77,525.64,152.9,526.8,156.58Z"/><path class="cls-9" d="M411.5,36.52c1.76,1.68-.06,2.82-.58,3.88-6.46,12.92-18.37,19.79-30.43,25.95-8,4.11-8.41,8.78-4.51,15.7,2.88,5.11,5.33,10.47,7.9,15.75a8.16,8.16,0,0,1,.36,2.41c-.74-.37-1.75-.54-2.18-1.13-6.42-8.71-14.93-15.82-19.68-25.8-1.34-2.81-2.59-6.09,1.67-7.1,17.72-4.21,30.1-16.94,44.1-27.1C409.25,38.29,410.3,37.44,411.5,36.52Z"/><path class="cls-13" d="M483.46,228.63c-2.71,0-5.42,0-8.13,0-12.23.24-20.05-4.56-21.81-17.64-1.25-9.35-3.52-18.56-5.22-27.85-.2-1.06.35-2.27.55-3.41a13.42,13.42,0,0,1,1.75,2.73c3.31,9.57,6.69,19.13,9.76,28.78,2.63,8.26,8.12,12,16.66,11.85q10.14-.21,20.3-.09c1.43,0,3.9.39,4.07,1.07.55,2.16-1.73,3.31-3.21,3.55-4.85.79-9.78,1-14.68,1.5Z"/><path class="cls-14" d="M552.85,272c-2.93-.14-5.92-.69-8.8-.33-6.29.78-8.06-1.82-7.1-7.72.47-2.86,1.58-6.5-3.13-7.68-.68-.17-1.22-2.19-1.17-3.33,0-.52,1.61-1.35,2.52-1.4a70,70,0,0,1,8.81.06c1.17.09,2.85.58,3.3,1.42a2.52,2.52,0,0,1-1.5,3.81c-4.5,1.59-2.7,5.32-2.32,8.07.48,3.51,4.09,2.78,6.1,2.36,4.55-.94,13,5.18,12.36-6.16a6,6,0,0,0-.25-2c-1-2.37-7-3.5-3.76-6.14,2.68-2.16,8.1-1,12.3-1.12.78,0,2.22,1.16,2.23,1.81,0,1.15-.51,2.94-1.36,3.35-1.71.85-3.65,1.46-3.17,3.67C571.18,275.53,561,272.39,552.85,272Z"/><path class="cls-15" d="M616.79,274.46c-1.89-5.64,3.67-12.89-4.21-17.51-1.62-.95-.5-4.66,3.28-4.48,5.41.24,10.85,0,16.24.44s9.35,3.48,10.52,9,1.77,10.9-4.29,14.25C631,278,623.72,278.25,616.79,274.46Z"/><path class="cls-15" d="M591.25,273.81c-6.33,1.14-11.86-.94-9.32-11.45a4.6,4.6,0,0,0-.2-2.67c-3.33-8-3.35-8,6.64-7.86,3.84,0,7.7.44,11.5.08,9-.84,6.77,5.49,6.78,10.31,0,.61-1.4,1.64-2.25,1.76-2,.28-2.37-1.4-3.1-2.87-2.65-5.3-7.7-3.14-11.32-2.46s-1.92,5-1.65,7.6c.56,5.39,5.29,2.42,8.06,3.47s8.33-1.76,8.21,2.67c-.09,3.39-5.35.76-8.22,1.39C595.52,274,594.59,273.81,591.25,273.81Z"/><path class="cls-16" d="M650.36,263.88c.32-7.7,5.63-11.49,14.18-10.87,6.23.44,11.87,2.31,10.71,10.59-.23,1.61.65,3.91-2.18,4.14-2.39.19-2.1-1.79-2.55-3.21-1.37-4.44-4.92-4.91-8.71-4.46-2.64.31-4.59,1.65-4.78,4.76-.28,4.33,2.64,5.65,5.9,7.14,3.48,1.6,9.8,1.36,9.4,5.67-.24,2.46-6.73-.11-10.41,0C653.66,277.82,650,273.4,650.36,263.88Z"/><path class="cls-17" d="M523.8,262.76c-1.81-2.23-.7-7.19-6.07-6.13-5.62,1.11-2.52,5.27-3,8.11-.44,2.43,1.16,5.94-3.23,6-4.21.08-3.29-3.19-3.57-5.82-.3-2.85,2.26-6.74-1.95-8.3s-6.21.8-6.85,4.94c-.08.49-2.71,1.32-3.4.86-3.09-2.06-1-5.3-1.3-8-.28-2.88,1.37-4,4.16-3.86,9.44.4,18.89.72,28.33,1.08,1.31,2.72.49,5.61.61,8.42C527.6,262.63,526.43,263.78,523.8,262.76Z"/><path class="cls-18" d="M526.8,156.58,521,155.2c11.24-4.31,24.92-21.4,25-31.3-2.64,1-3.77-.12-3.92-2.7,2-2.68,3.85-5.41,5.9-8,1.37-1.73,3.13-3.21,2.57-5.77l-4.72,2.86.11.08c4.18-5.26,6.29-11.11,5.23-17.92-.11-.72.43-1.53.66-2.29a12.76,12.76,0,0,1,1.25,2.21C560.17,113,545.81,148,526.8,156.58Z"/><path class="cls-19" d="M335.18,268.05c-.36-.87-.73-1.74-1.1-2.61.54-3.19,1.31-6.39-.34-9.5-1.69-.85-4.3-.79-3.82-3.8.45-2.75,2.71-2,4.31-1.93,6.75.22,13.6-1,20.24,1.15,4.16,1.37,6.21,4.38,6.29,8.68s-1.61,7.47-6.4,8C348,270.8,341.57,270.23,335.18,268.05Z"/><path class="cls-20" d="M382.75,255.85c-1.68-.86-4.32-.91-3.64-3.88.59-2.6,2.85-1.8,4.46-1.75,6.29.21,12.61.29,18.84,1.07,4.2.53,6.69,3.75,7.23,7.92.46,3.5,1.24,7.46-3.63,8.93-2.28,1.05-4.57,2-6.85,0a3.36,3.36,0,0,1,0-3.21c.72-1.86,2.11-3.84.12-5.61s-4.48-2-6.66.11c-1.16,1.56-.89,3.44-1.28,5.16-.93,4.07-3,6-7.11,3.3l0,0C382.23,264.1,384.8,259.68,382.75,255.85Z"/><path class="cls-21" d="M480.73,217.52c-6.4-.12-13,1.3-10.84-7.91a80.33,80.33,0,0,1,2.88-8.23c1,2.15,1.9,4.37,3.06,6.43,4.53,8,21.3,5.57,27.32-3.88.75-1.17.41-3.68,2.61-3.13.56.13.68,2.73.69,4.2.06,6.7-3.31,10.59-9.95,11.31C490.9,216.92,485.27,217.18,480.73,217.52Z"/><path class="cls-22" d="M490.24,126.57c-.49-1.8-4.48-1.86-2.77-4.27.79-1.11,3.79-1.3,5.57-.93,8.26,1.74,16.27,5.68,25,1.88,1-.44,3.87.7,4.05,1.51.86,3.87-3.44,4.62-5,7.14-7.53,5.71-15.8,5.26-22.37-1.27A41.34,41.34,0,0,0,490.24,126.57Z"/><path class="cls-23" d="M129.85,272.5c-1.65-1.36-3.39-3.19-4,.78-1.73,1.61-3.45,1.62-5.18,0-1.55-5.6,3.23-13-4.87-16.89-.93-.45-.7-4,1.72-4.11,3.32-.16,7.31-2.18,9.73,2.08,2.32,4.09,4.57,8.22,6.85,12.34.55,1.28,1.11,2.57,1.66,3.86C135,274.84,131.92,272.15,129.85,272.5Z"/><path class="cls-24" d="M249.79,267.84c-.83-8,4.09-12.8,10.22-15.81,7-3.45,14.64-2.85,21.47,1.24a4.57,4.57,0,0,1,1,7.1c-1.68,1.78-3.19-.15-4.67-1.91-3.81-4.53-9.13-3.24-13.85-2.12-5.8,1.39-7,6.47-7.54,11.61C254.18,269.87,252,269.65,249.79,267.84Z"/><path class="cls-25" d="M174,266.41c-.66-4.38-.22-7.47-1.49-8.53-2.11-1.78-6.56-2.79-2.73-5.72a7.73,7.73,0,0,1,10.37,1.61c2.95,3.69,6.12,7.21,8.93,11,1.25,1.7,5.29,3.2,2.57,5.62-2.11,1.87-5.51.87-7.61-2s-4.49-5.87-4.73,1c-.07,2.08-2,2.44-3.55,2.08C171.21,270.48,174.16,266.71,174,266.41Z"/><path class="cls-19" d="M159.75,271.62c-3.33,3.74-7.33-5.16-10.56.56-2,.88-3.92,1.59-4.42-1.62,2.35-4.86,5-9.59,7-14.61,2.33-6.07,8.08-5.71,11.12-3.78,4.75,3-2,4.09-2.46,6.09C159.37,262.52,159.87,267.15,159.75,271.62Z"/><path class="cls-26" d="M587.94,281.64c.63,2.14-.54,5.64,3.3,5.5,3.34-.12,7.23,2.86,9.94-1.08,1.21-1.77,1.38-5,4.48-3.31,3.41,1.83,1,5.26,1.34,8,.33,3-1.45,3.79-4.18,3.55-8.06-.72-16.13-1.32-24.19-2-1.09-2.34-1.93-4.74,1.34-5.93,2-.73,1.69-2.19,2-3.68C583,277.5,585.31,278.38,587.94,281.64Z"/><path class="cls-27" d="M676.26,293.69c-4.41,9.36-12,7.64-19.61,5.56-5.12-1.39-7.62-4.43-6.32-9.9.34-1.46.09-3.36,2.27-3.58a2.58,2.58,0,0,1,3.18,2.61c.31,5.18,4.26,5,7.8,5.36,4,.44,6.34-1.59,7.34-5.35,1-1.64,2.35-2.86,4.19-1.56C677.64,288.62,677.52,291.12,676.26,293.69Z"/><path class="cls-28" d="M74.16,253.14c-1.27,7.25-5.52,13.92-4,21.78.36,1.76-1.94,2.24-3.56,2.12-3.42-.26-2.68-2.92-2.79-5.08-.26-5.32,3.75-13-7-12.5-1.54-8.81,5.09-6,9.29-6.4A76.34,76.34,0,0,1,74.16,253.14Z"/><path class="cls-29" d="M455.29,264.72c-.6-4.46-.33-6.56-1.21-7.89-1.25-1.9-7.29-2.11-3.07-5.58,2.75-2.26,7.72-1.83,10.83,2.07,2.8,3.51,5.93,6.77,8.73,10.28,1.25,1.57,4.67,3,2.58,5.24-1.67,1.81-4.51.41-6.78-1-1.91-1.16-4.4-9.76-6.39.09-.09.44-2.54.94-3.57.55C453.12,267.26,455.17,264.25,455.29,264.72Z"/><path class="cls-30" d="M219.86,266.67c1.38-4,8.24-7.83,0-12-1-.52-.54-3.67,1.32-3.66,4.13,0,9.18-2.87,12,2.71,1.95,3.79,3.7,7.68,5.54,11.52,1.2,2.07,1.13,4-1.25,4.95a4.38,4.38,0,0,1-6.07-2.66c-1.4-4.38-2.22-2.59-3.6-.12a5.41,5.41,0,0,1-4.85,3.11C220.6,270.48,218.26,270.07,219.86,266.67Z"/><path class="cls-31" d="M433.06,124.74l-47.51-14.23-1.26-.53c15.17.43,28.83,7.58,43.6,9.8q15.83,4.71,31.63,9.44c1.56.47,4.46.29,3.91,2.44-.69,2.74-3.25,1.3-5.14.72Z"/><path class="cls-32" d="M418.34,265.33c1.29-3.65,8.58-7.23,0-11.06-.8-.36-.93-3.82,1-3.73,4.14.19,9.25-2.73,12.22,2.43,2.23,3.87,3.89,8.08,5.8,12.14,1.19,2.93-.49,3.84-2.94,4.21a3.74,3.74,0,0,1-3-1.15c-2.09-2.88-3.67-3.21-6.65-.5C421.11,271,418.79,269.82,418.34,265.33Z"/><path class="cls-33" d="M298.28,265.26c1.15-3.72,7.88-7.39,0-11.28-.87-.43-.65-3.61,1.43-3.48,3.91.24,8.7-2.6,11.55,2.32,2.34,4,4.32,8.28,6.47,12.44-.94,4.38-3.12,5.64-6.21,2.68s-4.42-2.52-7.35.11C301.87,270.09,298.08,270.72,298.28,265.26Z"/><path class="cls-34" d="M257.61,275c6,6.45,12.39,7.62,19.2,1.15,1-2.29,2-4.59,5.17-3.72,3,.83,2.29,3.38,2.27,5.44s.59,4.4-.61,6.46c-4.73-1.72-9-.42-13.74.86-7.23,1.95-13.68-.7-17.8-7.51C251.84,272.46,254.49,273.25,257.61,275Z"/><path class="cls-35" d="M51.28,289.81c7.13,3.74,12.7,4.11,13.74-6.08.07-.71,1.8-2,2.25-1.78a4.82,4.82,0,0,1,2.61,2.54c1.06,3.63-.07,7.14-1.19,10.6-4.24,4.12-9.06,7-14.92,3.89C50.22,297.11,47.85,294,51.28,289.81Z"/><path class="cls-36" d="M519.91,37.08c-2.86-2.23-6.07-4.18-6.62-8.27q21.62,14.4,43.22,28.82c1.79,1.2,3.1,2.89,1.6,5.13-2,3-3.73,6.47-6.48,8.51-1.46,1.08-.9-1.75-.53-2.6C554.25,61.38,550.87,57,545,53c-7.28-4.91-14.18-10.39-21.26-15.61C522.55,36.53,521.38,34.89,519.91,37.08Z"/><path class="cls-37" d="M219.86,266.67c1.19,4.86,4.54,3.94,5.71.95,2.79-7.1,4.67-9.81,7.68-.3.56,1.79,2.1,2.22,3.8,2,3-.33,1.7-2.5,1.7-4.1q2,4.94,3.88,9.87c-2.14,1.15-4.78-.86-6.8,1.09l-13.81,1c-.37-.52,1.31-1.81-.37-1.62s-3.37.71-4.66-1Z"/><path class="cls-38" d="M482.27,250.51c2.54.64,5.88-1.31,7.57,1.45,2.1,3.42-2.76,3.41-3.3,5.24-.8,2.71-.42,5.77-.47,8.68,0,1.95-.21,3.61-2.78,3.74-2.75.14-3.56-1.32-3.54-3.74,0-4.34,2.48-9.75-4.8-11a3.73,3.73,0,0,1-.27-2.95C476.7,249.33,479.74,251.15,482.27,250.51Z"/><path class="cls-34" d="M202.23,250.81c1.72.33,5.18,0,6.22,1.4,2.19,3-2.4,3.46-3.1,5.23-1,2.54-.53,5.68-.58,8.57,0,2.34.14,4.76-3.24,4.65-3.07-.09-2.72-2.42-2.69-4.41,0-4.41,2.19-9.74-5.11-10.73-.31,0-.89-2.45-.44-3C195.54,249.9,198.78,251.72,202.23,250.81Z"/><path class="cls-39" d="M623.16,284.51c.05,1.12-.22,2.38.21,3.33,1.23,2.67,7,4.5,3.56,7.7s-8.65.37-12.88-.53c-3.31-.71-2.7-4.67-.58-5.48,3.67-1.39,2.95-3.91,3.22-6.42C620.17,279.33,621.16,279.54,623.16,284.51Z"/><path class="cls-40" d="M490.24,126.57c8.12,6,16.72,9.63,26.89,5.34a4.9,4.9,0,0,1-.54,1.21C506.45,145.7,505,145.71,495,133.07,493.3,131,491.81,128.74,490.24,126.57Z"/><path class="cls-17" d="M149.37,291c1.58-4.54,2.76-9.28,4.88-13.55,1.36-2.72,3.78-1.31,5.51.49a11.46,11.46,0,0,1,0,3.31c-1.26,4,8.28,5,3.21,8.55C159.75,292,154,290.69,149.37,291Z"/><path class="cls-41" d="M403.65,124c-.93-.56-2.72-1.25-2.66-1.66.31-2,2-.78,2.83-.59,9.36,2,18.68,4.27,28,6.44,8,2.18,16,4.38,24.07,6.51,1.33.35,2.95.48,2.75,2.18-.05.39-2.42,1-3.51.72C438,133.11,420.81,128.53,403.65,124Z"/><path class="cls-42" d="M566.11,291.85c-3-2.08-10,1.15-8.14-4,1.22-3.42,2.7-8.61,6.63-11.31,2.65,4.25,6.63,8.22,7.56,12.81C573,293.32,567.89,290.09,566.11,291.85Z"/><path class="cls-43" d="M217,274.64c.89-.06,1.79-.09,2.68-.2,2.81-.34,5.63-1.39,8.42.1-1.35,2.42-5-.3-6.07,2.7-.25,1.21-1.1,3.16-.65,3.53,6.45,5.33,2.51,6.26-2.68,6.23-2.76,0-6.42,1.83-8.17-1-2.19-3.51,3-3.61,3.91-6C215.15,278.21,216.13,276.45,217,274.64Z"/><path class="cls-9" d="M454.8,112.05c1.49-7.09,8.57-4.21,12.48-7,7.59-1.13,13.12,1.21,15.33,9.12.45,1.62.92,3.23,1.37,4.84-1.47-.86-3.33-1.4-4.36-2.63C472.51,107.88,464.37,106.08,454.8,112.05Z"/><path class="cls-44" d="M108.32,284.32c.65,1.15,1,2.93,2,3.34,2.23.94,4.07,1.74,3.37,4.63-.74,3.06-3.43,2.38-5.43,2.53-3.07.24-6.18,0-9.27,0-2-4.22,5.55-6.09,2.62-10.55-1.27-1.72-.51-3,1.19-3.43C105.77,280,106.93,282.43,108.32,284.32Z"/><path class="cls-45" d="M433.05,268c2-.19,4.4.32,4.29-2.93l3.81,9.8c-2.21,3.22-3.24,7.29-6.84,9.52a20.16,20.16,0,0,1-1.42-1.95c-1.52-2.64,5.65-5.35.87-6.86-4.3-1.37-10.1-3.1-14.12,2-2-.74-2.87-2.66-4.15-4.14l1.22-3C422,268.37,427.6,268.83,433.05,268Z"/><path class="cls-46" d="M541.12,290c-2.74-1.65-9.67,1.21-8-3.36,1.21-3.43,2.88-10.84,7.13-10.63,2.62.13,6.08,7,7,11.35S543.3,289,541.12,290Z"/><path class="cls-47" d="M175.87,290c-2.18-1-6.94,1.74-6.15-2.48s4.33-8.13,6.67-12.16c2.82,3.71,7.59,7.22,8,11.17C184.89,291.48,178.77,288.55,175.87,290Z"/><path class="cls-48" d="M399.37,266.8l6.64,1.34a9,9,0,0,1-8.62,3.83c-5.26-.52-7.42,1.43-6.28,6.7-3.28-3.41-6.46,1.3-9.71.12q1.43-5.44,2.86-10.89c4.15.36,6-1.15,5.37-5.65-.3-2.13-1.49-4.86,1.36-6.5C393.16,259.9,394.31,264.83,399.37,266.8Z"/><path class="cls-49" d="M424.88,113.24l29.9,8.24c2.78,2.42,9.23.56,8.88,4.89-.15,1.87-6.65-1-10.2-2q-12.91-3.72-25.82-7.51l-19-6.51-.06.07C414.34,109.67,419.47,112.26,424.88,113.24Z"/><path class="cls-50" d="M74.64,297.75c-1.7-6.32,5.59-8.39,6.4-13.52.95-1.19,2-2.52,3.68-1.54,1.92,1.11,1.19,2.91.75,4.54l0,2.21c3,1.62,4.11,3.91,2.55,7.15Z"/><path class="cls-51" d="M204.78,282.33c-.55,1.86,1,6.32-2.42,5.4-5-1.35-7.9-6.42-9.94-11.06-1.28-2.93,1.85-1.95,3.31-2C204.62,274.63,204.75,274.76,204.78,282.33Z"/><path class="cls-15" d="M235.83,276.22c1.48-5.33,4.33-2,6.8-1.09A17.56,17.56,0,0,1,244,278c.79,2.9,7.17,2.28,4.81,6.55-1.67,3-5.72,1.22-8.69,1.49-3.86.35-8,.52-3.46-5.21C237.31,280,236.16,277.79,235.83,276.22Z"/><path class="cls-52" d="M381.4,278.79c.42,0,1.17,0,1.21-.1,2.83-9.41,5.65-6.06,8.5,0,1.73.88,5.22-.52,4.83,3-.36,3.34-3.41,2-5.38,2.12a34.62,34.62,0,0,1-8.64-.16C377.59,282.79,377.78,280.83,381.4,278.79Z"/><path class="cls-53" d="M486.63,277.85c-.93,5.35,0,9.39-3.16,8.16-5.13-1.95-8-7-10.15-12-.63-1.44,1.19-1.7,2.21-1.35C480.08,274.19,488.4,271.2,486.63,277.85Z"/><path class="cls-54" d="M85.47,287.23c-.2-2.89-1.13-4.7-4.43-3,.07-.83.14-1.67.22-2.51,5.2-6.77,20.11-7.65,25.72-1.51.45,1.37.9,2.74,1.34,4.11-2.23-.74-4.41-5.37-6.71-.08C95.85,283.21,90.07,282,85.47,287.23Z"/><path class="cls-55" d="M459,286.09c-2.95-1.7-8.62,1.94-8.08-3.62.33-3.51,4.33-6.66,6.68-10,2.82,3.62,7.31,7,8,11C466.38,287.71,461,284.24,459,286.09Z"/><path class="cls-48" d="M623.16,284.51c-1.63-2.9-3.62-4.16-6.47-1.4,0-2.88.07-5.77.1-8.65l21.54,1.69c-.45,1.81-.91,3.63-1.36,5.44-1.69,1.19-3.82.7-5.62,1.5-1.53-1.61-1.59-4.74-5.12-4.26C622.29,279.36,624.07,282.57,623.16,284.51Z"/><path class="cls-56" d="M298.28,265.26c3.13,4.35,4.14,4.08,7.1-1.65A32.48,32.48,0,0,1,308,260a34.27,34.27,0,0,1,2.43,3.71c2.71,5.55,3.82,5.82,7.32,1.59q1.35,3.27,2.72,6.54c-8.18,1.25-16.36,2.3-24.4-.8Q297.16,268.14,298.28,265.26Z"/><path class="cls-57" d="M515.23,282.73c2.13.53,5.65-1,5.56,3-.09,4.18-4.09,3-5.58,2.32-4.11-1.93-11.55,4.17-12.57-5,2.5-1.11,6.51-.16,6.29-5,0-1.06,1.52-1.52,2.7-1.37a2.64,2.64,0,0,1,2.27,2.1C514.29,280.1,513,282,515.23,282.73Z"/><path class="cls-58" d="M296,271c8.14.15,16.33-1.39,24.4.8.35,1,.7,2.05,1,3.08a14.29,14.29,0,0,1-5.54,1.57c-4.14-3.28-9.05-2.08-13.37-1.41-5.5.85-.69,3.49-.16,5.36-5.68,2.4-5.65-3.27-7.95-5.64C295,273.51,295.49,272.26,296,271Z"/><path class="cls-59" d="M638.41,285.62c1.3,1.82,2.22,4.34,4,5.28,2.39,1.27,4.42,2.05,3.9,5.26-.3,1.87-1.59,2-3,1.93-2.88-.12-6,.35-7.17-3.51-.93-3-2.27-5.86-3.43-8.79C634.5,281.69,636.44,283.23,638.41,285.62Z"/><path class="cls-23" d="M415.49,273.5c3.07-.31,4.26,1.25,4.15,4.14.72,2.14,6.17,3.86,2.31,5.91-3.27,1.74-8.89,1.51-12.31-.19-3.14-1.56.23-3.54,2.34-5C413.53,277.32,414.35,275.16,415.49,273.5Z"/><path class="cls-60" d="M315.92,276.45c.88-3.94,3.16-2.94,5.54-1.57l3,3.85c1.23,1.26,4.62,1.12,2.78,4.34-2.16.33-4.35,1-6.48.9-2.5-.15-5.63,1.61-7.41-1.35S316.53,279.16,315.92,276.45Z"/><path class="cls-23" d="M355.53,273.56c1.12,1.37,2.33,2.67,3.35,4.11,1.31,1.85,5.5.1,5,4.08-.2,1.71-1.45,2-2.86,2.11-3.17.17-6.29.39-8-3.25a40.57,40.57,0,0,0-2.83-4.48c-1-1.66-1.32-3.42.57-4.5C353,270.43,354.53,271.51,355.53,273.56Z"/><path class="cls-61" d="M144.77,270.56l4.42,1.62q-2,4.74-4.09,9.48c-3.38-.59-6.66-.46-9.7,1.39-3.57-2.62-1.25-8.33-5.55-10.55,2.11-.25,4.63.75,5.93-1.95,1.41,2.27,1.15,6.35,4.53,6.42C143.92,277,143.25,272.74,144.77,270.56Z"/><path class="cls-62" d="M294.44,274.76c5.26-1.8,3.2,6.73,7.95,5.64.14,5.34-4.09,4.2-6.7,3.8-2.45-.37-8.58,3.52-6.64-3.85C289.63,278.17,292.57,276.61,294.44,274.76Z"/><path class="cls-63" d="M538.28,88.2c-3.37,4.58-2.3,11.63-9.21,12.84-1.83.31-5.4-.81-4.61-2.62,2.3-5.23,7.76-7.76,12-11.31C536.63,87,537.52,87.73,538.28,88.2Z"/><path class="cls-64" d="M433.05,268c-4.6,6.4-11,.74-16.34,2.47.22-1.83-.49-3.95,1.63-5.18.38,5,4.7,3.34,5.31,1.77C428.29,255.1,430.35,263.94,433.05,268Z"/><path class="cls-65" d="M533.79,110.16c-3.18.57-6.12-1-7,2.81-.42,1.91,0,4.35-2.48,5.37-.43-3.56-1-7.1-1.24-10.66-.19-3,1.83-3.24,4.1-2.58a45.75,45.75,0,0,1,5.74,2c1.74.78,5.18.06,4.95,2.32S534.57,110,533.79,110.16Z"/><path class="cls-66" d="M283.64,284.33c-.17-3.46,1.58-7.45-1.25-10.19-2.15-2.09-3.82.91-5.58,2,2.46-6.56-5.87-4.38-6.7-8.27,5.38-.73,10.76-2.55,16.14,0C283.31,273,287.19,279.26,283.64,284.33Z"/><path class="cls-67" d="M434.31,284.43c1.36-3.84,1.21-8.76,6.84-9.52,1.86,1.75,2,5.29,5.53,5.3,1.39,3,.68,4.85-2.91,4.73-3.13-.11-6.31.56-9.39-.49Z"/><path class="cls-68" d="M355.53,273.56c-3.14-2-5.22-1.79-5.28,2.57-2.6-2.78-3.88-8.71-9.6-4-1.38.87-3.23.81-4.33,2.22a2.28,2.28,0,0,1-2.34.55l1.2-6.84h19.18Z"/><path class="cls-69" d="M334,274.89l1.46-1.25c3.18-2.48,3.91,1,5.52,2.28.38,2.83,6,2.81,3.84,7l-.17-.12c-3.12,1.64-6.47.49-9.71.74-1.44.1-3.28.54-4-1.31-1-2.49,2.11-2.29,2.68-3.8Z"/><path class="cls-70" d="M257.61,275c-2.43-.33-5-.95-5.51,2.67-3.39-2.66-1.25-6.62-2.31-9.83l6.64.11Q257,271.48,257.61,275Z"/><path class="cls-71" d="M587.94,281.64c-8.09-.8-7.23,6.21-9.31,10.66-2.72-7,2.73-11.58,6.07-15.73C586.52,274.31,588.22,278.81,587.94,281.64Z"/><path class="cls-72" d="M676.26,293.69c-.17-3.4.86-8-5.34-5.3.24-2.2-2.46-4.94.76-6.45,1-.47,3.38.3,4.18,1.27C678.54,286.45,678.85,290.09,676.26,293.69Z"/><path class="cls-73" d="M542.12,121.2l3.92,2.7c-.2.39-.31.89-.62,1.14-2.44,2-4.24,8-6.24,6.21C535.75,128.21,539.6,124.24,542.12,121.2Z"/><path class="cls-17" d="M515.23,282.73c-2.25-.3-3.34-10.69-7-.77-.33.91-3.67.71-5.61,1,1.7-.79,4.05-1.12,5-2.45,1.5-2.19-.39-7.47,4.39-6.48C516,274.89,513.91,279.85,515.23,282.73Z"/><path class="cls-74" d="M286.25,267.86l-16.14,0C275.49,265.19,280.87,264.14,286.25,267.86Z"/><path class="cls-75" d="M333.56,278.46c-1.7,2.28-3.85,4.69,1.6,4.49,3.15-.13,6.31-.09,9.47-.12-3.83,2.95-8.22.9-12.33,1.32a2.38,2.38,0,0,1-2.71-2.39C329.37,278.79,331.38,278.53,333.56,278.46Z"/><path class="cls-76" d="M638.41,285.62c-1.92-.89-3.86-2.25-5.68.17l-1.38-2.7c.92-4.06,3.35-2.5,5.62-1.5Z"/><path class="cls-77" d="M545.87,110.28a17.54,17.54,0,0,1-6.94,10.14c-.1.06-.88-.53-.84-.62a18.29,18.29,0,0,1,7.89-9.44Z"/><path class="cls-45" d="M434.38,284.45c3.57-2.95,10.89,5,12.3-4.24,2.22,4.81,2.07,5.39-2.54,5.42C440.89,285.65,437.64,284.87,434.38,284.45Z"/><path class="cls-78" d="M523.8,262.76c5.7-2.41,2.08-7.4,3.08-11.11C527.31,255.76,533.46,261.45,523.8,262.76Z"/><path class="cls-75" d="M340.38,276.41c-1.26-1.62-2.72-2.87-4.94-2.77.5-4.75,3.16-2.1,5.21-1.52l.36,2.44A1.15,1.15,0,0,1,340.38,276.41Z"/><path class="cls-68" d="M340.38,276.41l.63-1.85c-.13,3.42,7.66,3.27,3.79,8.39C345.67,279.19,340.37,279.59,340.38,276.41Z"/><path class="cls-48" d="M382.75,255.85c3.21,3.68-.16,8.21,1.54,12.09C380.88,264.28,383.46,259.85,382.75,255.85Z"/><path class="cls-68" d="M333.74,255.94c2.74,3.07,1.09,6.3.34,9.5Q333.92,260.68,333.74,255.94Z"/><path class="cls-54" d="M88,296.59c1-3-.67-5.13-2.55-7.14C90.34,290.39,90.81,292.9,88,296.59Z"/><path class="cls-75" d="M327.21,283.07c-.93-1.44-1.85-2.89-2.78-4.34C327.56,278.77,330.11,279.18,327.21,283.07Z"/><path class="cls-2" d="M104.06,271.1c-1.11-9.65,7.59-8.26,12.55-10.73,2.16-1.08,2.54,1.78,2.55,3.59,0,5.76,0,11.52,0,17.28,0,2.8-2.21,3.11-4.08,3.68-2.86.87-4.19-1.15-5.08-3.25-1.47-3.45-1.62-7.61-5.57-9.61l-.52-.36Z"/><path class="cls-79" d="M104.06,271.1a.72.72,0,0,0,.34,1c-.08.86-.15,1.72-.23,2.57-3.66,3.09-6.29,1.12-8-2.11-1.84-3.47-2.41-2.23-4,.17-3.74,5.52-6,5.57-8.33.72,1.43-3.23,2.92-6.43,4.25-9.7.53-1.31,2.06-3.33-.21-4-2.86-.82-4.58-2-3.79-5.05s3.68-2,5.66-2c2.85,0,6.32-1.56,7.89,2.93C99.46,260.89,101.89,266,104.06,271.1Z"/><path class="cls-80" d="M83.81,273.41c5.71,5.51,6.17-.07,7.67-3.59.76-1.8,1.75-5.08,2.5-5,2.42.13,2.39,2.93,2.67,4.77.71,4.61,3.14,6.16,7.52,5.08q1.41,2.79,2.81,5.58a32.61,32.61,0,0,0-25.72,1.51c.42-1.86.83-3.72,1.25-5.58a1.66,1.66,0,0,1,.1-2.65C83,273.48,83.41,273.45,83.81,273.41Z"/><path class="cls-2" d="M82.61,273.49c0,.89-.06,1.77-.1,2.65-.38.24-.78.46-1.14.72-3.53,2.57-3.05,11-8,9.16-4.35-1.65,1.42-8.87-1.48-13.5-1.06-1.7,1-3.28,2.81-3.92C79.35,267,80.1,271.68,82.61,273.49Z"/><path class="cls-62" d="M127.61,286.7c3.32.73,4.26,3.79,2.27,5.31-3.61,2.76-8.67,2.6-12.7,1.11-2-.76-1.6-4.17,1.56-5.48,2.72-1.13,1.48-3.88,1.94-5.92.78-1.8,2-2.87,4.07-2.26,1.89.56,1.85,2.12,1.93,3.68C126.73,284.37,126.24,285.79,127.61,286.7Z"/><path class="cls-55" d="M135.4,283.05c2.35-6.67,6-4.45,9.7-1.39-2.06,2.18-1.25,6.92-5,7.16C137,289,136.76,285.21,135.4,283.05Z"/><path class="cls-81" d="M127.61,286.7c-2.84-.93-.1-9.61-6.93-5,0-2.82,0-5.63,0-8.45h5.18Z"/><path class="cls-2" d="M452.2,100.74c.6,12.52-8.46,0-11.07,4.27a2.1,2.1,0,0,1-1.29-.3c-.49-4.35-9.49-2.72-6.84-7.78,3.05-5.82,9.61-3.87,15.06-2.87C452.31,94.51,452.65,97.38,452.2,100.74Z"/><path class="cls-49" d="M408.68,110.34c-1.82-.49-3.63-1-5.44-1.51-.09,0-.07-.77-.06-.77a5.44,5.44,0,0,1,5.44,2.35Z"/><path class="cls-82" d="M452.2,100.74l-4.14-6.68c.07-3-2.18-8.52-1.69-8.4,6.59,1.71,11.14,6.88,16.29,11A5.88,5.88,0,0,1,464,99.86C460.26,102.1,456.35,103.41,452.2,100.74Z"/><path class="cls-83" d="M622.9,265.1c-.18-3.38-.55-6.75,4.5-6.19,4.58.51,9.47.71,9.39,7.11-.06,5.23-3.58,6.53-8.15,6.94C621.89,273.57,623.16,268.81,622.9,265.1Z"/><path class="cls-84" d="M345.62,265.51c-3.31.68-5-.76-5.07-5s1.56-5.69,5.53-5.22c3.44.41,8-.45,8,4.85C354.06,264.92,350.09,265.4,345.62,265.51Z"/><path class="cls-85" d="M399.37,266.8c-9.86,1.67-8.84-4.9-8.38-11.05,4.15-.31,8.9-1.79,11.57,2.63C404.63,261.81,402.42,264.72,399.37,266.8Z"/></g></g></g></svg>