<svg xmlns="http://www.w3.org/2000/svg" viewBox="0 0 885.73 719.67"><defs><style>.cls-1{fill:#fff;}.cls-2{fill:#2bc4f2;}.cls-3{fill:#0b151d;}.cls-4{fill:#203c52;}.cls-5{fill:#ed1f80;}.cls-6{fill:#516c81;}.cls-7{fill:#ed1f7f;}.cls-8{fill:#526c81;}.cls-9{fill:#f8f1f4;}.cls-10{fill:#a9a9a9;}.cls-11{fill:#adadad;}.cls-12{fill:#e1e2e1;}.cls-13{fill:#dedfdf;}.cls-14{fill:#e2e2e2;}.cls-15{fill:#ec217f;}.cls-16{fill:#b0b0b0;}.cls-17{fill:#ec207f;}.cls-18{fill:#e0e1e1;}.cls-19{fill:#aaaaab;}.cls-20{fill:#e0e0e0;}.cls-21{fill:#233d52;}.cls-22{fill:#dcdcdc;}.cls-23{fill:#e1e1e1;}.cls-24{fill:#213c51;}.cls-25{fill:#243a51;}.cls-26{fill:#e1e2e2;}.cls-27{fill:#f3ebef;}.cls-28{fill:#bdbdbd;}.cls-29{fill:#e2e3e2;}.cls-30{fill:#eb2380;}.cls-31{fill:#a6a6a6;}.cls-32{fill:#ababab;}.cls-33{fill:#efdce4;}.cls-34{fill:#213c52;}.cls-35{fill:#223c51;}.cls-36{fill:#233e53;}.cls-37{fill:#223d52;}.cls-38{fill:#b9b9b9;}.cls-39{fill:#dfe0e0;}.cls-40{fill:#a0a1a2;}.cls-41{fill:#bbb;}.cls-42{fill:#b8b8b8;}.cls-43{fill:#ababac;}.cls-44{fill:#aaabab;}.cls-45{fill:#a2a2a2;}.cls-46{fill:#a1a2a2;}.cls-47{fill:#dddede;}.cls-48{fill:#f5ebef;}.cls-49{fill:#203b51;}.cls-50{fill:#9e9e9f;}.cls-51{fill:#233d53;}.cls-52{fill:#9b9b9c;}.cls-53{fill:#243e53;}.cls-54{fill:#1f3a4f;}.cls-55{fill:#ebdbe2;}.cls-56{fill:#9f9fa0;}.cls-57{fill:#e8dae1;}.cls-58{fill:#203b50;}.cls-59{fill:#1f394e;}.cls-60{fill:#e8ccd9;}.cls-61{fill:#213b4f;}.cls-62{fill:#ebd6e0;}.cls-63{fill:#e42c7f;}.cls-64{fill:#e23682;}.cls-65{fill:#e4c6d3;}.cls-66{fill:#1f384d;}.cls-67{fill:#d4bbc7;}.cls-68{fill:#e91f7e;}.cls-69{fill:#e81e7d;}.cls-70{fill:#e51e7c;}.cls-71{fill:#262f37;}.cls-72{fill:#3d454c;}.cls-73{fill:#313940;}.cls-74{fill:#3a4248;}.cls-75{fill:#283139;}.cls-76{fill:#323a41;}.cls-77{fill:#222c35;}.cls-78{fill:#283037;}.cls-79{fill:#2a3239;}</style></defs><g id="Layer_2" data-name="Layer 2"><g id="Layer_1-2" data-name="Layer 1"><g id="wmPFKH.tif"><path class="cls-1" d="M0,718.19H876c8.29,0,8.29,0,8.29-8.29V.07c.43.3,1.44-.7,1.4.69-.06,1.84,0,3.68,0,5.52V713.35a30.06,30.06,0,0,0,0,4.14c.26,1.82-.3,2.37-2.11,2.12a28.58,28.58,0,0,0-4.14,0H6.22C2.08,719.57,2.08,719.57,0,718.19Z"/><path class="cls-2" d="M599.78,635.59H454.06c-3.9,0-7.79-.21-11.55,1.38a9.43,9.43,0,0,1-7.44,0c-4-1.72-8.1-1.42-12.22-1.42l-317,0c-12.72,0-16.17-4.09-13.61-16.49q7.79-37.79,15.82-75.51c1.73-8.22,4.67-10.51,13.48-10.51q91.17,0,182.33,0c2.5,0,6.46,1,7.17-.55,1.14-2.56-2.35-4.54-3.94-6.67a418.4,418.4,0,0,1-54.32-98,394.32,394.32,0,0,1-21.29-76.89c-3-17.66-5-35.43-4.94-53.42.18-30.83.25-61.67-.08-92.5-.09-7.78,3-12.08,9.68-15.65,26-13.83,51.69-28.17,77.51-42.29q36-19.69,72-39.34Q406.83,96.07,428,84.39c1.61-.89,3.28-1.67,4.85-2.62,5.1-3.09,10-2.48,15,.34q18,10.14,36.16,20.1,48.9,27,97.82,54c20.93,11.57,41.78,23.28,62.77,34.74,5,2.75,7.29,6.54,7.28,12.19-.07,33.83.41,67.66-.24,101.47-.3,15.78-2.55,31.53-5.27,47.16a405.75,405.75,0,0,1-75.73,174.07c-1.48,2-4.58,4.28-3.64,6.12,1.23,2.4,4.9,1.05,7.49,1.06q93.59.09,187.16,0c2.31,0,4.62-.13,6.91.07,5.59.49,9.15,4.37,9.35,10a27.59,27.59,0,0,1-.8,6.82q-8.07,38.08-16,76.17c-1.48,7-4.71,9.48-12.8,9.48q-67,0-134,0Z"/><path class="cls-3" d="M596.88,626.8q-73.92,0-147.82,0c-2.73,0-5.52-.43-8.15.87a4.26,4.26,0,0,1-2.68.39c-10-2.58-20.12-1.13-30.16-1.15q-149.2-.2-298.4-.1c-9.53,0-10.08,2-7.75-9l14.61-69.18c1.33-6.29,1.33-6.3,8.09-6.3q98.77,0,197.55,0c2.9,0,7,1.34,8.34-1.27,1-1.84-2.74-4.23-4.43-6.26C299.47,502.63,278.7,467.06,263,428.54a375.14,375.14,0,0,1-19.27-62.93c-2.79-13-4.46-26.17-6.22-39.34-1.69-12.6-1.7-25.17-1.72-37.79,0-27.38.11-54.77-.12-82.16,0-4.82,1.59-7,5.84-9.31,29.35-15.77,58.47-31.95,87.68-48,17.3-9.48,34.65-18.88,51.95-28.36,17.72-9.71,35.46-19.4,53.08-29.27,4-2.24,7.12-2.32,11.29.06,20.95,11.92,42.14,23.4,63.23,35.08Q557.86,153.76,607,181c10.45,5.78,20.89,11.61,31.49,17.12,3.13,1.63,4.14,3.58,4.12,7-.1,32.91.59,65.84-.29,98.72-.61,22.67-4.3,45.13-9.47,67.29a389.3,389.3,0,0,1-26,76c-14.9,32-33.34,61.79-56.2,88.76a21.91,21.91,0,0,0-1.7,2.17c-.63,1-1.8,2.14-1.58,2.9.43,1.55,2.21,1.26,3.55,1.3,1.84.06,3.68,0,5.52,0l204.46,0c8.27,0,8.19,0,6.44,8.29q-7.32,34.6-14.53,69.24a33.79,33.79,0,0,0-1,4c-.18,2.36-1.36,3.17-3.6,3-1.6-.11-3.22,0-4.83,0H596.88Z"/><path class="cls-4" d="M255.32,379.76c-2.16-3.88-1.14-8.33-2.35-12.46-3.55-12.18-5-24.86-6.58-37.37-1.21-9.65-1.47-19.58-2.09-29.37-1.85-29.38-.55-58.76-1.2-88.13-.1-4.74,1.29-7.26,5.66-9.53,18.83-9.74,37.08-20.57,55.77-30.61,14-7.55,28.15-15,41.88-23.17,10.71-6.36,22-11.78,33-17.69,8.62-4.64,17.3-9.21,25.76-14.15s17.48-9.07,25.59-14.46c6.27-4.17,10.77-3.77,16.89-.08,14.63,8.82,29.69,16.93,44.64,25.21,4.58,2.54,9.25,4.93,13.82,7.5,14.7,8.29,29.67,16.11,44.3,24.52,13,7.47,26.21,14.58,39.22,22,10.84,6.2,21.91,12.05,32.88,18.05a18.49,18.49,0,0,0,1.87.85c6.34,2.63,8.84,6.77,8.68,14.18-.59,25.76-.26,51.55-.22,77.32,0,8.92-2.16,17.71-1.52,26.67-3.17-.2-3.09-3-3.8-5A48.9,48.9,0,0,0,621,301.21c-.81-1.09-1.68-3.1-2.76-2.78-1.59.48-.48,2.38-.38,3.63a35.79,35.79,0,0,1-2.48,15.52c-2.76,7.34-7.87,10.58-15.38,10.2-7-.36-11.84-3.91-13.56-11.52-2.35-10.38-1.54-21-.55-31.5.86-9.15,3-18.11,4.8-27.11a14.13,14.13,0,0,0,.55-3.36c-1.34.07-1.93,1.19-2.61,2-12.57,15.58-22.84,32.24-24.43,52.89-.16,2-.11,4.19-2,5.62a119.07,119.07,0,0,1-5.29-20.68c-.39-2-.63-4.1-1.69-5.83a8.89,8.89,0,0,1-.91-8c2.31-5.52.92-10.55-1.79-15-3.2-5.24-2.79-9.76.34-14.58,1.62-2.48,3.08-5.05,4.6-7.59,2.52-4.19,2.61-8.41,1.13-13.11-1.8-5.73-4.9-10.78-7.47-16.1a24,24,0,0,1-2.71-11.12c.2-14.9-12.34-28.11-27.23-28.71-9.14-.36-18,1.71-26.91,3.52a12.47,12.47,0,0,0-6.81,4.26c-1.84,2-3.8,2.64-5.9.48-1.68-1.72-3.77-1.43-5.81-1.43-6.21,0-12.42,0-18.63,0-4.47,0-8.49,1-11.84,4.28-1.43,1.41-3.24,2.91-5.1,3.29s-2.65-2.2-4.23-3.09c-4.72-2.68-9.52-4.34-15-2.25-2.85,1.1-5.91.36-8.88.53-10,.55-20,1.15-29.07,6a8.68,8.68,0,0,0-1.82.94c-4.88,4.42-10.08,6.08-16.44,2.91-2.83-1.41-5.74.84-8.65,1.23a76.94,76.94,0,0,0-24,7.16A21.14,21.14,0,0,0,321,215.26c-2.23,7.76-4.75,15.48-4.92,23.91-.1,5.62-.43,11.13.24,16.77,1.07,9.17-1.92,18-3.17,27-1.15,8.29-3.17,16.45-3.63,24.83a2.64,2.64,0,0,1,0,.69c-4.46,14,2.83,25.78,7.54,37.81a238.35,238.35,0,0,0,22,43.17,5,5,0,0,1,.4,5.19,36,36,0,0,1-2,3.58c-7.05,11.61-5,14.18,1.1,22.78-19.59,18.19-37.5,6.88-43.07-9.7-3.23-9.6-3.86-19.49-3.81-29.26.1-17.23,2.24-34.34,5.22-51.36,3.17-18.06.21-35.26-9.7-51-.52-.83-.74-2.2-2.15-2-.15,0,.06,1.28.18,2,3.92,21.76-2,41.44-12.91,60-6.93,11.73-13.63,23.5-15.1,37.41A3.58,3.58,0,0,1,255.32,379.76Z"/><path class="cls-5" d="M562.22,314.83c-.11-25.85,12.56-45.94,29.1-64.27.66-.73,1.34-2.2,2.58-1.2.48.38.4,1.76.2,2.6a302.72,302.72,0,0,0-6.15,32.4,123.44,123.44,0,0,0-.47,28.23c1,9.65,6.3,14.24,14.8,13.65,6-.43,10.83-5,12.4-12,1.25-5.64,1.89-11.33.41-17.07-.33-1.29-.9-3.32.23-3.9,1.69-.86,2.83,1.07,3.83,2.22a51.94,51.94,0,0,1,10.74,19.86c.37,1.29.15,2.8,1.39,3.77.9,7.19-.66,14.23-1.69,21.23a383.05,383.05,0,0,1-41.4,125.57,390,390,0,0,1-48.73,70.81c-3.35,3.88-6.71,5.46-11.8,5.28-10.15-.37-10.31-.07-12.44-10.32-4.06-19.54-7.92-39.12-11.88-58.68a5.94,5.94,0,0,1,1.53-5.49,48.71,48.71,0,0,0,9-19.16,25,25,0,0,0-2.28-17.44c-1.86-3.73-1.28-6.59,1.81-9.12,6.36-5.21,7.07-11.78,5.23-19.33-1.77-7.22-1.54-7.28,5-11.55a11.42,11.42,0,0,1,5.8-1.84c16.54-1.4,26.41-11.1,32-25.94,1.69-4.47,2.45-9.28,4.71-13.57A10.47,10.47,0,0,0,568,338.72C565.18,331,564.38,322.74,562.22,314.83Z"/><path class="cls-5" d="M255.32,379.76c-.54-5.61.77-10.81,2.68-16.1,3.94-10.9,10.12-20.56,15.6-30.63,9.64-17.71,13.13-36.52,9-56.48-.36-1.78-1.46-4.76-.34-5.11,2.13-.65,3.18,2.1,4.32,3.71,11.8,16.82,15.6,35.4,12.32,55.59-2.43,14.94-4.9,29.85-5.1,45.08-.15,11.26-.27,22.42,3.1,33.31.48,1.54.9,3.09,1.51,4.57,5.39,13,17.73,18.43,31,11.74,3-1.51,5.18-4.76,9.06-4.49,7.07,7.08,8.58,15.64,7,25.19-.76,4.52-.95,9.13-1.28,13.71-.61,8.35,3.34,14.25,10.68,17.52,2.87,1.28,3.27,2.64,2.77,5.14-3.62,18-6.39,36.15-8.71,54.36-.2,1.63.39,4.08-1.89,4.74a6.08,6.08,0,0,1-6.8-2.13c-2.77-3.37-5.76-6.56-8.52-10-28.25-34.66-50.31-72.83-65.38-115C262.22,403.06,259,391.33,255.32,379.76Z"/><path class="cls-5" d="M498.79,463.22c-16.08,7.08-33,11-50.37,13.15-16.47,2-33,2.05-49.6,1.3-5.51-.25-11-1.25-16.5-1.14-6.4.13-9.57-3.3-10.79-10.17s.47-13.73,1.2-20.58c.23-2.23,1.9-2.21,3.57-2.21,5.29,0,10.58,0,15.87,0a15,15,0,0,0,5.42-.61c2.46-1,6.56-2,6.29-4.41-.24-2.24-4.29-.94-6.57-.9-6.69.1-13.31-.85-20-1.07-2.41-.08-4.43-.67-6-2.68-4.13-5.23-8.51-10.26-12.56-15.55-2.55-3.33-.81-11.14,2.68-13.41,1.54-1,3.22-.48,4.66,0,5.88,2,12.09,2.4,18.09,3.69,11.46,2.47,23.31,2,35.05,1.43a4.77,4.77,0,0,0,3.24-.87,6.86,6.86,0,0,1,8.82-.61c2.38,1.61,4.69,1.54,7.16,1.69,15.66.91,30.63-2.34,45.17-7.75a29.56,29.56,0,0,1,12-2,40.27,40.27,0,0,0,10.27-.75c4.49,6.18,4.05,11.79-2,16.74A80.43,80.43,0,0,1,477,431c-.38.12-.66-.41-1.08-.24a2.19,2.19,0,0,0,1.8.71c6,0,11.89,1,17.86.79,7.86-.27,13.38,6.6,10.87,14.09C504.44,452.17,502.36,458.05,498.79,463.22Z"/><path class="cls-6" d="M482.3,354.86c1,.9,2.05,1.83,3.11,2.7.85.71,1.82,1.84,2.93.93s-.12-2.05-.55-3c-3.45-7.67-3.24-15.53-1.33-23.5a3.74,3.74,0,0,1,2.43-3.06,3.23,3.23,0,0,1,4,1.84,17.7,17.7,0,0,0,8.69,8.44c.65.29,1.41.61,1.8,0,.19-.3-.36-1.09-.64-1.62s-.57-.72-.77-1.13c-.43-.84-.76-1.92-.08-2.57,1-.92,1.56.34,2.05.88,2.26,2.47,5.35,3.49,8.25,4.81a2,2,0,0,0,2.46-.42c.14-.2-.57-1.17-1-1.64-3-3.1-6.22-6-8-10.22s-2.21-8.42.81-12.25a22.05,22.05,0,0,0,2.7-5.49c.38-.89.78-1.88-.15-2.43s-1.69.23-2.42.81-1.49,1.07-2.23,1.59c-2.85,1.47-5.54,3.21-8.51,4.49a14.17,14.17,0,0,1-13.21-.67c-13.21-7.34-23.12-18-31-30.69-1.7-2.73-2.75-5.84-1.31-9.15A48.21,48.21,0,0,1,459,258.92c.52-.62,1.17-1.59,2.11-.95.38.26.34,1.27.35,1.95,0,5.34-3.26,9.38-5.63,13.75s-2.43,4.23,1.31,6.72a43.14,43.14,0,0,0,12.24,6c8.2,2.31,13.69.38,18.12-6.8,1-1.55,2.1-3.21,2.34-4.94.52-3.77,2.82-4.46,5.82-3.79,7.72,1.75,15.54,1.27,23.3,1,4.59-.16,5.78,1.27,4,5.75-.69,1.69-1.62,3.29-2.36,5-.23.52-1.05,1.25,0,1.67a2.47,2.47,0,0,0,2,0,20.65,20.65,0,0,0,6.68-6.79c.57-1,1-2.09,1.6-3,.74-1.13,1.58-2.5,3.24-1.82a3.07,3.07,0,0,1,1.85,3.38,44.26,44.26,0,0,1-3.38,12.47c-.17.42-.61.73-.76,1.14-.55,1.48-3.15,3-1.22,4.37,1.55,1.13,3.32-.86,4.62-2.15,3.41-3.38,7.17-6.51,7.86-11.75a2.1,2.1,0,0,1,1.9-1.75c.38,0,.87.94,1.22,1.51a48,48,0,0,1,6.21,15.9c2.79,14.33,7,28.28,10.58,42.4.67,2.66,1,4.8-1,6.95-1.25,1.32-2.05,3.05-3.29,4.38A414.07,414.07,0,0,1,514,390.29a14.86,14.86,0,0,1-8.17,3.15c-11,.86-22.05,1-31.95-5.28-7.65-5.12-5.83-13.39-6.51-20.63-.57-6.13.5-12.32,2-18.34.6-2.45,1.25-5.27,4.16-5.72,3.11-.47,3.27,2.76,4.18,4.62A33.84,33.84,0,0,0,482.3,354.86Z"/><path class="cls-7" d="M366.12,200.76a69.19,69.19,0,0,1,17.44,10.84c.69.6,1.52,1.25,1.06,2.19-.17.34-1.28.29-2,.28-7.58-.11-15.18-.39-22.6,1.62-2,.54-4,1.1-5.95,1.74a1.8,1.8,0,0,0-.84,1c-.45,1.25.7.89,1.15.92,3,.19,6,.27,9,.44a11.83,11.83,0,0,1,1.82.39c-.48.45-.88,1.09-1.44,1.32q-3.5,1.44-7.06,2.66c-18.78,6.42-22,19.55-21.24,35,.11,2.13.91,2,2.84,2.13,2.88.21,4.05,3.53,2.72,6.11-.62,1.22-1.49,2.33-2.1,3.56-3,6.09-3.78,12.29-.1,18.36a11.26,11.26,0,0,1,1,9.8c-1,3.28-1.57,6.69-2.41,10-4.19,16.79.84,31.74,9.14,46,.44.74,1.63,1.88,1.92,1.74,1.45-.73.22-1.81,0-2.71-.79-2.87-1.7-5.71-2.54-8.57-3.93-13.44-2.6-26.78.87-40.06.33-1.28.35-3.13,2.32-2.58,1.68.46,3.73,1.11,3.59,3.52a43.66,43.66,0,0,1-.77,6.85c-1.34,6.1-1.19,12.34-1.83,18.5a20.8,20.8,0,0,0,3.15,13c3.53,6.11,5.7,13,8.48,19.55,4.75,11.2,9.49,22.41,15.84,32.84.94,1.53,1.63,3.47-1.18,3.08-9.52-1.31-19-2.84-26.91-9.1-12.74-20.06-21.21-42.18-30.78-63.76-3.29-7.43-.24-15,.29-22.43a196.81,196.81,0,0,1,3.38-22.45c.79-4.17,1.39-7.89,6.71-9.11,3.72-.85,1.45-4.2.91-6.38a96.14,96.14,0,0,1-.54-43.61c2.58-12.14,9.64-18.25,21.17-20.17C355.76,202.44,360.86,201.1,366.12,200.76Z"/><path class="cls-6" d="M414.46,295.69c-2.46.32-4.46-1.4-6.81-1.52-1.3-.93-3.09-.94-3.44.41-.81,3.1-2.78,4.55-5.35,3.29-3.11-1.53-7.64-2.52-6.56-7.82.34-3.76.62-7.36,5.95-7.32,1.8,0,2.77-1.59.94-3.25-5.64-5.15-4-11.42-1.67-17,3-7,2.14-13.29-.6-19.79-1.5-3.56-3.16-7.06-4.74-10.59-1.39-4.88,2.16-7.34,5.3-9.33,12.67-8,26.12-10.3,40.39-4.4,3.25,4.8,4.09,10.52,6,15.82a8.3,8.3,0,0,1,.87,2.55c0,2.82,4.18,5,1.59,8a16.2,16.2,0,0,1-10.76,5.31c-6.8.76-13-1.42-19.13-4-1-.44-2.15-1.39-3.1-1.25-2.19.33-.07,1.58-.25,2.41,4,6.91,9,12.69,17,15.2,4.26,1.34,5.62,4.41,4.54,8.66a188.2,188.2,0,0,1-6.13,20.47C425.72,299.06,419.61,295.85,414.46,295.69Z"/><path class="cls-7" d="M434.24,349.43c-.44-.82-1.1-1.77-1.94-.69-6,7.78-11.53,15.7-10.19,26.42.39,3.1-.54,6.34-.58,9.52,0,4.54-.59,9.13.63,13.63.18.66,0,1.38-.74,1.55-.93.2-1.07-.65-1.25-1.27-.24-.88-.38-1.79-.6-2.67-.5-2-1-3.94-1.52-5.91-1.83,1.75-1.84,4.06-2,6.33-.4,5.66-.4,5.66-6.5,6.41-3.69-9.85-4.34-20.13-3.72-30.45,1.38-23.26,15.37-40.1,29.55-56.78a3.12,3.12,0,0,1,1.89-.73,12.81,12.81,0,0,1,3.21.68c1.77.88,4.45.06,5.37,1.87.82,1.61-1.34,3.09-1.87,4.74-.27.83-.43,1.76.75,2.13,3.6-.69,7.17-1.49,10.76-2.13,2.33-.42,5.08-1.06,7,1.46-8.31,12.39-11.69,26.19-11.79,41a56.85,56.85,0,0,0,1.13,8.84,5.62,5.62,0,0,0,.73,1.5c.26-.36.53-.7.75-1.07s.42-.82.61-1.24c.47-1,.93-2.06,1.39-3.1,1.08,1,1,2.42,1.28,3.66,1,3.77,1.62,7.61,2.71,11.33.85,2.9,1.67,5.47,5.71,6.35,3.61.79,6.52,4.12,10.22,5.49.53.2,1.45.4,1,1.24a2.94,2.94,0,0,1-1.55,1.23,90.06,90.06,0,0,1-21.48,4.42c-3.19.27-6.4.16-9.61.22-3.49-2.64-5-6.45-6.15-10.47-3.37-12.25-5.22-24.64-3.25-37.34A16.21,16.21,0,0,0,434.24,349.43Z"/><path class="cls-6" d="M384.16,232c4.2,5.76,6.28,12.49,8.82,19,1.14,2.91.13,4.67-1.74,6.67-4.6,4.89-10.45,6.15-16.79,6.24-1,1.71-4.94-1.15-4.36,2.89l1.45,1.32a38.15,38.15,0,0,0,6.33,2.65c8.65,2.59,9.09,2.67,7.42,11.21-1.08,5.47-.13,11.55-4,16.34-7.14.5-14.1-.11-20.64-3.28-.89-.43-1.64-.69-2.35.21s1.57,3.29-1,2.88c-2.81-.44-5.84-1-8-3.36A21.84,21.84,0,0,1,344,284.58a5.11,5.11,0,0,1,2-6.56c2.46-1.68,2.92,1.27,4.18,2.25,2.12,1.66,3.25,1,4-1.36.41-1.29-.32-3.43.93-3.85,10.6-3.52,1.06-5.4-.66-7.67-1.51-2-3.57-3.55-5.13-5.56-8.55-11-4.56-24.58,8.86-28.7C366.61,230.54,375.29,227.48,384.16,232Z"/><path class="cls-6" d="M417.17,534.6c.22,2.5,1.93,4.39,2.72,6.64-3.46,1.8-7.18.75-10.76.79-13.75.15-27.5-.1-41.25.15-5,.09-6.86-2.26-6.38-6.59,1.47-13.44,3.43-26.82,7.22-39.84,1-3.32,2.95-5.85,7.11-4.11,10,2,20.32,1.15,30.39,2.81,2.59,1.34,3.12,3.73,3.27,6.33C410.17,512.48,413.3,523.63,417.17,534.6Z"/><path class="cls-6" d="M410.36,334.28c-3.27,6.52-8,12.22-10.52,19.2a48.07,48.07,0,0,0-3.32,16.69c.05,8.69-.82,17.4,1.08,26.07.47,2.13,1.74,5.22-.92,7-2.48,1.62-9.31-.26-11.14-2.7a29.18,29.18,0,0,1-2.72-3.95c-10-19.34-18-39.51-25.64-59.83-1.38-3.65-1-7.78-.11-11.56.61-2.52.48-5,.76-7.5,6.48-1.57,10.94,3.28,16.23,5.35,2.15.84,1.1,3.71.36,5.61-1.51,3.87-2.61,7.81-2.26,12,.16,1.93-1,4.68,1.16,5.56,1.73.69,2.87-1.85,4.1-3.09a117.2,117.2,0,0,1,12.8-11.38c3.46-2.6,6.65-4,8.07,1.78.93,3.8,2.53,2.55,4.76,1.2C407.64,331.93,407.71,332.05,410.36,334.28Z"/><path class="cls-6" d="M543,211.36a5.73,5.73,0,0,1,3,3.53c2.38,5.69,4.79,11.36,7.34,17,1.55,3.4.53,5.42-2.54,7.39-6.86,4.4-14,5.34-21.64,2.69-2.59-.89-5.14-1.9-7.77-2.66-1-.27-2-1.79-3-.55-.75.94-.25,2.17.45,3.17a10.75,10.75,0,0,1,.68,1.19,33.49,33.49,0,0,0,15.21,13.4c2.29,1,4.17,2.29,3.2,5.15s-2.54,4.91-6,3.64c-8,0-16.09.07-24.14,0-6.14-.06-7.36-1.9-5.14-7.56,1.34-3.4,2.89-6.72,4.29-10.09,1.93-4.65,2.34-9-.79-13.6-2.44-3.56-4-7.7-6-11.59,0-5.77,4.15-9.06,8.52-10.5C519.9,208.24,531.48,207.61,543,211.36Z"/><path class="cls-8" d="M468.36,491.68c6.19-2.57,13-2.23,19.34-4.18,3.9-1.76,5.7.59,6.48,3.76,3.6,14.7,7.42,29.36,10.06,44.27.8,4.52-.85,6.74-5.93,6.65-13.77-.25-27.54-.09-41.3-.09-4,.4-5.36-1.39-4.82-5.3.91-6.6,2.27-13.1,3.62-19.61.61-2.93,1.69-5.84,6.05-4.46,3.59,1.14,2.82-2.09,3-3.81C465.36,503,464.66,496.91,468.36,491.68Z"/><path class="cls-6" d="M490.38,218.4c4.89,5.54,6.49,13,10.84,18.84,1.34,1.82-.45,3.46-2,4.52-5,3.54-10.55,5.26-16.69,3.64-4.15-1.1-8.39-2-12.23-4-1-.51-2.12-1.41-2.89,0-.64,1.13.65,2.06,1,3.11,1.15,3.34,6.53,4.9,4.09,9.74-2.7.37-3.82-2.25-5.91-3.13-4.62-1.94-8.05-1.27-11.26,2.67-1.88,2.3-4.18,4.27-5.56,7-.27.52-1.05.77-1.59,1.15a5.5,5.5,0,0,1-.35-1.94,10.71,10.71,0,0,1,2.27-4.94c4.22-4.95,3.87-10.57,2.2-16.24-1.36-4.59-3.12-9.06-4.71-13.58,1.14-6.87,7.4-8,12.18-9.14C470,213.55,480.47,213.93,490.38,218.4Z"/><path class="cls-9" d="M366.12,200.76c-4.07,2.27-8.71,2.52-13.1,3.64-2.21.57-4.51.8-6.7,1.44-6.5,1.88-11.44,5.23-13.32,12.4-3.11,11.84-5.08,23.61-3.2,35.95.93,6.13,2.27,12.14,3.37,18.22.66,3.69.46,4-3,3.64-4.87-.52-4.85-.52-5.48,3.85-1.74,12.24-3.53,24.47-5.25,36.71a22,22,0,0,0,1.9,12.68c8.83,19.16,17,38.62,26.68,57.4.71,1.39,1.77,2.76,1.39,4.52-5.83-3.93-8.41-10.27-11.5-16.09A392.47,392.47,0,0,1,318.3,332.6a44.85,44.85,0,0,1-2.82-22.31c1.56-12.07,3.54-24.08,5.46-36.1.61-3.87.78-3.82,5-2.46.81.26,1.84.93,2.44-.15.24-.42-.07-1.26-.32-1.83a71.28,71.28,0,0,1-4.95-17.15c-2.32-14,1.44-26.88,6.91-39.47a8.36,8.36,0,0,1,3.34-4.29C343.52,203.07,354.24,199.55,366.12,200.76Z"/><path class="cls-6" d="M433.26,541.56c-3-.63-7.49,1.76-9.91-1.16-2-2.44-.65-6.65-.45-10,.74-12.78,1.75-25.55,2.53-38.32.14-2.38,1.09-3.27,3.36-3.2,10,.34,12-2.7,11.84,10.67-.2,12.86,2.3,25.48,3.44,38.22.33,3.59-.59,3.91-3.32,3.85C438.45,541.52,436.15,541.56,433.26,541.56Z"/><path class="cls-10" d="M204.59,578.55l2.48,1.29c3.59,3.53,8.48,1.57,12.57,3-.91,4.92-1.8,9.83-2.72,14.74-1.13,6-1.13,6-7.56,6.07-3,0-6-.14-8.93,0s-4.07-.92-4.31-3.87c-.32-4.08-1.1-8.13-1.8-12.17a2,2,0,0,0-1.37-1.26c-.7,0-.75.84-.87,1.47-.81,4-1.79,8-2.41,12.07-.37,2.4-1.16,3.75-3.82,3.73-12.4-.09-12.17,1.44-9-10.56,1-3.91.71-8.1,2.63-11.79a99.84,99.84,0,0,0,14.76,1C198.26,582.36,201.74,581.49,204.59,578.55Z"/><path class="cls-11" d="M411.83,579.93c.91,7,1.86,13.88,2.71,20.84.25,2.08-1.14,2.77-3,2.78-3,0-5.95,0-8.93.06-2.7.09-4.56-.19-5.3-3.62-.59-2.7-9.44-3.58-10.63-.91-2.76,6.17-7.83,4.38-12.33,4.46-6.55.12-6.74-.2-3.84-5.7s6.16-11.09,9.26-16.63c4.16,2,8.3.25,12.45-.08,1.11,6,4,5.47,7.73,2.11C403.88,582,408.32,582.63,411.83,579.93Z"/><path class="cls-12" d="M421.2,579.84c.85-4.27,1.79-8.52,2.52-12.81.48-2.82,2-3.68,4.74-3.62,6.66.15,13.32,0,20,.11,4.45.09,9.15.48,10.87,5.46s-.77,8.87-4.79,11.83c-.37.27-.77.5-1.15.75a5.77,5.77,0,0,1-5.94,4.64c-7.24-.08-14.48.68-21.7,0C422,585.85,419.71,584.08,421.2,579.84Z"/><path class="cls-13" d="M549.68,578.43c1.87-14.84,1.87-14.84,16.7-14.84,3.89,0,7.79-.18,11.65.11,8.24.63,12.19,7,8.93,14.48-.94,2.14-1.52,4.72-3.79,6.13-9.68,3.76-19.72,2.38-29.63,1.73C548.8,585.72,548.66,582.15,549.68,578.43Z"/><path class="cls-14" d="M227.89,573.07c1.59-9.61,1.59-9.62,10.68-9.61,5.05,0,10.09,0,15.14,0,4.51,0,9.1.54,10.84,5.49s-.87,8.83-4.78,11.85c-.36.28-.77.5-1.15.75a6,6,0,0,1-6.12,4.61c-7.1-.07-14.22.61-21.3,0-3.52-.3-6.48-1.59-4.69-6.18h0C228.34,578,226.39,575.19,227.89,573.07Z"/><path class="cls-15" d="M431.44,190.44c4.72,2.9,8.9,6.34,11.45,11.41.5,1,1.27,2.08.19,3.07-.78.72-1.74,0-2.54-.22A66.54,66.54,0,0,0,414.81,202c-.8.07-5.54-2-2.44,2.62.77,1.14-1,1-1.69,1.19a45.75,45.75,0,0,0-13.32,5.29c-2.32,1.44-4,1.23-6-.69-2.78-2.7-5.85-5.08-8.79-7.6,2.36-7.6,9.33-8.52,15.38-9.42C409,191.73,420.16,190,431.44,190.44Z"/><path class="cls-16" d="M174,582.83c.45,1.93-1,3.46-1.13,5.3-.83,9.9-9.44,14.81-16.72,15.5-5,.48-10.09,1-14.93-1.24C136,600,133.56,596.6,134.45,591c.53-3.3.52-6.79,2.09-9.89,5,1.7,10.67-.4,15.28,3-.28,1.78-.62,3.56-.83,5.35a2.32,2.32,0,0,0,1.73,2.6,2.25,2.25,0,0,0,2.79-1.37,17.62,17.62,0,0,0,2-7.15c0-1.77-.27-3.69,1.27-5.12C162.58,584.31,169,581,174,582.83Z"/><path class="cls-17" d="M528.32,182.24c5.6,1.75,9,6.08,12.2,10.57a3.27,3.27,0,0,1,.63,2.55c-.53,1.27-1.94.94-3,.69a64.61,64.61,0,0,0-13-1.25c-4-.12-7.74.91-11.58,1.55-.54.09-1.54,0-1.33.87a2.18,2.18,0,0,0,1.47,1.18c2,.47,4,.76,6.07,1.12-1.92,1.26-4.15.47-6.2.94a70.33,70.33,0,0,1-7.44,1.46c-2.5.31-4.6,3.62-6.76,2.18-1.81-1.22-2.31-4.32-3.56-6.49-1.13-2-2.49-3.83-3.75-5.74,1.51-5.53,5.92-7.13,10.88-8C511.34,182.29,519.83,182.3,528.32,182.24Z"/><path class="cls-18" d="M268.14,584.18c1-5.87,2-11.74,3.08-17.6.38-2.16,1.72-3,3.91-3q12.44.09,24.87,0c2.16,0,2.91.94,2.49,3-.28,1.35-.72,2.67-.89,4-.33,2.79-1.78,4-4.61,3.87-3-.12-6,0-9,0-1.54,0-2.75.78-2.56,2.46.17,1.42,1.51,1.52,2.68,1.53,1.85,0,3.69,0,5.53,0,4.95.14,4.95.16,3.38,5.66C287.41,587.36,277.77,588.12,268.14,584.18Z"/><path class="cls-19" d="M299.86,593.92q3.3-6.4,6.61-12.79c4.27,2.23,8.63-.23,12.93.26,1.29,1.07-.36,3.93,1.66,3.92,1.84,0,1.54-2.43,1.73-4,.37-2.88-.61-6.07,2-8.43,1.7,0,2.22,1.23,2.68,2.52,2.89,8.1,3.24,8.24,11.16,4.51q1.29,10.06,2.57,20.13c.35,2.75-1.06,3.62-3.6,3.54-3.19-.09-6.39,0-9.59,0-1.33,0-3.14.15-3.25-1.64-.25-4.46-3.29-4.18-6.34-4.11-1.59,0-3.19,0-4.79,0C309.56,594.65,303.88,597.18,299.86,593.92Z"/><path class="cls-20" d="M464.05,577.12c.63-4.32.42-9.55,3.34-12.4s8.33-.85,12.61-1.07c4.59-.23,9.2.07,13.8-.09,3.29-.11,3.85,1.38,3.33,4.25-1.11,6.12-1.56,6.58-8.06,6.64l-5.52,0c-1.72,0-3.5.36-3.44,2.39.06,1.78,1.88,1.63,3.24,1.66,1.61,0,3.22,0,4.83,0,4.93.13,4.93.14,3.52,5.59-8.16,4-16.76,2.76-25.11,1.43C462,584.83,463.58,580.38,464.05,577.12Z"/><path class="cls-21" d="M410.36,334.28c-.61-1.35-1.48-1.52-2.67-.67-2.22,1.58-4.47,3.11-6.69,4.69-2,1.44-2.9.65-4-1.42s1.06-5.85-2.21-6.23c-1.53-.18-3.28,2.89-5.18,4.09-5.89,3.73-10,9.34-15.09,13.89-.77.69-1.38,2.1-2.7,1.43a3.07,3.07,0,0,1-1.5-2.9c0-6.81-.84-13.76,2.78-20,1.8-3.1.76-3.63-2.34-4.14a15.39,15.39,0,0,1-8-3.41c-1.24-1.11-2.93-2.25-4.95-1.94a15.74,15.74,0,0,1,0-2.06c.64-4.75,1.62-5.38,5.37-2.68a24.59,24.59,0,0,0,13.2,4.81c3.44.22,4.51,1.68,3.09,4.81A99,99,0,0,0,375.28,334a12.31,12.31,0,0,0-.79,3.26c0,1.24-.67,2.93,1.11,3.52,1.3.43,2.06-.78,2.8-1.57a157.5,157.5,0,0,1,21.15-18.31,12.32,12.32,0,0,1,2.19-1.61,2.69,2.69,0,0,1,2,.07c.88.39.25,1.11.1,1.71-.57,2.18-1.19,4.35-1.63,6.56-.22,1.09-.45,2.43.51,3.23,1.16,1,2-.21,2.92-.81,2.47-1.6,5-3.13,7.47-4.72.59-.38,1.23-.73,1.83-.3.8.58.06,1.2-.21,1.72C413.34,329.31,412.72,332.29,410.36,334.28Z"/><path class="cls-22" d="M350.58,574.76a4,4,0,0,1-.69,0c-2.19-.32-5.55,1.11-6.29-1.19s.44-5.35,1.09-8c.46-1.88,2.23-2,3.92-2,9.42,0,18.84-.06,28.26,0,4,0,4,.24,3.22,4.64-1,5.79-1,6-6.76,6.13-3.21.05-4.4,1.27-5.05,4.21-.43,1.93-.28,4.18-1.92,5.75a10.37,10.37,0,0,1-5.67,2c-7,.54-8.75-1-9.06-7.94C351.58,577.12,352.07,575.64,350.58,574.76Z"/><path class="cls-23" d="M633.92,579.73c.29-2.61.67-4.88-3.37-5.07-5.46-.25-5.37-.62-4.32-6.1.64-3.36,1.82-5.18,5.76-5,8.7.29,17.42.2,26.14.05,5.36-.1,5.39,1.39,4,5.71-.86,2.71-.95,5.08-4.85,5.29-7.71.41-7.69.67-8,8.26-3.18,4.63-7.83,3.81-12.28,3.06C633.56,585.3,632.94,582.82,633.92,579.73Z"/><path class="cls-24" d="M375.83,491.64c-3.57-.5-4.91,1.72-5.46,4.65q-3.51,18.66-6.86,37.34c-.24,1.34,0,2.76-.15,4.12-.24,2.6.73,3.8,3.48,3.69,3.44-.14,6.89,0,10.33,0l42.72-.17c-.44,1.9-2,1.55-3.29,1.55-16.76,0-33.52-.07-50.28.07-3.27,0-6.08-1.87-9.38-1.6-1.88.14-1.68-1.68-1.86-3-.51-3.73,1.3-7.09,1.55-10.75a142.2,142.2,0,0,1,3.17-21.43c1-4.43.23-9.09,2.16-13.37.49-1.07.61-2.4,2-2.24C367.93,490.91,372.13,488.83,375.83,491.64Z"/><path class="cls-12" d="M661.76,581.39c2.71-5,5.52-10,8.1-15.06a5.33,5.33,0,0,1,5.46-3.23q6.85.17,13.72.08c2.22,0,3.41.84,3.6,3.1.32,3.63.7,7.26,1.05,10.9,1.18,8.74-.33,9.94-10.79,8.56a3.54,3.54,0,0,1-1.72-1c-1.91-2.69-4.89-2.85-7.43-.35a6.23,6.23,0,0,1-2.35,1.3C667.64,585.48,662.26,588.83,661.76,581.39Z"/><path class="cls-25" d="M566.21,349.53c-1.24,18.21-9.47,31.75-26.33,39.64-5.26,2.46-10.67,2.35-16.2,1.71,5.3-5,10.39-10.18,15.94-14.84a148.3,148.3,0,0,0,21.68-21.78A17.42,17.42,0,0,1,566.21,349.53Z"/><path class="cls-26" d="M338.6,579.94c-.06,2.81-.69,5-4.31,4.26a9.82,9.82,0,0,0-2,0c-6.41,0-6.23.54-6.25-6.3,0-1.56,1.12-3.77-1.51-4.56-1.75,2.74-1.45,6.82-5.36,8.13-2.72,3.06-6.32,2.78-9.92,2.75-2.21,0-2.42-1.52-2.75-3.07,2.61-4.85,5.27-9.67,7.81-14.56a5.88,5.88,0,0,1,6.14-3.41c3.9.18,7.83.18,11.73,0,3.31-.16,5,.68,5.29,4.45C337.71,571.71,338.61,575.79,338.6,579.94Z"/><path class="cls-14" d="M411.83,579.93c-.29,2.26-.17,4.63-3.74,4.31a78.75,78.75,0,0,0-8.95.13l-.65-.66c-1.63-2.08.19-5-1.76-7-1.43,1.65-1.87,4.17-4.4,4.7-2.93,3.12-6.69,2.94-10.48,2.67-1.86-.14-1.75-1.67-2.07-2.9q4-7.51,8-15a5,5,0,0,1,4.91-3c4.77.1,9.55,0,14.33,0,2.14,0,3.31.82,3.48,3.16C410.8,570.91,411.37,575.42,411.83,579.93Z"/><path class="cls-27" d="M437.28,314.79c-1.23,3.65-4.59,5.63-6.73,8.59A278.76,278.76,0,0,0,411,354.8c-3,5.53-2.23,11.61-3,17.41-1.14,8.42.36,16.88,1.65,25.23.29,1.86.6,3.55-.07,5.31-2.25.34-4.07.13-4.64-2.66-3.92-19-5.19-37.7,6.09-55.14,6.35-9.82,12.36-19.86,20.11-28.71C432.94,314.15,434.53,312.35,437.28,314.79Z"/><path class="cls-21" d="M455.94,541.5c14,0,28,0,42-.11,5.37,0,5.54-.31,4.37-5.42-3.46-15.17-7.09-30.31-10.28-45.53-.64-3.09-2.29-2.81-4.29-2.94,2.46-2.46,6-1,8.86-2.48,1.53-.8,1.79,1.17,2.27,2.51,2.82,7.9,3.33,16.3,5.35,24.38,2.11,8.5,3.42,17.19,5.23,25.76.46,2.17.45,3.33-2.16,3.83a51.36,51.36,0,0,1-10.06,1.34c-13.75-.13-27.5-.09-41.25-.12-.46-.27-.62-.54-.46-.81S455.78,541.5,455.94,541.5Z"/><path class="cls-26" d="M204.59,578.55c-.55,5.58-.55,5.6-5.68,5.62s-10.53-.1-15.79.05c-2.27.06-3.42-.75-3.66-3,1-4.68,2.11-9.34,3-14,.53-2.74,2-4,4.73-3.66a25,25,0,0,0,2.74,0c12.93-.08,12.93-.09,14.46,12.93C204.49,577.19,204.53,577.87,204.59,578.55Z"/><path class="cls-28" d="M299.86,593.92c4.6,0,9.26-.49,13.68,1.37,1.91.8-.07,1.71.06,2.56-1.31,4.24-3.83,6-8.6,5.81-11.63-.4-23.29-.1-34.93-.14-6.91,0-6.95-.12-5-6.94.12-.44.3-.86.45-1.29.95-5,4.89-4.64,8.51-4.69,7-.09,13.45,3.87,20.65,2.9,1.6-.21,3.05,4.33,5.16.39Z"/><path class="cls-24" d="M482.3,354.86c-3.89-1.69-5.07-5.54-7-8.79-.42-.72-.21-1.94-1.55-1.79-1.12.13-1.16,1.23-1.62,2-1.81,2.79-1.69,6.23-2,9.17-1,8.64-1.43,17.39.76,26.1.64,2.55,1.91,4.49,3,6.66-5.19-2.05-9.2-4.74-10.48-11a60.05,60.05,0,0,1-.23-24.18,82,82,0,0,1,8.69-22.81,13.61,13.61,0,0,1,2.23-3.4c1.53-1.47,3.64-.61,3.93,1.5a6.17,6.17,0,0,1,0,2.74C474.91,339.77,478.88,347.25,482.3,354.86Z"/><path class="cls-29" d="M703.14,579.94c.92-4.23,2-8.44,2.7-12.7.49-2.85,2-3.81,4.7-3.68s5.49,0,8.23,0c7.16,0,7.3.33,8.14,7.64.31,2.62-1.3,5.52,1.05,7.86,2.86,5-.33,7.13-4.31,6.94-5.14-.24-10.22.49-15.31.24C704.66,586.08,701.43,584.87,703.14,579.94Z"/><path class="cls-19" d="M681.23,584.19H686c7.27,0,7.27,0,7.69-7,1.72,2.2,1.17,4.79,1.07,7.23-.2,5.08,1.56,9.9,1.76,14.92,0,.29.47.82.69.8a1.76,1.76,0,0,0,1.11-.62c1.3-1.65.27-4.14,2-5.66.81-4.7,3.57-6.65,8.23-5.63,5,1.1,5.87,4.47,4.57,8.88-.72,6.41-.74,6.72-6.71,6.42-6.93-.34-13.84.17-20.76.08-5.2-.07-5.2-.09-6.21-5.46,3.14-.9,5.31,2.46,8.42,1.91,1.77-.31,3.94,0,4.18-2.54.2-2.2-1.32-3.3-3.24-3.83-2.46-.69-5-.36-7.53-.53-8.41-.56-16.88,1.19-25.25-.69l5.75-11.07c.24,1.32.3,2.76,2.21,2.75l8.77,0C675.56,587.6,678.39,585.61,681.23,584.19Z"/><path class="cls-16" d="M621.79,592.51c3,10.79,2.73,11.16-7.68,11-3.4,0-7.49,1.36-8.08-4.52-.19-1.89-9.69-2.09-10.59.07-2.16,5.15-6.25,4.53-10.35,4.48-1.84,0-3.68,0-5.52-.1s-2.33-1.47-1.61-2.84c1.47-2.82,3.23-5.49,4.87-8.23a14.71,14.71,0,0,1,8.24-3.18c7.79-.39,15.58-.25,23.38,0A10.26,10.26,0,0,1,621.79,592.51Z"/><path class="cls-30" d="M479.57,188.33c3.79,2.39,5.93,6.25,8.55,9.68.53.69,1.48,1.35.89,2.34s-1.58.42-2.44.33c-6.62-.62-13.24-1.28-19.89-.35a41.68,41.68,0,0,0-4.68.94,16.21,16.21,0,0,0-2.4,1,20,20,0,0,1,2.36,1.31,8.52,8.52,0,0,1,1.28,1.45c-.56.19-1.12.39-1.69.55a1.43,1.43,0,0,1-.68.06c-3-.48-6,3.18-8.36,1.18-2.08-1.73-2.77-5.13-4.06-7.8-.39-.82-.75-1.66-1.13-2.49,1.36-5.3,5.42-7.22,10.25-7.75C464.88,188,472.21,187.31,479.57,188.33Z"/><path class="cls-31" d="M549.68,578.43c.63,5.72.63,5.73,6.24,5.76q13.62.07,27.25.12c-3.48,4.22-8.34,5.56-13.39,5.47-5.41-.09-6,1-7.28,6.09-1.88,7.73-1.79,7.83-9.47,7.74-8.45-.1-9.77,1.95-7.16-8.77C547.2,589.38,548.42,583.9,549.68,578.43Z"/><path class="cls-20" d="M594.09,571.78c.09-1.69,1.39-2.84,1.95-4.3,1.35-3.54,3.89-4.6,7.52-4.35a104.75,104.75,0,0,0,11.62,0c2.84-.14,4.27,1,4.5,3.77.29,3.4.55,6.81.83,10.21,1.07,8.69,0,9.57-10.32,8.76a6.29,6.29,0,0,1-2-.78c-2.69-2.24-1.49-5.58-2.34-8.35,0-.06-.44-.07-.62,0s-.33.31-.5.52a10.09,10.09,0,0,1-2.45,2.75C595.42,581.1,593.13,578.8,594.09,571.78Z"/><path class="cls-32" d="M656,592.46c1.74-.4,3.22-1.42,5.18-1.39,9.12.14,18.23,0,27.35.1,4,0,6,2,6.42,5.47.53,4.71-.1,5.42-5,5.54-.68,0-1.37,0-2,0-5.35,0-5.35,0-8.52-4-2.51-.1-5-.18-7.52-.31-1.75-.08-3.31.35-3.9,2.1-1.25,3.62-4.07,3.82-7.2,3.69-2.28-.1-4.57.07-6.85-.06-3.55-.19-4-.91-2.13-4.16C653.18,597.07,654,594.37,656,592.46Z"/><path class="cls-33" d="M498.79,463.22c-.22-6.07,4-10.55,5.76-15.94.92-2.81,1.21-5.11,0-7.85-2.65-5.83-2.53-5.77-9.19-5.64-6.87.13-13.79.72-20.54-1.27a13.58,13.58,0,0,1-1.74-.8,8.33,8.33,0,0,1,1.66-1.09c8.68-3.08,16.52-7.59,24.34-12.47,7.64-4.78,9.38-10.49,6.88-18.43,2.15-1,4.06-1.29,4.63,1.73,1.24,6.57,1.16,12.5-5.28,17a95.17,95.17,0,0,1-17.46,9.47c-.7.3-1.88.15-1.84,1.27,0,.26,1.14.56,1.79.73,4.34,1.1,8.69.57,13-.37,2.83-.62,3.89.37,5.11,2.89,5.2,10.74.92,19.95-4.16,29.13C501,462.69,499.87,462.88,498.79,463.22Z"/><path class="cls-34" d="M455.94,541.5v1.22c-3.63.41-5.49-.84-5.6-4.86-.21-7.76,1.06-15.44,2.06-23,.65-4.83-.77-10.09,2-14.66.41-.7-.05-2.07.92-2.26s1.5.89,1.92,1.7c.61,1.21,1.13,2.47,1.74,3.68.43.84,1.1,1.59,2.09,1.39.26,0,.38-1.19.41-1.84.07-1.37,0-2.74,0-4.11.09-6.65.09-6.65,6.87-7.08-1.62,7.79-.62,15.85-2.53,23.65-.71,2.92-1.43,2.06-2.85.74-1.16-1.07-2.24-3.37-3.54-2.86s-2,2.74-2.12,4.65c-.37,6.81-2.27,13.35-3.77,20C453,540.1,453.39,541.4,455.94,541.5Z"/><path class="cls-35" d="M384.16,232c-8.63-1.21-17,.09-25.15,2.86-2.87,1-6,1-8.22,4.11-3.15,4.46-3.78,9.61-5.26,14.54-.34,1.17.77,2,1.37,3,4.2,6.75,10.33,11.42,16.78,15.75.75.51,1.83.91,1.67,1.94-.2,1.21-1.4.66-2.18.77-2.45.34-5.49-1.07-7.26.77s-.71,4.66.18,7.06c.44,1.19-.66,1.73-1.56,1.44a40.52,40.52,0,0,1-3.64-1.88c-1.8-.82-2.07-4.32-4-3.58s-2.64,3.52-2.9,5.85c-3.25-4.09-.33-7.67,1.15-11.23.62-1.48,2.21-1.3,3.41-.06a3.37,3.37,0,0,1,1,2.48c0,1.69.15,3.76,2,3.91s2.11-1.89,2.22-3.54c0-.65.16-1.74.52-1.87,7.32-2.61.69-4.31-.61-5.51-4.1-3.81-6.79-8.59-10-13a4.53,4.53,0,0,1-.95-3.21c.72-7.93,2.64-15,10.34-19.5,7.45-4.36,15.27-5.75,23.68-5.13C379.81,228.15,382.45,229.16,384.16,232Z"/><path class="cls-36" d="M471,281.89c-3.6-.73-6.61-2.9-9.87-4.48-1.33-.64-.67-1.84-.14-2.93,2.1-4.27,4.22-8.48,4.83-13.36.29-2.31,1.88-3.42,4.49-1.64,4.5,3.07,9.22,5.82,13.84,8.71,2.21,1.39,2.58,2.81.59,4.92-3.07,3.25-7.08,5.27-10.37,8.23C473.67,282,472.19,281.72,471,281.89Z"/><path class="cls-37" d="M450.31,273.47c-.49,4.78,2.65,7.91,5.05,11.45,7.24,10.67,16,19.6,27.23,26.23,4.71,2.77,8.68,2.72,13.51,1.29,2.83-.84,5.1-3.15,8.25-2.95-4,4.59-9.37,6.91-15,8.81a4.29,4.29,0,0,1-3.19,0c-14.77-5.29-25.89-14.63-33.25-28.63-2.37-4.52-4.84-8.69-3.94-14A2.72,2.72,0,0,1,450.31,273.47Z"/><path class="cls-38" d="M260,595.68c-3.47,6.3-9.73,7.23-15.88,7.74-5.71.47-11.49.19-17.24.13-4.81,0-5-.3-4.45-5.2a5,5,0,0,1,1.11-3.18c3.29-6.49,8.75-4.61,14-3.63a14.13,14.13,0,0,1,1.76.83c2.32,1.59,4.51,1.14,6.62-.48a9.57,9.57,0,0,1,3-1.09C253.16,591.09,258.72,588.53,260,595.68Z"/><path class="cls-39" d="M151.82,584.17c-3.89,0-7.79-.13-11.68.05-2.37.11-3.3-1-3.6-3.08-.29-5.36,2.27-10.17,3-15.34.25-1.88,1.69-2.58,3.49-2.58,3.44,0,6.87,0,10.3,0,2,0,3.11,1,2.61,3C154.4,572.18,154.26,578.44,151.82,584.17Z"/><path class="cls-40" d="M713.11,597.1c0-3.3-.08-6.42-4.31-7.28-3.5-.72-5.85.28-8.49,4,.85-4.66.9-9.48,2.83-13.91.26,2.26.11,4.52,3.69,4.33,5.51-.3,11,0,16.57-.09,4.34,0,4.34-.09,4.56-5.1l2.91-.41c2.82,5.08,8.09,2.87,12.21,4.11-1.23,5.19-1.65,10.57-3.73,15.56-6.46-5.49-13.17-5.5-19.67,0-1.93-3.22-.72-7.16-2.36-10.45-.28-.55-.65-1.07-1-1.6-.27.6-.51,1.21-.8,1.8C714.15,590.91,715.11,594.4,713.11,597.1Z"/><path class="cls-12" d="M174,582.83c-4.2,2.36-8.78,1.43-13.15,1.13-3.45-.23-1.16-3.7-2.11-5.48.77-3.81,1.63-7.61,2.28-11.45.45-2.66,1.61-4.19,4.52-3.84.45,0,.92,0,1.37,0,3.61.33,8.73-1.71,10.5.9,2.37,3.51-.37,8.42-1.86,12.3A31.18,31.18,0,0,0,174,582.83Z"/><path class="cls-41" d="M450.59,599.8A19.63,19.63,0,0,1,439,603.47c-6,.13-12,.13-17.94,0-4-.07-4.28-.41-3.91-4.44.16-1.78,0-3.72,1.27-5.25,4.27-5,9.4-3.14,14.47-1.84.71.18,1.4.41,2.08.65,2.93,1.4,5.27-.86,7.89-1.21,4.48-.59,9.76-2.71,11.89,4v0C453.45,596.94,451.91,598.27,450.59,599.8Z"/><path class="cls-42" d="M490.66,598.33c.49,3.82-1,5.41-5,5.27-6.89-.22-13.8,0-20.7-.06s-6.95,0-5-6.89c2.34-7,8-10.22,13.79-6.59,4.43,2.77,8.67,3.32,13.39,3.15C491.15,593.06,491.8,595,490.66,598.33Z"/><path class="cls-39" d="M498.57,581.23a89.79,89.79,0,0,1,2.83-14.06c.36-1.31.37-3.07,1.85-3.42a33.48,33.48,0,0,1,13.56,0c1.65.29,1.5,2.17,1.21,3.48-.84,3.76-1,7.78-3.1,11.11-1,1.57-.66,3-.85,4.56-3.48,4.7-8.27,3.77-12.93,2.82C498.91,585.25,497.53,583.81,498.57,581.23Z"/><path class="cls-43" d="M350.58,574.76c3.53.93,1.74,3.71,1.68,5.59-.1,3,1,4,3.92,3.88,3.39-.13,6.79.07,10.18.13-.21,5.29-1.73,10.36-2.49,15.56-.41,2.83-1.91,3.84-4.67,3.7-3-.15-6,.08-8.94,0-3.8-.17-4.23-.74-3.38-4.74.71-3.35,1.66-6.65,2.61-10C350.84,584.24,351.62,579.58,350.58,574.76Z"/><path class="cls-44" d="M633.92,579.73c.22,2.57.34,5,4.15,4.5s7.71.85,11.25-1.4c-1,4.89-2,9.76-2.84,14.66-1.08,6-1,6.06-7.46,6.11-2.51,0-5,0-7.52,0s-3.32-1.32-2.78-3.53C630.41,593.26,632.18,586.5,633.92,579.73Z"/><path class="cls-42" d="M525.15,599.66c.17,2.78-1.65,3.69-3.9,3.73-8.06.13-16.12.08-24.17.15-2.1,0-2.89-1-2.66-3,.28-2.29.42-4.6,1.61-6.66,3.88-5.3,9.41-3.76,14.42-3,3.11.47,6.23,1.55,9.37,1.52C525.25,592.38,526.8,594.72,525.15,599.66Z"/><path class="cls-24" d="M414.46,295.69c.23,0,.45-.05.68-.05,10.18-.05,10.24,0,13.26-9.69,1.67-5.36,3.13-10.8,4.6-16.22,1.06-3.91.69-5-3.21-5.65-9.76-1.61-13.6-8.76-16.67-16.82,2.85,2.49,5.18,5.46,8.28,7.75,4.8,3.56,9.49,5.89,15.6,3.24,3.13-1.37,4.49-.31,3.6,2.49-3.49,10.92-5.64,22.27-10.53,32.75-1.1,2.36-2.48,3.82-5.16,3.49C421.42,296.56,417.68,298.24,414.46,295.69Z"/><path class="cls-45" d="M454.76,595.42c-4.22-4.07-8.83-3.86-13.65-1.24-2.49,1.36-4.94,2.23-7.3-.24,1.31-1.89,5.69-2.77,4.81-4.05-1.77-2.56-2,1.16-3,2a23.94,23.94,0,0,0-1.79,2c-5.12-1.5-10.23-2.5-15.37-.1a48.35,48.35,0,0,1,2.77-14c.16,2.63.37,4.66,4.18,4.47,7.45-.38,14.94-.35,22.39,0,2.73.13,3.69-2,5.59-2.76C456.24,585.93,459.44,590.28,454.76,595.42Z"/><path class="cls-46" d="M260,595.68c-.89-2.4-2.62-3.29-5.16-3.2s-5.3-.13-8-.21c-4.36-8.12-5.41.09-7.82,1.59-5.36-1.78-10.68-3-15.53,1.31.7-5.1,1.17-10.25,3-15.14.21,2.31.26,4.36,3.73,4.24,7.55-.26,15.12-.3,22.66.05,2.73.12,3.78-1.94,5.72-2.72.94,2.46,3.45,4.11,3.66,6.93S262.62,593.89,260,595.68Z"/><path class="cls-47" d="M219.64,582.83c-2.6,1.85-5.61,1-8.45,1.42-3.71.48-4.06-1.72-4.12-4.41.89-4,1.89-8,2.63-12.08.54-3,2.06-4.42,5.16-4.2,1.6.11,3.21,0,4.82,0,4.08.17,4.21.23,3.33,4.52C222,573,220.78,577.92,219.64,582.83Z"/><path class="cls-48" d="M434.24,349.43c1.74,2.73.87,5.77.9,8.66.12,11.66.94,23.24,4.37,34.46,1.12,3.68,2.7,7.22,4.07,10.82-7,1.25-7.52.33-9.65-6.44-4.3-13.67-3.62-27.58-1-41.47C433.28,353.43,433.79,351.44,434.24,349.43Z"/><path class="cls-49" d="M437.87,218.42c-4.26-.36-8.59-1-12.75-1.13-11.45-.44-22.38,2-30.86,10.74a6.07,6.07,0,0,0-2.08,4.12c-3.25-5.55-3.28-5.58.74-9.6a34.76,34.76,0,0,1,20.13-10.11c6.79-1,12.87.29,19.11,1.83C434.39,214.81,437.17,215.41,437.87,218.42Z"/><path class="cls-18" d="M743.08,582.78c-1.89,1.76-4.25,1.41-6.52,1.42-5.28,0-5.28,0-5.69-5.53-.34-4.43,1.14-8.5,2.46-12.6,3.58-3.24,7.86-1.72,11.85-1.54,1.61.07,1.79,1.78,1,3.22C745.9,572.91,744.07,577.76,743.08,582.78Z"/><path class="cls-31" d="M607.9,584.25c1.61,0,3.21-.07,4.82-.07,7.29,0,7.29,0,7.79-7,2.34,5,.77,10.26,1.28,15.38-9.36-2.22-18.88-1-28.33-1.43-3.67-.16-6.93,2.21-10.63,1.34q2.76-5.62,5.51-11.25c3.49,1,7.2.89,10.67,2C601.66,586.19,604.62,586.59,607.9,584.25Z"/><path class="cls-50" d="M299.8,593.89a3.76,3.76,0,0,1-1.5,3.61c-1.28,1.17-2.64,2.63-2.67-.74,0-1.48-.31-2.94-2.16-2.77-7.79.72-15.3-2-23.11-1.64-2.62.13-3.35,1.83-4.88,2.94a31.3,31.3,0,0,1,2.66-11.11l28.91,0c.26,3-1.43,3.95-4.14,4-2.93,0-5.87.08-8.79.27a1.92,1.92,0,0,0-1.62,1.93,1.83,1.83,0,0,0,1.76,1.75c2,.12,4.07.13,6.1.18,2.74.07,5.74-.74,7.67,2.26A8.48,8.48,0,0,0,299.8,593.89Z"/><path class="cls-51" d="M543,211.36c-6.84,0-13.68.17-20.52,0-9.48-.27-17.24,2.67-22.33,11.1-3.59-5.43-3.6-5.45.5-9.48,3.88-3.81,8.35-6,14-5.79,6.84.24,13.71.22,20.55,0C538.8,207,541.4,208.09,543,211.36Z"/><path class="cls-52" d="M490.66,598.33c-.09-2.67-.38-4.73-4.13-4.54-4.14.21-8.21.56-12.32-2.09-2.42-1.56-6.6-.6-10-.44s-1.84,4.38-4.28,5.39c1.05-6.57,2-13.18,4.09-19.53.07.68.2,1.36.22,2,.17,4.93.16,5,4.69,5,7.58,0,15.16,0,22.74-.06.34,3.05-1.33,4.06-4.07,4s-5.48,0-8.22.06c-1.2,0-2.37.56-2.26,2a2.28,2.28,0,0,0,2.38,2c2.51.1,5,0,7.53.09C492.4,592.45,492.4,592.46,490.66,598.33Z"/><path class="cls-38" d="M719.68,598.3c.62-5.74.62-5.74,6.14-5.78,2.48,0,5,0,7.44,0,6.32.15,5.57-.85,6.09,5.82.36,3.56-.8,5.54-4.84,5.25a67,67,0,0,0-10.12,0C720.25,603.91,719.28,601.81,719.68,598.3Z"/><path class="cls-53" d="M490.38,218.4c-7.89,0-15.63-2-23.6-1.64-7.64.33-13.73,3.46-19.17,8.43-2.18-2.21-1.85-4.39.22-6.42,3.15-3.08,7.05-5.64,11.24-5.79,8.59-.32,17.26-1.22,25.83,1C487.65,214.71,489.38,215.91,490.38,218.4Z"/><path class="cls-54" d="M472.52,254.21c.3-3.94-4-6-4.09-9.74,2.54,1.26,4.07,3.63,6.06,5.48,4.81,4.48,10.17,6.47,16.6,3.94,1-.42,1.94-1.16,3.19-1a1.74,1.74,0,0,1,1.53,1.13c.48,1.21-2.09,8.91-3.38,9.29-2.6.77-5.36,1.29-7.81-.57C480.68,259.75,476.13,257.65,472.52,254.21Z"/><path class="cls-55" d="M431.44,190.44c-5.66,2.09-11.71,2-17.56,2.71-5,.61-9.93,1.6-15,1.95a24.12,24.12,0,0,0-16.33,7.69c-2.76-1-3.91-2.45-1.13-4.78,5.09-4.27,11.28-6.21,17.61-7,9.06-1.11,18.23-1.38,27.36-1.93C428.19,189,430.14,188.62,431.44,190.44Z"/><path class="cls-56" d="M525.15,599.66c-.49-5.16-.61-4.69-5.58-5.91-5.67-1.39-11.31-1.1-17-1.26-2.33-.06-4.56,0-6.55,1.41.7-4.25,1.05-8.57,2.54-12.67.48,1.17.34,2.95,2.22,2.88,4.45-.15,9,1.11,13.28-1.23-1.14,8.26-1.14,8.26,7,8.43C527.3,591.45,527.59,592,525.15,599.66Z"/><path class="cls-57" d="M352.3,421.82c1.85,3.69,5.46,6,7.57,9.45.34.56.83,1.18.27,1.76s-1.27.24-1.82-.16a41.38,41.38,0,0,1-8.3-8.1c-2.26-2.87-4.15-6.06-6.66-8.67-5.17-5.39-3.89-10.5-.14-15.89,2.47-3.54,2.35-3.62,6.54-.88.61,1.05,1,2.36.3,3.25C344.24,409.8,348.8,415.74,352.3,421.82Z"/><path class="cls-58" d="M531.91,265.28c2.46.05,3.48-1.49,4.47-3.51,1.11-2.27.86-2.82-1.74-3.56-7.72-2.18-12.77-7.38-15.1-15.12,3.2,1.8,5.34,4.87,8.55,6.78,3.72,2.22,7.07,4.07,11.44,1.95,1.41-.69,3.32-1,4.44.48.91,1.19,0,2.54-.6,3.82-1,2.05-1.59,4.25-2.5,6.33C538.81,267.17,537.55,267.54,531.91,265.28Z"/><path class="cls-24" d="M417.17,534.6c-4.69-6.62-6.78-14.19-8.25-22a76.55,76.55,0,0,1-1.48-15c0-1.05-.79-2.11-1.22-3.17,5,.37,4.81.4,5.57,5,1.72,10.37,2.67,20.88,5.3,31.1A17.24,17.24,0,0,1,417.17,534.6Z"/><path class="cls-59" d="M450,300.36c-1.11,1.27-3.28,2.2-4.67,2.8-2.78,1.18-6-.45-8.56-2.51-2.45-1.95-.67-3.66,0-5.46,1.15-3.2,2.3-6.4,3.56-9.55.27-.67.22-2.05,1.54-1.67a2.4,2.4,0,0,1,1.36,1.43,41.14,41.14,0,0,0,6.3,12.81A1.91,1.91,0,0,1,450,300.36Z"/><path class="cls-60" d="M528.32,182.24c-.89,1.32-2.26,1.43-3.64,1.37-6.88-.29-13.6,1.25-20.41,1.61-5.21.28-8.64,3.53-12.21,6.65-2.31-1.42-2.44-3.14-.61-5a12.8,12.8,0,0,1,7.09-4c9-1.45,18.13-2.67,27.32-1.72A8.75,8.75,0,0,1,528.32,182.24Z"/><path class="cls-61" d="M381.25,298.3c1.6-7,1.67-14.31,3.82-21.23.71-2.26.05-3.34-2.46-3.57-4.32-.4-8.6-1.11-11.07-5.4,5-.43,9.71,1.91,14.77,1.44,2.35-.22,2.17,2.17,1.86,3.57-.89,4-.69,8.17-1.81,12s-.33,7.65-2.15,11.24C383.44,297.81,382.75,298.39,381.25,298.3Z"/><path class="cls-62" d="M479.57,188.33c-1.18,1.52-2.9,1.19-4.42,1.09-6.18-.4-12.22,1.15-18.35,1.12a6.38,6.38,0,0,0-4.87,2c-1.43,1.45-3.07,2.7-4.61,4-1.79-1.2-2.54-2.56-.71-4.37a16.48,16.48,0,0,1,8.84-4.95c6.59-1.14,13.23-1.07,19.88-1A6.31,6.31,0,0,1,479.57,188.33Z"/><path class="cls-63" d="M363.4,443.52c1.52-.2,2.72.12,2.82,1.94a31.91,31.91,0,0,1-.75,8.76c-1.18,5.36-1.58,10.68.34,16,1.07,3,.3,3.82-2.85,2.93-2.09-.59-4.6,0-6.29-1.87,6.13-7.08,2.61-16.28,5.28-24.14C362.37,445.93,362.32,444.52,363.4,443.52Z"/><path class="cls-64" d="M352.3,421.82a33.61,33.61,0,0,1-2.33-2.45c-6.39-8.13-6.37-8.13-1.49-16.93a27.42,27.42,0,0,0,1.28-3.11c1.2.6,2.45,1.12,3.6,1.8s1.82,1.59.86,2.76C349.71,409.47,350.46,415.58,352.3,421.82Z"/><path class="cls-65" d="M363.4,443.52c-.78,7.68-1.86,15.33-1.4,23.09.1,1.72,0,3.3-2.58,2.43-1.93-.65-1.35,2.08-2.75,2.29-2.09-1.72-1.45-4.12-1.56-6.31,0-.56,0-1.69.76-1.42,6.24,2.11,3-3.19,3.14-4.61.39-4.51.93-9,1.61-13.47C360.88,443.81,361.76,443.2,363.4,443.52Z"/><path class="cls-13" d="M599.42,584.14c-2.74,0-5.47-.07-8.2.05-2.25.1-2.52-1.45-2.88-3,1.16-3.59,3.73-6.32,5.75-9.39-.69,3.85,2.12,5.71,4.5,7.74,1.42,1.23,2.42-.5,3.63-.82C604,581.93,601.8,583.07,599.42,584.14Z"/><path class="cls-66" d="M392.3,290.05c.84,4.54,4.63,5.64,8.2,6.85.68.23,2.71.63,2.14-1.29-2-6.74,2.71-1.75,4.17-2.39.11-.06.55.61.84.95-.71.44-2.84-.5-1.87,1.51.68,1.39,2.19,2.25,3.63,3.06a1.13,1.13,0,0,1-.23,2.11c-5.44,2.33-16.71-3-18.11-8.61A1.88,1.88,0,0,1,392.3,290.05Z"/><path class="cls-67" d="M462.46,323.54c-5.95-.87-11.75,2.12-17.72.67,4.77-3.53,10.54-3.56,16-4.63,1.35-.26,3.42-.76,3.82.16C465.2,321.18,463.87,322.63,462.46,323.54Z"/><path class="cls-40" d="M746.15,567.75c-.31-1.63-.71-3-2.91-2.93-3.34.14-6.75-.38-9.91,1.25.31-1.47,1-2.59,2.67-2.64a69.87,69.87,0,0,1,8.92,0C748.36,563.77,747.6,565.77,746.15,567.75Z"/><path class="cls-61" d="M370.09,266.78c-1-.29-2.31-.26-2.2-1.81.1-1.21,1.17-1.13,2-1.16,1.53,0,3.05.05,4.58.08C373.8,266.07,370.59,264.38,370.09,266.78Z"/><path class="cls-46" d="M227.89,573.07c-.15,2.38,1.23,5.07-1.38,7C226.5,577.62,226.08,575.13,227.89,573.07Z"/><path class="cls-45" d="M450.59,599.8a5.43,5.43,0,0,1,4.17-4.4C454.41,597.85,452.85,599.15,450.59,599.8Z"/><path class="cls-68" d="M254.42,238.83A48.42,48.42,0,0,1,262,212.67a18.41,18.41,0,0,1,1.95-2.8c.38-.42,1.32-.87,1.65-.68.79.45.09,1.22-.1,1.79-1.63,4.86-1.6,9.89-1.76,14.93-.34,10.9,1.87,21.41,4.84,31.76a55.78,55.78,0,0,1,2.39,18.27,19.74,19.74,0,0,1-1.74,7.3c-.91,2-2,4.77-4.57,4.33-1.06-.18-.28-3.28-.27-5,0-5.18-1.68-9.9-3.73-14.53A67.65,67.65,0,0,1,254.42,238.83Z"/><path class="cls-69" d="M583.4,235.7c.88,7.4-2.88,12.69-7.9,17.38a5.92,5.92,0,0,1-1.8.81c-.18-.62-.38-1.23-.53-1.85a1.14,1.14,0,0,1,.07-.68c4.14-8.8,1.18-17.3-.91-25.91-1.47-6-2-12.18-.33-18.32.36-1.32.7-2.65,1.15-3.94.87-2.52,1.73-5.07,4.21-6.57,1,2.2.15,4.55.53,6.77,1.3,7.42,2.39,14.9,4.17,22.2A57.44,57.44,0,0,1,583.4,235.7Z"/><path class="cls-70" d="M624.8,246.68c-.09,1.6.13,3.3-.33,4.78a60.2,60.2,0,0,0-2.91,22.33c0,.5.34,1.51-.67,1.39a2.78,2.78,0,0,1-1.52-1.22,24.46,24.46,0,0,1-4.14-20.24c1.4-6.23,3.44-12.31,5.22-18.45a7.87,7.87,0,0,1,.55-1.18c.53.4,1.32.7,1.53,1.23A26.69,26.69,0,0,1,624.8,246.68Z"/><path class="cls-71" d="M392.33,581.44l4.31-8c3.08,0,1.68,2.33,1.91,3.71.38,2.38-.51,4.88.61,7.21l0,0c-.18,1.61-.52,3.24-2.22,3.86a9.74,9.74,0,0,1-6,.09c-.94-.26-1.23-1.17-.87-2.17C390.67,584.5,392.73,583.56,392.33,581.44Z"/><path class="cls-72" d="M441.27,571.59c1.71.22,3.27,1,3.34,3.25.08,2.85-3.05,5.56-5.93,5.25-1.75-.19-2.11-1.34-2-2.87C436.82,573.39,438.35,571.39,441.27,571.59Z"/><path class="cls-73" d="M573.21,575.72a6.54,6.54,0,0,1-6.63,6c-1.54,0-2.55-.52-2.43-2.44.31-4.69,2.42-7.74,5.33-7.4C571.9,572.16,573.2,573.48,573.21,575.72Z"/><path class="cls-74" d="M249.92,574.78a5.58,5.58,0,0,1-5.46,5.27c-1.58.05-2.54-.55-2.56-2.32,0-3.36,1.65-6.15,3.87-6.14S249.71,572.47,249.92,574.78Z"/><path class="cls-75" d="M319.14,581.45c1.72-2.75,1.91-6.51,5.36-8.13.14,3.66.27,7.32.45,11,.07,1.62.32,3.43-1.65,4s-4.09.82-6-.27c-1-.55-.64-1.58-.2-2.4C317.85,584.26,319.47,583.33,319.14,581.45Z"/><path class="cls-76" d="M681.23,584.19c-1.59,4-4.82,5.71-8.23,4.14-2.36-1.08-.15-2.76-.26-4.16,1.17-2.19,2.27-4.41,3.52-6.54.86-1.45,1.2-4.23,3.13-3.71,1.7.46,1.11,3.15,1.3,4.9S681.05,582.4,681.23,584.19Z"/><path class="cls-11" d="M399.16,584.35c-2.07-1.45-.83-3.64-1.21-5.47s.87-4-1.31-5.45c.81-2.14,2.29-1.74,2.46-.06A100.49,100.49,0,0,1,399.16,584.35Z"/><path class="cls-77" d="M599.42,584.14c-.13-2.36,3.14-3,2.8-5.44.51-.94,1-1.88,1.52-2.82,1.42-1.52,2.82-2.79,3.43.55.47,2.57-.75,5.31.77,7.78l0,0c-.24,2.91-1.69,4.14-4.73,4.36C599.42,588.89,599.22,586.84,599.42,584.14Z"/><path class="cls-16" d="M607.94,584.21c-2.28-2.44-.57-5.5-1.29-8.15s-1.91-.38-2.91-.18a5.5,5.5,0,0,1,.32-2c.56-.92,1.28-2,2.57-1.75,1.51.24,1.35,1.58,1.36,2.64C608,578,608,581.08,607.94,584.21Z"/><path class="cls-78" d="M239.07,593.86a13.16,13.16,0,0,1,1.16-5.26c.78-1.89,1.86-3.13,4.05-2.8a3.37,3.37,0,0,1,3.06,3.8,17.52,17.52,0,0,1-.45,2.67l-1.17,1.14c-2.1,2.1-4.38,1.23-6.67.43Z"/><path class="cls-46" d="M239.05,593.84a12.41,12.41,0,0,0,6.67-.43C243.57,596,242.06,596.1,239.05,593.84Z"/><path class="cls-79" d="M433.8,593.92c-.17-2.15.69-4,1.51-5.94,1-2.39,2.95-3,5.05-1.69s2.17,3.36.85,5.36c-1.81,2.77-4.56,2.71-7.4,2.29Z"/></g></g></g></svg>