<svg xmlns="http://www.w3.org/2000/svg" viewBox="0 0 605.85 458.19"><defs><style>.cls-1{fill:#ce983d;}.cls-2{fill:#3d2e15;}.cls-3{fill:#3f3016;}.cls-4{fill:#352813;}.cls-5{fill:#3e2f15;}.cls-6{fill:#423216;}.cls-7{fill:#4a3718;}.cls-8{fill:#4b3818;}.cls-9{fill:#433318;}.cls-10{fill:#49381c;}.cls-11{fill:#453317;}.cls-12{fill:#533e1a;}.cls-13{fill:#503c19;}.cls-14{fill:#19130e;}.cls-15{fill:#18130e;}.cls-16{fill:#1c150e;}.cls-17{fill:#daa041;}.cls-18{fill:#1e160f;}.cls-19{fill:#543317;}.cls-20{fill:#563518;}.cls-21{fill:#664524;}.cls-22{fill:#daa040;}.cls-23{fill:#dba141;}.cls-24{fill:#74512f;}.cls-25{fill:#593719;}.cls-26{fill:#523419;}.cls-27{fill:#b58534;}.cls-28{fill:#d49c3f;}.cls-29{fill:#553517;}.cls-30{fill:#d79e41;}.cls-31{fill:#b28333;}.cls-32{fill:#54351a;}.cls-33{fill:#d89e40;}.cls-34{fill:#795530;}.cls-35{fill:#d79f41;}.cls-36{fill:#674827;}.cls-37{fill:#b78735;}.cls-38{fill:#553417;}.cls-39{fill:#67482d;}.cls-40{fill:#d89f40;}.cls-41{fill:#d79e3f;}.cls-42{fill:#d59c3f;}.cls-43{fill:#805b39;}.cls-44{fill:#815d3d;}.cls-45{fill:#523318;}.cls-46{fill:#d69d3f;}.cls-47{fill:#d79e40;}.cls-48{fill:#b98935;}.cls-49{fill:#b58634;}.cls-50{fill:#573618;}.cls-51{fill:#f3f2f2;}.cls-52{fill:#7c5635;}.cls-53{fill:#f4f3f3;}.cls-54{fill:#f4f3f2;}.cls-55{fill:#7b5634;}.cls-56{fill:#f0efee;}.cls-57{fill:#56361b;}.cls-58{fill:#f3f2f1;}.cls-59{fill:#a77b30;}.cls-60{fill:#a1762f;}.cls-61{fill:#e7e6e5;}.cls-62{fill:#f1f1f0;}.cls-63{fill:#765232;}.cls-64{fill:#ce973d;}.cls-65{fill:#775435;}.cls-66{fill:#906a2b;}.cls-67{fill:#795432;}.cls-68{fill:#a29e9b;}.cls-69{fill:#8f6a2c;}.cls-70{fill:#aca9a6;}.cls-71{fill:#896529;}.cls-72{fill:#775723;}.cls-73{fill:#a09d9a;}.cls-74{fill:#999692;}.cls-75{fill:#9f9b98;}.cls-76{fill:#9e9b98;}.cls-77{fill:#9d9a97;}.cls-78{fill:#a2772f;}.cls-79{fill:#493618;}.cls-80{fill:#553f1a;}.cls-81{fill:#57401b;}.cls-82{fill:#57411b;}.cls-83{fill:#bab8b5;}.cls-84{fill:#a4a19f;}.cls-85{fill:#aaa6a3;}.cls-86{fill:#5c5853;}.cls-87{fill:#cfcdcc;}.cls-88{fill:#aca8a5;}.cls-89{fill:#7d5c25;}.cls-90{fill:#5a381a;}.cls-91{fill:#644424;}.cls-92{fill:#d99f40;}.cls-93{fill:#b78734;}.cls-94{fill:#d89f41;}.cls-95{fill:#765230;}.cls-96{fill:#b48534;}.cls-97{fill:#765333;}.cls-98{fill:#d19a3f;}.cls-99{fill:#d69d40;}.cls-100{fill:#221a0f;}.cls-101{fill:#805f29;}.cls-102{fill:#9d732e;}.cls-103{fill:#6d5021;}.cls-104{fill:#966e2d;}.cls-105{fill:#412a14;}.cls-106{fill:#573518;}.cls-107{fill:#6b4a29;}.cls-108{fill:#704d2c;}.cls-109{fill:#7f5835;}.cls-110{fill:#d59d3f;}.cls-111{fill:#755230;}.cls-112{fill:#533217;}.cls-113{fill:#916a2a;}.cls-114{fill:#cd963c;}.cls-115{fill:#cf983d;}.cls-116{fill:#74502f;}.cls-117{fill:#916b2b;}.cls-118{fill:#936c2b;}.cls-119{fill:#cc963c;}.cls-120{fill:#b98736;}.cls-121{fill:#8f692a;}.cls-122{fill:#af8033;}.cls-123{fill:#b08233;}.cls-124{fill:#aa7e31;}.cls-125{fill:#b98836;}.cls-126{fill:#b98735;}.cls-127{fill:#19140e;}.cls-128{fill:#6b4c2a;}.cls-129{fill:#312512;}.cls-130{fill:#f2e6d2;}.cls-131{fill:#6d4e21;}.cls-132{fill:#e5e3e2;}.cls-133{fill:#b5b3b1;}.cls-134{fill:#19140f;}.cls-135{fill:#1d150e;}.cls-136{fill:#21170e;}.cls-137{fill:#261b11;}.cls-138{fill:#1f180f;}.cls-139{fill:#a7a3a0;}.cls-140{fill:#aba8a5;}.cls-141{fill:#9a702c;}.cls-142{fill:#af7f32;}.cls-143{fill:#b18031;}.cls-144{fill:#22180e;}.cls-145{fill:#261b10;}.cls-146{fill:#3a2c12;}.cls-147{fill:#3c2d13;}.cls-148{fill:#1d160f;}.cls-149{fill:#bd8b37;}.cls-150{fill:#322611;}.cls-151{fill:#221a0e;}.cls-152{fill:#322511;}.cls-153{fill:#221911;}.cls-154{fill:#1b150f;}.cls-155{fill:#45413d;}.cls-156{fill:#54504c;}.cls-157{fill:#2c2110;}.cls-158{fill:#2d2924;}.cls-159{fill:#4d4944;}.cls-160{fill:#322e2a;}.cls-161{fill:#2c2823;}.cls-162{fill:#312d28;}.cls-163{fill:#5a5652;}.cls-164{fill:#524e49;}.cls-165{fill:#342712;}.cls-166{fill:#35312c;}.cls-167{fill:#35312d;}.cls-168{fill:#5b5752;}.cls-169{fill:#302410;}.cls-170{fill:#271d0e;}.cls-171{fill:#1d150f;}.cls-172{fill:#c08d38;}.cls-173{fill:#211a0f;}.cls-174{fill:#1a140e;}.cls-175{fill:#21170f;}.cls-176{fill:#271d10;}.cls-177{fill:#281e10;}.cls-178{fill:#4e4a45;}</style></defs><g id="Layer_2" data-name="Layer 2"><g id="Layer_1-2" data-name="Layer 1"><g id="osfVba.tif"><path class="cls-1" d="M402.35,77.34c6.19.68,8.81,4.37,8.45,10.32-1.24,20.55-2.54,41.1-3.85,62.24,4.32,3.6,1.63,9.66,4,14.39,3.4,9.28,2.51,19.24,4.28,29.55,8.08-6,11.45-15.39,19.08-20.75,9.5-10.5,10.75-10.71,17.39-3,1.88,12.37-.1,24.81.61,37.9,8.83-3.94,14.15-12.32,22.63-16.05,5.46-3.72,10.59-11.06,17.23-1.53a31.71,31.71,0,0,1-.46,17c-2,7.34-4.72,14.66-4.48,22.67,6.91,1.81,10.66-5.46,16.65-4.51,4.51-2.06,8.39-1.28,11.58,2.58,1.81,5.74-.37,10.76-2.72,15.8-2.92,6.23-6.75,12.09-8.59,19,5,4.07,11.11,4,16.31,6.26,3.12,1.33,6.36,2.24,7.83,5.73l1.62,6.94a5.59,5.59,0,0,0,.14,4.7c3.24,4.56,7.93,2.34,11.48,3.95,8.62,4.54,9.17,7.4,2.9,14.5-2,2.33-3.93,4.79-5.89,7.19-9.3,11-21,19.64-32.51,30.82,12.33,1.35,24-1.69,33.19,6.16,15.64-6.69,31.36-6.43,47.24-3.88,17.68,8,21.25,17.13,14.24,37.14,7.56,13.2,4.88,28,4,42.19-1.07,17.29-26.57,35-43.68,31.08-37.27-8.58-75.32-11.35-113.19-14.79-12.92-1.17-25.16-2.72-37.09-7.54-1.86-.75-4.6-1-6.27-.2a35.94,35.94,0,0,1-34.09-.45H290.52c-3.83-1.05-7.63-2.28-11.69-1.5-11.1,5.32-13.75,5.14-39.81-2.92-11.3,7.76-24,8.29-38.38,7.91-13.14-.35-27.26,1.78-40.62,4.51-5.21,1.07-9.55,6.14-14.44,9.13C127.27,461,121.81,460.51,105,445.87L56,453.5C46,455.05,36.06,457,26,458c-15.68,1.56-25.93-8-26-23.8Q0,401.61.07,369c.06-14.27,9.32-23.44,23.48-23.8,7.71-.19,15.43-.43,23.11-1.06,7.91-.66,14.46,3.23,22,6.1l9.94-5c7.76-4.86,15.57-3.07,23.81-.11-6.87-7.09-15.14-12.3-20.65-20.27-7.16-6.75-15.24-12.49-21.58-20.17-2.29-2.77-4.42-5.32-3-9,1.44-3.82,4.82-5.12,8.62-5.56,4.19-.48,8.75.67,12.3-2.7-4.24-10.74-3.2-13,7.72-16.58,5.93-1.94,11.89-3.79,18.83-6-4.18-8.47-8.24-16.53-12.15-24.67-2-4.21-5.58-8.38-1.6-13.3s8.26-1.18,12.42-.28c4.54,1.06,8.78,3.35,14.41,3.82,0-8.48-1.79-16.33-2.7-24.25-.48-2.34-.83-4.71-1.46-7-1.19-4.35-1.91-8.6,2.14-11.92s7.61-.57,11.1,1.51c9.09,5.41,16.64,12.82,25.74,19.33.36-12.78-1.1-25.51,1.22-38,6.42-10.4,11.13-3.47,16,1.57,8.23,5.15,11.32,14.89,18.58,20.9,1.76-.12,1.83-1.58,1.86-2.63.5-18.28,6.13-36.11,5.1-54.45-.58-10.57.06-21.18-1.78-31.72-1.2-6.84.22-13.85,1.16-20.74,3.25-5.8,7.72-6,12.91-2.79,4.16,1,7.53,3.86,12.09,5.55.76-10,7.88-15.85,12.8-23.05,13.84-15,23.38-31.56,20.26-53.08-.56-3.83,1.09-7.25,5-8.67,4.12-1.49,7,.91,9.12,4C272.05,12.6,277,20.28,282,27.91c.91,15.8,2.09,31.61-3.86,47.13,5.87-2.8,10.76-6.69,16.92-7.83,4.1-1.76,8.2-3.46,12.74-1.48,6.72,1.36,12.28,5,18.7,8.84a97.8,97.8,0,0,1-4.08-45.2c5.4-8.53,10.75-17.1,16.24-25.58,2-3.12,5-4.61,8.71-3.33,3.47,1.18,4.39,4.06,4.62,7.43.57,8.12-.79,16.26,1.47,24.41,3.89,14.05,15.39,23,22.38,34.92a33.15,33.15,0,0,1,9.54,18.55C391.72,83.28,396.11,78.33,402.35,77.34Z"/><path class="cls-2" d="M194.73,83.05c1,17.51,3.27,35.07,2.7,52.53-.69,21.15-3.78,42.21-6,64.92-8.11-10-15.71-18.75-21.63-28.81,5.56-1.21,7.66,5.69,13.59,5.33,4.17-.68,5.86-4.68,6.71-8.6,4.27-19.63,4.12-39.52,2.3-59.37C191.59,100.13,192,91.55,194.73,83.05Z"/><path class="cls-3" d="M586.43,345.24c-7,.05-14,.39-21,.08-9.4-.43-18.33.22-25.58,8.24-10.32-12.34-24.55-6.65-38.74-9.21,12.87-11.89,24.58-22.66,37.39-32.21-.41,4.16-2.88,6.7-6.12,9.18-5.33,4.07-9.72,9-9.56,16.88,11,4.95,22,8.17,33.59,4.94A44.05,44.05,0,0,1,586.43,345.24Z"/><path class="cls-4" d="M528.26,274.86c-8.26-5.08-18.17-5.67-27.18-9.88,2.7-13.19,14.13-22.91,14.35-36.87,2.89,6.28,1.79,12.59-.28,18.72-3,8.74-1.36,15.54,7.42,19.68C526.19,268.21,528.15,270.86,528.26,274.86Z"/><path class="cls-5" d="M153.78,170.12v43.4l-27-24.68,16.93,6.25C152.11,188.57,150.6,178.37,153.78,170.12Z"/><path class="cls-3" d="M474.91,192c-7.28,8.17-16.12,14.48-25.58,22.37.83-15.78,1.58-30,2.34-44.22,2.66,5.17,1.71,11.05,3.38,16.57,2.34,7.73,5.7,9.8,12.94,6.51C470.06,192.24,472.59,192.33,474.91,192Z"/><path class="cls-2" d="M503.85,225.53c-6,3.35-11,9-19.39,7.7.15-15.18,7.9-28.31,7.68-42.81,1.29,3.77,2.59,7.54,4.08,11.88C491.77,211.92,491.27,220.88,503.85,225.53Z"/><path class="cls-6" d="M434.28,173.09c-5.42,9.32-12.51,17.36-21,28-.9-13.9-1.65-25.34-2.39-36.78,5.21,3.35,2.89,11.91,10.94,14.29C426.13,179,429.28,173.65,434.28,173.09Z"/><path class="cls-6" d="M322.4,29.37c-1.28,17,2.37,33.34,7,50.07-7-6.12-15.13-8.63-21.62-13.71,10.58-1,12.73-8.3,13.25-17.23C321.39,42.12,319.28,35.54,322.4,29.37Z"/><path class="cls-7" d="M295,67.21c-5.86,5-13.34,7.48-19.7,13.12,5.44-17.61,8.35-34.74,6.64-52.42,3,7.81,1.42,16,1.22,23.87C283,60.71,286.07,65.92,295,67.21Z"/><path class="cls-8" d="M81.81,324.9l26.47,22.16c-10.06-1.81-19.64-4.37-29.63-1.78C88.31,339.82,86,332.51,81.81,324.9Z"/><path class="cls-9" d="M402.35,77.34,383.14,91.12c1.1-10-3.61-16.78-7.32-23.9C383.13,74.6,391.48,79.28,402.35,77.34Z"/><path class="cls-10" d="M115,206.26a98.79,98.79,0,0,1,5.65,26.43c-7.64,2.53-12-3.28-17.36-6,4,.24,6.44-2.5,8.93-4.2C115.79,217.21,114.58,211.61,115,206.26Z"/><path class="cls-11" d="M232.53,62.76c-3.51,8.92-12.88,15.43-10.14,27.59-6.33-2.72-10.5-6.48-14.75-10.09C219.82,80,224.87,69.5,232.53,62.76Z"/><path class="cls-12" d="M541.5,290.45c-5.16-.14-10.45.58-15.4-2.36,0-2.82,2.2-4.38,3.78-6.29l4,5.89C536.47,289.71,539.7,287.93,541.5,290.45Z"/><path class="cls-13" d="M278.83,431.17c4.61-5,7.88.34,11.69,1.5C286.56,432.66,282.52,433.34,278.83,431.17Z"/><path class="cls-14" d="M318,428.49c-11.82-.28-24.15,3.43-35.7-5.12-13.65,13.36-27.87,4.77-42.94,0-3.95,2-8.48,4.17-12.93,6.53-3.7,2-7.64,3.73-11.74,2.76-18.08-4.28-35.38,3.59-53.25,3.14-8.76-.22-13.38,8.69-20.77,12.1-6.57,3-12.58,7.42-20.28,3.8,3.65-4.07,9.09-5.12,13.51-7.93,5.49-3.5,11.43-6.27,16.32-10.71,1.62-1.47,3.78-3.3,5.72-2.8,8.44,2.18,15.93-3.08,24-2.66,8.84.47,16.19-3.92,25.51-6.53-5.17-3.18-9.11-3.58-13.08-1.17a20.47,20.47,0,0,1-15.32,2.64c-3.92-.81-7.59.13-11.4,1-7.08,1.63-14.27,2.52-20.69-1.86.94,8.78-9.75,20.17-18.69,19.13-6.12-.71-7.46-5.53-7.63-10.65-.36-10.63,0-21.27-.2-31.9-.06-3.49.42-7.43-4.31-9.37-2.2,2.84-1.27,6-.79,8.86,1.15,7,.89,14,.73,21-.14,6.4-3.17,11.09-9.68,11.54-12,.83-23.69,3.75-35.7,3.82-2.49,0-4.78.17-7,1.43a13.27,13.27,0,0,1-4.71,1.84c-10,1.41-19.92,2.83-29.82,4.82-7.81,1.56-11.06-1.87-11.64-9.88-.25-3.52.41-7.18-1.12-10.82-3.2,3.39-4.41,12.76-2.64,18.14,1.48,4.5,5.1,6.55,9.33,7,6.35.61,12.5,1.52,19.05-1.39,6-2.66,13.24-2.16,19.88-3.35,8.56-1.55,17.13-3.1,25.71-4.47,4.14-.66,8.53-.86,8.79,5.3q-32.34,5.38-64.69,10.78C13.22,456.31,4.33,449,4.31,432.23q0-30.45,0-60.9c0-14.84,6.93-22.06,21.58-21.85,14.48.21,29.64-4.41,42,5.77,19.36-7.94,19.36-7.94,41.05-1.49l7.79-4.36c-18.3-17.89-39.6-31.85-56.85-51.8,9.06-5.69,19.82-1.52,27.4-8.4-.11-4.61-8.25-5.08-6.72-11.92,9.81-3,19.52-7.64,31.59-7.2l-20.52-42.2c11.47,2.42,17.84,8.87,26.17,11.58l8.56-4.7c-2.18-15-8.37-29.13-9-44.15l2.54-1.35,32.39,28.44c2.65.74,5-.27,7.56-1.94-.06-15.39-2.47-30.82-.92-48.87,13.65,14.06,21.61,29.54,35.9,43.48,2.15-35.19,9.86-67,5.84-99.74,3.25-1.88,2-5.11,2.19-7.8a38.31,38.31,0,0,1,2-9.24c-3.56,4.07-.86,8.87-4.41,11.47-1.61-7.41-2.31-14.81-.44-23.56,10.67,5.57,18.78,12.61,26.52,20.17,4.45,2.23,1.71,4.46-.05,6.69,1.37.48,2.66,1.23,5.23-.4-5.1-6.93-.14-16-5-23.46,1.53-11.14,9.14-19.1,15.77-27C253.2,44.79,258.43,31,257,14.43c-.26-3.12-1.33-6.86,3.6-10.27,7.44,11.83,17.34,21.11,18,37.38.62,14.68-9.53,26.64-8.27,40.31,4.16,2.92,7.33,3.26,11.17,1.74,4.76-7.74,13.59-10.29,19.48-14.16,13.54.32,18.69,15.83,31.82,14.18,3.64-7.42.34-13-1.76-18.79-10.77-29.46-2.29-43,14.16-60.35,3.83,1.33,3,4.71,2.73,7.32-1.6,17.8,3.7,32.61,15.73,46.27,10.48,11.9,19.4,25.64,14,45.84,8.25-10.87,17.77-15.52,27.6-24.18a204.7,204.7,0,0,1-1.47,41.3,2.59,2.59,0,0,1-1.29-1.65,13.47,13.47,0,0,1-.23-4.4c.54,3.94-1.37,8.69,1.31,13.05-2.28,26.87,6.54,52.66,6.06,79.36l3.47,1.39,32.35-42.39c4,18.23-2,33.94.33,49.41,1.76,1.87,4.05,2.29,6.86,2.12l32.56-28.6,2.51,1.34c-.36,15-7.25,29.11-8.49,44.11l8.24,4.9c7.66-3.1,14.26-9,25.24-11.87-5.27,14.31-11.37,25.5-17.63,36.61-3.19-.61-4.77-2.79-5.6-5.7-.54-4,2.41-6.73,3.71-10a8.54,8.54,0,0,1,1.28-2.19c0,.17-.6,0-.69.13a175.26,175.26,0,0,1-18.72,12.93,7.47,7.47,0,0,1-2,.43c-5.44-.6-8-4.54-10-7.82-.52-3.85,2.62-4.81,3.09-7.11-.3-1.81-2.1-2.67-2.51-4.35-.23-6.51,3.4-12,4.69-18.11a18.21,18.21,0,0,1,1.15-4c-6,4.18-9.23,10.22-13.91,14.87-2.08,1.82-3.88,4.07-6.89,4.44a13,13,0,0,1-5-1.18c-2.56-1.22-5.53-1.61-8.1-4.09,1.17-5.15-2.66-10-2-15.52.14-2.77-.4-5.7,2-7.9,2.07-.88,4.95.06,6.35-3-1.91.44-3.8,2-5.53.08a9,9,0,0,1-1.14-5.84,14.27,14.27,0,0,1,.26-1.77,4.2,4.2,0,0,1,.06-.62s-.56-.28-.63-.15A149.41,149.41,0,0,1,420,220.78c-5.12,4.22-12.5,4.65-16.8,10.28-.65.85-1.63-.39-2.24-1.11a284.1,284.1,0,0,1-4.06-43.76c-1.65-1.83-4.11,1.7-5.69-.81-1.79-5.13-2.14-10.19.29-15.15,2.61-2.47,5.28-.14,7.89.38,1.86-3,.42-4.26-1.95-4.82s-4.79-.63-5.66-3.55c-2.25-11.85,2.26-23.41,1.21-35.11,2.56-6.57-2.54-13.11.14-19.74-7.23,9.91-21.19,14.73-30.69,10.46-1.1-2.5-.26-4.78,1-6.8,5.25-8.26,2.3-17.72,3.95-26.5.23-1.21-1.08-2.59-1.52-3.93-2-5.1-7.27-8.2-8.63-13.72a67.64,67.64,0,0,0-3.26-6c-2.15-3.28-4.63-6.3-7-9.38-2.79-3.71-3.78-8.18-5.3-12.43a35.16,35.16,0,0,1-2.28-14.62c-1.21,2.91-1.67,4-2.17,5.09a11.91,11.91,0,0,1-1,1.73,10.7,10.7,0,0,1-1.34,1.43c-3.52,3.39-.77,6.4.61,9.51,1.2,3.79-.3,8,1.8,11.59a114.78,114.78,0,0,1,7.94,20.79c1.46,5.68,2.17,11.38-2.42,16.21-2.48,2.37-5.72,3.2-8.8,4.32a3.58,3.58,0,0,0-2,1.27c6.11,9.11,13.9,17.31,17.53,28.08,0,2.78-1.79,4.41-3.92,5.67-5.38,3.18-11.19,5.47-16.91,9-5.47-6.94-4.82-15-6.24-22.33s1-15-2.62-22.63c-1.35-1.8-4.32-2-6.37-3.68-3-2.72-6-5.4-10.65-6.36a17.87,17.87,0,0,0-10,5.47,12.07,12.07,0,0,1-4.24,2.57c-2.13.75-4.31,1.4-6.39,2.32-2.42.92-4.65,2.45-7.4,2.35a9.6,9.6,0,0,1-2.84-1c-3.06-1.54-6.44-2.46-9.17-4.69a9,9,0,0,1-2.07-2.67c-1.92-4.17-1.3-8.54-1.07-12.87a26.48,26.48,0,0,1,2.3-7.52c5.51-10.8,6.68-22.31,6.06-34.12a8.2,8.2,0,0,0-1.43-5.09c-2.59,7.69-4,15.54-7.95,22.47a55.23,55.23,0,0,0-7,9.47,46.18,46.18,0,0,0-3,6.26,120,120,0,0,1-9,13.82c-3.91,8.59-2.84,17.11.35,25.57,1,2.65,2.72,5.05,2.72,8-2.93,6.12-3.87,6.32-15.79,3.62,2.67.45,5.09,1.7,7.85,2,11.49,1.11,12.15,1.73,15.14,13.51-1.78,17.18-3.7,34.3-5.06,51.43.05,6.46,3.14,11.69,6.92,16.66a3.77,3.77,0,0,1-.22,2.1c-2.24,3.07-5.32,3.28-7.24.46-5.9-8.7-15.08-14.85-18.72-25.38-2.07-6-3.37-11,4-14.8-4.49,2.76-7.36,1.74-9.65-1.77a30.71,30.71,0,0,1-3.38-8,10.37,10.37,0,0,1-.28-3.18c.39-3.64,3-5.21,6.75-5.72a285,285,0,0,0-10.5-38.25c1.18,9.79-3.37,19.48-.1,29.2.29,4,.91,8.07-.22,12-2.48,4.05-5.62,7.67-8.36,12.08.41,4.63,2.73,9.55.51,13.62,0,3.43,2.88,4.08,3.47,6.26,1.83,8-.75,15.7-1.21,23.51a17.79,17.79,0,0,1-2.16,5.21c-2.82,2.86-6.61,3.65-11.13,5.08,4,.16,7.48-1.83,10.48.66a4.52,4.52,0,0,1,.81,3.12,4.86,4.86,0,0,1-.86,2.07c-3.6,3.69-8.58,2.35-12.86,3.54a7.43,7.43,0,0,1-3.28-.24c-7.25-5.81-10.35-14.71-16-21.69-1.26-.8-.34-4.22-3.43-2.84-1,1.37.4,1.63,1.09,2.26,1.3,1.78,1.34,3.82,1.46,5.86a42.25,42.25,0,0,1,1,16.51c-.26,1.64-1.77,2.74-2.11,4.41.24,1.58,2,1.95,2.62,3.25a4.26,4.26,0,0,1,0,3.81c-3.68,2.28-8.14-.64-11.82,1.75a12.43,12.43,0,0,1-3.83.94c-2.18-.17-3.71-1.51-5.23-2.86-5.22-5.36-10.9-10.3-15.9-17.54a34.08,34.08,0,0,0,1.68,6.83c1.36,5,3.89,9.69,4.12,15,.13,2.4-1.88,4.14-2.07,6.3,1.05,2.51,3.95,2.58,5.26,4.57a3.57,3.57,0,0,1,0,3c-3.27,2.63-6.44,5.43-10.47,6.94a8.71,8.71,0,0,1-5.09-.94c-6.26-3-10.74-9-17.71-10.63,4.51,8.53,11,15.87,13.52,25.31a58.58,58.58,0,0,1-2.11,6.41c-3.63,2.45-8.13,1.41-12,3-2.52.15-5.21-.65-8,1.7,7,6.07,14.64,10.71,21.52,16.33,9,6.71,17.94,13.5,27.71,19.09,2.79.36,4.32-1.83,6.21-3.17,13.89-9.86,27.87-19.59,42.5-28.33,2.68-1.6,5.32-3.29,8.47-3.84,3.88,1.37,7.53-2.64,11.46-.51,1.64,3.14,3.8,2.76,6.36.91-2.11-.88-4.3,1.59-6.14-.49-1-2.81,1-4.73,2.07-6.93a6.69,6.69,0,0,1,3.88-2.18c3.89.48,7.25-3.86,11.24-1.46,1.91,2.06,1.11,4.09.51,6.09-2.68,4.44-2.4,9.35-2.1,14.25-4,6.73-6.6-.94-9.94-1-3.24,1-4.28,3.54-4.69,5.83-.11,4.14,4.13,6.06,3.31,9.91-3.92,2.36-6.56-2.27-11.39-1.57-9.17,6.38-14.76,17.83-24.07,25.59-1.31,4.21,2.18,6.46,3.87,9.43,1.7,2.21,1.35,5.61,4.68,7.46,5.82-.93,11.19-5.16,17.71-5.05,9.9,2.2,20-1.52,29.87,1.3,6.17-.78,12.33,0,18.49,0,7.68-1.13,15.33-1.68,22.69,1.57,4.24,1.42,7.39,4.54,10.88,7.14,1.39.58,2.84,1.1,3.19,2.84-2.44,4.73-6.58,4.07-9.91,2.1-8.61-5.06-17.9-5-27.36-5-16.15,0-32.28-.42-48.16,3.54-6.57,1.64-12.73,4.42-19.21,6.24-3.41,1-3.77,4.83-6.12,6.65,11.32-8.64,22.78-16.72,38.3-10.27,4.38,1.82,8.74,2.18,13.22-.27,4.18-2.29,9-1.61,13.51-1.61,7.24,0,14.48-.24,21.71.17,3.84.23,7.12,1.62,8.67,5.45s.24,7-2.12,10.08c-2.83,3.66-6.94,6-10,9.43-1.85,6.27-1.39,11.82,4.21,16.25,3.49,2.77,7,4,11.37,2.28,4.14-1.68,5.55-4.76,5.67-9.11.11-3.93.62-8.37,6.62-5a8.72,8.72,0,0,1,1.39,4.29c.15,4.77.35,9.59-1.35,14.56,5.95,2.35,12.37-.72,17.81,2.49,1.06,6.71-4,7.67-8.39,7.85-5.49.23-11.21,0-16.46-1.91-4.6-1.64-8.94-1.9-13.38-.07-5.77,2.37-12.39.9-18.64,3.73,2.21,4.93,5.84,4.16,8.47,2.36,7.51-5.12,14.83-4.4,22.6-.89,4.95,2.24,10.39,1.92,15.71,1.95,3.55,0,7.26-.43,10,1.77C320,427,318.86,427.68,318,428.49Z"/><path class="cls-15" d="M318,428.49c1.37-4-1.74-3.11-3.6-3-10.48.51-20.64-.29-30.24-5.2-3.8-1.94-6.71,1.1-9.86,2.85A79.54,79.54,0,0,1,265,427c-4.21-2-5.5-5-6.61-9.15,10.08-3.53,21.3-.8,29.76-6.81,12.61,6.7,24.47,6.78,31.34.62-.23-2.72,3.48-3.2,3.33-6.37-3.49-2.41-8.91.5-12.05-3.16-.8-3.38,2.42-5.37,2.14-8.33-.11-2.41.16-4.81,0-7.2-.43-7,.58-13,8.84-14.91a2.22,2.22,0,0,0,1.52-2.22c-10.6-3.12-19.08,2.38-20.53,13.17-.32,2.37.62,5.48-2.87,6.54-3.75-1.68-3.48,1.23-3.49,3.28-.07,11.6-3.19,14.43-15.06,13.91-10.4-5.4-13.67-13.42-10.12-24.64,4.55-1.2,7.66-4.94,11.08-8.29a6.85,6.85,0,0,0,1.85-7.93c-1.08-2.72-3.38-3.9-6.36-3.89-10.39,0-20.79.14-31.18-.06-3.66-.07-5.44,2.85-9.7,4.83-17-9.3-33.37-6.49-48.57,10l2.88-12.57c14.95-4,29.81-9.74,45.7-10.75,11.8-.74,23.69,0,35.53-.2,6.46-.1,12.35,1,17.86,4.68,3.19,2.11,7,3.8,10.32-.27-1.24-3.51,2.25-5,3.49-8.42-.58-8.25,2.11-16.7,4.53-25.23,8-2,9.42,3.66,11.18,8.54s3.63,9.95,5.56,14.73a15.14,15.14,0,0,0,11.52,3.88c8.34-.49,16.75,1.09,25-2.11,4.91-1.9,10.5.26,15.76-.38,10.15.4,20.2-1.63,30.32-1.56,5.14-2.58,6.24-7.67,7.74-12.5-3.81-4.56-7.49-9.18-11.49-13.54-2-2.13-3.78-4.3-2.89-7.45,1.53-2.58,3.76-2.71,6.24-2.09,4.77,2.49,7.71,7,11.73,10.36,5.93,6.29,11.36,13,17.49,19.19,4.24,4.25,8.71,6.65,14.73,5.8,6.3-1,10.16-5.93,15-9.21,3.93-2.65,7.85-4.51,12.67-3.07a4.35,4.35,0,0,1,1.59,1.26c.25,2.58-2.21,3-3.33,4.22a12,12,0,0,0,5.19-5.31c10.79-9.11,22.29-17.3,34.4-25.78-2.33-1.56-4.41-1-6.4-.87a17.1,17.1,0,0,1-7-1.38c-3.87-2.09-8.66-3.24-9.43-8.68,1.95-5.6,8.62-6.85,10.71-12.1-2.72-3.55-6.63-2.23-10.12-2.54-5.16-2.87-10.13.32-15.55,1-.84-4.23,2.53-7.65,1.12-11.43,2.38-5.49,3.7-11.72,10.17-14.29q2.24,3.06,4.48,6.11c-.49,1.76-1,3.52-1.48,5.37,11.81.11,21.85,4.52,32,8.16-.85,6.29-6.93,6.83-8.06,11.35,7.74,6.12,18,3.42,28,7.75-17.11,20.6-39,34.46-59.05,54.23,11.37-3,20.4-1.78,29.34-2.42,9.7-.69,17.37,2.88,24.19,10.34,12.44-15.25,29-10.21,44.18-9.33,12.52.74,19.11,14.6,14,26.23l-2.86,6.46c8.65,17.54,11.41,48-11.66,64.42-9.58,6.8-34.74,6-49.21-3.22-21.71,2.13-42.14-3.59-62.87-5.52-10-.93-20-2.73-30.08-1.68s-18.7-4-27.85-6.78c-2.71-.82-5.09-2.43-8.29-1.75-19.18,4.05-19.2,4-37.72-.3C351.39,438.31,334.55,422.37,318,428.49Z"/><path class="cls-15" d="M94.63,442.72l-4.06-4.53c-18.46,5.95-38.4,4.3-57.2,12.43-6.57-3.48-18.22,1.95-23.12-8-3.32-6.74-.76-14.7-1.08-21.61,1.9-2.59,3.79-3.86,7.1-3.57,3.37,6.33.15,13.6,2.27,21.05,7.68,4.54,14.93,1.38,22.38-2.89,5.78,3.13,11.57-.43,17.65-.09l6-4.95c8.14,4.24,16,1.13,23.58-2.35a59.52,59.52,0,0,0,5.9,1.43c12.63,1.72,17.55-2.94,18.19-15.38.53-10-3.28-19.92-.77-31l9.33,6.5c0,13.1,0,26.59,0,40.07,0,4.36.55,8.28,6.07,9.77,6-2.81,12.2-5.78,17.13-10.8-1.06-4.67-2.07-8.9-1.13-13.26,6.4,9.52,37.9,9.48,52.77-.5l15.68,4.45c-17.21,11.51-35.57,9.79-53,12.83-12.65,6-23.21,16.52-37.88,19.39-5.68-1.14-8.61-5.56-11.44-9.93Z"/><path class="cls-15" d="M226.69,84.5c2.91.28,4.44,2,4.27,4.8-.45,7.53.39,14.84,4,22-6,2-9.63-1.41-14.73-4.6,3.58-.83,10,1.77,6.32-5Q226.61,93.09,226.69,84.5Z"/><path class="cls-15" d="M200.44,105.06c.07-3.13-.36-6.38.34-9.36,1-4.16,3.25-7,7.71-3.64.72,3.52-3.19,3.82-3.71,6.34v11.83c-1.57,2-2.86.81-4.14.4C200.57,108.77,200.51,106.91,200.44,105.06Z"/><path class="cls-15" d="M403.57,128c-5.64-6.56-1.63-14-2.46-21,4.11,4.22,1.76,9.32,2.67,14Z"/><path class="cls-16" d="M377.55,350c-18-.7-36.22,8.24-52.95-.22-5.65-9-4.66-19.77-14.25-27.33-1,10.58-5.41,18.78-3.87,27.6-2.21,2.73-4,5-5.82,7.2l-4.47-.08c.74-5.15,4.36-9.39,4-15-.55-7.8.06-15.67-.26-24.23-8.24,2.64-15,6.25-21.9,9.43-10.46,4.81-11.05,4.8-18.86-4.14-1.26-1.45-2.36-3.05-4.16-3.93-2-1.07-3.68.47-5.51.81-2.44.2-4.36-1.54-6.66-1.8-1.11-.35-2.17-.91-3.29-1.35-2,0-1.54,2.53-3,3.05-7.69-1.16-14.18-5.33-21.29-8.81-10.31,6.44-14.76,18.8-24.62,24.73-2.58-.47-2.9-1.85-3.08-3.32l24.7-26.81c5.51-1.78,8.06,2.18,12,3.18-1.14-3.83-5.5-5.24-5.38-9.74,2.16-2.89,2.66-7.82,7.9-8.65,2.43,5.4,8.78,8.45,8.5,14.88,11.76,5.63,22.87-2.21,28.91-12.66,1.61-4.63,1.61-4.63,4.84-7.13,4.56,5.17,3.32,11.94-3.56,19.62-1.12,1.11-2.76,1.92-2.61,4.2a19.36,19.36,0,0,0,5.65,6.94c8.45-.2,14.17-6.29,21.09-9.76,3.78-2.22,7.52-4.5,11.77-5.77a7.53,7.53,0,0,1,3.1,0,8.55,8.55,0,0,1,1.91.76c5.54,3.09,10.81,6.68,16.72,9.1,3.93,1.7,7.15,4.93,11.82,5.37a10.37,10.37,0,0,0,7.26-6.95c-.6-2.35-2.9-2.59-4.22-4-6.74-9-4.79-19.11-3.92-29.07.22-2.59,1.56-5,1.25-7.7-.64-3.47-2.92-6.5-2.85-10.16.2-2.53.58-5.09-.63-7.53-1.54-2.13-3.1-4.24-4.5-6.48-2.29-2.74-5.25-1.41-8-1.33-3.71.12-7.58,1-10.41-1.95-.88-6,5.33-4.89,7.06-8,.8-2.37.08-4.66-.25-6.94-.55-3.87.31-7,4.32-8.5s8.62-1.8,12.31-6.35c1.33-10.75-6.69-26.09,11.36-31,3-7.92,3.08-15.85,5.81-23,2.56-6.7-1.56-15.08,6-22,4.51,16.64,2.94,33,6.53,46.92-3.58-15-2.25-32.32-6.58-48.75.82-4.71,1.69-9.42,6.22-13.18,8,.57,15.92-2,24.52-4.61,4.24,10.69-4,19.25-3.48,28.81,1.65,1.68,4.87.72,6,3.41,1.64,5.6-1.45,10.27-3.1,15.15-3.59,10.63-7.38,21.21-13.91,30.49-5.85,2.35-7.22,9.48-13.61,12.52-1.53.89-3.94-1.06-6.58-.1-3.86,3.06-7.32,7-11.13,10.22,1,4,5.37,3.79,6.62,6.78,2.76,6.94,4.38,14.18,5.87,21.45,1.91,4.39-2,6.06-4,8.61-1.19,2.11-2.19,4.26-1.44,7.43,15,6.66,30,14,45.17,21.16,20.3,11,39.27,24,57.76,37.74,3.77,2.91,5.67-.89,8.22-2.34,8.05-5.83,16.61-10.95,24.18-17.46,5.59-4,11.4-7.73,16.93-11.86,2.41-1.8,4.86-4,8.36-3-1.25,7.06-9.56,7.5-12.28,13.85.69,3.89,5.94,3.6,8,6.73-3.09,5.71-8.56,7.6-14.36,9-3-3.45,1.58-5.22,2-8.55-13.71,8.77-26.07,18.68-38.87,26.68-6-1-9.4-4.67-13.22-7.49-3-2.23-6-3.94-9.94-3.16a2.45,2.45,0,0,1-1.71-1c-.49-4.11-3.08-6.68-6.28-9s-7.11-4-8.49-5.88c1.74,2,6.13,4.08,7.94,8.54a5.89,5.89,0,0,1-.63,5.15,2.79,2.79,0,0,1-4.4-.3c-6.75-8.59-15.57-15.33-21.68-24.38.25-.83,0,.59.11-.37.06-.52,0-.63-.21-.16,1.67,5.45,6.91,7.78,10,11.95,1.4,1.89,4.69,2.72,3.65,6.09-1.79.22-3.91-.64-5.74,2.78l17.44,19.34a14.9,14.9,0,0,1-2.91,1c-6.41-.86-9.42-6.2-13.17-10.36-4.3-4.77-8.25-9.84-12.67-14.14-7.88,1.37-13.42,11.81-22.47,4.53-1.91-.64-2.43,1.33-3.67,2a7.65,7.65,0,0,1-1.81.79,15.1,15.1,0,0,1-4,.36c-2.61,0-5.16-1.18-8.22-.24-4.45,3.06-6.14,9.41-11.65,11.9-5.87,2.66-10.07-3.41-15.89-3.35-.42,6.69,2,12.25,4.28,17.26,3.23,2.16,6.29,1.25,9,2a9.91,9.91,0,0,0,5.68.56,87.14,87.14,0,0,1,11.53-.33c4.63-.23,9.28-.05,13.84-1.13a13.54,13.54,0,0,1,8.58,1.94A4.09,4.09,0,0,1,377.55,350Z"/><path class="cls-17" d="M319.56,219.43c-5.57,5.11.51,10.35-.19,15.51-2.48,2.59-5.41.22-7.77,1.24-3.07-3.44-1.74-6.87-1.26-10a116.13,116.13,0,0,0,.51-33c-.69-5.17,1.93-8.08,6.12-10.28,6.16-3.23,12.64-5.87,18.41-9.67,2.13-5.58,2.34-11.4,3.47-17,.42-2.09,1.77-5.48-2.42-6.11A204,204,0,0,0,311,163.94c-6,3.74-11.1,3.52-16.86.12-8.1-4.8-16.21-9.6-24.59-13.78-1.2-.58-2.26-1.61-3.77-1.55-1.41,1.55-.09,3,.06,4.46a15.33,15.33,0,0,1,.48,3,20.58,20.58,0,0,0,1.29,7.53c.33,3.42,1.82,6.49,2.4,9.74,8.08,5.08,17.78,7,25.1,15-5.45,15.32.45,31.29-.72,47.19-3.55,2.31-6.83,1.62-9.91,1.91a37.11,37.11,0,0,1-11-2.58c-2.91-1.12-5-2.79-4.28-6.32,3.17-6.09,8.81-2.78,15-3.13a83.16,83.16,0,0,1,.12-32.23c-4.86-2.7-8.32-5.41-12.45-6.64-9.32-2.78-13.68-9.08-14-18.55a13.31,13.31,0,0,0-.86-3.49,20,20,0,0,1-.68-4.56c-1-5.27-1-10.68-2.19-15.93a8.57,8.57,0,0,1,.36-4.52,13.4,13.4,0,0,0,4.35-7.83c6.51-.31,10.6,4,15.41,6.38s8.82,5.77,13.77,7.68c2.84-2.1,1.73-5,1.76-7.44.12-13.27.08-26.53,0-39.79,0-3.41.07-6.76,1.82-9.82,2.16-4.69,7.29-4.76,10.65-7.52,4.28,2.44,9,3.18,11.37,7.62,2.4,3.11,2.16,6.78,2.23,10.41.29,15.18-1,30.38.21,46.34,10.51-2.8,18.14-11,28-13.89,3.57,1.93,3.62,6.21,7.14,7.34-.55,13.86-3.81,26.71-6.19,40.21-6.59,5.6-15.67,7.85-22.24,13.9-1.88,5.52-.82,11.12-1.11,16.63C321.57,213.14,322.15,216.65,319.56,219.43Z"/><path class="cls-18" d="M270.22,228.14c1.46,9.07,9.88,4.56,14.51,7.43,4.49,1.59,8.77-.06,12.67-.94a5.58,5.58,0,0,1,5.05,4.73c-.14,9.38,1.76,18.94-1.27,27.88-4.55,1.65-7.16-.43-9.57-2.89s-2.76-5.42-2.2-8.68,2.13-6.4,1.46-9.9c-3.15-3.3-7.06-2.21-10.13-2.33-3.13,1.13-4,3.55-5.58,5.27-3.1,2.3-2.86,5.52-2.31,8.83-.05,3.93-2.75,7-3.33,10.81-.35,4.22,2.33,8.59-.46,12.45-2.25,2.15-4.17,1.29-6.05,0-2.62-.94-2.43-5.5-6.23-4.89.65,4,1.82,8-.69,11.39-1.61.64-2.54.12-3-.69-3-5.72-7.45-7.78-13.69-5.85a2.5,2.5,0,0,1-2.62-.74c.31-1.55.61-3.1,1-4.93-4.33-.72-7.11,3.71-11.06,2.38.22-4.42,4.32-4.61,7-5.91,8.16-4,16.74-7.08,24.34-11.29,1-2.27,0-3.75-.61-5.27A24.16,24.16,0,0,0,256,252.4c-2.1-1.91-4.08-1.77-6.52-.31-4.94,3-10.65,4.75-15.3,8.06-8.26,5.89-16,2.26-23.86-.23a6.77,6.77,0,0,1-4.78-6.28c3-2.79,7-3.6,10.47-5.07-3.12.76-6.06,2.64-9.36,3.55-2.94.8-5.38.66-5.46-3.32,1.13-3.08,3.95-3.94,6.59-5.07,7-3,14.32-5.43,21.2-9.41-.43-3.15-3.9-4.42-4.22-7.37-1.62-6.19-4.48-11.89-6.74-17.84a12.18,12.18,0,0,1-.52-3.33c2-9.93,1.08-20.4,5.6-30.49,7,11.25,12.89,23,21.5,32.81,2.92,5.92-.21,11.23-1.89,16.64-2.92,9.43-1.6,12.17,8.54,16.33,4.42-5,3.36-12.41,7.32-17.63,2.58-2.75,5-5.78,8.89-6-5.41-4.53-13-7.7-16.16-15.48l0,.06c3.12-6,1.65-12.46,2-18.74.22-3.68-.9-7.77,2.78-10.56a2.43,2.43,0,0,1,2.76,1.77c1.23,8.08,7.45,10,13.94,12.39,10.84,3.95,12.9,8.35,8.91,16.62-4.78.49-4-6.24-9.22-6.59-2.42,6.33-.57,12.06,1.62,17.2,3.38,2,5-1.75,7.48-.69,2.44,3.71,2.85,7.35.21,10.65C278.05,226.67,272.45,222.44,270.22,228.14Z"/><path class="cls-19" d="M347,251.21c.6-2.51,6.28-1,4.34-5.54a49.87,49.87,0,0,1,15.05-12c5-1,8-5.37,12.31-7.45,2.69-.38,3.72,2.3,5.76,3.12a25.12,25.12,0,0,0,4.37,1.93c3.78,1.94,7.84-1.35,11.61.6,1.87,3.94-1.37,5.48-3.65,7.22-2.05,1.55-4.52,2.53-6.51,4.23-6,1.16-10.16-3.9-15.82-4.47-3.07.49-4.74,3.71-7.89,4.52a8.55,8.55,0,0,0-6.44,6.1,146.56,146.56,0,0,0,20.49,10.22c4.41-1.68,8.89-2.34,13.84-4-4.16-5.76-12.73-4.22-15.9-10.82,2.87-3.15,5.68-1.11,8.55-.53,5.44,1.09,10.05,6.08,16.27,3.5,2.49-.73,5.39.61,7.59-1.52,2.51-2.44-2-7.08,2.81-8.79,3.6.09,6,3.19,9.42,3.72a5.27,5.27,0,0,0,6.31-1.19c2.76-6.24,2-13.53,3.29-20.46a2.62,2.62,0,0,1,2.52-1.73c.67,3.58-1.2,8.06,4.15,9.38-1.35,2-2.15,3.14-3,4.41l7.86,3.64c-3.9,6.93-5.34,15.64-14.41,19.08,2.52,5.08,7.2,6.43,11.11,9a100.18,100.18,0,0,1,15.36-6.65c2.72-3.14,3-7.32,4.66-10.92.87-1.91,1.16-4.14,3.75-4.6l4.76,2.78c-.19,3.93-4.42,3.84-5.65,6.8,2.5,3,4.51,6.62,8.85,7.7.34,3.6.34,3.6-5.44,7.16a11.46,11.46,0,0,1-1.9.82c-2,1.19-4.41,1.88-5.9,4.52,3.91,6,9.87,10.05,14.75,14.36,1.65,3-1.44,4.16-1.44,6.21,1.06,1.11,2.9.61,3.72,2,0,.25.13.59,0,.72a52.37,52.37,0,0,1-26.27,17.43c-9.63-6.1-18.5-13.33-28.23-19.3a5.78,5.78,0,0,1-3.16-4.5c.47-2.89,2.24-4.58,5.39-5.58,4.8,7.12,12.6,10.39,18.9,14.87a11.31,11.31,0,0,0,7.26-3.08c-7.45-4.65-13.66-10.77-21.74-14.05-4.63,1.27-8.46,3.43-10.58,7.9-2.92.73-5-1.07-7.28-2.34-7.71-4.35-15.34-8.83-23.31-12.68a29.28,29.28,0,0,1-2.66-1.7c-9.77-6.07-20.34-10.56-30.57-15.71C351.78,254.31,348.85,253.67,347,251.21Z"/><path class="cls-20" d="M202.05,248.44c.92,4.22,3.67,2.9,6.15,1.94,3.54-1.36,6.89-3.35,13-3.12L207,253.63c.21,3.82,4,3.85,6,6.21,4.1-2.33,7.23-.35,10.29,3.23,4.8-2.36,9.52-4.63,14.2-7s9.41-4.83,14.66-7.54a6.82,6.82,0,0,1,6.34,2.87C245.09,258.27,232.09,266,218,271.34a6.76,6.76,0,0,1-2-.48c-5.88-4.58-11.59-9.38-17.51-14.25-3.79,6.2-11.72,6.74-16.46,11.83-.39,2.07.38,3.73,1.92,5.54,5.08-.16,9.58,3.77,15.15,2.76,1.28-.23,2.06,1,2.23,2.37a5.26,5.26,0,0,1-2.9,3.95c-9.78,5.51-18.23,13.35-29.19,16.79-4.17-2.51-2-4.6.55-6.47,2.9-2.13,6.15-3.84,8.19-7.38-.16-6.17-3.44-10.43-8.73-13.46-.7.67-.07,1.42-.49,2-3.57,5.66-9.38,8.8-13.35,12.05,3.78-3.58,10.61-5.73,13.43-12.29,3.58-1.48,4.38,1.65,6.42,3.84-5.08,7.06-13.07,10.46-19.25,15.89,2.22,5.26,9,2.3,11.71,6.66-4,7-9.54,11.68-18.19,11.21-9-2.92-15.51-9.78-23.14-14.86-2.41-4.46-7.09-6.25-10.78-9.21-2-1.62-5.49-2.27-4.76-6.09,3.25-3.05,7.48-2,11.29-2.66,4.24-1.81,5.91,3.83,9.84,3.3,5.64-1.75,8.59-7.08,13.16-9.88-.38-3.84-3.5-4.46-5.16-6.36-2.22-2.33-6.17-3.11-6.49-7.16,3.74-1.65,5.32-7,10.49-6.19,3.36-.73,3.1,2.84,4.85,4,4.84,1.9,10,2.88,14.23,5.88,5-1,8.28-3.88,12-8.25-9.44-3.26-9.32-13.3-15.12-19.13,3.9-2.26,7.79-3.46,11.67,0,3.82-.27,2.6,3.87,4.34,5,2.24,2,4.45,1.76,6.73.77,2.52-.84,4.82-2.43,7.63-2.31,4.15,1,1.19,5.09,3,7.11,1.92,1.49,4.19.41,6.22.91A3.82,3.82,0,0,1,202.05,248.44Z"/><path class="cls-15" d="M9.58,401.16c-.76-12.7-1.56-25.2.29-37.5.87-5.72,6-9.6,12.32-9.23,14.53.86,29.47-3.1,43.54,3.86a9.66,9.66,0,0,0,7.72-.29c11.71-6.5,23.09-4.53,35,.56,4.6-1.69,9.36-3.72,11.87-9.47-7.45-12.72-21.5-18.75-30.4-30,17,9.58,31.07,23.22,46.8,34.08l8.12-3.19,7.86,5.08c12.44,1.66,15.72-10,24.3-13.57,4.74,3.74,6.09,10.65,15.07,13-9.34,3.52-15.13,9.21-23.58,6-1.08-.41-2.69-.7-3.55-.18-9.48,5.68-19.32,2.05-29.07,1.37-9.4-.65-18.77-.91-22.88,11.16-16.22-14.16-31.52-13.19-46.54.14-12-17.12-28.48-8.33-42.91-9.17-4.86-.28-5.53,6.6-5.73,11.17-.29,6.26-.06,12.55-.1,18.83C17.72,398.61,15.64,401.39,9.58,401.16Z"/><path class="cls-21" d="M319.56,219.43V191.37l24.1-12.29c2-13.14,4.11-26.37,6.24-40l-5.1.94c-1.78-2.4,2.38-4.41-.23-7.27l-30.85,18.06V88.86l9.69,3.69c1.11,15.07.28,30.05,5.42,45.33,5.54-6.95,16.06-5.49,19.71-14.23,2.83-1.32,3.78-1.3,4.4,1.77s2.43,4.87,4.18,7q2.89,26.1,5.8,52.2l-2,.23-5.17-47-2.54-.17c.84,14.63-3.93,28.16-6.55,41.92-3,4.42-8.53,4.73-12.57,8.89,0,3.92-.33,8.49.06,13C335.41,216.29,335.2,216.67,319.56,219.43Z"/><path class="cls-22" d="M45.44,406.51c-1.31-2.83-4-2.91-6.44-3.47-2.46,1-1.61,3.29-2.26,4.95-5.52,5-9.21,5-14.56,0V368.27c4.39-2,8.73-.68,13.39-1.09l2.93,4.64,8.84-5.37c4.57.08,8.12,2.75,12.21,4.46,1.31,5,.71,10,.39,15.1l-5.41,4.51c.52,3.28,4.23,2.31,5.42,4.89v9.69C55.57,410.27,50.65,409.93,45.44,406.51Z"/><path class="cls-23" d="M70.05,376.18c11.3-10.17,23.36-12.08,36.38-3.3,1.11,9.8.34,19.59.52,30.42-12.58,1.71-24.55,3.5-37.68,3.58C69.63,395.67,68.4,385.93,70.05,376.18Z"/><path class="cls-24" d="M291.7,88.76v62l-32.88-19.07,2.52,7.39c-1.86,2.62-4-1.2-5.84.48-.92.18-1.85-.55-2.93.09-.91,13-1.88,26.17-3.42,39.24-.43,3.58.08,8-5.24,8.76-3.4-5.64-.12-11.29.28-16.84.93-12.86,2.77-25.66,4.23-38.49,1.2-6.77,7.37-10.89,9.29-17.34-.79-3.2-4.11-4.46-5.54-7.17.7-8,7.09-12.07,11.92-17.22l9.13,4c.73,1.62-.74,2.26-1.64,3.15a17.23,17.23,0,0,1,3-1.71l7.24-2.88c1.46-.61,1.77.32,1.93,1.45a5.19,5.19,0,0,1-1.64,2.6c-10.7,6.55-14.42,18-20,27.56,1.44,4.22,4.66,4.92,7.45,6.19,5.66,1.86,9.77,6.82,16.91,8.54.84-15.32.16-30,.43-44.75a12,12,0,0,1,.87-4.31Z"/><path class="cls-25" d="M248.59,319.44c1.68-1.24,2-4.05,5.68-4,6,2.52,7.53,10.92,14.5,14L302.12,314c0,9.94-.2,19.28.07,28.6.17,5.91-1.26,10.86-6,14.61-3-2.21-4.69-6-8.62-7.13.3-5.57,3.52-11,1.18-17.38-9,1.47-16.48,6.76-24.95,9.21-4.08-1.08-7.37-4.77-12.08-3.68a3.48,3.48,0,0,1-2.76-2.82,6.34,6.34,0,0,1,.23-2,7.37,7.37,0,0,0,.37-7.33C248.63,324,246.94,321.9,248.59,319.44Z"/><path class="cls-17" d="M180.33,378.88l7.28,2.85c1.57,2.35,1.23,4.66.41,7.3l-7.62,4.21,4.12,1.86c1.67,3.64-1.28,4.13-3.48,4.61a17.8,17.8,0,0,1-11.23-.73c-3.61-2.25.67-4.93-.33-7.41-1.31-1.19-1.91,0-2.62.92-3.1,8.13-7.2,9.91-16.21,6.63-.06-7.16-.58-14.55.33-21.95,8.7-12.88,21.58-11.69,34.81-10.49.09,4-1.62,6.95-4,9.62-3.41,2.15-7.48.46-10.6,2C174,378,177.28,376.35,180.33,378.88Z"/><path class="cls-26" d="M357.12,132.39c-2.27-1.9-3.88,1-6.25.87-1.61-2.94,5.05-8.23-2.33-9.61-7.13-9.11-11.37-20.37-21.5-28.08l5.67-2.2c1.35,1.56,3.67.8,5.59,2.53,1.71,3.84,2.71,8.9,7.15,11.57,2.12-.92,1.66-3.06,2.83-4.22,3-1,4.35,1.34,6,3.09,2.7,3.85,6.28,7.08,8.33,11.41,8.73,1.2,16.46-2.37,24.52-5.11,2.56-3.76,3-9.11,9.83-12.77-4,9.3.27,17.27-2,25.26-1.27,5.11-1.24,10.42-2.27,15.54-.62,3.07-.29,7-4.88,7.67-2.72-3-5.25-.48-8.93.7,2.7-10.83,5.24-21,8.08-32.45-9.07,4-16.77,6.52-25.4,5.11Z"/><path class="cls-23" d="M196.24,374.68c5.72-4.59,12.69-6.74,19.44-10.28l19.72,6v24.49c-4.15,3.27-8.73,2.55-13.35,1.45a5.18,5.18,0,0,1-1.92-1.44c-3.15-4.95.75-11.25-3-16.05-5.69-1-3.63,3.52-4.08,5.94-.84,4.52,1.47,9.89-3.87,13.16-4.58,1.29-8.93,1.31-13.59-1.53C195.79,389.21,194.65,381.94,196.24,374.68Z"/><path class="cls-27" d="M70.05,376.18V405.3l36.38-3.7V372.88c3.2,6.13,1.11,12.69,1.36,19,.4,10.29.11,20.61.11,31.48l-14.45,1.67c-2.9-5.87,1.07-12.1-1.51-17.84a8.67,8.67,0,0,0-7.52.53c-2.69,6.1,1.52,12.6-1.45,18.66-4.36,1.1-8.73,2.36-14.51,1.51C69.92,410.72,65.93,393.42,70.05,376.18Z"/><path class="cls-28" d="M353.16,107.48l-4.52-4.75c-4.53-2.93-8.84-6-7.46-12.46,6.36-8,1.64-15.88-.59-23.64-1.24-4.31-3.47-8.33-5.26-12.48,1.37-5.58,5.27-4.24,9-3.33,3.53,2.24,5.45,5.7,7,9.42.42,2.83,2.34,4.63,4.46,6.31,2.55,3.31,5.91,6.2,5.49,11-.88,2.82-3,3.46-5.67,3.26,1.77.42,3.77-.58,5.39.89,2.65,2.4,2.72,5.43,2.09,8.65a7.91,7.91,0,0,1-.81,1.83c-4.31,3.26.49,7.06-.59,10.56-.74,3.09-2.38,5.31-5.61,6A3.43,3.43,0,0,1,353.16,107.48Z"/><path class="cls-29" d="M116.43,313.81c-.51-4.37-6.88-4.62-6.68-12.26,16.45,8.37,28.94,20.65,43.73,28.81,8-2.82,12.7-11.79,21.37-12,4.62-10.75,18.53-10.78,24-20.42-1.24,9-12.2,11.29-13,20.34-3.15-.84-4.51,1.34-6.34,3.31-8.08,8.7-15.82,17.76-25.5,24.85-6.19-.2-1-5-3.73-7.74-9.68-5-18.82-13.2-29.48-19.05C118.77,318.46,116,317.17,116.43,313.81Z"/><path class="cls-30" d="M168.63,299.21l32.06-19.9a5.53,5.53,0,0,1,2.37-2.93c3.32-1.79,6.83-3.24,9.79-5.69,1.15-.68,2.33-1.16,3.66-.53l-.23.35c1.65,1,1.78,2.58,1.61,4.26-.43,2.1-1.65,4-1.94,6.11a6.73,6.73,0,0,1-1.75,3.2c-1.23,1.66-3.52.81-4.92,2.07-18,9.31-34.25,21.33-50.7,33-2.07,1.47-3.76,4-6.92,3.05-1.36-2.23,1.53-4.9-.75-7-.83-1.36-2-2.6-1.53-4.39,1.77-2.72,3.87,1.15,5.76-.23l11.88-10A1.77,1.77,0,0,1,168.63,299.21Z"/><path class="cls-31" d="M168.71,396.54c5.43,1.23,11,3.65,15.81-1.44,3.19-.16,4.17,1.61,4.12,4.51-.08,5,0,10,0,14.58-5,3.95-10,1.76-15.22,2.79-.33-4.8-.61-9-.87-12.9-2-2.09-4-2.11-6.93-1.31V417a37.51,37.51,0,0,1-15.71.92c1-13.67-1.8-27.22,1.09-40.76v22.25l12-2c2.61-3.12-.22-7.2,2.76-9.74C168.25,390.17,167.39,393.72,168.71,396.54Z"/><path class="cls-32" d="M251.32,202l18,15.07-9.29,6.73A33.79,33.79,0,0,1,244,209.24c-10.67-8.15-14-20.91-20.65-33.63-1.46,11.29-2.72,21-4,30.73-4.45-1-3.55-4.56-3.61-7.6,3.07-9.86,2.53-20.11,3-27.85.07,4.42,0,11.25-1.68,17.56-2.1,1.08-2.7,0-3.39-1.12-1.28-9.57-.66-19.08-.45-28.58.06-2.72.44-6.2,5-4.63,1.58,3.18,3.16,6.36,4.54,9.12,2.68,1.67,5.09.83,8.3.42l-5.56,6c1,15.73,14.75,23.06,21.06,34.75C249.14,205.18,250.36,203.83,251.32,202Z"/><path class="cls-33" d="M250,394.89c.17-6.25-2.88-13,4.46-19l-13.44-.66c-.77-3.75,1.58-5.94,3.47-8.69h35.33a9.42,9.42,0,0,1-3.83,8.07c-3.1,1.7-6.65-.13-10.41,1.48-1.4,5.94.25,12.45-.94,18.95C259.68,398,254.87,398.51,250,394.89Z"/><path class="cls-31" d="M196.24,374.68v21.65h14.29c2.87,1.43,1.9,6.95,6.76,6.34,2.49-1.94.87-5.74,3.45-7.61l14.66-.13v9.14c-12.21,10.67-25,14.17-40.18,5C196,398,193.3,386.29,196.24,374.68Z"/><path class="cls-34" d="M116.43,313.81c11.88,7.8,23.07,16.73,36,22.58,5.69,2.2-1.25,6.14,1.4,9.15,1,2.68-1,2.72-2.71,3-7.85-4.06-13.36-12.41-24.11-13.45,2.65,5.89,8.15,7.78,10.6,12.53a34.69,34.69,0,0,1-14.08-10.32c.08-3,1.71-4.66,5.27-4.84-10.09-6.19-18.8-13.38-28.49-19.16-2.52-1.51-5.7-2.91-5.75-6.73C104.09,302.2,109.25,311.07,116.43,313.81Z"/><path class="cls-35" d="M126.55,383.3c.84-1.41,1.67-2.83,3-5.18H116c.36-5,3.82-7.3,5.48-10.95l21.36-1.06c2.34,3.08-.34,4.14-1.51,5.7-2.28,8.89,0,18-1.34,27.37-4,3.23-8.35,4.7-13.42,1.6h0A45.29,45.29,0,0,1,126.55,383.3Z"/><path class="cls-32" d="M243.91,187.69c5.58-5.95,2.85-13.74,4.23-20.59,1.69-8.35,1.3-17.13,1.77-25.73.14-2.69,0-5.46,4.07-5.92.49,1.35,1,2.75,1.52,4.15.13,1.38.27,2.76.4,4.15-.17,5.54-.63,11.12,2.41,16.19l.38,4.24c-.25,3,.79,6.23-1.58,8.84-3.35,8.83-.17,18-1.76,27.2l-4,1.82C246.26,198.6,243.05,194.2,243.91,187.69Z"/><path class="cls-36" d="M240,315l2.7,1.7c7.09,5.11,9.33,10.55,7.14,17.36V334c-1.89.71-1.77,1.89-.8,3.29,1.31,1.88,2.93.95,4.53.52,7.66,1.43,10.8,4.47,10.89,10.5l-19,.14c-4.27-6.57-9.93-8-17.25-5.35-4.2,1.53-8.58,3-13.26,2.62-3.27.73-6.54,1.33-9.57,2.84-2.39,1.2-4.91,2.21-7-.64a6.54,6.54,0,0,1,.28-5.5c1.67-2.82,3-5.94,6.29-7.39a2.54,2.54,0,0,1,2.38,1.74c.44,1.06,0,2.44,1.49,3.53,6.13-1.06,12.16-3.46,18.34-5.3,2.75-.82,3.61-2.94,4-5.45a4.81,4.81,0,0,1,2.42-3.12c3.8.3,3.25,4.21,5,5.88a33.23,33.23,0,0,1-2.3-5.15c-.09-2.41,1.87-4,2.57-6S237.55,316.65,240,315Z"/><path class="cls-37" d="M126.54,400.78l12.07-1.85c3.17-8.94-1.53-18.51,2.69-27.12v54.66l-15.17,9.2C124.75,423.22,126.27,412,126.54,400.78Z"/><path class="cls-38" d="M234.24,326.41l-1.84,3.31c-4.81-.77-2.21-5.7-3.48-6.83-2.77-3.24-5-4.34-8-4-3.74,1.83-4.28,6-6.54,9-2.43,3.18-2.71,8.38-8,9L205,335.54a4.23,4.23,0,0,1-.73-2.07c-1.77,2.82-5.48,4.75-3.83,9.15-.46,1.58-.91,3.17-1.37,4.75-4,1-4.39-3.87-7.34-4.62-3-2.74-5.94-5.49-4.27-10.18,4.81,4.44,6.06-1.24,7.84-3.24,6.32-7.11,11.79-15,19.69-21.78,6.06,6.35,14.74,7.51,21.75,12,2.58-1.25,2.81,1.65,4.25,2.42q-2,2.37-3.89,4.76C236.2,326.35,235.31,325.47,234.24,326.41Z"/><path class="cls-39" d="M387.74,148.34c4.4-7.11,3.06-16,7.15-23.21q-.61,19.58-1.24,39.15a4.08,4.08,0,0,1-.28,5.76,21.34,21.34,0,0,0-.07,16c2,3.33.58,5.26-2.61,6.42-2.85-.46-2.68-2.77-3-4.9-1.18-7.1-.5-14.22-.86-21.32-.77,11.39,1,22.66,2.07,34,0,1.53-.34,2.89-1.89,3.57-3.42-.55-3.72-3.38-4.1-6-.76-5.17-2-10.31-1.76-15.71-4.68,12-12.83,21.92-19.15,32.93-3.26.7-3.33-1.91-4-3.85,2.1-7.35,7.34-12.59,12.29-18C377.72,178.89,384.13,164.16,387.74,148.34Z"/><path class="cls-40" d="M299.92,389.15c.21-4.3.42-8.6.61-12.47,6.73-10.41,16.2-12.2,27.26-9.8.68,3.35-2.39,4.88-3.61,7.61l-8.35,1.32q-.43,9.51-.86,19.08c-5.17,3.4-10,3.83-14.36-1.4Z"/><path class="cls-41" d="M236.81,280c8.14-4.05,14.74-3.72,19.05,6.45a51.21,51.21,0,0,0-.05-6.32c-.29-2.32-1-4.59-1.51-6.88,5.13-.31,4.86,4.09,6.21,7.09a24.52,24.52,0,0,1,0,5.87c-4.35,14-16.09,20.16-26.21,13.86-1.89-2.21,1.94-3.15,1-5.11C232.64,289.66,233.06,284.67,236.81,280Z"/><path class="cls-42" d="M270.12,32.35c2.95,15.63-3,29.49-8.64,43.43-2,3.78-6.07,4-9.5,5.43a9.47,9.47,0,0,1-2.12.34c-3.45-.22-5.46-1.92-5.65-5.48a18,18,0,0,1,4.24-8.38c2.67-2.27,5.68-4.34,5.87-8.39a26.47,26.47,0,0,1,6.3-9c2.31-5,2.23-10.52,4.1-15.53C265.45,32.75,266.06,27.87,270.12,32.35Z"/><path class="cls-43" d="M264.49,348.33c-1.83-5.87-6.59-8.24-11.89-10-1.15.25-1.57-.2-1.28-1.33,5-2.55,8.65,0,11.62,3.25l28.15-11.71c1.3,8.09,1.51,15.12-3.52,21.45C280,347.3,272.29,347.47,264.49,348.33Z"/><path class="cls-44" d="M413.51,238.25c-2.42,2.93,1.75,4.64.66,9.09-1.78,3.89-6,3.06-10.57,1.15-5.36.32-9.8-1.35-12.88-5.94,1.42-5.43,9.31-4.89,10.07-10.92A1,1,0,0,1,402,231c2.48-8.72,11.53-7.52,17.22-11.39,3.49.87,3.28,3.18,2.29,5.79-2.23,2.73-4.76,5.29-6.11,8.67C414.7,235.39,414.9,237.18,413.51,238.25Z"/><path class="cls-45" d="M210.59,135.36c-2.34-3-1.5-6.57-1.25-9.8.61-7.84,1.8-15.65-.57-24,4.15.57,5.16,3.61,6.79,4.66,3.73,14.64,7.27,28.55,11.07,43.51l-5.87-2.38c-2.17.57-2.59,2.18-2.81,3.92-5.86-3.88-5.26-10.11-5.84-15.92-.1-1,0,.43-.36-.43C211.62,134.62,210.91,134.93,210.59,135.36Z"/><path class="cls-46" d="M94.56,306.61l37.8,26.3c-3.55,1.42-7.37,1-8.83,4.43l-39.77-30C87.45,305.4,90.87,304,94.56,306.61Z"/><path class="cls-47" d="M151.12,348.58l2.71-3L186.05,317,184,314.59l1.92,3.65a2.19,2.19,0,0,0,.1,1.29c1.19.62,2.29,1.29,1.49,2.93-7,7.65-13.64,15.6-21,22.84C162.45,349.29,157.42,353.13,151.12,348.58Z"/><path class="cls-48" d="M22.18,408c4.86,2.33,9.71,1.93,14.56,0v25.75c-4.59,2-9.07,2-14.56,2.08Z"/><path class="cls-49" d="M45.44,406.51c4.86-.16,9.86,1,14.51-1.41v25.27l-14.51,2.37Z"/><path class="cls-15" d="M68.83,300.47c8.28-4.19,18.69-2.5,24.48-11.21l-6-7.68c1.81-3.78,4.39-4.54,8.26-3.41-.54,2.13-1,4.11-1.59,6.3,2.18,6.74,10.37,7.93,14.44,14.7-9.79,6.23-23.16-4.63-30.18,7.06C73.74,306.1,70.81,304.57,68.83,300.47Z"/><path class="cls-44" d="M199,248.37c-3.19-.21-7.11,3.09-9.08-1.64-1.7-2.78,3.76-4.47.57-7.14-1.39-2.42,2.09-5.29-.74-7.59-1.86-2.41-3.89-4.74-3.2-8.13a2.42,2.42,0,0,1,1.39-1.41l2.47-.22c3-1.57,5.8-.25,8,1.5,6,4.84,9.28,12.24,16.88,16C210,245.33,203.87,245.71,199,248.37Z"/><path class="cls-40" d="M264.09,90.63c-2,6.9-8.75,10.52-11.62,16.82a2.94,2.94,0,0,1-1.66,1.38c-3.69.68-5.38-1.53-6.54-4.5-.85-3.41-.44-6.52,2.45-8.88-.95-1.57-2.69-2.11-3.51-3.61a7.78,7.78,0,0,1-.85-2.09c-.33-2.91-.65-5.8,1.28-8,2.42-2.35,5.51.38,7.73-1.6l-.07,0c2.68-.88,5.37-1.68,8-.86,3.29,2.7-.85,7.6,3.42,9.66Z"/><path class="cls-50" d="M235.28,295c2.95,1.27-.12,3,.23,4.47,11.6,3,18.41-.91,23.23-13.19,4.4,1.13,4.26,5.95,6.92,8.5C258.1,306,248.4,312.42,234.27,308.5c-2.72-2.25-1.2-5.53-2.46-8.8-.52-3.15-7.44-3.64-5.07-9.15C230,291.17,230.61,297,235.28,295Z"/><path class="cls-45" d="M251.14,108.18l1.33-.73c4.23-.06,4.5,5.52,8.81,5.79-3.72,7-7.63,13.49-12.86,19.12-2.24-2.57-3.21-5.76-3.8-9.27-8.73-1.88-18.7.53-25.3-8.74,5.51-.95,9.16,2.75,13.55,3,3.07.13,6.77,2.53,8.38-2.41,3.48-.37,5.34-2.94,7.32-5.37A5.79,5.79,0,0,1,251.14,108.18Z"/><path class="cls-31" d="M250,394.89h13c2.89-6.52-.28-13.33,2.15-19.46,3.61-1.61,7.24-.79,10.8-.79l-10,2v25.54l8.21,3.38c-2,3.68-5.1,5.39-8.23,7.35l-15.39-4.51C249,403.87,249.86,399.36,250,394.89Z"/><path class="cls-51" d="M386.34,203.44c.49-.9,1-1.81,1.46-2.72,0-3.34-.83-7,3.3-8.79,1.42-1.7,2.84-3.4,2.2-5.87,2.34-.71-.46-6.78,4.72-4.53,1.39,3.6-.83,7.16-.17,10.76-1.31,13.05-.82,26.26-3.52,39.19-1.91,2.53-4.29,2-6.74,1.06-1.73.24-2.92-.66-3.94-1.9a6.2,6.2,0,0,1-.69-4c.52-3,1.4-6,1.92-9,1.49-3.46.28-6.85-.21-10.28C384.71,205.82,385,204.4,386.34,203.44Z"/><path class="cls-52" d="M457.34,259a26.89,26.89,0,0,0-15.64,7.69l-17.22-12,11.32-5.77c2.36-4.93,2.81-11,8.54-13.67l4.15,1.66c1.22,3-1.25,4.39-2.68,6.14-1.78,2.21-3.12,4.35-1.5,7.18A13.23,13.23,0,0,0,451.4,256C453.38,257,456.24,256.31,457.34,259Z"/><path class="cls-53" d="M419.65,225.16c2.9-2.09.1-3.76-.42-5.6l16.1-25.06c2.64,0,2.66,1.41,1.83,3.31a2.41,2.41,0,0,1-.19,1.27c-2,3-1.84,6.57-2.69,9.89-2.57,9.89-5.27,19.73-8.62,29.38-.88,1.61-1.46,3.45-3.21,4.43-4,.57-6.12-2.69-8.94-4.53-.06-1.43-2-2.85,0-4.29C417.2,232.19,417.62,228.11,419.65,225.16Z"/><path class="cls-48" d="M300.61,393.49c4.59,2.44,9.56,1,14.36,1.4,1.21,3.13-2.86,4.15-2.88,7.42h15.6c-1.27,5.11-3.45,8.31-8.17,9.32H295.73C301.94,405.44,299.92,399.23,300.61,393.49Z"/><path class="cls-54" d="M190.69,230.4c6.05,3.22.27,6.14-.23,9.19l-7.16,3.12c-1.35.56-2.15-.2-2.86-1.18-3.25-10.41-6.76-20.76-9.25-31.42a13.5,13.5,0,0,1-1-6.79c.31-1.59.63-3.18,2.86-2.78l14.86,21.92c0,1.39.08,2.78.13,4.17C187.48,228.9,187.51,230.75,190.69,230.4Z"/><path class="cls-15" d="M248.76,413.71a144.53,144.53,0,0,1-28.51,7.48c5.47-8.56,17-7.75,19.06-16.44,1.81-7.56,1.61-15.59,3.46-23.52C248.34,391.18,242.36,403.06,248.76,413.71Z"/><path class="cls-55" d="M159.9,235.32c3.22.34,6.33,2.62,6.44,5,.36,8,5.94,10.78,12.7,13.39-4.31,5.89-9.94,8.81-15.94,12.67-4.08-5.38-10.27-6.2-16.19-7.64,1.79-2.67,4.94-1.71,7.32-2.78a12,12,0,0,0,6-4.42c2.36-2.92,1.62-5.63-.41-8.37-1.34-1.82-3.57-3.31-2.71-6.13Z"/><path class="cls-56" d="M161.49,253l-5.73,4.29c-1.19.65-2,0-2.74-.81-5.14-9.25-10.14-18.58-14.54-28.21a7.05,7.05,0,0,0-2.89-4.68c-2.28-3-2.18-6.57-3.42-12.07l20.62,22.3c.47,1.09,0,2.51,1.22,3.36,2.62,3.94,5.69,7.57,7.4,12C161.42,250.44,162.27,251.69,161.49,253Z"/><path class="cls-57" d="M199,248.37l15.77-8.22c-12-2.56-12.7-16.71-24.36-17.91l13.13-2.73c3,2.53,1.21,6.4,2.74,9.58,2.57,2.15,5.52,3.32,9.05,2.14a27.84,27.84,0,0,0,4.35-1.79c2.3-.89,3.81-3.49,6.7-3.07.57,4,5.73,4.39,6.65,8.81l-30.95,13.26Z"/><path class="cls-15" d="M206.21,178.79c-1.56-.18-3.17,1.51-5.36-.85,1.86-5.35,5.23-11.5-1.25-17.55,5.38-2.56,5.67-8.93,11.1-10.61,2.26,1.47,3,3.7,2.85,6.2-.44,10.28,1.45,20.5.6,30.74-4.45,2.6-4.64-1.6-6.06-3.79C207.66,181.49,208.06,179.63,206.21,178.79Z"/><path class="cls-58" d="M450,257.41a11.09,11.09,0,0,1-7.12-6,30.37,30.37,0,0,1,1.33-3.38,56.56,56.56,0,0,1,6.18-9.41c1.55-2,3.18-4,3.75-6.55l19.69-21.56-3.67,11.64c-2.22,2-2.94,4.88-4.46,7.31-3.88,8.6-7.75,17.19-12.65,25.28A7,7,0,0,1,450,257.41Z"/><path class="cls-28" d="M110.78,281.73c4.54,3.27,9.07,6.57,13.64,9.81,1.66,1.18,4.15,1.91,2,4.7-.23,1.6-.64,3.16-.73,4.77-.35,1-.87,1.73-2.09,1.42l-26.3-18.5C102.13,281.26,106.15,279.73,110.78,281.73Z"/><path class="cls-59" d="M250.32,108.88l-5.56,8.82-3.51-2.81c-5.69-11.71-8.91-23.62-3-36.28,3.26,1.21,4.23-3.44,7.26-2.84.2,3.8,2.75,4.45,5.85,4.36l-7.24,2.79V91.7c-1.45.84-2.29-.81-4-1.92,1,4,2.34,3.77,4,1.92,2.49.19,4.62,3.43,7.72.51-2.35,3.94-8,5.49-6.33,11.17-2.65,1.93-1.47,4.15-.51,6.42C246.94,110.32,248.36,107.91,250.32,108.88Z"/><path class="cls-60" d="M353.16,107.48l2.7.25c1.85.67,3.82,1.38,5.25-.58,1.25-1.69,1.67-3.54-.63-4.91-.15-2.75-1-5.14-3.62-6.6,1.22-1.8,1.93-4,4.6-4,1.47,1.55,2.84,2.52,3.81-.49-1.6-1-2.35,1.94-3.79.47V83l-11.91-3.34c4.68-1.17,9,2.4,10.76-2.58,2.57-.33,4.69,1.08,7,1.79,5.16,13.79,1.7,26.52-4.74,38.89C357.87,115.77,356,111.22,353.16,107.48Z"/><path class="cls-61" d="M464.66,264.52l1.45-.21c4.75,1,6.95-1.42,7.7-5.77q10.54-7.31,21.1-14.6c1.53-.26,2.17.37,1.92,1.91l-1.91,2.51c-2,2.39-4.54,4.41-5.87,7.38a121.33,121.33,0,0,1-16.89,20.13,5.31,5.31,0,0,1-4.33.84C462.85,273.66,461.5,269.67,464.66,264.52Z"/><path class="cls-62" d="M109,247.14l-4-6.59,24.32,16.9a8.72,8.72,0,0,0,3.05,3.49c2.23,2.4,4.65,4.59,6.82,7.06a6.14,6.14,0,0,1,1.42,3.86,6.41,6.41,0,0,1-3.75,4.94,4.74,4.74,0,0,1-3.11,0c-6.55-5.84-11.35-13.2-17.14-19.69A50.94,50.94,0,0,0,109,247.14Z"/><path class="cls-15" d="M469.77,235c3.4-4.14,3.32-9.54,5.16-14.88.43,9.19-2.37,19.6,10.84,23.09-4.75,5.08-8.26,9.18-15.58,9.7l4.28-8.64C473.28,241,469.82,239.41,469.77,235Z"/><path class="cls-63" d="M212.26,187.61c3-12.76-.72-25.23-1.56-37.83q-.06-7.2-.11-14.42c.13-1.4.27-2.81.61-6.36,2.65,8.72,4.7,15.48,6.75,22.24.06,1,.13,1.92.2,2.88-3.9.63-3,3.72-3,6.18-.08,9.54,0,19.08-.05,28.63,1.71,1.79,1.7,3.69.38,5.69C210.51,194,210.8,191.09,212.26,187.61Z"/><path class="cls-64" d="M215.34,344.55l22-5.88c4,2.29,8.23,4.22,8.14,9.81-3.07.72-5.6-.45-7.95-2.87-7.33,5-14.91,1.85-22.4,1.37C214.23,346.08,214.13,345.26,215.34,344.55Z"/><path class="cls-65" d="M136.62,275.84l3.1-4.1c.84-2.34-1.37-5.21,1.25-7.24l8.86,6.09c-5.64,5.11-11.2,10.15-17.29,15.65l-10.47-7.17c-2.32-2.74.16-3.49,1.88-4.56C128.2,274.68,132,279.12,136.62,275.84Z"/><path class="cls-66" d="M344.39,52.38c-3.48-1.75-6.41-.72-9.06,1.77-2.7-4.15-.56-8.84-1.5-13.18-1.78-3.45-1.85-6.82.4-10.11a4.71,4.71,0,0,1,1.3,0c3,4.28,1.41,9.35,2.85,13.91-.34-4.74-.51-9.51-2.85-13.91-.39-4.27,2.51-7,5.69-12.84-1,13.6,2.77,23.45,7.34,33.08C348.28,55.21,345.51,51.08,344.39,52.38Z"/><path class="cls-67" d="M341.18,90.27c.55,5.32,6.11,7.63,7.46,12.46.25,3.3,2.64,7.26-2.91,8.8-6.37-4.52-7.21-13.15-13-18.17Z"/><path class="cls-15" d="M131.18,242.84c-.47,3.19,3.24,5.42,1.88,9.36-5.73.33-9-3.33-13-7.55l13.06-11.78C137.85,237.7,131.55,239.62,131.18,242.84Z"/><path class="cls-15" d="M370.65,111.17c.84-2.45,1.58-4.66,2.44-7.19-3.67-3.78-3-8.56-2.54-13.39,1.37-1.94,3.3-2.42,5.74-2,3.56,5.33-2.88,9.85-1.15,15.33,1.23,2.79,4,3,8,3C379.39,111.08,376,113.05,370.65,111.17Z"/><path class="cls-68" d="M396.59,192.1c-1-3.73,1.09-7,1.43-10.57L402,231l-1.22.68c-4.28,2.09-8.61,3.32-13.2.91l5.75-1.19c1.55-2.37,3.63-4.46,3.37-7.68C395.85,213.15,396.73,202.62,396.59,192.1Z"/><path class="cls-69" d="M213.59,283.23l1.48-2.93c1.45-3.07,4.36-4.35,7.14-5.74,8.8-4.42,17.52-9,26.68-12.64,3.65-1.46,6.86-3.43,8.8-7l.85-.6c2.12,1.55,2.68,3.76,2.64,6.73l-34.46,16.44-3,1.4C221,281.83,218.27,284.79,213.59,283.23Z"/><path class="cls-70" d="M206.21,178.79c2.11-1.55,2.8-.57,2.83,1.59-1.37,3.91,2.76,7.05,1.53,10.94a116.11,116.11,0,0,0-1.82,30.91c.2,2.71-.45,6.08,3.47,7.07,1.8.79,3.65,1.5,4.61,3.41-4.63,1.9-8.87,1-13.32-2V219.5a1.43,1.43,0,0,0,.2-1.31c.16-4.39-.57-8.84.91-13.14Z"/><path class="cls-71" d="M270.12,32.35c-8.27,4.09-4.2,11.95-6.7,18.59l-2.27.2c-1.49,1.1-3,1.37-4.5,0,3.91-8.95,7.61-18,8.13-28.54C268.35,25.23,269.51,28.63,270.12,32.35Z"/><path class="cls-72" d="M187.51,322.46,186,319.53c11.21-7.94,18.26-20.24,30.39-27.33Q202,307.32,187.51,322.46Z"/><path class="cls-20" d="M123.65,302.43l1.17-1.63c3.58-1.54,5.73,1.32,8.19,2.85,4.45,2.76,8.45,6.17,12.69,9.24,2.12,1.53,4.26,3.37,7,.95,3.09,3.2,1.26,5.82-1,8.4C141.76,316.43,132.21,310.13,123.65,302.43Z"/><path class="cls-73" d="M181.59,241.05l1.71,1.66c-3.44,2.58-6.59,1.45-9.7-.69l-2-6.67c-.11-1.43-.23-2.86-.35-4.29a5.82,5.82,0,0,1-.9-5.81q-.7-9.52-1.42-19c.94-.87-.13-3.66,2.65-2.78l1.29,6c-.46,9.27,3.58,17.78,4.53,26.82C177.61,238.66,180.21,239.42,181.59,241.05Z"/><path class="cls-74" d="M464.48,227.94c2-1.8.8-6.8,5.68-5.81l-5.35,19.09c-2.82,5.8-2.93,12.72-7.46,17.79-2.43-.64-5.29.71-7.34-1.6l1.32-3.31c2.12.67,4.12.27,4.73-1.92C458.34,243.91,463.51,236.65,464.48,227.94Z"/><path class="cls-15" d="M150.39,223.6l13.18-3.67c1.17,4.57-3.42,6.47-2.89,10C154.06,232.24,151.91,229,150.39,223.6Z"/><path class="cls-75" d="M135.59,223.56c3.38-1.55,3.65.86,4,3.15,1.87,8.63,6.49,16.25,9.11,24.61.79,2.51,3.33,3.28,5.44,4.38l1.61,1.56c-2.61,2.55-5.88,1.13-8.85,1.48l-3-6c-.12-.94-.23-1.88-.34-2.82-4.45-2.31-3.21-6.65-3.7-10.37Q137.73,231.58,135.59,223.56Z"/><path class="cls-76" d="M488.16,254.65a9.62,9.62,0,0,1,6.76-6.29l-4.33,9.93q-4.43,7.44-8.84,14.89c-.67,3.47-1.87,6.64-5.95,7.08-3.22.36-6.33,0-7-4.18l2.94-1.59c2,.28,3.9-.17,5-2C480.31,266.4,485.57,261.38,488.16,254.65Z"/><path class="cls-77" d="M136.62,275.84c-2,2.51-4.64,3.69-8.45,3.32L124,274.51l-15-27.37a18.08,18.08,0,0,1,8.93,8.51c4.33,7.49,7.2,16.11,15.73,20.34Z"/><path class="cls-15" d="M133.59,207.71a15,15,0,0,1-6.38,6.6c-1.82-4.11-4.78-7.63-3.43-12.93C128.82,201.25,131.92,203.32,133.59,207.71Z"/><path class="cls-15" d="M453.86,224.06a15.15,15.15,0,0,1-6.66,6.67c-5-1.9-4.61-7.32-9.32-12.83Z"/><path class="cls-15" d="M423.52,205.22c-5.33,12.18-10.25,14.39-20.59,7.61,7.56-1.92,16.41.73,19.5-8.09Z"/><path class="cls-15" d="M393.37,170c.09-1.92.19-3.84.28-5.76,3.68-1.06,7.47-2.59,9.71,2.94.27,2.27-.87,4.52-2.18,6.62C397.05,175.4,396.7,169.76,393.37,170Z"/><path class="cls-78" d="M215.34,344.55c-.07.81-.15,1.62-.22,2.43-7.32-.51-13,8.4-20.67,4.4-2-3.1-.25-6.47-2.68-8.63,4-.9,4.37,3.91,7.34,4.62C205.18,350.21,209.76,344.48,215.34,344.55Z"/><path class="cls-15" d="M340.83,128c-5.95-6.21-6.63-12-7.31-17.77C337.1,114.94,342.91,118.65,340.83,128Z"/><path class="cls-15" d="M203.27,215.06c-4.9-.78-10,4.05-16-1.33l16.18-4.47C204.46,211.23,204.7,213.17,203.27,215.06Z"/><path class="cls-79" d="M367.32,78.86l-4.41,1.44c-.87-1.1-1.72-2.16-2.58-3.23l-6-9.94c.69-3.43,2.73-2.45,4.78-1.47C359.73,71.37,365.59,73.82,367.32,78.86Z"/><path class="cls-15" d="M229.1,280.89c2,2.23,2.06,3.8,1.23,5.86l-10.73,3.41C220.27,283,225.72,283.29,229.1,280.89Z"/><path class="cls-15" d="M167.27,185.78l-6.43,6c-1.05-5.1-2.34-9.26,2.65-12.24C166.16,181,166.4,183.45,167.27,185.78Z"/><path class="cls-80" d="M180.33,378.88c-5.38-1.59-9.31,2.6-13.9,3.74-1.46-2-1-3.77,0-6.32h15.31Z"/><path class="cls-81" d="M344.39,52.38l4.17-1.26a25.66,25.66,0,0,1,6.95,9.13c-1.16,4.06-2.89,4.72-5.37.91Q347.26,56.77,344.39,52.38Z"/><path class="cls-15" d="M401.27,194c3.68-.88,5.5-.24,6.53,2.53-.53,3-1.94,5.49-5.28,6.79C399.42,200.26,401.12,197.08,401.27,194Z"/><path class="cls-82" d="M256.65,51.19l4.5,0L255.8,60c-1.2.77-.68,2.75-2.29,3.23-2.6.54-3-1.34-3.52-3.17C251.79,56.78,253.45,53.41,256.65,51.19Z"/><path class="cls-11" d="M245.52,75.77l-2.79,4.47-4.47-1.63q4.31-6.14,8.63-12.25c.56-1.29,1.39-1.74,2.64-.83s1,1.91.26,3C248.36,70.92,246.94,73.35,245.52,75.77Z"/><path class="cls-83" d="M445.38,249.47l-2.5,1.92c-5.7-7.75,4.16-9.48,5.61-14.47l5.65-4.87c.35,3-.12,5.67-2.62,7.67C448.49,242.36,444.37,244.3,445.38,249.47Z"/><path class="cls-84" d="M432.77,208c0-3.61.75-6.89,4.2-8.87q.13,3.63.28,7.28a1.78,1.78,0,0,1-.35,2.6l-1.56,8.87-1.22,1.59a1.33,1.33,0,0,1-1.92-.12C430,215.4,434.77,211.84,432.77,208Z"/><path class="cls-15" d="M436.9,209c.11-.86.23-1.73.35-2.6,4.18.23,3.38-4.58,6.2-6.26,2,4.85.37,8.33-3.4,10.94C437.84,212.57,437.25,210.74,436.9,209Z"/><path class="cls-85" d="M161.49,253c-.49-1.07-1-2.13-1.48-3.19,1.13-6.08-5.2-8.18-6.83-12.79-2.56-.77-.58-2.09-.39-3.2l4.27,3.25,6.95,8.69C164.15,248.69,163.88,251.2,161.49,253Z"/><path class="cls-86" d="M473.81,258.54c2.3,6.75-5.1,6.36-7.7,9.85v-4.08c2.07-2.11,5.57-2.58,6.66-5.81A.75.75,0,0,1,473.81,258.54Z"/><path class="cls-87" d="M171.55,203.44l-2.65,2.78q-.79-3-1.61-5.89c-.52-.2-.72-.45-.6-.74s.27-.47.43-.47V192a12.63,12.63,0,0,1,5.93,8.52Z"/><path class="cls-18" d="M213.59,283.23l10.16-4.37-2.88,5.84c-4-.37-7.34,4.11-11.59,1.45Z"/><path class="cls-59" d="M262.68,89l-4.23-.42c-.15-2.7,3.07-4.74-.3-8.41-1.24-1-4.15.35-6.85,0l10.18-4.39C261.65,80.19,260.62,84.72,262.68,89Z"/><path class="cls-88" d="M141,264.5c.27,2.54,1.12,5.17-1.25,7.24L138,269c-.68-4.34-4.54-5.51-7.52-7.54-2.21-.79-2.66-2.12-1.24-4l4.14,1.52Z"/><path class="cls-20" d="M139.87,239.59q1.84,5.17,3.7,10.37c-3.95.28-5.79-2.57-7.86-4.9C135.94,242.06,140.05,242.52,139.87,239.59Z"/><path class="cls-59" d="M249.79,68.5c0-2.09-.83-2.93-2.9-2.14,1-2.11,2.07-4.21,3.1-6.32.73.82,1.45,1.63,2.47,2.8L255.8,60C256.54,64.76,253.2,66.65,249.79,68.5Z"/><path class="cls-60" d="M350.14,61.16l3,1.78,2.41-2.69,3.56,5.41-4.78,1.47C351.69,66,349.13,64.81,350.14,61.16Z"/><path class="cls-15" d="M442.52,178.64c.34,4.88-.17,7.54-4,8.9C435.88,183,439.5,181.81,442.52,178.64Z"/><path class="cls-89" d="M183.37,337.88l8.15,12.43C185.26,346.52,183.39,342.71,183.37,337.88Z"/><path class="cls-90" d="M274.54,96l-6.33,7.54c-.17-3.08-.28-4.9-.36-6.44l5.37-2.54Z"/><path class="cls-15" d="M401.82,88.72c-1.22,7-1.22,7-5.89,5C396.93,91.44,398.64,90.05,401.82,88.72Z"/><path class="cls-15" d="M297,76.59c5.7-3.08,8.71-2.63,12.19,1.47Z"/><path class="cls-20" d="M170.32,225.25l.9,5.81a7.75,7.75,0,0,1-6.14-3.71Z"/><path class="cls-15" d="M334.23,30.86c-.13,3.37-.27,6.74-.4,10.11C329.14,37.4,330,34.06,334.23,30.86Z"/><path class="cls-15" d="M336.58,86.14c2.17-2.12,1-6.09,5.42-6.94C343.58,84.12,340.4,85.13,336.58,86.14Z"/><path class="cls-15" d="M142.92,397.6V383.91l.56,0v13.7Z"/><path class="cls-37" d="M126.55,383.3q0,8.74,0,17.48A30.09,30.09,0,0,1,126.55,383.3Z"/><path class="cls-15" d="M112.69,275.3c.52-3.27,1.91-4.25,4.33-4.65C117.42,273.7,116,274.73,112.69,275.3Z"/><path class="cls-57" d="M203.27,215.06c0-1.93.1-3.86.16-5.8.4-1.4.8-2.81,1.19-4.22.12,4.42.71,8.86-.91,13.15C203.56,217.15,203.41,216.11,203.27,215.06Z"/><path class="cls-90" d="M283.15,94.51l-1.37-1.35,6-2.72c.44.92.88,1.83,1.31,2.74C287.33,94.73,285.56,96.05,283.15,94.51Z"/><path class="cls-15" d="M104.49,274.41c-2,3.32-3.62,2.9-7.38,3Z"/><path class="cls-15" d="M215.24,299.65c1.37,1.52,1.3,2.44-.12,3.22C213.25,302,213.53,301.05,215.24,299.65Z"/><path class="cls-76" d="M496.83,245.85l-1.92-1.91c.88-1.39,1.95-2.4,3.85-2C499.1,243.76,498.19,244.91,496.83,245.85Z"/><path class="cls-15" d="M167.12,199.12a.88.88,0,0,1,.17,1.21c-.25,1.06-.19,2.37-1.95,2.37C164,200.57,165.93,200,167.12,199.12Z"/><path class="cls-84" d="M437.16,197.81l-1.83-3.31,2.09-2.84C438.87,194.25,438.47,196.06,437.16,197.81Z"/><path class="cls-15" d="M337,85.9c-1.05,1.64-2,3.33-4.52,2.44C333.35,86.26,335.25,86.3,337,85.9Z"/><path class="cls-23" d="M476.31,400.7V379.15c-2.7-3.15-5.24-4.27-10.12-5v25.16c-5.19,3-10.19,4.12-14.48-1.52v-31c5.86,0,11.8-3.09,16.61,3.13l9.2-4.52c5.08,2.64,11.77,2.6,14.43,9.92l6.36-8h23.42a87,87,0,0,1,15.52,14.38c1.33,7.82.21,15.64.61,23.37-6.13,3.52-11,2.61-15.27-1.9-2.5-3.56-1.67-7.81-2.24-11.83-.42-3,.09-7.08-5-6.77-2.29,5.72,1,12.17-2.62,17.81-4.06,2.78-8.4,2.75-12.87.92-4.05-3.9-2.3-9-2.7-13.63-.25-2.86,1.14-5.66.36-9-4.66-.06-4.17,3.46-4.54,6.3-.67,5.07,1.6,10.72-3,15C485.2,403.53,480.57,404.14,476.31,400.7Z"/><path class="cls-91" d="M377.55,350l-1.47-1.41c4.5-3.69,9.64-1.71,13.9-1.86-6.85-1.28-13.9-4.69-21.66-5-4.42,2.52-9.4,3.86-13.71,6.59l-14.54.41c-1.47-3.88,2-5.37,3.34-7.43-2.7.87-2.39,5.84-6.49,5.83l-10.54,1.33a74.5,74.5,0,0,1-6.71-26.24l16.58,7.68c6.5-3.18,8.62-9.56,12.65-13.88,3.72-1.82,6.7,1.17,10,1,.7,3.8-3.37,5.64-3.51,8.73a15.13,15.13,0,0,1,7.48-8.9l1.57-.15c1.63,1,3.18-.82,4.81-.13a6.9,6.9,0,0,1,2,4.65c-3,5.28-2.08,13.16-10.15,14.93-1.34-.88-2.7-1.8-4.07-.15-1,.4.18.93.29.47.3-1.25,1.56-1.32,2.74-1,4,1.88,5.52-1.08,7.1-3.78,1.39-2.37,1.28-5.72,4.5-6.91a4.83,4.83,0,0,1,3.53,1.88c1.16,1.93.17,4.3,1.75,7.2,7.64,2.81,15.52,7.59,25.1,5.89a4.31,4.31,0,0,1,3.88,1.31,26.79,26.79,0,0,1,3,4c.75,1.52,1.52,3.05.67,4.79l-5.31-2.41C396,352,386.57,349,377.55,350Z"/><path class="cls-17" d="M552.88,408.19,545.47,404c-1.66-14.4-2.74-28.1,13.55-36.57H582.3c-2.22,4.72-4.1,8.74-6.08,13H561c-.87,5.68-2.1,10.86,1,16.08,4.64-1.36,4.84-6,8.12-8.19,4.92,1.19,8.47,4.67,11.94,8.26,1.57,4.22.69,8.48.48,13.15-5.38,2.46-10.4,4.06-14.74-1.74-.51-1.47-.34-3.38-3-3.86l-4.24,4.05C558,410.2,555.44,409.43,552.88,408.19Z"/><path class="cls-37" d="M499.43,402.17h11.85c3.21-8-1.27-16,2.89-23,3.86,10.29,1.84,20.65.62,31.36,1.48,1.9,3,.28,4.26-.08,2.15-3.31.59-7.34,3.66-9.7,3.49,4.77,8.18,5,14.54,3.42V381.66c3,11.35.25,22.82,1.24,34.53L524.22,427l-47.91-5.92V400.7h14.27c4.3,4.14.63,10.18,3.3,15C499.26,412.36,495.4,405.67,499.43,402.17Z"/><path class="cls-27" d="M408,381.86c3,8.22-.08,16.51,1.23,25.22l-21,8.52-19.1-7.09c.56-11.13-2.38-22,1-32.84,4.49,4.2,1.1,10.26,3.69,15.16,1.56,1.79,3.55,1.62,5.56.64,3.93-4.6-1.09-11.91,5-15.7,3.5,2.32,2.35,6,2.54,9.2.34,5.6-.69,11.38,1.93,17.68,3.68-3.29,1.65-7.74,4.12-10.35,3.91-1.59,7.34,4.24,11.41.56C407.07,389.82,404.52,384.84,408,381.86Z"/><path class="cls-92" d="M416.81,376.25c7.88-9.5,18-12,30.05-9.29,1.11,3.79-2.48,6.12-3,9.6H432.56c-2,2.74-1.23,5.56-.77,8.83l8,1.34c-1.48,4.54-1.72,9.67-8.27,9.8-4.83,5.35-9.75,3.31-15.39.06C416.26,389.89,415.18,383.08,416.81,376.25Z"/><path class="cls-93" d="M567.75,408c4.32,2.3,8.79,1.32,14.26,1.17V396.57c4.77,14,1.08,26.39-11.23,37.36-4.06,1.42-7.87-.9-11.86-1.31s-8-1.32-12.29-2.06c.16-5.18,4.18-7.8,5.26-11.89L567.08,420Z"/><path class="cls-33" d="M334.16,375c8.12-9,18.46-10.13,29.83-8.23.84,3.5-1.86,5.53-3.31,8.34l-11.39.77c-1.85,2.74-1,5.2-.6,8l7.92.8c-.77,5-2.08,8.92-8,8.84-4.1,5.35-9.08,4-14.93,2.08C333.38,388.64,332.51,381.83,334.16,375Z"/><path class="cls-94" d="M384.9,376.14c-3.61,5.46.11,11.79-2.33,17.82-3.47,2.09-7.39.73-12.5.73v-19c9.19-11.63,21.88-9.81,34.23-9.15,1.71,2.51-.73,4.22-.79,6.28C400.62,379.12,393.33,380.43,384.9,376.14Z"/><path class="cls-95" d="M489.25,313.7l14.54-8.57,6.77,1.13c1.39,3.51-1.76,4.45-3.61,5.7C496,319.31,485.27,326.9,474,333.75c-5,1.93-8.79,5.73-13.14,8.65-2.91,2-5.44,4.89-9.52,4.41a4.47,4.47,0,0,1-3.43-3.86c.56-4.95,3.07-8.12,7.74-10.3,9.15-4.28,16.74-11.22,25.72-15.85C483.9,315.5,486.07,313.32,489.25,313.7Z"/><path class="cls-96" d="M416.81,376.25v18.82c5,2.3,9.65,3.81,14.72,1.46,0,3.1,0,6.2,0,9.34,4,3.57,9.52,3.35,14.23,6-1.34,4-4.67,5.63-8.74,7.28l-21.78-7.9C416.68,399.35,413.19,387.73,416.81,376.25Z"/><path class="cls-97" d="M468.8,276.08c2.14,2.51,4.79,3.62,8.63,2.88l4.32-5.79c2.08,3.38,1.63,6.33-1.27,9.4l7.84-3.77,6.7,3c-3.26,7.33-9.84,10.19-16.82,12.52a3.19,3.19,0,0,1-1.85-.93c-2.6-.25-5.32,3.21-7.86-.23,0-3.6,4.21-3.54,5.52-6.34-7.76-3.94-12.47-11.1-19.4-16.6l10.05-5.72C463.85,269.16,465,273.09,468.8,276.08Z"/><path class="cls-96" d="M334.16,375v18.9c5.21,1.56,9.83,1.63,14.43-.34v9.26l14.33,4.26c-1.46,3.92-4.78,4.95-8.15,7.05l-21.9-5.92C333.65,397,330.57,386,334.16,375Z"/><path class="cls-46" d="M473.3,332.55l37.26-26.29c3.81-2.88,7.09.27,11.85.34l-38.69,29.09a3.18,3.18,0,0,1-3.41,0l.09.05C478.8,332.93,474.09,337.16,473.3,332.55Z"/><path class="cls-47" d="M448.75,342.68l2.43,3.29c1.25.71,1.17,1.57.31,2.53H441.37l-23.5-25.9c-.65-1.63.89-2.25,1.52-3.29l.06-5.63c5.5-.73,6.6,4,8.93,7.19l0,0C436.78,326.67,444.51,333.05,448.75,342.68Z"/><path class="cls-96" d="M451.71,397.82c4.61,2.61,9.66,1,14.48,1.52v19.82c-4.42,1.46-9,.39-14.06-.64C450.67,411.58,451.67,404.68,451.71,397.82Z"/><path class="cls-98" d="M408,381.86v13.93c-5.95.44-11.33,2.83-14.46-3.76-2.65.81-5.16.83-7.54-1.57-.92-4-.25-8,3.63-10.33,4.52-2.69,9.44-3,14,.38Z"/><path class="cls-99" d="M478.21,293.73,495,281.82c4.93-1.89,9.31-1.23,13,2.73L483.71,301a2.58,2.58,0,0,1-1.77.23c-1.48-1.13-2.3-2.82-3.51-4.19C477.85,295.94,477,294.9,478.21,293.73Z"/><path class="cls-100" d="M403.66,380.51H391.14c-3.05,2.62-4.79,5.47-5.05,8.91,2.36,2.23,5.68,0,7.46,2.61V406.3l-8.65-2.07V376.14c6.14-1.42,13.4,3.33,18.61-3.34Z"/><path class="cls-101" d="M419.39,319.31l-1.52,3.29-10.19-10.32-17.77-19.37c2-2.22,3.31.44,4.9.66l0,0C402.17,302.92,409.65,312.19,419.39,319.31Z"/><path class="cls-102" d="M451.49,348.5c-.1-.85-.2-1.69-.31-2.53,8.7-2.28,14.07-10.05,22.12-13.42,1.7,2.55,5.72-.13,7.1,3.15-7.55-2.51-12,3.17-17.29,6.55C459.39,344.62,456.71,348.93,451.49,348.5Z"/><path class="cls-102" d="M409.55,349.82c-.48-1.38-1-2.75-1.46-4.13,1.67-4.79,4.21-8.93,8.74-11.57l2.55.28Q414.48,342.11,409.55,349.82Z"/><path class="cls-102" d="M480.31,335.65l3.41,0L472,345.83l-1.22-1.33Z"/><path class="cls-103" d="M413.87,349.69l5.94-8C420,345.93,418,348.54,413.87,349.69Z"/><path class="cls-104" d="M552.88,408.19l7.68,0a4.28,4.28,0,0,1-3,3.76A6.8,6.8,0,0,1,552.88,408.19Z"/><path class="cls-105" d="M300.74,239.83c-.26-4-2.69-3.39-5.59-3.14-3.46.3-7.18,1.25-10.42-1.12h8.85c-1.72-16-4.77-31.62-.2-47.88l-25.7-12.8c-.67-3.78-1.38-7.75-2.08-11.72-1.18-2.42.36-5.24-1.13-7.61l-.22-2.68c0-2.47-2.51-5.37,1.25-7.18l3.41,2.52c4.27,25.88,1,21.93,22,32.12,6.08,2.95,8.06,7.84,6.87,14.4a52.43,52.43,0,0,0-.17,18.44c3.33,1.39,6.22.37,9.16,1,3.1-5.28,1.86-10.57,1.16-15.7-2-14.53-2.37-15.26,11.43-20.63,11.56-4.49,16-12.2,15.53-23.84a32.87,32.87,0,0,1,.34-5.78c1.57-1.51,3.21-2.86,5.95-2.29,1,9.5-2.18,18.49-3.18,28.61l-25.74,13c2.92,15.93,2.16,31.65-1.06,47.15,3,1.74,5.61.73,8.15.25-1.71,4.16-8-.41-9.25,4.7,5.51,6.3,15.06-5.94,19.52,4.48-1.75,2.24-2.55,5-3.95,7.39s-2.95,5.66-7,3.79c-1.52-2.18-1.27-5.15-4-8-4.86-1.56-11.33-3.1-10.81-9.71-.06-.26-.66.72-1.31,1.7A2.08,2.08,0,0,1,300.74,239.83Z"/><path class="cls-106" d="M267.37,267.34q2.08-4.93,4.18-9.86c3.57-1.62,5,1.58,7.09,3.22,8.2,6.55,15.32,14.41,24.07,20.65,8.62-6.75,16.08-14.55,24.53-21.18,1.95-1.52,3.61-4.09,6.79-3q1.44,5.07,2.9,10.15a19.34,19.34,0,0,1-11.26,8.09c-7.92,1.66-12.63,7.52-17.36,13.33-1.07,1.58-.66,3.72-1.93,5.25a5,5,0,0,1-1.84.72,5.29,5.29,0,0,1-2.94-.64c-1.77-1.19-2.76-3-3.89-4.72-1.74-2.5-3.32-5.17-6.72-6.41-3,4.46-1.69,10-4.35,14.29-4,3.86-8.24,7.33-15.19,7.09-2.43-10.14,3.74-19.54,2.46-29.47C272.27,271.93,269.21,270.16,267.37,267.34Z"/><path class="cls-94" d="M419.51,287.88c10.11,7.77,21.48,13.85,30.76,22.74,1,1.1,2.4,1.85,2.76,3.47a9.23,9.23,0,0,1,.3,3.43c-.49,1.85-.64,4-3.45,3.71-18.64-13.61-37.68-26.63-57.81-38-2-.85-1.67-3.22-3-4.5-1.36-2.16-3.41-4.19-1.27-7,11.21,3.12,20,10.87,30.46,15.53Q419.35,286.56,419.51,287.88Z"/><path class="cls-107" d="M300.74,239.83c.44,0,.87-.05,1.31-.05.28.24.57.48.85.7,2.4,5,.81,10.32,1.28,15.48.23,2.58-.58,5.26.81,7.65,3.58,1,4.81-2.27,6.95-3.8,2.36-1.68,3.79-5,7.53-4.22,2.56-2.65,7.24-4.12,4.52-9.61l5.65-1.86,4.35,5.79c-8.36,8.68-17.75,16.23-26.82,24.13-2.16,1.89-4.94,2.64-7.35.85-9.45-7.06-18.63-14.46-26.45-23.38a3.3,3.3,0,0,1-.56-2.75l4.75-8.65c5.43,2.28,11.8-.68,17.19,3.76-1.47,5.46-2.89,10.72-4.29,15.89a13.82,13.82,0,0,0,10.28,7.35Z"/><path class="cls-38" d="M448.75,342.68,428.41,320.9c3.21-3.12,6.17-2.58,9.47.15,4.24,3.51,8.79,6.64,13.35,10,12.7-8.91,25.13-17.54,37.44-26.34,2.69-1.92,5-4.29,7.46.17-1.29,3.79-7,4.08-6.88,8.78l-37.92,24.5Z"/><path class="cls-47" d="M272.81,248.76,302,275.18c12.19-7.45,19.62-19.51,32-25.27.67,2.41,1.91,4.81,0,7.23l-31.4,27-31.08-26.63C269.7,254.24,268.23,251.06,272.81,248.76Z"/><path class="cls-108" d="M299.12,289l3,4.34c-2.83,5.11-9.14,5.71-12.73,9.86-5,3.42-10,6.81-16.13,7.95a9.77,9.77,0,0,1-4.29-.58c-2.57-1.39-5-2.93-6.16-5.82,6.64-4.14,6.28-10.9,5.84-17.77l-3,7.8c-5.63-.13-4.78-5.55-6.93-8.5,0-2,0-4,0-6,.93-1.86,2.16-2.84,4.21-1.44l4.24,2.35c3.23-4.91-1.58-9.39.14-13.82a17.67,17.67,0,0,1,10,6.92l-5.47,28.58c6.17-.14,9.64-4.83,14.39-6.64C289.85,292.57,293.18,288.44,299.12,289Z"/><path class="cls-109" d="M358.7,210.74l2.81,4.36c5.44,5.76,7.86,12.37,5.68,20.27-6.24,1.95-9.11,9.08-15.83,10.3q-2.89-11.67-5.8-23.36C348.59,216.92,351.72,211.65,358.7,210.74Z"/><path class="cls-110" d="M370.05,282.07c2.6,5.3,2,10.28-2.18,15.17l3.94.53c-.77,4.85-4.67,4.81-8.15,4.89-8.83.2-16.08-6-18.72-15.56.07-4.69-1.48-10,4.09-12.71,1.9.87,1.6,1.93,1,3.06-.59,2.91-2.6,5.84.61,9.17.93-4.65,3.23-8,7.91-8.95s8.07,1.95,11.49,4.5Z"/><path class="cls-19" d="M416.83,334.12c-2.4,4.25-4.77,8.51-8.74,11.57l-2.9-3.05c1.66-6.08-4-8.13-6.62-11.8-1.85-2.59-5.89-2-7.81-4.91-1.56-2.39-2.36-5.36-4.93-7-2.36-.95-4.3-.09-6.78,1.57-2.4.81.14,6.29-4.49,6.26l-2.86-1.52c-1.16-1.21-2.28-2.44-1.41-4.31l-1.53-4.46a2.81,2.81,0,0,1-.28-3.95l3.59,3.93c6.76-1.28,9.55-2.73,17.92-9.32C399.81,315.22,404.86,328.17,416.83,334.12Z"/><path class="cls-111" d="M306.46,293.42c-.45-1.46-2.19-2.93,0-4.38,5.87-.59,9.34,4.19,14,6.28,2.82,1.25,5.15,3.46,9,4.76-1.07-5.77-3-10.79-4.2-16-.71-3.09-2.8-6.37.11-9.48,4-2.14,6.79-6.23,11.48-7.33,2.42,6.86-2.35,13-1.69,20,.6,6.26,1,12.24,4.44,17.66,1.07,4.13-2,5.16-4.67,6.51-5.32-.62-9.05-4.19-13.41-6.44a108.8,108.8,0,0,0-10.71-6C308.61,298,305.65,297.07,306.46,293.42Z"/><path class="cls-38" d="M347,287.66c5.09,12.29,15,16.33,24.85,10.11h-.14a2.09,2.09,0,0,1,2.9-.2c-.76,3.48-1.51,7-2.22,10.26-13.23,4.46-23.14.46-32.6-12.9C341.47,291.83,342.07,287.62,347,287.66Z"/><path class="cls-112" d="M358.7,210.74l-13.14,11.57a15,15,0,0,1-9.21-5.35l16.35-15.12c2.4-.9,1.5,3.49,3.76,2.85,7.05-1,6.34-11.06,13.74-11.51Z"/><path class="cls-113" d="M390.61,278.86c.49,1.47,1,2.93,1.46,4.39L343.52,260.7c1.24-3.35,2.37-6.42,3.5-9.49,14.24,4.25,27.07,11.39,39.55,19.25-2.94,2.22-5.56.4-8.1-.8-7-3.31-13.92-6.74-20.89-10.07-2.05-1-3.89-2.89-8.07-1.71C363.59,265.85,378.25,270.22,390.61,278.86Z"/><path class="cls-114" d="M322.53,303.77,334.41,310c2.69-.72,4.11-2.76,5.27-5.1,3.24-.86,4.7,1.27,6.44,4l-9.26,10.45c-5.78-1.34-10-4.51-14.45-7.08C320.28,309.43,319.69,306.58,322.53,303.77Z"/><path class="cls-15" d="M333.92,238.86c-4.26.24-7.2-1.23-10-2.94-4.83-10.17-4-12.58,5.44-14.4C333.43,226.58,334,232.5,333.92,238.86Z"/><path class="cls-115" d="M367.35,339.74c10.83-.34,20,5.32,30,8.84H376.08l-8.64-1.75C365.26,344.49,365.54,342.13,367.35,339.74Z"/><path class="cls-116" d="M347,287.66c-3.55,1.28-2.81,6.83-7.21,7.28-2.69-4.76-3.34-9.88-2.65-15.87,4.56.21,7.59-2.31,9.22-7,3.12.84,7.33.24,3.75,5.4-.46-1.61-1.55-3.15-2.21-.5C347,280.38,347.21,284.08,347,287.66Z"/><path class="cls-15" d="M370.08,282.17c.31-1.36.63-2.71,1-4.29A40.24,40.24,0,0,1,389,286.44c-1.23,3.05-2.32,5.76-3.26,8.11l-15.68-12.48Z"/><path class="cls-38" d="M428.38,320.87l-8.92-7.19-14.64-14,1.44-1.6,22,16.42C430.43,316.84,428.24,318.83,428.38,320.87Z"/><path class="cls-115" d="M288.92,302.16c2.8-5.34,8.46-6.41,13.2-8.85l2.57.33A9.82,9.82,0,0,1,302,302L290.62,308c-1.43.47-2.13-.37-2.67-1.49A4.53,4.53,0,0,1,288.92,302.16Z"/><path class="cls-15" d="M288.84,315.9c6.9-11.94,13.44-11.47,33.77,1.85C311.59,313.91,300.92,305.19,288.84,315.9Z"/><path class="cls-117" d="M302,302c.27-3-.59-6.32,2.7-8.31l1.77-.22c4.23,5.2,11.7,5.37,16.07,10.35l-.12,8.53c-6.26-2.63-12.49-5.31-17.41-10.23,4.47-2.56,7.4,2,11.26,2.21-3.79-.42-6.3-6.85-11.18-2.15Z"/><path class="cls-118" d="M288.92,306.33l1.7,1.7c-5.92,3.43-11.83,6.89-17.78,10.27-1.83,1-3.82,2.27-5.57-.24-.44-3.11-1.43-6.33,1.62-8.8l4.45.12c1.62,3.63,3.83,1.24,5.86.57C282.49,308.86,285,305.64,288.92,306.33Z"/><path class="cls-119" d="M268.89,309.26c-.4,3,1.17,6.28-1.62,8.8l-8.06-8.91c.22-2.53,2.2-3.23,3.6-4.43C265.76,305,267.13,307.4,268.89,309.26Z"/><path class="cls-120" d="M367.35,339.74l.09,7.09c-4,3-8.59.61-12.83,1.44l1.17-4.61C361.57,347.61,362.63,339.05,367.35,339.74Z"/><path class="cls-121" d="M481.61,300.61l2.1.34A161.4,161.4,0,0,1,459,318.29l-.56-.89C461.47,310.91,475.43,300.81,481.61,300.61Z"/><path class="cls-122" d="M249.86,334.08c1.55-7.4-3.73-12-7.14-17.36,2.65-.58,4.43.71,5.87,2.72C248.64,324.35,257.25,328.53,249.86,334.08Z"/><path class="cls-123" d="M362.89,316.76c-4,4.85-8.35,9.52-9,16.36-1.81-6.59,2.43-11.14,5.07-16.19Z"/><path class="cls-124" d="M336.92,347.08c4.13-3.87,6.59-10.05,13.64-10-4.47,3.07-8.95,6-10.49,11.62l-2.4,1.12C337.35,348.66,337.13,347.87,336.92,347.08Z"/><path class="cls-15" d="M388.73,297.9c3.09,1.58,5.17,3,5.57,5.9-1.95,1.9-4,1.17-5.94.65C385.3,302.17,387.32,300.34,388.73,297.9Z"/><path class="cls-15" d="M361.63,275c-3.49,1.16-5.59-1.18-8.05-3C359.51,269,360.37,269.27,361.63,275Z"/><path class="cls-125" d="M241,321.94c-2.29.72-2.75-1.77-4.25-2.42-.48-1.94-1-3.87-1.45-5.8,2.48-1.77,3.53-.06,4.69,1.3C240.36,317.33,240.69,319.63,241,321.94Z"/><path class="cls-126" d="M368.48,312.54c.1,1.32.19,2.64.28,3.95l-2.49,5.39c-2.63-1.47-1.32-3.63-1.81-5.27.2-1.14.4-2.27.68-3.8Z"/><path class="cls-121" d="M449.88,321.23c.62-1.58,1.23-3.17,1.85-4.76a10.71,10.71,0,0,1,6.89,1.38l.35.44C456.18,320,454.65,325.63,449.88,321.23Z"/><path class="cls-110" d="M374.57,297.58l-2.9.2,4.89-5.75,1.27,1Z"/><path class="cls-15" d="M281.36,318.81c-2.7,1.33-4,3-6.25,2.2C276,317.87,278,317.81,281.36,318.81Z"/><path class="cls-15" d="M338.78,259.49c2.58-.68,2.93.71,3.68,2C339.94,263,339.26,261.77,338.78,259.49Z"/><path class="cls-15" d="M394.81,293.57c.15-1.14.3-2.27.44-3.36,2.13-.1,2.56,1.2,3.44,2.83l-3.9.51Z"/><path class="cls-127" d="M335.25,148.19c4.68,8.51-.09,16.31-1.34,24.46L308.35,185.6c1.17,11.21,4.59,21.46,1,32.22-4.71-1.28-8.8-4.23-13.58,2.62-1.23-10.26-1.85-17.9-.11-25.24,1.67-7-.27-11.09-6.76-13.66-3.35-1.33-6.5-3.18-9.73-4.8-9.35-4.68-14.25-18.34-10.23-28.52,11.89,4.24,21.75,12.37,33.85,17.75Z"/><path class="cls-128" d="M257.11,173c.09-3-.26-6.12,1.58-8.84l3.55,15.2,24.11,12.35c-1.44,11.93-1.85,23.84.09,35.4-6,2.69-11.33-3.24-16.22,1-.11-2.32,1-4,2.81-5.53l7.52,1.13c1.78-3.73,1.94-7-.12-10.26-2.9-3.31-2.88-6.63-.06-10,2.5-3,1.06-6.37,1.22-9.64C273.35,186.7,257.28,189.05,257.11,173Z"/><path class="cls-129" d="M302.38,153.44v-68c3-.7,4.57,1.2,7,3.29-2.07,21.31-4.18,43.08-6.28,64.85Z"/><path class="cls-130" d="M299.67,85v42C295.45,118.37,294.65,89.09,299.67,85Z"/><path class="cls-24" d="M258.31,159.94c-4.93-4.79-4.89-10.31-2.41-16.19Q257.1,151.83,258.31,159.94Z"/><path class="cls-131" d="M265.5,145.7c-.42,2.39-.83,4.78-1.25,7.18C263.37,150.26,261,147.39,265.5,145.7Z"/><path class="cls-131" d="M264.47,155.56c2.07,2.28,1.33,5,1.13,7.61C264,160.82,264.3,158.18,264.47,155.56Z"/><path class="cls-109" d="M244,209.24l16.11,14.54-7.46,22.78-14.22-11.51C238.61,225.52,244.9,218.16,244,209.24Z"/><path class="cls-132" d="M216.83,232.71l-4.74-1.8c-3-3.29-3.05-7.58-3.25-11.51-.47-9.51-1.08-19.06.12-28.57,1.56-3.47-3.4-7,.08-10.45q1.61,3.62,3.22,7.23l2.64,7c1.9,1,2.31,2.55,1.89,4.49.84,2.4,1.69,4.81,2.53,7.22.15.83.29,1.66.44,2.49.44,1.4-.27,2.83.1,4.23.55,5,2.4,9.84,2.38,14.95a8.08,8.08,0,0,1-1.4,3Z"/><path class="cls-15" d="M280.37,203.5l.06,10c-1.24,2-1.54,4.66-4.27,5.43-8.83-7.47-9.88-21.41-1.69-25.46C278.23,195.67,279.29,199.59,280.37,203.5Z"/><path class="cls-71" d="M216.34,275.78l-.06-5.27c12-5.88,24-11.82,36.1-17.59,1.86-.89,4.07-1,6.12-1.5,0,1,0,1.91,0,2.87l.1-.09c-10.16,5.36-20.44,10.5-30.85,15.33C223.8,271.38,221.08,275.44,216.34,275.78Z"/><path class="cls-133" d="M218,212.23l1.76-3.4a61.29,61.29,0,0,1,6.59,17.54L220.84,231c.07-1.07.15-2.13.23-3.2C222.85,222.05,219.5,217.32,218,212.23Z"/><path class="cls-15" d="M276.28,237.16c-2.44,4.26-4.08,6.19-7.5,7.68C269,240.23,269.4,237.07,276.28,237.16Z"/><path class="cls-50" d="M263,278.81l-4.21,1.44c-.88-2.72-1.29-5.74-4.48-7C257.62,271.22,257.62,271.22,263,278.81Z"/><path class="cls-15" d="M242.42,274.3c2.31-3.66,4.91-2.55,8.56-2.2C248.4,275.49,246.43,277,242.42,274.3Z"/><path class="cls-15" d="M267.38,253.22c1.54,1.9.33,2.84-.48,3.91C265.33,255.85,265.59,254.68,267.38,253.22Z"/><path class="cls-134" d="M367.19,235.37q-2.83-10.14-5.68-20.27c.14-2.36-.13-4.72,1.64-6.81,7.92-9.35,12.9-20.47,18.91-33,2.23,10.43,1.15,19.66,4.28,28.16-.13,1.36-.25,2.71-.38,4.07a37.63,37.63,0,0,1-6.91,19.26C376,230.9,372.32,234.12,367.19,235.37Z"/><path class="cls-135" d="M390.72,242.55l12.88,5.94c-1.31,4.76-4.28,2.48-6.84,1.55-5.36-1.93-10.69-4-16.72-4.38l19.28,8.26c-3.31,4.4-6.64,6.84-11.71,4.7l-5.7,4.34-25.48-12.73c2.54-8.51,12.2-7.61,15.31-14.36C378.93,236.21,384,241.7,390.72,242.55Z"/><path class="cls-136" d="M415.33,277.48c-2.2,3.17-4.72,2.35-7.39.68-5.5-3.44-11-6.82-17.4-10.75l19.89-16,.88.88-2.84,4.7,20.37,11.55c-1.48,3.16-3.47,0-5.31,1.18l2.59,4.14c-1.58,3.57-4,3.54-6.75,2.38C418.23,277.26,417.15,278.56,415.33,277.48Z"/><path class="cls-137" d="M419.51,287.88a2,2,0,0,1-1.26-.57c1.27-6.05,7.52-7,10.56-10.7l28.69,20.1c-6-.28-9.92-.1-12.18,4.85-7.25-6.47-16.61-9-22.42-17.61C421.45,284,420.55,286.05,419.51,287.88Z"/><path class="cls-138" d="M390.61,278.86c-10.95-2.46-19.74-9.8-30.22-13.35-4.3-1.46-8.41-3.51-12.39-5.2-1.37-2.41-.79-4.37.66-6.93l37.91,17.07,1.22,1.33Z"/><path class="cls-137" d="M457.1,293.35l-21.49-15.58,1.68-2.38c8.44,3.43,14,11,21.35,16Z"/><path class="cls-121" d="M452,314l-1.69-3.38a115.23,115.23,0,0,0,26.08-17.21l1.86.32L479.3,296C470.91,303.08,463,311,452,314Z"/><path class="cls-139" d="M432.87,219.42h1.25c1.17,7.25-1.29,14.21-1.69,21.5-2.89,2.89-6,4.48-10,1.86.4-1.55.79-3.1,1.19-4.66,4.67.5,4.48-3.27,5.28-6.09C430.11,227.79,429.43,223,432.87,219.42Z"/><path class="cls-140" d="M379.05,226.77c.64-7,3.63-13.19,6.91-19.26a9.62,9.62,0,0,1,.56,10.6,7.83,7.83,0,0,0-2,9.68l-.84,2.85Z"/><path class="cls-141" d="M415.33,277.48l4-1.28v3.63C416.44,280.93,415.6,279.6,415.33,277.48Z"/><path class="cls-142" d="M453,301.48c-2.13.94-3.13.85-3.73-.57C451,297.17,451.91,298.48,453,301.48Z"/><path class="cls-143" d="M385.83,263c2-1.56,3-1.84,4.71-.34C389.47,265,388.45,265.51,385.83,263Z"/><path class="cls-144" d="M216.51,270.16l-2.85,1.52c-3.21,2.25-7.77,2.23-10.07,6l-2.9,1.63c-2.59-3.47-4.61.87-7.61.3-1.1-.95-2.67-2.32-4.34-3.79l-5.39,1c-5.65-.42-.34-8-8.75-7l21.79-12.43c1.66-2.47-2.63-3.15-1.44-6.14C201.87,258.21,210.83,262.22,216.51,270.16Z"/><path class="cls-145" d="M168.63,299.21,167,300.56c-2.41-2-4.45,0-6.93.84-2.17-3.43-4.43-7.09-9.94-5.56l23.37-17.49c-.78-2.67-2.58-3.6-4.91-3.82l0,0-4.86-6.09c7.38,4.62,16.21,7.86,17.38,18.73-4,2.1-6.45,6.64-11.33,8C167.61,295.81,167.81,297.49,168.63,299.21Z"/><path class="cls-100" d="M152.65,313.84c-.16,1.61-.32,3.23-.55,5.61L124.82,300.8l-2.39-2a3.6,3.6,0,0,1,4-2.6c8.65,3.27,14.71,10.61,22.91,14.59Z"/><path class="cls-145" d="M168.61,274.53c.9,1.74,1.94,3.56-.25,5.08a185.79,185.79,0,0,1-20.51,12.89c6.26-6.8,12.78-13.23,20.81-17.94Z"/><path class="cls-146" d="M45,391.51c-1.65,2.29-3.58,4.31-7.09,5-1.94-6-.61-11.8-.87-17.41,3.49-1.59,5.61-.19,8,1.79Z"/><path class="cls-147" d="M83.94,396.65v-18c3.55-1.24,5.81.54,8.51,1.78V394.6C90,397.25,87.36,396,83.94,396.65Z"/><path class="cls-148" d="M283.15,94.51l5.9-1.33v50.45c-8.76-1.92-14.09-8.85-21.61-11.36-2.59-5.75,1.69-10,3.6-14.57,3.11-7.4,7.82-14.08,10.6-21.69Z"/><path class="cls-90" d="M281.64,96c-.52,4-1,8-1.55,11.93-7.43,6.53-9.13,15.9-12.65,24.33l-9.45-5.5C266.49,116.39,267.93,101.72,281.64,96Z"/><path class="cls-149" d="M251.32,337c.43.44.86.88,1.28,1.33,0,1.33.76,2.92-1.69,3.86-2.41-3.15-5.21-6.16-6.11-10.38,3.11-1.49,3.39,1.68,5.07,2.17C250.35,335,250.84,336,251.32,337Z"/><path class="cls-150" d="M168.71,396.54c-6-1.27-1.61-6-2.93-8.82l5.82.47C174.61,393,171.74,394.79,168.71,396.54Z"/><path class="cls-151" d="M220.74,395.06c-.82,3.39.9,7.14-1.6,10.79l-7.71-1.61c-.32-2.83-.61-5.37-.9-7.91V375.2c3.86-1.54,6.49-.5,9.08.84,1.51,6.26-.54,12.75,1.16,19Z"/><path class="cls-31" d="M220.77,395c-2.17-6.22-.23-12.7-1.16-19C222.56,382.22,220.57,388.7,220.77,395Z"/><path class="cls-152" d="M360.48,102.24c5.58,1,5.62,1.75.42,9.7-2.92.12-3.95-2.08-5-4.21C358.43,106.77,359.33,104.4,360.48,102.24Z"/><path class="cls-138" d="M216.34,275.78c12.29-10.74,26.76-17.22,42.3-21.58-.1,1.9-.2,3.8-.32,6-15,5.66-29.19,12.73-43.25,20.08C214.28,278.45,215.42,277.15,216.34,275.78Z"/><path class="cls-20" d="M203.59,277.68c.93-6.06,6-5.15,10.07-6C211,274.88,207.42,276.48,203.59,277.68Z"/><path class="cls-153" d="M216.79,199.12l-1.89-4.49c0-1.9.11-3.8.16-5.7,3.52-9.37,0-19.27,2.11-29.64,2.9,4.36,4.33,8.49,3.58,12.74C219.17,181,221.61,190.61,216.79,199.12Z"/><path class="cls-154" d="M206.37,336.92,219.78,315l9.81,4c2.78,3.57-.06,7.79,2.81,10.67.34,1.61.68,3.22,1.16,5.42l-30.09,9.37C204.76,341.14,205.57,339,206.37,336.92Z"/><path class="cls-154" d="M200.48,342.62c-4.77-2.72-2.21-5.18.1-7.93s4.1-5.61,6.12-8.43l2.07,1.95L205,335.54Z"/><path class="cls-27" d="M234.24,326.41c0-1.75-1.09-3.82,1.93-5.05.34,1.89.65,3.62,1,5.34,1.36,3.61,2.65,7.26,5.87,9.8C236.89,336,237.29,329.63,234.24,326.41Z"/><path class="cls-153" d="M391.1,191.93l-3.3,8.79c-1.91-14-7.07-28,1.4-42,0,8.42-.1,16.84.06,25.26C389.31,186.69,388.1,189.85,391.1,191.93Z"/><path class="cls-155" d="M419.65,225.16c-1,3-1.75,6.16-3,9.09-1,2.42-2.28,1.74-3.18-.28C414.89,230.57,416.5,227.33,419.65,225.16Z"/><path class="cls-156" d="M190.69,230.4c2.14,2.17,1.62,4-1.11,6.54-1.92-4.77-3.62-9-5.42-13.42,3.11-.23,3.32,1.6,3.87,3.1C188.92,227.89,189.8,229.15,190.69,230.4Z"/><path class="cls-157" d="M250.32,108.88,244.54,113l-4.36-8.49c1.51-3.45,3.38-2.57,5.34-1.17.94,2.69,2.27,4.93,5.62,4.8A2.62,2.62,0,0,1,250.32,108.88Z"/><path class="cls-158" d="M396.59,192.1c1,12.29,2,24.58,2.89,35.65-1.66,3.82-4.25,2.87-6.14,3.6C393.08,218.16,394.88,205.13,396.59,192.1Z"/><path class="cls-159" d="M384.49,227.79c-3.62-3.9-3.62-3.9,1.33-13.35.28,1.44.49,2.55.7,3.67Q385.52,222.94,384.49,227.79Z"/><path class="cls-160" d="M432.87,219.42c-1.09,7-2.18,14.08-3.24,21-3.23,1.36-5.56,1.79-6-2.27Q428.22,223,432.77,208C435.88,211.75,432.16,215.6,432.87,219.42Z"/><path class="cls-161" d="M181.59,241.05c-1.88.06-3.85.86-6.54-1.59.78-9.48-5.16-19.27-2.21-30Q177.21,225.27,181.59,241.05Z"/><path class="cls-162" d="M154.15,255.7a5.45,5.45,0,0,1-5.54.88c-3.18-9.5-8.29-19-9-29.87Z"/><path class="cls-163" d="M153.18,237c2.2,2.18,4.49,4.28,6.58,6.57,1.73,1.91,4.14,4,.25,6.22C157.81,245.48,153.86,242.11,153.18,237Z"/><path class="cls-161" d="M464.48,227.94c3.45,4-1,6.88-1.73,10.18-1.43,6.21-3.8,12.2-5.73,18.13-2.92,1.2-5,1.16-5.69-2.15Z"/><path class="cls-164" d="M445.38,249.47c-3.34-3.51-.88-7.43,6.14-9.75Z"/><path class="cls-165" d="M244.13,91.7c2,4.59-2.39,4.06-4.81,6-1.12-4.88-2.13-9.1.84-13.25,4.24,1.34,1,5.8,4,7.21Z"/><path class="cls-129" d="M361.48,91.63c2.6-1.49,0-5.33,3.43-6.89C369,88.33,366.65,92.79,367,98c-3.11-2-7.35-1.3-5.58-6.32Z"/><path class="cls-166" d="M488.16,254.65c-1.3,8.85-8,14.77-11.34,22.06-2.87.72-4.42.08-5.08-2.22Q479.94,264.56,488.16,254.65Z"/><path class="cls-167" d="M133.62,276l-5,1.32c-3.3-7.57-10.18-13-10.74-21.66C123,262.57,129.79,268.11,133.62,276Z"/><path class="cls-168" d="M130.52,261.48C134,263,140.05,262,138,269Z"/><path class="cls-33" d="M335.53,30.88c6.65,6.09,7.32,16.75,0,20.31V30.88Z"/><path class="cls-158" d="M209,190.83q1.57,20,3.13,40.08c-1.86,0-3.83.57-5.88-1.75C206.87,216.74,205.39,203.64,209,190.83Z"/><path class="cls-169" d="M499.43,402.17v11.46c-2.34,3.27-4.08,5.8-8.85,7.23V378.65a26,26,0,0,1,12.39-.37c.54,3.24-3.39,3.38-3.54,4.69Z"/><path class="cls-170" d="M522.71,400.72v12.33c-5.11,1.79-9.4.68-13.8,0,.08-3.47,3.4-3.65,5.26-7.41v-26.5c4.25-.33,5,4.05,8.54,5.5Z"/><path class="cls-171" d="M374.56,326.78c2.91-2,.41-5,1.37-7.67l9-3.7c6.88,1.38,3.91,12.74,12.55,11,2.85,3.09,5.72,6,8.33,9.12,2,2.42,4.52,5.18-.63,7.08-2.74-4.8-3,1.39-5.16,1-8.49-3-18-4.51-26-8.72C372.31,331.67,374.73,329.37,374.56,326.78Z"/><path class="cls-123" d="M370.29,321c.47,1.43.94,2.87,1.42,4.31-1.36,2.69-2.6,5.43-4.1,8-1.73,3-3.68,5.92-7.44,2.14l-.06.06C368.2,333.93,366.93,325.82,370.29,321Z"/><path class="cls-172" d="M360.17,335.44c-2.18,2.28-4.35,4.57-7.53,7.91.28-6.19,3.55-8.9,6.82-13.68.36,3.2.51,4.51.65,5.83Z"/><path class="cls-173" d="M452,314c9.43-5.53,17-13.83,27.34-18,2.48.69,3.33,2.2,2.31,4.63-8.26,5-16.25,10.27-23,17.25l-4.56,1.54-2.33-2.93C451.81,315.65,451.88,314.82,452,314Z"/><path class="cls-15" d="M319.47,255.59c-5.42,4.21-9.59,9.94-15.88,13.1-1.69-6.79-.25-13.71-.77-20.55-.21-2.8.8-5.71-.76-8.38v-12l2-.26c1.09,5,2.17,10.09,3.17,14.72,2.63,2.79,5.92,1.17,8.69,2.43C319.63,247.37,319.64,251.45,319.47,255.59Z"/><path class="cls-174" d="M325.45,274.62c2.39,9.7,4.78,19.41,7.53,30.6L306.48,289c2.47-8.08,10.8-10.51,15.79-16.18C323.54,271.42,324.66,273.47,325.45,274.62Z"/><path class="cls-175" d="M299.12,289l-12.87,7.23c.63-5.61,1.25-11.22,1.95-17.58C294.09,280.77,297.63,283.77,299.12,289Z"/><path class="cls-105" d="M302.06,239.76c3.44,9.49.55,19.31,1.53,28.94C300.28,259.2,303.06,249.38,302.06,239.76Z"/><path class="cls-176" d="M288.92,306.33A60.72,60.72,0,0,1,272.71,315c-1.8-2.43-.13-3.94.63-5.6l15.58-7.22Z"/><path class="cls-177" d="M305.08,302.13c-.63-1.66-2.4-3.16-.14-6,5.29,3.81,13.15,4,17.81,13.44L305,302.07Z"/><path class="cls-178" d="M218,212.23c2.09,5,9,9,3.07,15.56Q219.54,220,218,212.23Z"/></g></g></g></svg>