<svg xmlns="http://www.w3.org/2000/svg" viewBox="0 0 655.28 559.65"><defs><style>.cls-1{fill:#fdfcfc;}.cls-2{fill:#8a191a;}.cls-3{fill:#e6c5c6;}.cls-4{fill:#ed1e2c;}.cls-5{fill:#ef3d55;}.cls-6{fill:#e5e5e5;}.cls-7{fill:#4da3c1;}.cls-8{fill:#4ea5c3;}.cls-9{fill:#59bbde;}.cls-10{fill:#ef3c54;}.cls-11{fill:#eb1e2d;}.cls-12{fill:#4da0bc;}.cls-13{fill:#5dbee1;}.cls-14{fill:#ee3d54;}.cls-15{fill:#4ea4c2;}.cls-16{fill:#4ea1be;}.cls-17{fill:#5abddf;}.cls-18{fill:#5bc0e3;}.cls-19{fill:#ee3951;}.cls-20{fill:#58bcdf;}.cls-21{fill:#5cc2e6;}.cls-22{fill:#ee3c53;}.cls-23{fill:#5bbfe2;}.cls-24{fill:#faf4f4;}.cls-25{fill:#5dc2e5;}.cls-26{fill:#59bcdf;}.cls-27{fill:#4da2bf;}.cls-28{fill:#e91e2c;}.cls-29{fill:#4d9fbb;}.cls-30{fill:#5fc3e6;}.cls-31{fill:#5fc3e7;}.cls-32{fill:#60c1e4;}.cls-33{fill:#f9e7e7;}.cls-34{fill:#4ca0bd;}.cls-35{fill:#50a9c7;}.cls-36{fill:#ee3e55;}.cls-37{fill:#882325;}.cls-38{fill:#62bee0;}.cls-39{fill:#ee3a52;}.cls-40{fill:#ed374f;}.cls-41{fill:#891e20;}.cls-42{fill:#ed3951;}.cls-43{fill:#51a8c6;}.cls-44{fill:#51a5c3;}.cls-45{fill:#f9e1e2;}.cls-46{fill:#62bddf;}.cls-47{fill:#5dbbdc;}.cls-48{fill:#e61f2e;}.cls-49{fill:#f8e5e5;}.cls-50{fill:#4f9bb7;}.cls-51{fill:#ee3a51;}.cls-52{fill:#5798b2;}.cls-53{fill:#842f3b;}.cls-54{fill:#e9354b;}.cls-55{fill:#5fbfe2;}.cls-56{fill:#e11f2a;}.cls-57{fill:#833644;}.cls-58{fill:#ed344c;}.cls-59{fill:#f4bec1;}.cls-60{fill:#e2374a;}.cls-61{fill:#f4ddde;}.cls-62{fill:#e03548;}.cls-63{fill:#f2cdce;}.cls-64{fill:#edc5c6;}.cls-65{fill:#e3394b;}.cls-66{fill:#e13446;}.cls-67{fill:#e23c4c;}.cls-68{fill:#db3947;}.cls-69{fill:#eaacb1;}.cls-70{fill:#794f60;}.cls-71{fill:#eacfcf;}.cls-72{fill:#f8d6d9;}.cls-73{fill:#f7cccf;}.cls-74{fill:#f5d4d6;}.cls-75{fill:#f6d2d5;}.cls-76{fill:#f2cccf;}.cls-77{fill:#f6d3d6;}.cls-78{fill:#901b1d;}.cls-79{fill:#e81f2f;}.cls-80{fill:#ac1e25;}.cls-81{fill:#843945;}.cls-82{fill:#833c46;}.cls-83{fill:#86292c;}.cls-84{fill:#82404a;}.cls-85{fill:#863c45;}.cls-86{fill:#862b35;}.cls-87{fill:#88252b;}.cls-88{fill:#862e38;}.cls-89{fill:#88292d;}.cls-90{fill:#eedadb;}</style></defs><g id="Layer_2" data-name="Layer 2"><g id="Layer_1-2" data-name="Layer 1"><g id="TsIVfR.tif"><path class="cls-1" d="M595.41,461.94c-10.33-1.49-20.91,2.21-31.88,4.86-10.82,2.62-21.75,6.89-33.4,4.44a8,8,0,0,0-4.55.43c-10.65,4.56-22,5.32-33.29,6.12-.25,0-.56-.06-.76.06-10.4,5.93-22.79,3.83-33.56,8.28-1.19.49-2.47,1.24-3.67,1.16-11.76-.72-22.58,4.15-34,5.55-2,.26-4.1,0-6,1-4.92,2.64-10.3,3.31-15.77,3.15a10.74,10.74,0,0,0-7.69,2.86,433,433,0,0,1-48.31,34.84c-6.95,4.35-14.26,4.53-21.46,1.58-9.54-3.91-19-8.07-27.63-13.89-3.14-2.13-5.06-1.77-7.92.77-8.37,7.42-17.95,7.44-26.62.24-2.47-2-4.5-2-7.57-1.89-12.37.62-24.07,6.1-36.66,4.8a13.67,13.67,0,0,0-6.73,1.48c-9.39,4-19.39,4.95-29.44,5.56-2.05.13-4.12-.08-6,1-7.87,4.59-16.83,4.84-25.46,5.75-5.67.61-11.13,2.31-16.67,2.71-9.36.69-18.11,3.46-27,6-5.78,1.64-11.84,1.69-17.64,1.9-8.89.31-17,3.89-25.84,4.32-4.72.23-9.23,3-14.09,3.86-15,2.63-27.77-2-37.76-13-8.48-9.37-10.35-20.56-5.11-32.42a21.41,21.41,0,0,0,2-11.79c-2.58-22.21,8.57-37.46,26.38-48.7,8.4-5.3,17.51-8.58,27.8-8.17,7,.28,13.53-3,20.17-4.93a45.66,45.66,0,0,1,14.43-2.22,27,27,0,0,0,9.89-1.35c3.39-1.14,7.1-2.25,10.58-2,9.59.68,18.31-2.51,27.14-5.2A47.47,47.47,0,0,1,158,426.67a21.81,21.81,0,0,0,4.64-.18c4-.66,4.85-1.78,3.57-5.61a90.66,90.66,0,0,1-4.75-23.45c-.13-2.45-1.63-4.84-2.63-7.21-4.26-10.1-6.94-20.56-6.71-31.57.08-4.09-1.31-7.57-3-11.07a384.54,384.54,0,0,1-22.54-60.08,415,415,0,0,1-11.58-53.67,340.3,340.3,0,0,1-3.5-36.2c-.36-9.11,3.66-15.19,10.6-20.17a355.47,355.47,0,0,1,99.92-50.14c5.85-1.87,5.83-1.84,4.87-7.78-2.25-14-4.52-28-6.66-42a12.29,12.29,0,0,0-3.19-6.84c-7.6-8.22-8.47-27.63-.82-37.72,9-11.88,23.58-17.4,36.93-12.36,4.72,1.78,7,1.12,10.05-2.76,10.35-13.25,30.32-14.63,41.3-7.1,3.23,2.22,5.17,1.92,7.74-1C321.5-.85,333.7-.38,346,1.45a16.32,16.32,0,0,1,9.91,5.7c2,2.39,3.59,2.52,6.35.36,13.62-10.67,31.29-9.92,43.49,1.93,3,3,5.22,2.79,8.63,1,14.88-7.63,29.22-5.11,40.64,7.35,3.13,3.4,5.34,4.58,10.2,2.78,14-5.21,28.27.06,37.39,12.77,7.28,10.14,6.76,27.08-1.64,37.64-3.56,4.47-3.21,9.75-4.12,14.66-2.88,15.73-5.1,31.57-7.72,47.35-.37,2.27-.21,3.84,1.71,5.39,8,6.48,15.84,13.19,26.31,15.74a59,59,0,0,0,11.5,1.26c16.21.71,24.58,12.73,19.69,28.32-.53,1.71-1.3,3.25-1.13,5.19,1.78,20.8-1.85,41.14-5.57,61.43a393.6,393.6,0,0,1-30.2,94.89c-2.71,5.85-5.71,11.57-8.47,17.41-1.13,2.38-.14,3.42,2.36,2.73,9.21-2.5,18.92-2.68,28-5.93,4.21-1.5,8.59-1.47,13-1.88,10.23-1,20.48-2.26,30.3-5.33,6.83-2.14,13.94-1.19,20.61-2.65s13.08-3.93,20.21-4.34c20.78-1.21,42.79,17.61,37,46.66-.92,4.64-.89,9.17-1.33,13.76-2.23,23.21-13,41-33.81,52.07C612.26,461.43,604.41,462.07,595.41,461.94Z"/><path class="cls-2" d="M266.84,33.75c4.68-12.26,13.79-18.26,24.77-16.32s18.07,10.73,17.92,21.91c0,2-.74,4.19-.27,6.09.57,2.36,2.44,4.28,5.18,3.18,2.2-.89,4.06-2.63,2.55-5.46a25.76,25.76,0,0,1-2.87-11.1c-.56-9.81,9.75-20.52,20.46-21A21.72,21.72,0,0,1,356.52,38.4c-.43,1.66-1.79,3.26,0,5a4.22,4.22,0,0,0,5,.85c2.11-1,1.81-2.85,1.17-4.66C360.39,33,361.31,26.82,364.84,21c6.55-10.78,16.44-11.58,27.17-8.2,10.08,3.16,15,15.35,12,25.56-.52,1.72-1.48,3.32-1.93,5.05-.65,2.51,1.6,5.61,4,5.41s3.57-1.75,3.34-4.27c-.2-2.05-.26-4.12-.42-6.18-.71-8.65,6.15-16.85,12.76-19.48a21.91,21.91,0,0,1,24.8,5.6A21.67,21.67,0,0,1,450,47.65c-.76,1.64-1.91,3.11-2.55,4.78a4.38,4.38,0,0,0,3.3,5.87c1.64.38,3.18,0,3.28-2.09.09-1.8-.15-3.61-.09-5.41.36-10.45,6.67-18.19,16.7-20.55,9.2-2.17,18.7,2.2,23.78,10.6,3.08,5.09,3.33,19.74-2.44,24-2.91,2.15-3.69,5.24-4.24,8.73-3.18,20.09-6.46,40.18-10.05,60.2-1,5.6.34,9.31,5.15,12.32,3.46,2.18,6.49,5.05,9.67,7.68a54.45,54.45,0,0,0,34.09,12.64c4.68.13,9,.47,11.19,5,2.14,4.38,1,8.62-2.08,12.24-1.87,2.22-2.76,4-.39,6.61s1.94,6.35,1.72,9.66a404.79,404.79,0,0,1-18.15,95.44,407.79,407.79,0,0,1-36.5,81.74c-.62,1.06-2,2.18-1.06,3.33s2.35.32,3.61,0c13-2.94,26.17-5.27,39.38-7.28a53.26,53.26,0,0,0,7.45-2c5.94-1.84,12-3.51,18.23-2.54,3.88.61,6.93-1.71,10.47-2.18,8.4-1.1,16.62-3.13,24.9-4.79,8.64-1.73,17.35-3,26-4.9,15.11-3.35,26.39,3.27,31.52,17a27.09,27.09,0,0,1,.35,16.77,25.71,25.71,0,0,0-1.07,8.27c.87,18.1-6.54,32.74-19.88,44.27-9.14,7.9-20.52,9.26-32.09,7.24-3.19-.56-5.85-1-8.87.4a18.35,18.35,0,0,1-9.71,2.14,5.16,5.16,0,0,0-3,.33c-7,4.58-15.44,3.58-22.88,6.35a22.65,22.65,0,0,1-12.23,1A22,22,0,0,0,520,462c-8.4,3.75-17.54,3.74-26.43,4.76-3.89.44-7.65.7-11.11,2.67-2.74,1.57-5.8,2.85-8.84,2.51-7.27-.82-13.66,2-20.2,4.23-2.79.93-5.81,1.89-8.28.9-4.67-1.86-8.42-.33-12.43,1.52-5.2,2.39-10.6,4-16.47,3.56a7,7,0,0,0-3.75.66c-5.65,3.15-11.77,3.84-18,3.36-3.84-.29-6.34,1.79-8.89,3.92a490.75,490.75,0,0,1-46.23,33.68c-6,3.89-11.12,4-17.3,1.14-10.76-5-21.5-10-31-17.33-2.74-2.12-4.65-2.47-6.79.89a31.81,31.81,0,0,1-6.19,6.87c-4.12,3.51-9.59,3.73-12.29-.61-3.76-6.05-8.95-5.63-14-4.42-8.5,2-17.24,3-25.75,4.23-10.9,1.61-21.81,2.21-32.28,6.27-3.69,1.43-8.21,1.33-12.17,1.36-7.21.05-13.44,2.57-20.06,4.63-6,1.88-12.63,2.21-19,2.73-3.61.3-7.14.28-10.54,1.88a12.71,12.71,0,0,1-6,1.38c-8-.57-15,2.91-22.38,4.68-8,1.9-16.27,2.38-24.46,3.07-3.62.3-7.1.51-10.55,1.89a17.61,17.61,0,0,1-8.3,1.59c-2.92-.3-5.47.76-8.17,1.82-11,4.33-21.51,3.94-31.59-3.13-8-5.63-12.1-17.49-7.13-25.88a21.68,21.68,0,0,0,2.51-16.71c-2.62-12,2.92-22.3,11.62-30.43,9.48-8.85,20.39-14.57,34.06-14.05,7.51.29,14.37-3.61,21.6-5.35,2.48-.59,5-2,7.46-1.64,12.51,1.65,24-5.16,36.61-4,5.93.52,12.27-3.27,18.39-5.21,2.71-.85,5.5-2.34,8.24-1.72,9.14,2.08,17-3.24,25.67-3.86,2.92-.21,2.36-2.3,1.81-4-1.69-5.13-3.36-10.29-5.43-15.27A38.51,38.51,0,0,1,173,401c-.18-5.58-1.87-10.54-4.08-15.53-3.68-8.34-6-17.13-5.84-26.24.16-6.49-1.86-12.08-4.49-17.7A384.56,384.56,0,0,1,133,267.94a475.18,475.18,0,0,1-10.45-63.22c-.93-9.27,1.51-15.42,9.92-21.21A356.69,356.69,0,0,1,234,135.22c6.79-2,6.74-2.11,5.6-9-2.95-17.79-5.93-35.57-8.76-53.38A11.42,11.42,0,0,0,227.52,66c-9.5-9.35-8.51-29,9.75-35.49,7.68-2.71,17.44.62,23.39,8,1.13,1.4,2,3,3,4.46,2.05,1.86,2.17,4.49,2.79,6.93.35,1.4.27,4.24,1,3.93,1.7-.69.38-2.64-.15-3.91C265.12,44.61,265.45,39.21,266.84,33.75Z"/><path class="cls-3" d="M266.84,33.75c-.3,6.45,0,12.69,4.09,18.23,1.66,2.25.38,4.36-1.67,5.9a3.39,3.39,0,0,1-3.61.36,2.52,2.52,0,0,1-1.43-3.19c1.87-4.15-1-8-.51-12,2.25-1,1.26-3,1.46-4.69S264.54,34.65,266.84,33.75Z"/><path class="cls-4" d="M196.92,364.22c0-.51.1-1,.09-1.52,0-.93,1.43-1.82.43-2.63s-1.92.13-2.5.91c-2.41,3.17-4.74,6.41-7.1,9.63-6.05-9.81-5.41-28,1.3-37.39,2.92,1.34,4.6,4.08,6.87,6.14,2.52,2.27,5.07,4.51,8.64,4.65,4.37.17,5,2.88,4.6,6.35a28.63,28.63,0,0,1-.71,3c-1.67,7.44-1.1,8.29,6.07,5.66,4.15-1.52,4.58,1,5.21,3.25.89,3.17.39,6.55,1.67,9.81a31,31,0,0,0,4.33,8.08c2.41,3.07,3.22,3,5.11-.65,2.28-4.36,2.31-4.39,5.83-1.23a104,104,0,0,0,15.69,11.07c2.35,1.43,3.08.79,3.53-1.66.55-3,1.41-5.91,2.13-8.87,2.95.81,5.94,1.47,8.83,2.46,6.37,2.17,12.81,3.68,19.61,3.14,1.5-.13,3.46.57,4.35-.81,1.05-1.61-.72-2.73-1.67-3.88-.33-.4-.7-.76-1-1.17-1.54-2-1.41-3.22,1.39-3.53a73.64,73.64,0,0,0,19.3-4.6c1.19-.47,2.36-1,3.56-1.4,3.21-1.08,4.19-2.41,1.37-5.32a39.62,39.62,0,0,1-5.27-7.54c-2.05-3.47-1.74-5.25,1.75-5.59,4.55-.45,4.7-2.82,4.63-6.21-.16-6.7,1.74-13.13,2.79-19.68.93-5.77,4-9.29,9-11.54,10-4.55,20.19-8.81,30.15-13.52,8.36-3.95,16.57-8.19,23-15.16,4-4.35,6.42-9.18,6.33-15.22-.14-9.47.94-19-3-28.15a120.18,120.18,0,0,0-6.43-12.21c-2.09-3.66-1.72-4.19,2.55-4.39,18-.86,33.58,5.72,48,15.69.84.58,1.47,1.49,2.33,2,.58.36,1.59.71,2.05.45,1.21-.71.55-1.71,0-2.61-5.1-8.41-12.6-14.22-21.23-18.44a75.47,75.47,0,0,0-18.77-6.49,5.76,5.76,0,0,1-2.81-1.08c-2.43-2.24-6.88-4.8-6.13-7.22s5.26.06,8.17.43c19.42,2.49,36.71,10.71,53.85,19.45,1.74.88,4.2,3.24,5.28,1.9s-1.7-3.13-3-4.34c-2.85-2.56-3.5-4.38-1.18-8.28,4.31-7.22,6.39-15.55,8.34-23.74,1.39-5.88-1.06-11.17-4.17-16A118.55,118.55,0,0,0,440.81,164c-1.88-2.2-2.34-3.8,0-5.78,1-.83,1.81-1.85,2.71-2.77,1.63-1.67.75-3-.93-3.4-11.28-2.71-22.74-4.56-34.3-3.19-3.87.46-7.49,3.23-11.16,5-2.31,1.15-4.49,2.48-7.24,2.33-8.49-.48-16.12,2.4-23.5,6.16a16.22,16.22,0,0,1-8.18,1.71c-6.19-.21-12.4-.15-18.6-.2,2.84-10.56,10.52-18,16.81-26.37-.33-.88,2.19-3.08,0-2.42-10.27,3.13-20.68,6.3-28.25,14.72a14.59,14.59,0,0,1-8.47,5A95.1,95.1,0,0,0,293,164c-4.7,2.44-6.26,2-8.74-2.35-1.62-2.85-3.66-5.64-3.65-9.2,0-1.37-.53-3-1.83-3.05-1.87-.11-1.59,2.16-2.42,3.28-.27.36-.15,1-.3,1.49-.46,1.44,1,4.06-1.33,4.14-1.84.07-2.33-2.67-2.76-4.26-1.43-5.3-.49-10.77-.64-16.17,0-.82.66-2.21-.9-2.3-.55,0-1.32.74-1.71,1.32-7.35,10.91-8.74,15.35-2,27.35a74.8,74.8,0,0,0,4.84,7.85c2.16,2.92,1.16,4.67-1.62,6.11-6.79-5.47-10.91-12.84-14.41-20.6a13.53,13.53,0,0,1,.7-12.61c10.27-18.74,25.79-31.8,44.61-41.27,2-1,4.27-2.07,6.47-.14-.67,5.91-4.64,10.56-6.12,16.15-.26,1-.69,2.2.14,2.86s1.61-.56,2.4-1c2.67-1.39,5.36-2.74,8-4.11,2.19.56,4-.53,5.85-1.38a108.15,108.15,0,0,1,47.71-10.28,75,75,0,0,0,11.49-1c2.81-.37,5.68-.62,7.88,1.82-1.83,4-5.82,4.85-9.41,6a46.19,46.19,0,0,0-15.24,8.66c-.49.4-.64,1.23-.94,1.85.74.11,1.57.48,2.2.27,3.87-1.29,7.84-2.24,11.72-3.43,21.49-6.63,41.08-2.31,59.89,9,12.36,7.47,23.38,16.65,34.44,25.75,12.3,10.1,24.56,20.13,39.49,26.2,1.24.5,2.83,1.09,2.62,2.35-.12.79-1.89,1.66-3,1.88-4.25.81-8.35,2.36-12.82,2.16-4.89-.23-9.81,0-14.71,0a7,7,0,0,0-2,.62c.4.61.65,1.5,1.21,1.8a31.17,31.17,0,0,0,14,3.61c4.64.1,9.29-.05,13.94,0,9.12.07,14.47,5.49,13.32,14.47-1.92,15.17-3.34,30.44-7.29,45.27-.64,2.4.84,5.3-1.69,7.23-8.83-17.19-23.61-27.66-40.43-35.83a8.33,8.33,0,0,0-2.15-.78c-1.14-.07-1,.91-.69,1.5,2.6,4.71,5.07,9.52,8,14.06a107.91,107.91,0,0,1,12,27.2,9.74,9.74,0,0,0,.58,1.43c1,2.21,1.51,6,.29,6.44-2.18.79-3.11-2.48-4.58-4.1-8-8.8-16.05-17.5-25.75-24.48-.83-.6-1.79-1.36-2.65-.28s.06,1.85.67,2.67c9,12.26,16.11,25.63,22.42,39.43a159.29,159.29,0,0,1,10.74,32.67,12.86,12.86,0,0,1-.85,8.76c-4.29,8.72-8,17.75-13.27,26-5.79-7.89-8.5-17.43-14.15-25.5-9.52-13.62-20.13-26-34.06-35.25-.66-.38-1.33-.74-2-1.15s-1.51-1.35-1.86-1.18c-1.27.6-.48,1.54,0,2.4,3.55,7.1,7.41,14.06,10.53,21.34,7,16.47,12.7,33.38,15.11,51.25.75,5.56,2.18,11,2.84,16.6.57,4.83-.28,5.68-5,5.15a35.47,35.47,0,0,0-17.2,2.13,20.15,20.15,0,0,1-7.54,1.11c-3.1,0-6.17,0-9.05,1.41-3-3.27-4-7.69-6.37-11.32-2.09-3.21-4-6.29-8-7.88-6.31-2.54-6.19-10.23-10.53-14.48-2.09-1.26-1.65-4.27-3.82-5.47-1.18,2.37-.72,4.88-.32,7.26a197.55,197.55,0,0,1,2.85,32.11c0,2.41.16,4.61-3.39,4.7-8.88.25-16.14,4.6-22.82,9.9-2.37,1.88-3.73,2.71-6.37.29-4.47-4.07-9.89-4.92-15.79-3.25-7.86,2.23-15.66,5-24.08,4a4.81,4.81,0,0,0-2.3.16c-14.11,5.67-29.35,6.53-44,9.66-10.56,2.26-21.7,2.29-32.31,5.38a8.26,8.26,0,0,1-7.41-.95c-2-1.52-.31-4.34-2.37-5.68-1.13,2-.12,4.62-2.21,6.37-2.69,2.24-5.94,2.77-9.16,3.5a210.07,210.07,0,0,0-9.43-21.47c-1,.06-2.5-2.25-2.77.06a115.06,115.06,0,0,0-.26,12.19c-3.82-.3-3.82-3.67-4.7-6.12-5.09-14.21-4.58-28.55-.58-42.89C196.77,367.7,197.39,366,196.92,364.22Z"/><path class="cls-5" d="M245,239.64c.62-1.31,2-2.3,1-4.16-1.15-2.27-1.94-4.73-2.87-7.11-1.91-4.91-1.88-4.7-7.2-3.93-3.78.55-7.66,0-11.38,1.49-4.16,1.66-4.35,1.75-2.32,6a21.77,21.77,0,0,0,3.28,5.18c4,4.47,3.92,4.54-2.29,8-8.59-8.31-8.82-20.63-.36-28.35a72.59,72.59,0,0,1,7.6-6.52,6.37,6.37,0,0,0,3.08-5c1.23-12.79,8.16-22.31,17.72-30.26,3.36,3.15,6.75,6.28,10.08,9.46,5.89,5.62,6,5.84,12.56.63a138.47,138.47,0,0,1,31.62-18.69c1.17-.51,2.33-1.08,3.49-1.62,1.94-.9,4.45-1.6,5.87-.44,1.72,1.4-.27,3.62-.71,5.42-1.26,5.08-.8,5.89,4.67,5.08,6.3-.93,12.52-2.37,18.78-3.58a24.44,24.44,0,0,1,4.5-.8c2.48,0,6.38-1.2,7.12.58.93,2.22-2.79,3.77-4.35,5.72-.65.8-1.49,1.44-2.13,2.24-1.27,1.58-.48,2.21,1.18,2.17a92.86,92.86,0,0,1,17.62,1.36c2.47.4,3.23,1.27,1.64,3.49a30.44,30.44,0,0,0-3.37,5.13c-1.71,3.87-4.71,5.79-8.63,6.76-1.06.26-3-.31-3,1.37,0,1.37,1.63,1.74,2.83,2.23,5.91,2.44,11.86,4.78,17.64,7.49,2.67,1.24,7.64,2.15,7.16,4.59-.61,3.1-5.22,1.09-8.05,1.52-2.52.38-5,.34-7.5,1.39-3.54,1.49-1.17,3.13-.55,4.81,8.32,13.34,7.63,28.06,6.22,42.77-.43,4.52-4.57,6.65-8.18,8.71-8.61,4.91-17.88,8.91-27.55,9.91-10.84,1.12-20.13,6.65-30.58,8.46-1.33.23-1.31,2-.56,3.26.54,2.87-.49,4.65-3,6.35a51.26,51.26,0,0,1-19.89,7.68c-1,.18-2.27.61-2.32,1.68-.1,2.14,1.83,1.26,2.74,1.23,6.39-.19,12.83,1.07,19.18-1.08,2.9-1,4.21.83,3.44,3.94s-3.27,4.46-5.95,5.53a60.06,60.06,0,0,1-21.75,4.13c-.71,0-2.12-.73-2.12.84,0,.42,1.1,1,1.79,1.2,5.13,1.65,10.3,3,15.78,2.76,1-.05,2.1-.11,2.61,1.09s-.46,1.87-1.07,2.63c-3.5,4.39-7.16,6-13.29,4.07-12.67-4-25.76-6.71-39.2-6.51-3.64.06-5.88-1.17-7.28-4.39-.93-2.12-2.12-4.13-2.93-6.28-1.71-4.56-1.67-8.79,1.39-13.09,3.22-4.53,6.81-8.36,12-10.53a14.87,14.87,0,0,0,8.6-8.37c1.36-3.45,4.64-6.42,2.88-10.72-3.06,1.38-5.52,3.69-8.31,5.46-12.38,7.81-25.83,12.28-40.63,12.21a14.25,14.25,0,0,1-6.69-1.55c-.47-6.25,3.81-10.44,7-14.79A140.17,140.17,0,0,1,230.16,250C234.8,246.07,240.89,244.26,245,239.64Z"/><path class="cls-6" d="M139.63,203.57c-.61-2.2.84-4.28,3.45-6.09,28.68-19.76,59.44-35.15,93-44.74,5.08-1.45,5.88-.79,6.63,4a3.12,3.12,0,0,1-1.12,3.38,22.15,22.15,0,0,1-3.89,2.53c-9.88,4.33-13.23,12.43-12.91,22.5.15,4.78-1.3,9-2.86,13.39a37,37,0,0,1-11.37,16.94c-4,3.35-5.52,8-4.37,13.25a15.67,15.67,0,0,0,.49,3c3.89,8.67,2.51,16.74-1.77,25-1.9,3.66-3.45,7.3-6.38,10.36-5.89,6.18-11.23,12.81-14.5,20.86-1.09,2.69-2.05,5.37-.43,8.15,1,1.77.53,3.39,0,5.18-1.75,6.26-3,12.55-.79,19a5.83,5.83,0,0,1-1.07,5.82c-1.13,1.39-1.85,3.11-2.9,4.57-1.4,1.93-1,6-3.67,5.73-2.13-.23-2.65-4.05-3.66-6.37a399.69,399.69,0,0,1-27.29-90.92C142.23,227.69,141,216.16,139.63,203.57Z"/><path class="cls-5" d="M400,109.69c-1.29,0-2.59.07-3.87,0-1.62-.12-2.27-1-1.66-2.59,1.23-3.1,2.69-6.12,3.75-9.28,1.32-4-.05-5.73-3.91-4.86-10.09,2.27-20.44,2.15-30.61,2.53-15.67.58-30.5,3.34-44.46,10.54-1.19.62-2.65,2.35-3.92,1s.19-2.86.85-4.23c1.89-3.94,3.74-7.9,5.65-11.83,1-1.95.31-3-1.77-2.93a24.8,24.8,0,0,0-6.1.65,118.78,118.78,0,0,0-34.24,15.44,23,23,0,0,1-3.16,2.2c-1.63.73-3.08.38-3.42-1.67-1.47-8.83-2.87-17.66-4.33-26.48-.38-2.28.84-3.44,2.77-3.89,10.19-2.36,14.64-9.51,16.37-19.14.27-1.51-.14-3.9,2.53-4.16,2.17-.21,3.35,1.06,4.12,2.82,1,2.2,2.83,3.64,4.33,5.4,8.79,10.25,28.58,7.67,34.38-8.46.34-.94.14-2.07.39-3.06a3.42,3.42,0,0,1,3.12-2.93c2-.19,2.43,1.08,3,2.71a20.61,20.61,0,0,0,10.52,11.77c10.05,5.17,21.51,1.67,27.24-8.15,1.33-2.26,1.29-6.36,4.8-6.2s2.85,4.28,3.88,6.62c4.09,9.28,10.69,14.25,21.1,13.42,1.29-.1,2.58-.11,3.87-.12,1.83,0,2.76.51,2.38,2.73-2.07,12.09-3.91,24.23-6,36.32C406.44,109.93,406.24,109.89,400,109.69Z"/><path class="cls-5" d="M253.19,367c-2.89.83-1.58,3.19-1.9,5s1.31,4.74-2,5.65c-4.15-8.37-11.07-14.65-16.73-21.86-2-2.58-4.92-4.22-4.73-8.11.11-2.18-1.4-3-3.58-2.89-2.67.18-3.46-1.66-3.75-3.89,7-4.34,14.19-5.16,22.49-3.79,12.38,2.06,24.66,4.22,36.75,7.66,5,1.43,9.41-1.55,13.3-4.53a49.61,49.61,0,0,0,5.55-5.4c1.86-1.95,4-2.46,6.27-1.11s3.92,3.21,3.62,6.27c-.27,2.84-2.08,3.95-4.44,4.63-1,.28-2,.57-3,.75-5.56,1-5.88,1.53-3.7,6.76a37.81,37.81,0,0,0,2.76,5.51c3.68,5.91,4,5.91-3.58,7.53-6.31,1.35-13,3.42-19.74.71a10.79,10.79,0,0,0-4.62-.25c-3.35.23-.56,2.09-.76,3.16-3,2.77-6.25,1.52-9.42.44C259.1,368.32,256.47,366.43,253.19,367Z"/><path class="cls-7" d="M183,488.21c2.94,2.14,1.54,7.18,5.68,8.52.77-3.49,1.46-7,2.32-10.46,1.77-7.16,1.4-14.71,4.16-21.67a4,4,0,0,1,1.76,2.4c.92,2.7,0,6.82,4.42,7,3.88.17,7.72-.41,10.19-4.14.94-1.41,1.38-3.46,3.71-3.39-.34,5.24,1.18,10.11,3,14.91.91,2.43,1.09,7,3,6.71,2.24-.31,2.44-4.65,3.11-7.31,1.49-5.9,2.77-11.84,5.13-17.48a18.59,18.59,0,0,0,8,5.65c1,.81,1.89,1.92,2.41-.47a81,81,0,0,0,1.56-18.24c4.67-.95,5.12-.83,5.55,4.32.38,4.52.46,8.88,5.92,10.35.78,7.49-.37,14.95-.18,22.43.07,2.43-.74,3.84-3.24,4.37a39.6,39.6,0,0,0-5.87,1.95c-2.19.84-3.5.56-3.29-2.18.13-1.8.19-3.61.28-5.41.06-1.27.35-2.77-1.16-3.29a3.47,3.47,0,0,0-4,1.54,18.28,18.28,0,0,0-1.61,4.28C231.61,495,228.36,498,222,497.1a34.85,34.85,0,0,0-10.58.42c-2.41.38-3.79-.31-4.17-3.09-.52-3.81-1.54-7.56-2.39-11.33A13.77,13.77,0,0,0,204,481a12.33,12.33,0,0,0-.84,1.95c-1,4-1.93,8-2.75,12-.41,2-.06,4.42-2.33,5.36-2.82,1.17-6.79,4.13-8.47,2.61-4-3.6-6.43-.53-9.2.78-2.52,1.2-3.82.72-4.57-1.75-1-3.45-2.39-6.83-2.43-10.51C176.31,489.51,179.77,489.21,183,488.21Z"/><path class="cls-8" d="M550.61,432.45c-.43.64-1.18,1.23-1.25,1.91-.37,3.1-.44,6.58-4.57,6.76-2.79.13-5.29,3.13-8.58.13-2.11-1.92-5.32.55-8.11.61-3.29.07-5.42-.29-5.55-4.36-.1-3.3-1-6.59-1.62-9.87a11.54,11.54,0,0,0-.71-1.87c-.53.53-1.41,1-1.54,1.58-.76,3.5-1.3,7.06-2,10.58-1.55,8-5.25,10.06-13.31,7.42-2.09-.68-3.39.77-4.91,1.45-5.52,2.47-5.53,2.56-7.41-3.37-1.09-3.43-2-6.92-3.09-10.34a2.39,2.39,0,0,0-1.54-1.44c-.89-.11-.86.93-1,1.59-.53,3-1.46,6.07-1.44,9.1,0,5.47-2.43,8.63-7.53,10.13a22,22,0,0,0-3.46,1.68c-2.55.27-3.25-1.81-3-3.38,1.42-10.41,1.48-21.13,6.25-30.86,5.59,8.28,13.45,2.14,20.18,3.16.35,6.56,4.71,11.61,6.61,17.59.2.61.64.75,1.24.54.83-.29,1-1,1.15-1.72,1.17-6.48,2.36-13,3.49-19.44.22-1.23,0-2.56,1.14-3.49,6.12,5.33,13.36,4.24,20.35-3.07,5.77,2.59,3.69,8.87,6.09,13.06.49.86.39,2,1,2.84a7.53,7.53,0,0,0,.68-2.81c.8-4,1.5-8,2.42-12,.53-2.29.14-5.41,3.81-5.7,1.84,3.85,5.29,6.11,8.53,8.59C554.9,422.88,553.51,427.78,550.61,432.45Z"/><path class="cls-9" d="M294.6,461.56c-2.09,1-2.05,3.29-3.11,4.9-6.75,2-8.29,1.07-8.43-5.34,0-2-.31-4,.5-5.91-.46-4.18,1-8.13,1.43-12.2a12.08,12.08,0,0,0-.21-2.3,19.41,19.41,0,0,1-1.06,2c-.43.63-.87,1.48-1.5,1.7-8.49,3-7.47,10.93-9.14,17.46-1.35,3.49-3.54,5.85-7.54,4.36s-2.61-4.89-2.1-7.85c.05-2.06,0-4.12.17-6.18.16-2.22-.63-3.35-3-3.28-4.3.13-3.12-3.15-3.23-5.5s.28-4.59,3.44-5c10.68-1.44,21.05-4.31,31.52-6.78,5.61-1.32,6.11-.5,4.85,5.39-.91,4.27-1.82,8.54-2.51,12.85-.3,1.87.61,2.88,2.74,2.16s3.57-1.57,3.91-4.1c.54-4.07,1.5-8.08,2.27-12.11,1.15-5.95,3.1-7.69,9.12-8.34,2.72-.3,3.91.6,3.27,3.45-1.95,8.75-3.86,17.52-5.79,26.28-2.1,2.81.43,6.43-1.63,9.25l0,.06c-3.88,2.73-6.91,1.74-8.22-2.62C299.21,460.22,297.33,460.27,294.6,461.56Z"/><path class="cls-10" d="M414.1,168.61a61.88,61.88,0,0,0-19.43,8.92,34.13,34.13,0,0,0-11.84,13.86c-1.45,3.05-3.41,4.22-6.64,3.75s-7.72,1.61-9.35-1.13,2.7-5,4.37-7.45c9.15-13.12,21.28-22.82,35.66-29.79,3.38-1.64,6.69-2.5,10.38-1.23,3.5,1.19,7.17.42,10.75.73,1.69.14,3.71.49,1.48,2.34-3.91,3.23-2.21,4.7.89,7.25,6.56,5.4,12.78,11.28,16.18,19.4.78,1.88,2.18,3.68,1.53,5.84-2.21,7.36-4.4,14.76-8.68,21.26-1,1.52-2.47,1.79-3.59-.16-2.64-5.26.43-10.14,1.55-14.91,1.37-5.88-.17-9.89-4.34-13.74-5.43-5-12.43-8.33-16.13-15.2C416.47,167.57,415,167.9,414.1,168.61Z"/><path class="cls-11" d="M299.14,294.41c-2.06-1.78-2.05-3.9.53-4.5,3.49-.82,8.26,1,7.88-5.43,0-.83,1.64-1,2.68-1,3.33,0,6.61-1,9.82-1.22,12.42-1,23.69-5.4,34.85-10.36,2.08-.92,3.78-2.74,5.87-3.59,3.31-1.34,3.52-3.81,3.71-6.84.89-13.69-1.12-27-4.69-40.17,12.28,10.17,17.57,22.9,14.23,38.81a32.79,32.79,0,0,0-.24,3.86c-.56,6.28-3.34,10.76-9.07,14.12a83.17,83.17,0,0,1-47,11.64c-1.2-.05-2.93-.59-3.48.61s1.08,2.12,1.85,3.09a9.7,9.7,0,0,1,1.45,1.8c.5,1.09,1.79,2.24.92,3.38-.43.56-1.95.22-2.94.41-6.1,1.19-10.23-1.79-14-6.1C299.27,290.38,299.58,293.32,299.14,294.41Z"/><path class="cls-12" d="M91.37,500.59c0,3.57,0,7.15.15,10.72,0,.75-.53,2,.82,2.14.19,0,.64-1.26.8-2a268.13,268.13,0,0,0,4.74-28.6c.15-1.48-.24-3.12,1.13-4.28,2.9,2.23,2.5,5.52,2,8.36-.76,4.83,1.75,6.28,5.71,6.83a4.38,4.38,0,0,1,1.31,1.83c.61,1.29-.44,3.61,1.45,3.87,1.62.22,2.27-1.8,2.91-3.18a32.4,32.4,0,0,1,1.55-3.52c1.65-1.85,3.21-3.8,5.59-4.8,2.32,1.53,3.57,3.85,4.58,6.33,3,5.25,1.38,9.29-3.23,12.57-5.38,6.59-12.63,10.3-20.42,13.1a12.25,12.25,0,0,1-6,.83A21.68,21.68,0,0,0,82.58,522c-2.47.91-4,.14-3.6-2.85a22.52,22.52,0,0,0,.17-3.85c-.07-1.41.59-3.36-1.56-3.73s-4.13-.18-4.78,2.55a25.1,25.1,0,0,1-1.39,3.57c-2.69,2.17-5.76,2.75-8.54.73-2.34-1.69-2.35-4.37-.88-6.9l4.46-14.36c2.59,4.22,6.13,2.36,9.51,1.49,2.72,1.12,2.46-1.14,3-2.61.62-1.69.75-4.12,3.69-3.06C83.89,497.44,88.13,498.44,91.37,500.59Z"/><path class="cls-13" d="M392.3,441.59c.25-3.5-.66-7.09,1.28-10.47.54-.94.55-2.95-.08-3.62-1.11-1.17-1.9.76-2.91,1.18-1.4.6-2.71,1.41-4.11,2.05-1.68.77-3.33,1.45-4.17-1.17-.7-2.2-1.84-3.78-4.41-1.91-2.85,2.07-3.7,4.84-1.91,7.18a7.84,7.84,0,0,0,3.52,2.8c2.47.73,3.37,2.91,5,4.37,2.42,4.71-.88,6.21-4.31,7.46a11.53,11.53,0,0,1-8.06,0c-2-1.1-4.14-2.06-6-3.34-6.18-4.15-7.33-9.36-3.21-15.73a34,34,0,0,1,17.89-13.89c6.18-2.12,8.71-1.14,12.84,4.46.29.39.53,1.11.84,1.14,1.1.1.7-.91.81-1.46.51-2.47.38-5.71,3.16-6.49,3.07-.87,6.68-3.66,9.42-1.27,1.86,1.62,0,5.29-.66,7.82-1.53,5.94-1.68,12.19-4.11,17.9-.69,4-2.25,7.38-7,7.43C393.28,446,390.68,445.5,392.3,441.59Z"/><path class="cls-14" d="M448,125.47c1.27-7.54,2.51-15.09,3.81-22.63,1.35-7.78,3-15.52,4.05-23.34.43-3.17,1.52-5.46,4.35-6.66A17.51,17.51,0,0,0,469.3,65c.32-.6.95-1.3,1.82-.92,1.05.45,1.29,1.23,1.1,2.45-1.42,8.81-2.65,17.64-4.08,26.44-1.95,12.07-4.1,24.11-6,36.19-.47,3-.6,7-2.89,8.22-3.22,1.7-4.84-2.87-7.44-4.26C448.75,131.42,447.35,129,448,125.47Z"/><path class="cls-15" d="M155,477.35c0,7.68,0,15.36,0,23,0,.76-.34,1.86.82,2.3.25-.71.55-1.4.74-2.13,1.23-4.64,1.21-9.55,3-14.07,2,4.31,5.15,5.31,9.37,3.3.54,4.46-1.5,8.55-1.94,12.89-.24,2.42-8.31,8-10.21,6.64-4-2.95-6.47.69-9.51,1.09-5.09.69-4.92,1.14-5-3.89,0-2.21,2-5.62-2.26-6.06-3.91-.4-4.65,3-4.95,5.65-.51,4.65-3,6.6-7.31,7.61-6,1.44-6,1.64-5.06-5.08.36-5.58,2.52-10.66,4.39-15.82,1.26-2.52.9-5.66,3-7.84,3.25.7,6.71,0,9.83,1.43,4.11,1,1.67-2.26,2.1-3.44,1-2.65-1.09-6.82,3.93-7.3C147.77,483,151.39,480.25,155,477.35Z"/><path class="cls-16" d="M589.26,395.16c.77,1.38-.84,3.57,1.49,4.43a11.48,11.48,0,0,0,9.47,6.4c0,3.59,0,7.19-.11,10.79,0,2.26.71,4,2.84,5.05,2.31,1.1,3.86-.56,5.4-1.72a10,10,0,0,0,3.3-4.22c.93-2.26,1.47-4-2.15-3.7-1.3.12-3.69,1.09-3.61-1.09.08-2-.27-5,2.57-6,4.85-1.7,9.74-3.3,14.64-4.84,1.29-.41,1.66.59,1.83,1.71.31,2.15-.68,4-1.12,6-1.44,6.44-4.74,11.86-8.49,17.19-4.36,6.18-11,7.26-17.53,8.42-4,.71-6-2.44-7.47-5.53a30.26,30.26,0,0,1-2.73-13.51c0-1.73,1.66-4.2-1.28-5.34A3.61,3.61,0,0,1,585,407.3c-.26-3.59.57-7,1.45-10.48C587.07,395.71,587.81,394.85,589.26,395.16Z"/><path class="cls-17" d="M530.42,413.75c.59,4.23-.86,6.24-5.49,6.88-2.42.34-5,.58-7.43,1.14-6.73,1.53-6.74,1.53-7.45-5.23-.26-6.22,1.54-12.21,2-18.36.46-5.61.66-5.6,6.48-6.27a25.74,25.74,0,0,0,3.07-.32c3.25-.81,3.47.8,2.93,3.35-.48,2.24-.05,4.62-1.14,6.8-.27.55,0,1.39.07,2.1.54-.55,1.1-1.07,1.61-1.65a4.94,4.94,0,0,0,.84-1.29c3.28-8.51,9.24-13.73,18.4-15,3.62-.13,2.74,2.76,2,4.07C541.79,398.34,537.87,407.25,530.42,413.75Z"/><path class="cls-18" d="M106.85,494.38c-1.63-.1-2.85,1.15-4.29,1.41-3.18.59-5-1.16-4.06-4.32,1.24-4.32.74-8.58.51-12.88,1.23-11.42,2.45-12.81,13.32-15,2-.4,4-.8,6.06-1,7.29-.89,12,4.2,10.11,11.33a21.74,21.74,0,0,1-6,10.57,34,34,0,0,0-2.88,3.52c-.23,3.07-1.62,5-5,5C112.34,495.08,109.65,495.06,106.85,494.38Z"/><path class="cls-19" d="M307.33,103.61c-8.52,1.74-15.13,7.17-22,11.87-10.21,7-18.15,16.28-25.26,26.43-5.15,7.36-4.73,14.12.21,21,2.82,3.93,4.88,8.41,8.49,11.77,1,1,1.07,2.27,1.19,3.55-1.61,2.79-3.38,3.65-5.94.87-6.3-6.85-11.66-14.21-14.7-23.17a7,7,0,0,1,.2-5.76,94.86,94.86,0,0,1,41-44.52,81.69,81.69,0,0,1,16.76-7.6c1.45-.43,3.06-1.42,4,.4.69,1.37-.82,2.28-1.65,3.19A22,22,0,0,1,307.33,103.61Z"/><path class="cls-20" d="M75.74,499a4.7,4.7,0,0,0-1.09,1c-1.49,2.66-4,4.28-6.68,3.26-2.43-.92-.7-4.09-1.51-6.1,1.79-7.18,3.61-14.35,5.38-21.54.66-2.7,1.91-4.43,4.93-5.07,5.22-1.1,10.13-3.44,15.52-3.92,2.7,5.12.37,10.44.44,15.64.08,6.1-.86,12.21-1.36,18.32l-.74,0c-8.11,0-8.11,0-8.74-8.13a2.65,2.65,0,0,1-.47-.59c-1.5-3.35-.67-6.68.13-10-1.59,3.24-.22,7-1.75,10.24C78.66,494.55,79,497.81,75.74,499Z"/><path class="cls-21" d="M215.25,466.49c-2.92,7.84-6,10.06-14.52,10.59a5.08,5.08,0,0,1-5.31-4.91c-.16-2.52-.17-5.05-.25-7.57.39-3.83,1.05-7.65,1.11-11.49.05-3.24,1.5-4.68,4.47-5.1,1.27-.18,2.53-.42,3.78-.68,4.69-1,4.68-1,3.9,3.67-.25,1.52-.44,3.05-.66,4.57-.12.94-.49,2,.57,2.56.2.1,1.08-.91,1.49-1.51a20.31,20.31,0,0,0,2.84-4.57c2.35-6.94,8.38-8.35,14.35-9.89a2.85,2.85,0,0,1,2.16.3c1,.79.43,1.85-.11,2.68Q222.19,455.84,215.25,466.49Z"/><path class="cls-22" d="M426.54,294.35c.36-1.18,1.31-1.79,2.28-1.17a40.43,40.43,0,0,1,6.76,4.94c10.54,10.35,21,20.6,28.6,33.71,3.3,5.72,5.89,11.71,9.1,17.41a14,14,0,0,1,1.47,5.86,3.1,3.1,0,0,1-.12.76c-1.55,3.73-3.11,7.46-5.75,10.6-3.37-2.6-3.18-6.83-4.51-10.3-8.49-22.25-19.36-43-36.53-59.93A12.54,12.54,0,0,1,426.54,294.35Z"/><path class="cls-23" d="M44.65,507a11.16,11.16,0,0,1-2.19-.68c-11.66-6.4-12.8-13.65-3.35-23.17,5-5,10.76-8.83,18-9.83,5.41-.74,8.11,1.92,8.63,7.17.5,5-3.18,5.85-6.2,7.58S55,489.23,54,485.75c-.49-1.67-2.61-1-3.93,0-2.31,1.78-3.36,4.07-1.66,6.69A9.54,9.54,0,0,0,52,495.31a17,17,0,0,1,6.93,6.88c1.73,5.25-2.79,4.95-5.52,6C50.37,509.31,47.43,508.37,44.65,507Z"/><path class="cls-15" d="M311.57,470.85A56.36,56.36,0,0,1,316.16,454c3.88-1.75,7-4.67,10.91-6.44a3.35,3.35,0,0,1,1.33,1.71,13,13,0,0,1,.22,4.23c.38-1.35.32-2.87,1.51-3.88a2.4,2.4,0,0,1,2.07-.5c4.63,2.17,6.59.24,6.79-4.41.14-3.27-.2-6.57.24-9.81.31-2.23-.4-5.38,3.41-5.6.56,14.14-1.58,28.19-1.64,42.31,0,3.34-8.87,8.33-11.36,6.66a2.8,2.8,0,0,1-.8-2c-.06-1.54.24-3.09.16-4.62s.82-4.13-1.68-4.36c-2.31-.22-4.47.75-4.87,3.78a48.2,48.2,0,0,1-1.58,5.94c-.39,1.48-1.51,2-2.84,2.17C313.23,478.44,309.53,476.88,311.57,470.85Z"/><path class="cls-24" d="M419.07,109.61c2.11-11.94,4.35-24.58,6.59-37.22.9-5.06,1.79-10.11,2.7-15.17.18-1,.42-2.35,1.55-2.35,1.43,0,.74,1.49.83,2.25.27,2.35.6,4.85,2.25,6.45,4.79,4.62,4,9.88,2.82,15.58-2.3,11.59-4.24,23.25-6.17,34.91-.52,3.15-1.76,4.09-4.57,2.49C422.44,115.06,417.94,115.36,419.07,109.61Z"/><path class="cls-25" d="M162.65,467.71c.89-11.73,1.63-12.7,13.09-15,3.25-.67,6.39-2,9.82-1.77,4,.25,6.24,2.07,6.6,6s.37,7.94-2.77,10.76c-1.64,1.47-1.81,3.61-3.31,5-3.24,4.89-7.54,8.16-13.45,9.21-8.26,1.46-10.65-.5-10.55-8.93C162.11,471.2,161.79,469.39,162.65,467.71Z"/><path class="cls-26" d="M587.72,396.71A23.7,23.7,0,0,1,586,407.44c-.63,1.11-.49,2.56-1.31,3.54-3.74,4.51-23.05,5.29-27.82,1.17-.64-9.13-.06-18.06,4.33-26.37a3.56,3.56,0,0,1,2.42-1.66c11.17-2.05,10.76-2.72,11.78,7.93.38,4,1.09,8,1.66,12.06,2.28,1.86,2-.67,2.74-1.57l.42-5.83C582.74,395.07,585.23,394.28,587.72,396.71Z"/><path class="cls-27" d="M392.3,441.59c.3,1.18.21,3.2,1.7,2.94,2.74-.48,6.25,0,7.54-3.55.35-1,.5-1.94,1.56-2.39.58,3.2-.91,6.08-1.44,9.1-.14.76-.24,1.53-.41,2.28-.58,2.45-2.11,5.94,1.17,6.58,2.7.52,3.55-3.15,4-5.71,1-5.3,2-10.6,2.92-15.93.26-1.53.19-3.1,1.47-4.25,2.2,3.86,4.35,7.76,8.72,9.69,2,4.65,1.15,8.67-2.71,12-2,4.08-3.63,8.39-7.47,11.3-3.57,2.72-7.36,4.68-12,4.63-5.66-.07-8.13-2.24-8.11-7.89A62.61,62.61,0,0,1,392.3,441.59Z"/><path class="cls-15" d="M558.17,412c1.38,2.84,5.07,2.49,5.85,1.51,3-3.78,6.31-1.24,9.41-1.2,4.91.06,9.68.12,12.6-4.84.09.6.19,1.21.28,1.81.61,6.55-2.41,12.52-3.08,18.88-.29,2.78-7.78,6.68-10.58,5.95-2-.51-2-2.25-2-3.68.18-4.44-1.57-8.57-1.79-12.93,0-.67-.17-1.56-1.22-1.54s-1.16.84-1.3,1.55c-.63,3.27-1.8,6.56-1.71,9.81.23,7.62-4,11.06-10.59,12.7C552,430.14,551.68,420.56,558.17,412Z"/><path class="cls-28" d="M264,111.3c1.5,6-3.76,8.76-6.36,12.56-1.42,2.1-3-.41-2.93-1.56.07-4.16-1.44-8-1.87-12.07-1.25-11.88-3.6-23.59-5.76-35.33a31.2,31.2,0,0,1-.19-10.69c3.52.78,4.85,4.21,7.44,6.11A9.5,9.5,0,0,1,258,76.78Q261,94,264,111.3Z"/><path class="cls-18" d="M155,477.35c-1.85.79-1.59,2.45-1.49,3.92.21,3-1.24,3.87-4.1,3.92-3.36.07-3.71-1.76-3.65-4.34,0-1.78-.16-3.56-.24-5.34-3.36-.2-2.49,2.66-2.78,4.27-.49,2.71-.48,5.48-3.48,6.84-3.24.55-7,3.91-9.12-1.64.69-7.19,3.67-13.83,5.12-20.84a5.69,5.69,0,0,1,4.52-4.66c3.47-.86,6.89-1.93,10.35-2.82,6.62-1.7,6.73-1.67,6.3,5.44C156.16,467.19,155.53,472.27,155,477.35Z"/><path class="cls-13" d="M342.64,429.3c-2.85,2.75-1.1,6.25-1.45,9.39a46.64,46.64,0,0,0-.07,8.44c.25,3.63-1,4.68-4.75,5.9-5.16,1.67-4.21-1.26-4.64-3.83-2.56-2.66-1-5.84-1.14-8.82-.76,2.66.54,6.19-3.25,7.53-1.89,5.41-5.7,7.29-11.18,6.09,1-8.45,4.4-16.29,6.38-24.49.45-1.89,2-2.22,3.43-2.65,4.18-1.27,8.38-2.5,12.59-3.66s4.33-1.14,4.38,3.81A16.32,16.32,0,0,1,342.64,429.3Z"/><path class="cls-29" d="M44.65,507c4.35.62,8.34-1.34,12.54-1.84,1.6-.19,1.5-1.75,1.72-2.95,2.07,1.37,1.37,3.57,1.63,5.49.18,1.39-.46,3.11,1.46,3.84.44,6,.44,6,5.6,6.17,1.27,0,2.55,0,3.82,0,.19,2.13.08,4.32-2,5.4a18.2,18.2,0,0,1-8.84,2.35c-1.3,0-1.73-1-1.53-2.12.33-1.75,1-3.44,1.25-5.2a12.64,12.64,0,0,0-.17-3,26.41,26.41,0,0,0-1.69,2.43c-4,7.26-10,11.42-18.12,13a10.34,10.34,0,0,1-5.88-.62c-5.15-1.9-5.74-3.57-3.48-8.63.63-1.41,1.25-2.83,1.9-4.22.78-1.69,1.85-2.32,3.55-1a8.25,8.25,0,0,0,4.22,1.73c2.81.3,5.13-.44,6.71-2.84s.47-4.36-1.28-6.15A16.42,16.42,0,0,1,44.65,507Z"/><path class="cls-30" d="M449.69,427.56c-.56,1.07-1.11,2.15-1.66,3.22-2.7,2.28-5.23,1.75-7.67-.44a6.56,6.56,0,0,1-.95-2c-.59-1.92.84-3.86-.09-5.77-1.1,1.68-1.31,3.75-2.31,5.5-4.31,8.32-7.32,9.3-13.44,4.37-1.06-5.09-1.76-10.1,2.72-14.11,1-3-.42-7,3.49-8.75,5.11-2.36,10.27-5.06,16.11-3.51,3.49.92,5.38,3.68,5.6,7.4C454,418.53,454.1,423.34,449.69,427.56Z"/><path class="cls-31" d="M237.33,469.6c-.51,0-1,0-1.54,0-5.89-.12-5.89-.12-6.32-6.29.29-6.16,3-11.71,4.42-17.58a4.72,4.72,0,0,1,3.73-3.47c4.42-1.26,8.84-2.52,13.28-3.75,3.09-.86,4.2.31,3.83,3.49-.86,7.62-.22,15.36-1.86,22.92-6.43,2.38-7.63,1.65-7.83-4.82-.09-3,.31-6.14-.28-9.05-.39-1.9-2-2.12-2.6.33C243,458.11,241.11,464.11,237.33,469.6Z"/><path class="cls-32" d="M600.22,406a14.48,14.48,0,0,1-3.42,1.5c-4.71.75-5.53,0-5.82-4.89-.06-1-.15-2-.23-3,4-10.88,10.22-19.92,21.26-24.75,5.49-2.4,10.47-1.4,13.12,2.6,1.64,2.48,2.46,5.3.45,7.88-1.71,2.18-7.91,3-9.64,1-2.43-2.79-4.68-2.41-6.35,0C605.35,392.26,601.57,398.57,600.22,406Z"/><path class="cls-33" d="M251.3,175c-2.58,6-8.13,9.88-10.77,15.82-1.47,3.29-3.36,6.39-4.75,9.7-.53,1.27-1.88,2.91-.52,4.32,3.21,3.34,1,4.67-1.92,6.07-4.49,2.16-7.73,5.93-11.43,9.13s-4.16,7-3.23,11.18a62.75,62.75,0,0,0,4.58,13.9c-1.79,1.7-3.58,3.36-5.16-.21a69.27,69.27,0,0,1-5.19-19.23,5.25,5.25,0,0,1,1.83-4.81c2.28-2.06,4.51-4.2,6.92-6.1,3.2-2.52,3.1-2.47,4.16-8.3a28,28,0,0,1,2.72-7.17,78.36,78.36,0,0,1,18.31-23.55C248.12,174.6,249.42,172.85,251.3,175Z"/><path class="cls-34" d="M372.16,449.45c2.19-1.46,4.71-1.33,7.18-1.7,3-.46,6-1.55,5.19-5.75,5.29,3.72,4,9.36,2.77,13.86-2.43,9.06-8.94,14.71-18.21,16.84a12.36,12.36,0,0,1-6.84-.27c-5.05-1.73-5.83-3.48-3.78-8.53.48-1.19.94-2.38,1.44-3.56.91-2.14,2-3.47,4.51-1.63a8.58,8.58,0,0,0,3.54,1.36c2.73.51,5.1-.17,6.72-2.62s.41-4.32-1.26-6.13A15.28,15.28,0,0,1,372.16,449.45Z"/><path class="cls-35" d="M424.72,432c5,2.83,8.09,2,9.42-2.8.34-1.21.21-2.5,1.64-3.07,1.25,1.32,2.34,2.88,4.4,3a12,12,0,0,0,7.85,1.58c-1.47,5.35-5.54,8.62-10.17,10.49-3.66,1.48-5.34,3.36-5.59,7.06-.09,1.24-.94,2.48-.87,3.68.35,6-2.44,9.56-8,11.26-4.91,1.93-6.16.07-4.71-4.57a1.41,1.41,0,0,0,.15-1.29,172.71,172.71,0,0,1,1.94-17.9C421.29,436.71,420.72,433.09,424.72,432Z"/><path class="cls-36" d="M200,317.7c-.6-2.07-2.31-1.48-3.76-1.59-2-.14-4.16.69-5.64-1.39,2.2-3,2.14-7.21,5-9.91,6.48,3.56,12.7,7.62,19.86,9.76a4.56,4.56,0,0,1,3.21,3,33.09,33.09,0,0,1,1.56,4.3c.66,3,4,5.5,2.93,8.47s-5,4.07-7.61,6c-4.33-1.24-9-2.14-9.35-8-.68-1.47-1.78-1.51-3-.75a4.35,4.35,0,0,1-3.51.68C198.47,324.72,198.23,321.18,200,317.7Z"/><path class="cls-37" d="M477.5,419.68c-2.55,7.52-2.64,15.52-4.41,23.2-.51,2.22-.64,4.48-1.47,6.68-.59,1.56-.87,3.62,1.4,4.58-.44,1-1.28,1.84-2.24,1.17-2.25-1.56-4.75-1-7.16-1.25-.49-1.85,1.05-2.62,2-3.72,1.38-1.63,2.27-3.28-1.06-3.11-5.78.28-5.78-3.46-5.52-7.51.87-4.26,1.85-8.39,6.62-10.19,1.5-.56,4.13-.55,3.81-2.84-.28-2-2.9-1.46-4.4-2.22a7.88,7.88,0,0,1-1.87-1.26c-1.34-8.46-.19-12.09,7-14.86,3.38-1.31,4.9-7.58,10.1-4.15a10.07,10.07,0,0,1,.5,6.25C479.43,413.43,480.51,417.29,477.5,419.68Z"/><path class="cls-22" d="M470,224.59c.93-2.29,2.21-1.12,3.59-.46,12,5.82,22.14,14.11,31.43,23.66,3.64,3.74,6,7.37,5.41,12.63-.05.76-.12,1.53-.16,2.29-.09,1.81,0,4.13-2,4.56-2.15.47-2.38-2.13-3.33-3.47C494.72,249.45,483.92,235.63,470,224.59Z"/><path class="cls-38" d="M479.35,404.45c-3,3.17-3.3,3.45-10.59,5.8a4.46,4.46,0,0,0-3.29,3.68c-.64,2.94-1.11,5.91-1.66,8.86,1.11,1.46,4.22,1.32,3.52,4.2-.55,2.25-2.4,3.13-4.41,3.75-3.27,1-6.69,1.44-9.45-.84s-2.05-5.46-1.09-8.47c.69-2.15.28-4.61,1.83-6.52l.42-4.56c.32-3.36,1.75-5.57,5.38-6.38,5.19-1.17,10.32-2.69,15.41-4.26,2.53-.78,3.49,1.65,5.37,2.1C481.65,403.42,481.56,404.51,479.35,404.45Z"/><path class="cls-39" d="M196.92,364.22a2.26,2.26,0,0,1,1.49,3.08c-1.67,4.42-.61,9.25-1.76,13.56-2.71,10.11-1,19.75,2.08,29.23.88,2.76.13,6.2,2.83,8.36.5,3,2.11,5.83,1.59,9.05a3.39,3.39,0,0,1-2.36,2.8c-1.58.51-2.28-.78-2.74-2-4.5-12-10.45-23.5-8.94-37C190.18,381.78,192.21,372.64,196.92,364.22Z"/><path class="cls-40" d="M384.71,106.72c-21.13,1.81-42.63,1.07-62.81,9.25-2.12.85-4.16,1.9-6.29,2.7-1.45.54-3,.83-3.83-1.13a117.15,117.15,0,0,1,26.6-11.48,111.39,111.39,0,0,1,22.49-3.77c8.16-.68,16.41-.35,24.62-.41,1,0,2.63,0,2.81.47.52,1.37-.81,2.25-1.71,3.11A13.7,13.7,0,0,1,384.71,106.72Z"/><path class="cls-39" d="M387.52,359.73c.47-1.15,1.35-1.68,2.1-.49,1.48,2.33,2.54,4.95,4.09,7.24,1.85,2.75,2.08,7.65,7.53,6.18.43-.12,1.33.77,1.72,1.37,3.85,6.11,8.91,11.65,9.43,19.38-3.11-.18-6.3,2.1-9.37-.45-.91-.76-1.07.57-1.54,1-2.39,2.31-3.77,1.3-5.06-1.31-1-1.93-.81-4-1.36-5.93Q391.27,373.25,387.52,359.73Z"/><path class="cls-41" d="M530.42,413.75c3.45-8.36,9.33-15.26,13.73-23,.75-1.32,3.7-3.13.2-4.85.63-1.33,1.79-2,2.63-.62a5,5,0,0,0,4.07,2.45c-3.83,6.55-1.59,15.07-6.84,21.17-2.34,6.78-2.7,14-4.39,20.92-.24,1-.21,2.07-.53,3a2.87,2.87,0,0,1-1.34,1.72c-1.46.48-1.5-1-1.73-1.81-1.57-5.14-3-10.32-4.47-15.51C531.42,416,531.62,414.62,530.42,413.75Z"/><path class="cls-30" d="M479.35,404.45c1.38-.39,1.43-1.5,1.44-2.64,5.16-4.34,11.66-5.13,17.87-6.34,6.69-1.3,9.65,1.6,9.35,8.38a18.49,18.49,0,0,1-.9,3.72c-1.85,3.27-4.62,3.23-7.68,2.14a8.44,8.44,0,0,0-8.5.81c-1.75,2.2-3.38,4.74-6.38,5.1-3.74.45-6.87-.24-5.49-5.32Z"/><path class="cls-42" d="M189.14,333.22c-.7,7.75-3.62,15.15-3.17,23.15.28,4.83,2.54,9.34,1.87,14.24-1.11,2.78-1.23,7.91-3.69,7.73-3.59-.25-2.49-5.32-3.53-8.23-4.65-13-1.4-25.18,4-37.08C186.1,329.83,187.78,330,189.14,333.22Z"/><path class="cls-43" d="M162.65,467.71c.06,2.28.1,4.56.19,6.85.19,5.14,2.09,6.72,7.27,5.82,6-1.06,11.57-3.22,16-7.69-.13.71,0,1.78-.42,2.07-5.27,3.66-5.41,8.25-2.65,13.45-2,4.57-5.85,3.85-9.63,3.22-.36-.59-.75-1.16-1.06-1.77-.39-.78-.66-2.24-1.07-2.27-1.45-.11-1.42,1.63-2.25,2.4-1.9.62-1.09,2.76-2,3.73-1.58,1.64-3.82,1-5.75.63-1.52-.29-1.43-1.83-1.47-3.1,0-1.52-.08-3-.12-4.56C159.35,480,161.15,473.89,162.65,467.71Z"/><path class="cls-44" d="M263.44,458.34c1,2.07-1.34,5.35,2.1,6.43,3.14,1,5.64-.37,7.54-2.94.91,6-1.3,11.65-1.92,17.48-.91,8.68-1.74,9.36-10.06,11.76-2.92.85-3.92-.16-3.58-2.83a64,64,0,0,1,1.64-9.05C261.07,472.33,260.81,465,263.44,458.34Z"/><path class="cls-45" d="M220.47,341c1.61,1,2.4,4.16,5.31,1.34,3.06-3,3.77-.62,3.8,2.26,0,1,0,2.06,0,3.1,0,2.38-.69,5.26,3.53,4.62.48-.07,1.28,1.47,1.8,2.34a61.1,61.1,0,0,0,12.16,14.93c2.75,2.39,3.6,4.87,2.15,8.16-6.44-3.5-11-9-15.58-14.51-1.37-1.67-2.41-2.86-3.28.31-.26.93-1,2.13-2,1.77a3.33,3.33,0,0,1-1.47-2.49c-.36-4.07-.61-8.17-.68-12.25,0-2.3.4-4.14-3-2.22-2,1.13-5.12,3.47-6.86,1-1.24-1.75.91-4.69,2.49-6.72A22.48,22.48,0,0,1,220.47,341Z"/><path class="cls-46" d="M418.54,440.08c-1,0-2,0-3.05.07-3.07.29-4.88-.62-4.53-4.16a41.32,41.32,0,0,0-.11-5.33c0-5.59,1.35-11,2.37-16.45.72-3.86,7.7-6.43,11-4.18.7.48.45,2.32.64,3.54-1.25,7.14-.84,14.52-3.2,21.51C421,437,420.54,439,418.54,440.08Z"/><path class="cls-38" d="M479.06,410.3c2.59,5.18,5.83,5.64,9,1.33.91-1.24-.22-3.87,2.6-3.78a5.87,5.87,0,0,1,.95,2.89c.15,1.16-1.1,2.68.31,3.37.57.29,1.59-1.1,2.31-1.84a29.63,29.63,0,0,1,5.14-4.68c2.59,1.79,5.18,1.9,7.76,0,.06,4.11-2.51,6.83-5.07,9.55l-5.62,5.94c-3.89,2.59-8.47,3-12.86,4.06-5.11,1.22-5.47,1-5.82-4.39-.06-1-.16-2-.24-3.05C477.7,416.5,477.26,413.22,479.06,410.3Z"/><path class="cls-47" d="M544.21,408.86c.73-5.26,1.55-10.5,2.15-15.77.34-3,2.61-4,4.69-5.4l2.57-.43c4.44-1.38,6.33-.22,5.43,4.8-1,5.55-1.57,11.17-2.87,16.66-1.51,2.28-2,5-3.11,7.46l-.82.81C544.59,416.73,544.59,416.73,544.21,408.86Z"/><path class="cls-8" d="M460.47,440.16c.06.76.18,1.52.17,2.28,0,2.29.1,4.35,3.32,3a1.9,1.9,0,0,1,.72-.26c1.78.11,3.79-2.55,5.22-.17,1.62,2.67-.31,6.22-3.64,7.73-.9.41-1.76.89-2.64,1.34-4.37,1.39-8.74,2.82-13.12,4.18-3.28,1-4.56.19-3.68-3.15,1.75-6.65,1.31-13.75,4.19-20.14C453.31,438.23,456.7,439.54,460.47,440.16Z"/><path class="cls-48" d="M414.1,168.61c2.51-1.86,4.95-3,6.16,1.21a4.75,4.75,0,0,0,2.81,3.41c3,1.14,4.91,3.65,7.38,5.42,6.8,4.87,12.69,10.4,8.56,20.32-1.73,4.14-2.17,8.81-3.2,13.23-3.9-1.19-4.59-3.21-3.23-7.3,4.52-13.51,3.09-17.11-8.73-25.18a51,51,0,0,0-7.2-4.28c-2.67-1.22-2.77-2.41-.92-4.5C418,168.41,415.2,169,414.1,168.61Z"/><path class="cls-49" d="M231,250.73c-13.77,12.44-27.44,25-35.89,42-5.26-1.29-5.56-1.61-3.63-5.52,2.85-5.78,7-10.67,11.28-15.41,7.37-8.19,15.87-15.18,24.39-22.11.51-.42,1.47-.28,2.22-.4C230.87,248.63,231.14,249.43,231,250.73Z"/><path class="cls-50" d="M283.56,455.21c.09,1.24.24,2.48.27,3.73.19,7.23.18,7.23,7.66,7.52.8,5.27-1.7,10.06-2.23,15.15-.21,2.12-7.14,6.28-9.81,6.31-1.92,0-1.82-1.45-1.61-2.7,1.21-7.33,2.37-14.67,3.79-22C282.16,460.57,281.43,457.53,283.56,455.21Z"/><path class="cls-35" d="M460.47,440.16c-.24.09-.47.2-.71.28-7.67,2.6-7.89,2.46-8.75-5.49-.79-2.4,1.54-5.36-1.32-7.39.66-4.7,2.13-9.3,1.8-14.13l2.72,1.48c.75,3.11-.55,5.91-1.17,8.85-.92,4.33.12,5.35,4.51,5.52,1.27.05,2.54,0,3.81,0,2.17.12,4.19-.26,5-2.49s-2.86-1.92-2.58-4c1.76.07,3.52.19,5.28.2s4-.68,3.91,2c-.09,2.24.85,6-3,5.82C463.17,430.54,462,435.33,460.47,440.16Z"/><path class="cls-51" d="M356.42,137.52c.39.29,1.12.84,1.11.86q-8.91,12.78-17.92,25.51c-2.74.52-5.67-.38-8.31,1.14a1.41,1.41,0,0,1-2-.54,1.64,1.64,0,0,1,.18-1.42C337,153,345.06,143.51,356.42,137.52Z"/><path class="cls-52" d="M294.6,461.56c3.72-3.05,5.39-3.19,5.95.08.92,5.35,4.32,4.93,8,4.84.91,4.15-1.45,7.93-1.35,12,0,1.55-8.06,5.05-9.83,4.45-1.58-.54-1.38-2-1.18-3.19.8-4.75,1.68-9.5,2.68-14.22C299.67,461.71,297.6,461.2,294.6,461.56Z"/><path class="cls-53" d="M553.8,409.18c2.59-6.06,2.67-12.68,4.19-19,1-3.91-2.34-2.79-4.37-2.94,2.08-2.85,5.09-.88,7.61-1.48a124.22,124.22,0,0,1-2.29,17.92,78.19,78.19,0,0,0-.77,8.27c-1.95,9.25-4.95,18.35-4.11,28-2.11-.12-1.92-1.68-2-3.12s.79-3.5-1.41-4.42c-1.13-5.33,2.58-10.15,1.64-15.46l0,0C554,414.63,551.73,411.46,553.8,409.18Z"/><path class="cls-54" d="M342.09,501.26l-.28.67c-.83,2-8.81,5.26-10.8,4.46a2.42,2.42,0,0,1-.65-.4c-3.07-2.58-9.27-4.2-8.46-7.9.89-4.11,6.76-1.48,10.41-2s7.17-.15,9,3.85A14.67,14.67,0,0,0,342.09,501.26Z"/><path class="cls-55" d="M587.72,396.71h-7.47c.91-4.24,1.78-8.49,2.74-12.72.7-3.11,4.82-6,8-5.69,1.49.12,1.55,1.17,1.45,2.16-.13,1.26-.13,2.79-.84,3.7-2.61,3.35-1.34,7.38-2.29,11A2,2,0,0,0,587.72,396.71Z"/><path class="cls-56" d="M382.42,163.35a16.21,16.21,0,0,1-1.3,1.81c-2,2-4.16,3.85-5.92,6-3.33,4.16-7,6.59-12.43,3.84-1.06-.54-3.46-.16-3.55-.58-.39-1.68,1.19-2.75,2.42-3.45a98.36,98.36,0,0,1,18-8.22A2.35,2.35,0,0,1,382.42,163.35Z"/><path class="cls-57" d="M418.54,440.08l6.3-26.51c.7,1.51-.74,3.67,1.45,4.72-1.45,4.48-1.29,9.14-1.57,13.75-2.49,6.87-3,14.15-4.41,21.24-.29,1.48-.11,3.06-1.48,4.13-.6-1.71.66-4.14-2-5.06C417.4,448.26,419.41,444.37,418.54,440.08Z"/><path class="cls-58" d="M204.59,406.2c.51-1.24,1.6-1.57,2.07-.37a179.81,179.81,0,0,0,8.41,17.68c1,1.79-.74,2.77-1,4.16-1.74.08-3.82.7-4.48-1.68C207.7,419.44,204,413.34,204.59,406.2Z"/><path class="cls-59" d="M253.19,367c.47-.82-2.47-2.57,0-2.28,6.17.74,11.78,4.32,18.25,4.09,2.09,1.51,5.11,4.11,4.07,5.73-1.3,2-4.6-.06-7-.78C263.09,372.2,257.85,370.28,253.19,367Z"/><path class="cls-60" d="M426.6,33.6c4.68-1.54,7.68-.56,9.09,3,.4,1,0,1.29-2.49,2.61a7.89,7.89,0,0,0-2,2.22c-3.27,4.09-4.2,4-6.68-.68-.74-1.39-1.64-2.68.09-4C426.68,36.56,427.05,35.33,426.6,33.6Z"/><path class="cls-61" d="M195.59,304.81a25.5,25.5,0,0,0,0,5.17c.92,4.47-1.6,5-5,4.74-3.47-3.93-1.39-8.12-.43-12.19.38-1.6,1.82-1.66,3-.65A23.26,23.26,0,0,1,195.59,304.81Z"/><path class="cls-62" d="M472.92,45.88c5.62-.56,7.88,1,7.86,5.63,0,.63.12,1.51-.84,1.54-.23,0-.52-.74-.7-1.17s-.12-1.2-.43-1.4c-1.21-.8-.86.51-1.06,1s-.07,1.11-.35,1.48c-1.35,1.73-2.58,4.81-5,3.61s-5-3.75-2.69-7.35C472,49.28,473,48.16,472.92,45.88Z"/><path class="cls-63" d="M200,317.7c1,2.41-.69,5.2,1.41,7.6,1,1.15-1.23,1.89-1.71,3a16.16,16.16,0,0,1-3,.21c-3.39-.36-4.66-3.21-5.15-5.77-.54-2.81,2.89-2,4.36-3.13A20.45,20.45,0,0,1,200,317.7Z"/><path class="cls-64" d="M206.19,328.35c1.79,2.47,3.65,4.76,7,5.29a3,3,0,0,1,2.36,2.72c-1.52,2-3.68,1.61-5.69,1.46-3.11-.24-6.86-.57-7.94-3.69C201,331.49,204.49,330.15,206.19,328.35Z"/><path class="cls-65" d="M238.67,47.28c2-1.47,4.05-3.45,6.68-1.43,2,1.52,4.27,3,4.16,6,0,1.35-.73,2.78-2.06,2.84-1.15,0-.8-1.49-.95-2.39-.12-.74-.32-1.47-.48-2.2-.43.55-.89,1.09-1.28,1.68a16.27,16.27,0,0,0-1.14,2c-.66,1.42-1.46,3-3.16,2.83-2.41-.28-3.33-2.09-3.06-4.46C239.32,50.94,239.39,49.21,238.67,47.28Z"/><path class="cls-66" d="M285.23,33.86c1.94-2.8,4-1.73,5.76,0,1.5,1.53,4.08,2.69,3.09,5.58-.21.61-1.12,1.44-1.64,1.4-1.55-.12-.07-3.28-2-2.59-.85.3-.75,2.71-1.87,4-2.91,3.24-4,2.87-6.4-2.34C284.5,38.53,284.65,36.09,285.23,33.86Z"/><path class="cls-67" d="M331.91,27.39c5.89-2.07,9.92.49,9.22,5.89-.06.41-.7,2.08-1,.85-1.51-5.82-2.44-.53-3.22.16-1.49,1.35-3,3.84-5,2.32s-4.92-4.08-1.78-7.42C331.77,29.62,332.26,28.92,331.91,27.39Z"/><path class="cls-68" d="M379.83,27.18c1.93-2.16,4.13-1.51,6.13-.32,1.34.79,2.27,2.11,1,3.78A18.88,18.88,0,0,0,385.11,33c-1.13,2.2-2.13,5.28-5.05,4.32-2.77-.91-4-3.72-2.95-6.9C378.91,30.09,380.47,29.55,379.83,27.18Z"/><path class="cls-52" d="M311.57,470.85c0,2.48.16,4.78,3.17,5.78,1.24.42,2.93.74,3.29,2.52-2.69,1.93-6.11,4.06-8.77,1.89s.7-5.51,1-8.38C310.34,472,311.12,471.45,311.57,470.85Z"/><path class="cls-69" d="M231,250.73c-.15-.92-.85-1.24-1.63-1.48,4.35-4.64,10.37-6.57,15.7-9.61C241.9,245.33,236,247.53,231,250.73Z"/><path class="cls-70" d="M127.14,492.82c.42,5.8-2.92,10.55-4.39,15.82a2.64,2.64,0,0,0-1.82-1.76c1.85-4,3.49-8,3.23-12.57Z"/><path class="cls-71" d="M238.83,232.82c0,1.33,0,2.62-1.72,2.9-2.18.35-6.34-1.92-6.06-3.5.42-2.42,2.81-1.49,4.3-2C237.63,229.41,238.6,230.75,238.83,232.82Z"/><path class="cls-72" d="M379.83,27.18c2.24.2,4.32,1.19,3,3.61-1.73,3.26-3.94,1.69-5.76-.36A7.14,7.14,0,0,1,379.83,27.18Z"/><path class="cls-73" d="M285.23,33.86c1.1,1.54,2.79,3,1.55,5.12-1.09,1.85-2.94,1.17-4.58.93C281.63,37.09,282.18,34.85,285.23,33.86Z"/><path class="cls-74" d="M331.91,27.39c2,.11,3.55.62,3.26,3.12a2.65,2.65,0,0,1-2.41,2.55c-2.25-.07-2.7-1.92-2.63-3.87Z"/><path class="cls-75" d="M238.67,47.28c1.79.21,3.81.31,3.42,2.91-.46,3.06-2.7,2.35-4.71,2C237.08,50.35,237,48.58,238.67,47.28Z"/><path class="cls-76" d="M426.6,33.6c2.57,0,4.4,1.16,2.87,3.68-1.27,2.08-3.45,1.89-4.83-.54A4.77,4.77,0,0,1,426.6,33.6Z"/><path class="cls-77" d="M472.92,45.88c2.17,1.22,2.81,3.06.89,4.7-1.55,1.32-3.23.49-4.15-1.41A4.61,4.61,0,0,1,472.92,45.88Z"/><path class="cls-57" d="M418.68,458.7c-.5,3.67,1,5.29,4.71,4.57a3.23,3.23,0,0,1-5.13,1.19C416.48,463,416.13,460.46,418.68,458.7Z"/><path class="cls-52" d="M308.57,466.42c.39-3.11-1.54-6.63,1.63-9.25C309.94,460.3,310.89,463.65,308.57,466.42Z"/><path class="cls-15" d="M579.83,402.54c.07.73.19,1.46.19,2.19,0,1.26-.19,2.73-1.84,2.4-1.5-.3-1.21-1.82-1.09-3Z"/><path class="cls-78" d="M277.52,238.55c.58-1.13,1.22-2.23,1.71-3.4,4.28-10.24,11.6-16,23-17,6.74-.59,13.25-3.31,20.19-2.79-.22,13.49-15.36,26.75-27.83,24.09-4.79-1-9-.89-13.18,1.94C278.4,243.37,276.59,242.54,277.52,238.55Z"/><path class="cls-79" d="M277.52,238.55c.23,1.41-.12,3.38,2.44,2.56a1.23,1.23,0,0,0,.64-.41c4.47-6.34,10.1-4.94,16.14-2.75a10,10,0,0,0,11.77-3c3.71-4.21,8.11-7.8,11.06-12.69,1.31-2.18,3-4.15,2.82-6.92,2.14.58,2,2.27,1.39,3.67-2.7,6.54-5.41,13.07-10.2,18.48-1.39,1.58-3.92,2.56-2.82,5.7.72,2-1.38,1.42-2.44,1.54a34.41,34.41,0,0,1-15.08-1.83c-5-1.73-9.45-1.74-13.93.92-1.15.68-2.47,1.33-3.57.52-1.37-1,.49-2.16.32-3.37A2.15,2.15,0,0,1,277.52,238.55Z"/><path class="cls-80" d="M261.5,219c.17.72.63,1.5.43,2a31.2,31.2,0,0,0-1.52,16.32c.1.6-.41,1.29-.63,1.94A6.55,6.55,0,0,1,258,238c-4.38-6-3.51-13.64,2-18.26A10.2,10.2,0,0,1,261.5,219Z"/><path class="cls-81" d="M237.33,469.6c.29-4.14,1-8.17,3.31-11.73a10.9,10.9,0,0,0,1.52-6.48c2.22,2.65,1.31,5.82,1.08,8.68-.3,3.77-1.27,7.49-1.05,11.34.12,2.07-.93,3.72-2.93,3.72-2.89,0-1.71-2.42-1.8-4C237.43,470.61,237.37,470.11,237.33,469.6Z"/><path class="cls-82" d="M75.74,499c1.61-5.66,3.21-11.33,4.84-17a16,16,0,0,1,.91-2c1.15.56.62,1.61.61,2.43,0,3.35-.13,6.7-.21,10-1.88,1.9-.83,4.3-1.08,6.48-.22,1.93.33,4.44-2.62,4.54C74.83,503.61,76.3,500.67,75.74,499Z"/><path class="cls-83" d="M106.85,494.38c2.09-3.14,5-1.91,7.77-1.44.49,5.28-1.13,8.38-5.32,10.17-2.47,1.05-3.84,0-3.35-2.85C106.28,498.3,107.4,496.48,106.85,494.38Z"/><path class="cls-84" d="M139.3,486.62c1.24-4.73,2.41-9.48,3.77-14.18.25-.86,1.28-1.5,1.94-2.25.17,1,.37,2,.48,3,.08.77,0,1.55.07,2.32-2.26,3.25-.58,7-1.29,10.43-.3,1.49-.05,3.1-.4,4.57a2.54,2.54,0,0,1-2.88,2c-1.73-.18-1.77-1.45-1.68-2.81C139.38,488.66,139.31,487.64,139.3,486.62Z"/><path class="cls-85" d="M117.78,477c-.2,2.13-3.6,5-6.07,5-1.77.05-2-1.14-1.95-2.52.15-3.81,1.73-5.44,5-5.2C116.48,474.41,117.76,475,117.78,477Z"/><path class="cls-86" d="M327.34,447.91c2.29-3,.55-7.67,4.17-10.12,0,3.55.07,7.1.12,10.65a4.79,4.79,0,0,0,.1.76c-1.63,2-1.05,4.41-1.27,6.64-.2,2-.71,3.84-2.9,3.72-2.93-.16-1.86-2.66-1.49-4.12A29.25,29.25,0,0,0,327.34,447.91Z"/><path class="cls-87" d="M173.76,465a3.76,3.76,0,0,1,.59-.48c2.6-1.37,6-4.22,8.05-1.5,2.5,3.25-2.13,5-3.87,7.12a18.92,18.92,0,0,1-5.06,4.56c-1.48.84-.76-1.15-1.21-1.75C173.91,470.52,171.84,467.39,173.76,465Z"/><path class="cls-43" d="M173.76,465c-.15,2.71.31,5.55-1.5,7.95C172.49,470.26,170.74,467.18,173.76,465Z"/><path class="cls-88" d="M440.18,429.2a7,7,0,0,0-1.16.91c-.79.95-1.5,2.27-2.89,1.82-.4-.13-.34-1.79-.39-2.76s0-2,0-3c1.26-2.32,1.29-4.9,1.61-7.42.13-1,.43-2.06,1.73-2.12a2.38,2.38,0,0,1,2.61,2.16C442.58,422.47,441,425.78,440.18,429.2Z"/><path class="cls-89" d="M499.35,407.59c-1,5.25-5.39,7.67-9.12,10.56a2.12,2.12,0,0,1-2.75-.58,1.52,1.52,0,0,1,.38-2c2.42-2,1.79-5.17,2.78-7.71C493.53,407.19,496.39,405.62,499.35,407.59Z"/><path class="cls-8" d="M553.8,409.18c-.34,2.64.39,5.49-1.59,7.79C552.61,414.35,550.57,411.22,553.8,409.18Z"/><path class="cls-90" d="M309.37,223l1.75.46a7.45,7.45,0,0,1-1,1.94c-6.73,6.52-8.2,6.8-15.33,4-.77-.3-2.23.08-2-1.38.08-.59.87-1.22,1.49-1.58C295.76,225.56,306.93,223,309.37,223Z"/></g></g></g></svg>