<svg xmlns="http://www.w3.org/2000/svg" viewBox="0 0 721.45 390.34"><defs><style>.cls-1{fill:#f0dee7;}.cls-2{fill:#08211f;}.cls-3{fill:#0198ad;}.cls-4{fill:#add141;}.cls-5{fill:#0198ac;}.cls-6{fill:#0197ab;}.cls-7{fill:#29becf;}.cls-8{fill:#53c0b1;}.cls-9{fill:#4ebfae;}.cls-10{fill:#4fc0af;}.cls-11{fill:#53c0b0;}.cls-12{fill:#51c0af;}.cls-13{fill:#50bfaf;}.cls-14{fill:#50c0af;}.cls-15{fill:#56c1b1;}.cls-16{fill:#2fbdcf;}.cls-17{fill:#0296aa;}.cls-18{fill:#5bc2b2;}.cls-19{fill:#47beac;}.cls-20{fill:#5cc3b3;}.cls-21{fill:#4fbcab;}.cls-22{fill:#4fbfae;}.cls-23{fill:#5ac1b0;}.cls-24{fill:#23bdce;}.cls-25{fill:#2dc0d2;}.cls-26{fill:#0297ab;}.cls-27{fill:#2dbfd1;}.cls-28{fill:#edf2f3;}.cls-29{fill:#2abed0;}.cls-30{fill:#f6f9f9;}.cls-31{fill:#f5f8f8;}.cls-32{fill:#f4f6f6;}.cls-33{fill:#f4f7f7;}.cls-34{fill:#0b99ad;}.cls-35{fill:#0798ac;}.cls-36{fill:#eef3f3;}.cls-37{fill:#0698ac;}.cls-38{fill:#0898ac;}.cls-39{fill:#0c98ac;}.cls-40{fill:#2ebfd1;}.cls-41{fill:#047264;}.cls-42{fill:#f3f6f6;}.cls-43{fill:#2bbdcf;}.cls-44{fill:#047566;}.cls-45{fill:#54bdac;}.cls-46{fill:#0c97ab;}.cls-47{fill:#0997ab;}.cls-48{fill:#53bfae;}.cls-49{fill:#55beae;}.cls-50{fill:#55bead;}.cls-51{fill:#2ebed0;}.cls-52{fill:#56c1b0;}.cls-53{fill:#57c1b0;}.cls-54{fill:#036659;}.cls-55{fill:#2dbdcf;}.cls-56{fill:#58c2b1;}.cls-57{fill:#036558;}.cls-58{fill:#58c0af;}.cls-59{fill:#078c7a;}.cls-60{fill:#036b5e;}.cls-61{fill:#1aab95;}.cls-62{fill:#03685b;}.cls-63{fill:#28bacb;}.cls-64{fill:#057566;}.cls-65{fill:#036e61;}.cls-66{fill:#f3f8f9;}.cls-67{fill:#057465;}.cls-68{fill:#057162;}.cls-69{fill:#f0f6f6;}.cls-70{fill:#edf4f5;}.cls-71{fill:#d7e7ea;}.cls-72{fill:#3ba9ba;}.cls-73{fill:#159e8a;}.cls-74{fill:#068b79;}.cls-75{fill:#05927f;}.cls-76{fill:#31b6c7;}.cls-77{fill:#deeaec;}.cls-78{fill:#2d5557;}.cls-79{fill:#1da893;}.cls-80{fill:#258d9c;}.cls-81{fill:#e8f1f2;}.cls-82{fill:#2a6066;}.cls-83{fill:#05907d;}.cls-84{fill:#d0e5e9;}.cls-85{fill:#e9eff0;}.cls-86{fill:#0a7786;}.cls-87{fill:#dde7e8;}.cls-88{fill:#bbd5d9;}.cls-89{fill:#0a7280;}.cls-90{fill:#3f6c6e;}.cls-91{fill:#2abfd1;}.cls-92{fill:#29bfd1;}.cls-93{fill:#053832;}.cls-94{fill:#06342f;}.cls-95{fill:#063a35;}.cls-96{fill:#052f2b;}.cls-97{fill:#15a08b;}.cls-98{fill:#12a08b;}.cls-99{fill:#3bb5c5;}</style></defs><g id="Layer_2" data-name="Layer 2"><g id="Layer_1-2" data-name="Layer 1"><g id="_0U7Iau.tif" data-name="0U7Iau.tif"><path class="cls-1" d="M556.8,278.45H706.67c2.5,0,5-.08,7.52.08,3.51.24,6.1,1.91,7,5.48s-.44,6.25-3.51,8.1c-6.44,3.88-12.76,8-19.4,11.48-3.39,1.79-4.32,4-4.29,7.56.13,21.88.06,43.76.06,65.65,0,1.59,0,3.19,0,4.78-.28,6.79-3.53,9.79-10.1,8.44-17.16-3.54-34.52-5.95-51.79-8.85-13.46-2.26-27-3.9-40.5-5.94-20.69-3.13-41.51-5.13-62.31-7.28-27.16-2.8-54.43-4.39-81.7-5.89q-53-2.93-105.92-2.39-30.42.27-60.83,1.68c-21.59,1-43.19,2.32-64.72,4.22-25.11,2.22-50.21,4.75-75.21,8Q97.35,379.26,54,387c-1.56.29-3.14.54-4.72.71-8,.88-11-1.64-11.16-9.58-.07-3.42,0-6.84,0-10.26,0-16.64-.15-33.28.09-49.92.06-4.22-1.34-6.52-5-8.49-8.84-4.73-17.42-9.92-26.09-14.95a17.46,17.46,0,0,1-5.39-4.14C-1.63,286,.08,280.4,5.39,279a26.34,26.34,0,0,1,6.78-.49q65.36,0,130.71,0H316.7a10.66,10.66,0,0,0,2,0c1.82-.35,4.77,1.09,5.13-1.52.28-2.08-2.52-2.88-4.39-3.69-14.85-6.4-29.55-13.19-44.61-19-7.7-3-12.19-8.47-15.83-15.15a40.72,40.72,0,0,1-4.94-13.39,7.28,7.28,0,0,0-5.26-6.39c-13-4.28-18.72-14.62-21.53-26.88a11.54,11.54,0,0,0-4.85-7.5c-9-6.76-13.54-16.4-15.93-27.1a25.74,25.74,0,0,0-4.46-9.78c-5.33-7.32-8.17-15.7-9.41-24.64-.56-4-.78-8.16-1.75-12.1-.86-3.5-.42-6.32,2.22-8.68,2.94-2.64,6.23-2.28,9.58-.84q9.39,4.06,18.8,8.11c1.46.63,3,1.21,4.46,1.7.58.18,1.48.31,1.85,0,.9-.74.18-1.63-.25-2.36-2.17-3.74-4-7.73-6.65-11.13-6.26-8.09-2.41-16,9.08-15.48,13.21.55,26.45.14,39.68.14,6.16,0,12.32-.19,18.47,0,3.2.11,5-1.1,6.44-3.87a46.54,46.54,0,0,1,4.74-7.48c2.39-3.08,5.39-5,9.47-3,2.49,1.21,3.25.26,3.1-2.19-.34-5.61,1.24-10.73,3.65-15.76A32.92,32.92,0,0,1,324,39.76c3.79-3.31,8.11-4.94,13.25-3.47a15.46,15.46,0,0,0,13.11-2c6-4,8.27-11.1,5.9-18-.67-1.94-1.56-3.81-2.08-5.78-1.88-7.12,1.46-11,8.8-10.46,17.8,1.37,29.37,11.15,36.18,27.07,2.51,5.88,3.15,12.33,4.36,18.58.5,2.61-.44,4.91-1.78,7.12a35.76,35.76,0,0,0-3.28,6,5.17,5.17,0,0,0,3.1,6.71c3.6,1.16,3.57-2,4.18-3.94C407,57.44,408.1,53.24,409,49c.78-3.59,2.29-6.52,6-7.55,3.91-1.08,6.5,1.28,8.79,4,8,9.44,14,20.19,19,31.48,2.52,5.7,2.4,5.77,8.78,5.77,12.32,0,24.64,0,37,0a52.18,52.18,0,0,1,7.51.24c5.88.86,8.57,5.67,6,11-2.29,4.7-5.23,9.07-7.7,13.69-.65,1.22-2.59,2.55-1.15,4.06,1.08,1.11,2.54-.24,3.74-.74,6.71-2.83,13.47-5.58,20.08-8.63,3.52-1.63,6.9-2.75,10.22-.08s3.62,6.42,2.64,10.54a105.65,105.65,0,0,0-1.61,11.42,50.66,50.66,0,0,1-10,25,17.11,17.11,0,0,0-3.25,7.3c-1.73,8.34-4.8,16.13-10.35,22.77-.58.7-1,1.74-1.68,2.12-7.16,3.72-8.72,10.63-11.07,17.54-3.26,9.6-9.56,17.06-19.64,20.44-2.88,1-4.46,2.55-5,5.72A47.37,47.37,0,0,1,462.65,238c-3.58,7.39-8.58,13.05-16.6,16.26-14.8,5.91-29.31,12.52-43.94,18.85a25.18,25.18,0,0,0-3.64,1.81c-.9.57-2,1.28-1.46,2.64.42,1,1.54.82,2.4.86,1.82.09,3.65.05,5.48.05Z"/><path class="cls-2" d="M549.33,285q78.36,0,156.72.07c2.29,0,5.67-1.54,6.65,1.24.44,1.25-3.2,2.7-5.1,3.85-5.26,3.17-10.49,6.44-16,9.16-3.35,1.66-4.43,3.71-4.4,7.39.16,22.8.08,45.59.07,68.39a35,35,0,0,0,0,4.1c.41,3.44-1,4.55-4.3,3.71-8.83-2.22-17.89-3.14-26.83-4.73-23.06-4.1-46.25-7.22-69.42-10.54-18.91-2.71-37.89-4.55-56.86-6.56-26.93-2.86-54-4.15-81-5.83-38.26-2.37-76.51-2.59-114.79-2.36-18,.11-36,.73-54,1.63-21.82,1.1-43.63,2.42-65.39,4.25-22.63,1.89-45.29,3.88-67.78,7-27.85,3.82-55.77,7.29-83.38,12.74-4.68.92-9.44,1.43-14.17,2.09-4.35.6-4.46.57-4.47-3.95,0-20.74-.17-41.49.1-62.23.06-4.7-1.33-7.29-5.56-9.41A332,332,0,0,1,9.88,288c-.72-.47-1.9-1.26-1.83-1.75.22-1.44,1.65-1.18,2.74-1.19,2.28,0,4.56,0,6.84,0h310.7c8.7,0,8.33.17,4.42-7.74-2.95-6-7.42-9.37-13.37-11.8-13.67-5.6-27.05-12-40.85-17.21-8.93-3.41-12.72-10.44-15.93-18.32-.94-2.31-2.1-4.75-2.13-7.14-.05-5.6-3.34-7.92-8-9.41-11.64-3.71-16.54-12.83-18.61-23.92-.82-4.37-2.22-7.31-6.54-9.87-8.54-5-11.94-14.1-13.94-23.36-.93-4.32-2.15-8.07-5-11.56-5.68-6.88-7.85-15.26-9-24a10.42,10.42,0,0,1,0-1.37c0-3.74-2.38-7.34-.66-11.18,3.39,1.25,6.84,2.37,10.17,3.77,9.84,4.16,19.63,8.43,29.44,12.65,1.25.54,2.48,1.14,3.76,1.59.77.27,1.72,1.14,2.4.06.54-.84-.11-1.69-.54-2.48-.66-1.2-1.25-2.43-1.94-3.61q-7.69-13.29-15.42-26.56c-2.18-3.75-2.07-4.13,2.13-4.17,10.95-.11,21.9-.07,32.85-.08,9.81,0,19.62-.13,29.43.1,3.81.09,6.45-.74,8.08-4.51a65.38,65.38,0,0,1,4.88-8.18c1.41-2.25,2.51-1.27,3.12.52a69.55,69.55,0,0,1,2.19,7.87c.67,3.24,2.44,4.51,5.75,4.27s6.38-.06,9.57-.1c1.73,0,2.63-.58,1.44-2.43-1.35-2.1-2.7-4.21-3.9-6.4-6-11-3.86-26.14,4.79-34,3-2.7,5.85-4,10.39-3.2,12.53,2.28,23.75-4.92,26.16-16.23a26.64,26.64,0,0,0-1.94-16.68c-1.24-2.77-.25-3.49,2.67-3.18,14.22,1.54,23.09,9.78,28.37,22.45,1.38,3.32,2,7,2.91,10.44a15.17,15.17,0,0,1-1.78,12.82C389.08,60.41,391.18,68,398,71.63c5.85,3.09,11.59.94,13.67-5.38,1.57-4.73,2.72-9.6,4.08-14.4.23-.83.34-2.09.89-2.36,1.2-.56,2.08.54,2.78,1.41a106.33,106.33,0,0,1,11.35,17c3,5.61,6.08,11.28,7.69,17.46.91,3.48,2.7,4.1,5.84,4.07,13.23-.12,26.46,0,39.69,0,2.51,0,5-.05,7.53,0,5.07.14,5.09.18,2.47,4.74-5.32,9.26-10.74,18.47-15.94,27.8-.77,1.39-3.06,3-1.48,4.64,1.12,1.19,2.92-.49,4.3-1.08,12.76-5.42,25.48-10.95,38.22-16.44,4.16-1.79,4.21-1.72,3.65,3.07-1.11,9.68-1.73,19.49-7,28.15-1,1.76-1.94,3.72-3.36,5.12-2.77,2.74-3.69,6-4.33,9.7a42.45,42.45,0,0,1-9.61,20.77c-1,1.2-2.09,2.91-3.41,3.22-6,1.45-7,6.2-7.86,11.12a21.58,21.58,0,0,1-.46,2.69c-2.95,9.57-8,17.4-18.14,20.57-4.73,1.48-7.76,3.56-8,9.28-.19,4.45-2.46,8.71-4.49,12.79a24.59,24.59,0,0,1-13.55,12.65c-14.37,5.71-28.24,12.7-42.69,18.16-8.15,3.08-10.89,9.84-14.52,16.26-1.47,2.6,1.05,2.36,2.47,2.37q16.08.11,32.16.08H549.33Z"/><path class="cls-3" d="M407.85,141c-3,4.68-8.65,5.66-12.6,9-1.58,1.34-3.54,2.44-.29,4.12.35.18.38,1.23.34,1.86-.77,11.33-9.12,19.07-20.61,19.23-1.38,0-5.26-1-1.14,2.17,1,.77.46,1.6-.71,1.65a243.4,243.4,0,0,1-24.61.1c-2.54-3.63-6.37-2.13-9.76-2.5-4.65-.5-6.36-4.11-7.37-7.91-1.85-7-3.75-14-5-21.17-1.46-8.71-2.31-17.54-3.23-26.33-.22-2.16-.74-4.59,1.15-6.47,1.62-1.89-.12,6.88,3.07.9,2-3.75,4.68-3,6.58.45,1.63,3,2.53,6.3,4.26,9.23,4.38,7.45,7.72,7.54,12.22.36,2.19,2.66.71,6.22,2.25,9.09.92,1.71-.68,2.4-1.87,3a10.89,10.89,0,0,1-13.85-4.73c-1.61-3.24-2.86-6.66-4.25-10-.4-1-.48-2.73-1.87-2.06-1,.47-2.23,2.77-1.89,3.26,3,4.37,2.4,10.19,5.81,14.28,3.58,4.28,10.51,5.33,16.24,2.6,1-.46,1.7-1.76,2.9-.78,1,.8.8,2,.68,3.18-.26,2.57-1.9,4.6-2.66,7a2.23,2.23,0,0,0,.19,1.87c.5.48,1.15-.12,1.58-.58.79-.82,1.56-1.66,2.32-2.5,1.77-2,3.39-2.09,4.81.37,1.09,1.89,1.68,1.79,2.08-.4,1.94-10.58,12.73-17.46,24.9-16.37,2.42.22,4.26,1.26,6.29,2.2a3.79,3.79,0,0,0,3.3-.13c-.47-.73-1-1.45-1.41-2.2s-1.4-1.86-1.17-2.24c.46-.77,1.6-.39,2.48-.18,1.32.3,2.64.59,4,.8.43.07,1.17,0,1.28-.19.39-.76-.42-.94-.87-1.23-.95-.61-2-1.11-2.9-1.76-3.78-2.63-3.76-2.64-.86-6.4a13.73,13.73,0,0,0,1-1.75,9.12,9.12,0,0,0-1.88,0c-4.88.85-9.68,2.25-14.74,2a10.87,10.87,0,0,1-4.45-1.45c.71-5,5.33-4.17,8.43-5.62a52.33,52.33,0,0,1,9.53-.32c12.76.42,19.46,12.17,13.43,23.53A6.82,6.82,0,0,0,407.85,141Z"/><path class="cls-4" d="M288.41,111.27c.5,4.78-1.27,9.39-.71,14.24,2.69,23.2,15.36,39.35,35.49,50,3.81,2,5.36,4,5.22,8.25a157.26,157.26,0,0,1-4.84,32.88c-2.89-.29-4.25-2.47-5.52-4.63q-27.36-46.53-54.14-93.41c-3.68-6.4-1.9-9.67,5.53-9.45C275.76,109.33,282.57,106.52,288.41,111.27Z"/><path class="cls-5" d="M346.06,83.41c-.59.35-1.19.67-1.77,1-7.62,4.82-7.49,4.74-12.86-3-5.61-8.09-7.42-16.4-2.5-25.44,2.47-4.53,3.61-5,9.09-4.36,14.82,1.86,29.23-8.23,32.67-22.89a11.32,11.32,0,0,1,.63-2.64c1.07-2-.41-5.69,1.39-6.09,2.34-.53,3.87,2.68,5.44,4.52,4.94,5.78,6.18,13,7.4,20.2.29,1.72-.8,3-1.61,4.38-6,10.2-3.78,23.3,7.87,29.1a15.74,15.74,0,0,1,2.53,2c-.83.35-1.69.65-2.49,1.06-1.62.83-3.24,1.66-4.79,2.6-1.09.66-2.2,1-3-.1-2.7-3.72-6.55-3.54-10.46-3.32a3.29,3.29,0,0,1-3.08-1c.43-1,1.88-2,1.3-3a29,29,0,0,1-4.24-18.11c.18-1.91-1-1.79-2-.79-6.43,6.39-15.47,3.83-23,6.6-3.76,1.38-4.08,2.53-3,5.58a34.28,34.28,0,0,0,4,7C344.88,78.77,347,80.55,346.06,83.41Z"/><path class="cls-6" d="M288.41,111.27c-6.82-.06-13.64-.22-20.46-.16-5.7.06-5.91.35-3.2,5.22q8.44,15.17,17.18,30.16,18.57,32.08,37.24,64.11a24.2,24.2,0,0,0,4.4,6c.53,3.44-.82,6.71-.9,10.1,0,1,.29,2.48-1.19,2.85s-1.91-1-2.44-1.86q-5-8.52-9.94-17.09l-55.58-96.19c-1.6-2.76-3.06-5.59-4.72-8.3-1.41-2.29-1-3.23,1.78-3.22,9.11,0,18.21,0,27.32,0,3,0,5.93.13,8.88,0,3.75-.19,4.26,1.49,3,4.53C289.24,108.68,288.86,110,288.41,111.27Z"/><path class="cls-4" d="M397.66,217.54c-3.4-7.57-4.36-15.65-5.05-23.79-.31-3.62.19-7.3-.89-10.85-1.15-3.77.39-5.92,3.86-7.46A101.26,101.26,0,0,0,408.35,169c21.31-13.33,33.14-32.49,34.95-57.67,4-4.17,9-2.73,13.28-1.48,4.52,1.3,2.64,5,1.14,7.85-4.66,8.84-9.75,17.43-14.78,26.06-13,22.37-25.94,44.79-39,67.15C402.43,213.54,401.31,216.79,397.66,217.54Z"/><path class="cls-7" d="M397.66,217.54c9.68-16.4,19.44-32.75,29-49.22,10-17.25,19.86-34.61,29.76-51.94,2.73-4.77,2.53-5.17-2.91-5.25-3.4,0-6.81.11-10.22.17-.12-1.57-.21-3.16-.37-4.73-.3-3.08,1.3-3.83,4.09-3.8,7.5.07,15-.15,22.51-.08,4.6,0,4.77.42,2.36,4.6q-22.78,39.54-45.63,79Q415.37,205.19,404.45,224c-.79,1.35-1.27,3.67-2.78,3.58-1.94-.12-1.86-2.67-2.64-4.18A11.6,11.6,0,0,1,397.66,217.54Z"/><path class="cls-8" d="M57.08,332.64c-1.83-1.4-2.09-3.61-2.21-5.52-.37-6.11-.58-12.28.44-18.34,1.38-8.2,6.57-13,14.8-13.38,7.26-.37,14.54-.21,21.82-.37,3.26-.07,5.16.94,5,4.65-.43,13,1.32,13-12.29,13.38-2,.06-4.09.09-6.14.21-2.23.14-5-.12-5.11,3.09s2.47,3.29,4.8,3.4a71.69,71.69,0,0,1,7.49.41c4.94.8,10,1.62,12.72,6.67,1,2.22-.17,3.82-2.07,4.1C83.34,332.92,70.33,335.85,57.08,332.64Z"/><path class="cls-9" d="M168.1,295.45c1.77-2.07,4.2-1.32,6.38-1.42,7.24-.33,14.5,0,21.73-.81,3.21-.37,6.32.46,9.36,1.39a10,10,0,0,1,7.27,8.23c.63,4.17,1.46,8.74-.83,12.65-2,3.45.75,3.6,2.47,4.66,1.57,4.54-2.26,4.58-4.52,4.53-11.85-.3-23.55,1.89-35.38,1.66-4.93-.09-7.68-1.64-7.24-7.2C168,311.26,166.61,303.31,168.1,295.45Z"/><path class="cls-10" d="M512.87,323c-2.13-2-.66-4.6-1.07-6.89a50.54,50.54,0,0,0,0-16.69c.4-6.09.53-6.43,6-6.35,9,.12,18.11.33,27.13.92,7.86.51,11.77,4.91,12,12.77.09,2.71.83,5.86-.27,8.05-2.26,4.49-.1,6.87,2.91,9.33,0,2.84-2.25,2.43-3.88,2.47-12.88.3-25.68-1.44-38.54-1.84A7.84,7.84,0,0,1,512.87,323Z"/><path class="cls-11" d="M452.94,319.92c1.76-8.55,6.55-15.91,9.38-24.05.82-2.37,3.12-3.1,5.6-3.09,6.15,0,12.3.1,18.45,0,4-.09,5.55,2.4,6.79,5.55,2.5,6.35,5.07,12.66,7.61,19,1.84,4.54-1.15,6-4.56,6.09-12.63.22-25.27.3-37.89-.08C455.92,323.24,453.91,322.34,452.94,319.92Z"/><path class="cls-12" d="M226.69,321.76c-.35-.54-1.12-1.33-1-1.59,4.12-7.29,6.73-15.22,9.78-23,1.24-3.16,3.3-4.55,6.74-4.46,5.89.15,11.79.09,17.69,0,2.72,0,5,.63,6.15,3.28q4.41,10.31,8.61,20.68c.4,1,.14,2.24.19,3.37-1.78,1.63-4,2-6.28,2.37-12,2.05-24.08,1.16-36.14,1.15A10,10,0,0,1,226.69,321.76Z"/><path class="cls-13" d="M355.63,320c-1.35-.4-2.8-1.05-3.15-2.37-1.61-6-1.84-12.21.58-18,2.08-5,7.16-6.5,11.86-6.84,8.14-.59,16.36-.21,24.55-.23,2.74,0,4.28,1.26,4.27,4.1,0,1.82-.11,3.64-.08,5.46,0,2.88-1.43,4.1-4.21,4.09-4.09,0-8.18,0-12.28,0-1.59,0-3.19,0-4.78.08a2.16,2.16,0,0,0-2.29,2.06,2.29,2.29,0,0,0,2.26,2.13c3.61.43,7.22.8,10.82,1.28,4.59.62,8.94,1.79,12,5.63a3.93,3.93,0,0,1-4.14,4.37C379.23,321.92,367.26,324.06,355.63,320Z"/><path class="cls-14" d="M294.22,319.85c-.79-2.91-.5-5.89-.28-8.8.28-3.7-1.33-4.93-4.75-4.5a10.42,10.42,0,0,1-1.37,0c-8.72-.06-9.65-1.2-8.78-9.79.29-2.85,1.64-4.07,4.33-4.08l40.17-.1c2.56,0,3.67,1.42,3.69,3.85,0,1.58,0,3.17-.05,4.76-.25,4.78-.39,4.93-5.06,5.13-2.5.11-5,.08-7.49.12-3,1.39-1.92,4.12-2.16,6.44s.69,4.89-.69,7.16h0C305.89,323.3,300,323.55,294.22,319.85Z"/><path class="cls-15" d="M416.1,319.78c-.8-2.45-.39-5-.4-7.46,0-5.79,0-5.79-6.06-5.92a5.1,5.1,0,0,1-.68,0c-2.4-.36-5.49,1.11-7-1.31-1.91-3-1.21-6.64-.73-10,.38-2.58,2.79-2.55,4.91-2.54q12,.06,23.93.07c4.78,0,9.57.1,14.36,0,3.11,0,4.76,1.32,4.57,4.48s.83,6.42-1.73,9c-3.85,2.29-9.12-1.2-12,1.78s.2,8.14-1.61,12.1h0C427.74,323.26,421.88,323.62,416.1,319.78Z"/><path class="cls-16" d="M338,251.78a6.37,6.37,0,0,1-2.77-4c1.42-4.27.53-8.53-.09-12.78,1.56-1.43,3.62-1.55,5.52-2.1,9.89-1.88,18.82-6.23,27.68-10.74,2.61-1.33,5.12-2.88,7.72-4.25s5-1.09,5.77,2.2c1.76,7.24,2.86,14.54,1.47,22-8.72,2.51-17.77,3.41-26.59,5.42-.63.15-1.75.59-1.72.78.15,1.14,1.21.85,2,.91,2.47.19,5-.74,7.41.26-.87,2.89-3.41,2.63-5.53,2.67C351.9,252.28,344.94,252.64,338,251.78Z"/><path class="cls-17" d="M410.57,95.8c-.44-5-.9-10-5.73-13.22-1.61-1.08-.33-1.73.89-2,5.62-1.37,10-4.39,12.41-9.76,1.48-3.36,2.79-2.33,3.89,0a112.26,112.26,0,0,1,9.22,28.4c2.61,15,.18,28.92-7.87,41.83a64.08,64.08,0,0,1-22.13,21.84c-.57.33-1.48.87-1.82.66-1.09-.66-.1-1.62.1-2.36a21.66,21.66,0,0,1,8.62-12.65,39.57,39.57,0,0,0,7.27-7.19c4.11-4.83,6.73-10.28,5.88-16.88,1.78-8.84,4.84-17.49,1.81-26.79-2.11-6.52-1.7-6.67-7.47-3.09C414.08,95.55,412.54,96.58,410.57,95.8Z"/><path class="cls-18" d="M666.37,346.12c1.67,2.44,4.5,1.75,6.78,2.27,2.73.63,3.92,2,4,4.64.06,3.62.09,7.25,0,10.88-.07,2.88-1.66,3.94-4.51,3.51-10.52-1.61-21-3.27-31.58-4.63-3.64-.47-5-2-5.17-5.66-.58-12.12-.69-12.11,11.25-12.45.93-3.43,2.16-6.68,6.69-5.6C658.61,340.22,665.36,338.13,666.37,346.12Z"/><path class="cls-19" d="M641.65,313.29c-1.14-.09-2.54-.08-3-1.17-2.19-4.95-1.4-10.14-.73-15.24.19-1.43,1.94-1.7,3.36-1.68,7,.07,14.06.13,21.08.26,3.76.06,4.22,2.66,4.2,5.64-.09,10.42-.14,20.83-.21,31.24-6.23,3.73-12.12,2.44-17.85-1.2l0,0c-1.13-3.24-.79-6.66-.42-9.88C648.6,316.09,647.17,313.23,641.65,313.29Z"/><path class="cls-11" d="M599.46,326.7c0-3.64-.21-7.31.1-10.92.29-3.33-1.27-4.35-4.18-4.84-5.77-1-5.76-1.06-5.92-6.54,0-1.14-.06-2.28-.05-3.42,0-6.64.21-6.84,7-6.8,5.24,0,10.49.08,15.73.3,5.64.23,6.33.95,6.35,6.39,0,9.11-.06,18.22-.09,27.33C611.14,332,603.89,331.37,599.46,326.7Z"/><path class="cls-18" d="M98.37,350.35c-1.78,5.71-5.93,9.19-11.4,10.67-9,2.42-18.31,3-27.51,4.27-3.54.48-5-1.26-4.86-4.7.46-12.89-2.94-13,12.79-14.56,3.61-.35,7.21-.83,10.81-1.23a2.62,2.62,0,0,0,2.53-2.65c4-5.14,9.72-3.55,15-3.48,2,0,3.17,1.71,3.16,3.71C98.84,345,99.47,347.75,98.37,350.35Z"/><path class="cls-20" d="M127,339.28c4.44,2.68,8.38,1.15,12.2-1.44,6.18-5.33,13.61-5.29,17.94.09.76,7.05-2.63,11.75-8.59,14.85-9.7,5-20.16,5.4-30.61,4-4.59-.63-8.44-3.47-8.91-8.93-.9-8.24-.78-8.46,7.11-9.49,2.9-.39,5.79-1.24,8.75-.4A8.81,8.81,0,0,1,127,339.28Z"/><path class="cls-18" d="M618.73,341.84a26,26,0,0,1,2.64.63c2.4.86,6-.5,7,2.91a24,24,0,0,1,.1,13.35c-.44,1.71-2.26,2-4,1.84-10.77-1.26-21.55-2.55-32.32-3.79-3-.34-4.51-1.82-4.3-4.9,0-.45,0-.91,0-1.36.25-3.11-1.15-6.74.8-9.23s5.54-.4,8.37-.81c.93-.13,1.76-.25,2.22-1.17.61-1,1.09-2.09,2.26-2.59C608.12,335.65,614.87,333.93,618.73,341.84Z"/><path class="cls-21" d="M276,335.29A31.33,31.33,0,0,1,276,340c-.49,3.09-1.65,5.63-5.6,5.06a11.28,11.28,0,0,0-2.71.15c-9.6,1.07-9.76,1.08-10.15-8.62-.13-3.43-1.52-4.36-4.55-4-1.13.12-2.27,0-3.4.15-5.78.56-5.8.6-5.93,6.54-.15,7.33-.26,7.51-7.63,7.94-2.93.17-5.88,0-8.82,0-1.94-5.51-.56-11.2-.82-16.8-.16-3.41,2.69-4.12,5.18-4.13,12.3,0,24.55-1,36.81-1.64C276.73,324.23,275.2,330.5,276,335.29Z"/><path class="cls-22" d="M107.94,328.15c-.06-9.46-.09-18.93-.22-28.39,0-2.5.41-4.84,3.25-5,4.87-.29,9.85-1.42,14.61.74,1.59,9.81.44,19.69.62,29.54.06,2.85-2.1,4.52-4.72,5C116.84,330.73,112.07,331.59,107.94,328.15Z"/><path class="cls-23" d="M395.24,336.51c-3.21,5-8.31,6.27-13.63,6.45-8.42.29-16.86.06-25.3.14-3.41,0-5.11-1.39-4.85-4.92a37.37,37.37,0,0,0,0-4.1c-.1-3.18,1.49-4.51,4.59-4.48q8.21.07,16.41,0c1.74,0,3.7.57,5.09-1.14a9.43,9.43,0,0,1,2-1.46c5.36-.8,10.74-1.85,15.85,1.06C396.19,330.87,396.48,333.71,395.24,336.51Z"/><path class="cls-24" d="M346.06,83.41c-2.79-5.09-7.72-8.87-9-14.94a16.81,16.81,0,0,1-.6-4c0-1.8.3-3.19,2.78-2.26s5.19,1.49,7.32-1.28c.89-1.15,2.56-.88,3.87-.72,6.57.78,12.11-.88,16.28-6.29.61-.8,1.43-2,2.73-1,.82.65.34,1.51.22,2.42a65.73,65.73,0,0,0-.4,7.44c-.08,4.67,1,8.92,4.64,12.22.95.86,2.46,1.87,1.68,3.35s-2.45.68-3.74.86l-1.36.16-3.92-.33c-1-.9-2.29-1.67-2.71-3-1.79-5.66-5.76-3.76-8.65-1.92-4.19,2.68.12,4.87,1.27,7.13.4.78,1.2,1.35,1.54,2.22-1.38,1.91-3.14.77-4.78.6C350.85,83.88,348.45,83.65,346.06,83.41Z"/><path class="cls-25" d="M378,202.44c-6.43,1.8-13.15,1.48-19.64,2.77-6.26,2.86-12.77,2.58-19.34,1.57-1.71-5.73.66-11.16,1.35-16.71.31-2.56,2.11-3.64,4.88-3.56,9.06.26,18.13.62,27.18-.21,3.7-.34,5.39,1.94,6.26,5C379.77,195,380.3,198.85,378,202.44Z"/><path class="cls-11" d="M139.35,310.54c0-4.08,0-8.16,0-12.23,0-2.7,1.34-3.95,4.15-4.27,13.41-1.51,14-1,13.82,12.62-.05,5,0,10,.16,14.95.07,2.62-.6,3.88-3.6,4.45-14.31,2.72-14.7,2.51-14.42-12.13,0-1.13,0-2.26,0-3.39Z"/><path class="cls-26" d="M321.51,153c2.58,3.55.91,8,2.38,11.8.69,1.8-.95,2.43-2.4,1.42a85.5,85.5,0,0,1-9.81-7.34c-17.13-16-21.19-38.14-11.07-59.19.29-.61.54-1.73.86-1.75a2,2,0,0,1,1.86,1.64c2.3,6.89,5.69,12.65,12.83,15.92,2.59,1.19.92,5,1.13,7.61-4.08,1.3-6.06-2.18-8.78-3.89-4.41-2.77-5.56-2.37-5.79,2.65-.39,8.65,1.44,16.58,7.95,22.92a111.43,111.43,0,0,1,8.93,9.25C321.5,156.37,320.27,152.29,321.51,153Z"/><path class="cls-27" d="M383.42,250.54c-2.17,5.38-4.78,10.43-10,13.52l.16-.12c-6.42.73-11.62,4.62-17.47,6.84-6.15,2.34-6.23,2.64-9.32-3.21-2.62-5-6.24-9.37-8.09-14.74a4.62,4.62,0,0,1,3.14-1.06c12.86.1,25.72-.07,38.47-2.08A3.59,3.59,0,0,1,383.42,250.54Z"/><path class="cls-28" d="M383.31,242.13c-2.53-6.72-1.16-14-2.87-20.84-.88-3.57-1.11-4-3.93-1.94-8.9,6.58-19.07,10.26-29.52,13.4-2.13.64-4.16,2.07-6.32.17l32.5-15.71a7.87,7.87,0,0,1,3.33-3c1.9-.95,1.34-1.79-.13-2.61-6.61-.36-13.21.13-19.77-.38-2.39-.19-6.41,1.17-6.21-3.75,5.75-2.17,11.54.68,17.3-.19,2.85-.43,5.83.62,8.63-.64,8.66-.06,8.61,0,11.19,8.17,1.42,4.55,2.57,9.18,4.43,13.61C394.78,235.19,390.81,241.27,383.31,242.13Z"/><path class="cls-29" d="M365.06,101c.23,6.54-.3,13.1,1.31,19.58a14.93,14.93,0,0,1-.23,6.77c-.49,2-.53,4.8-3.57,5.14-2.3.26-6.48-2.55-7.11-4.67a28.66,28.66,0,0,1-1.06-3.94,38.1,38.1,0,0,0-10.07-21.13c-1.49-1.56-2.41-3.66-3.59-5.52a1.78,1.78,0,0,1,0-2.83c2.81-.12,3.59-2.8,5.27-4.32,2.9-2.61,1.54,1.85,2.92,1.61C352,98.72,357.71,101.26,365.06,101Z"/><path class="cls-30" d="M444.28,180.55c2.39-6.46,7.4-9.65,13.61-12.12,12.85-5.13,25.45-10.9,38.19-16.32,1.11-.47,2.4-1.93,3.64-.74s0,2.59-.28,3.82c-1.71,6.61-3.81,13-10,17-2.73-6.4-6.91-4-11.27-2-8.62,3.9-17.33,7.6-26.09,11.17C449.65,182.28,446.43,185,444.28,180.55Z"/><path class="cls-31" d="M232.24,172.45c-7.14-4.59-9.07-12.07-10.7-19.63-.46-2.13,1.06-1.91,2.51-1.27,3.12,1.37,6.27,2.63,9.39,4,9.56,4.16,18.94,8.79,28.71,12.37,7.25,2.66,12.72,6.51,15.34,13.89-2.9,2.65-5.63.54-8.21-.53-8.21-3.39-16.28-7.14-24.56-10.39C236.82,167.78,236.76,167.92,232.24,172.45Z"/><path class="cls-32" d="M425.62,213.16c2.34-7,7.36-10.86,14.13-13.51,11.22-4.4,22.17-9.49,33.24-14.28a44.61,44.61,0,0,1,4.44-1.77c1.71-.52,2.74.15,2.29,2-1.7,7.06-3,14.38-10.43,18.19-1.06.58-1.93,0-2-.88-.28-4.18-2.24-4-5.38-2.6-9.28,4.18-18.74,7.95-28.15,11.85C431.27,213.23,428.64,215.5,425.62,213.16Z"/><path class="cls-33" d="M252.74,203.87c-3.89-.54-5.31-3.81-7.15-6.55-2.09-3.09-2.9-6.68-3.42-10.29s.17-4.15,3.5-2.75c10.27,4.32,20.48,8.81,30.72,13.23a35.65,35.65,0,0,0,3.76,1.64c7.36,2.19,12.89,6.34,15.26,14-2.69,2.52-5.19.35-7.5-.59-8.83-3.59-17.77-7-26.22-11.4C257.22,198.82,254.48,198.84,252.74,203.87Z"/><path class="cls-31" d="M462.31,149.19c2.41-6.09,6.89-9.46,13.06-11.8,11-4.18,21.67-9.32,32.52-13.95,1.32-.56,2.87-2.21,4.29-.79,1.24,1.23.43,3-.07,4.53-2.41,7.07-4.56,14.34-12.36,17.64-2.88-6.22-2.88-6.21-9.72-3.46s-13.65,6-20.61,8.65C467.23,150.85,464.15,153.66,462.31,149.19Z"/><path class="cls-31" d="M221.23,144.81c-7.5-4.31-10.42-11.56-12.34-19.41-.66-2.7,0-3.93,3.08-2.59,10.37,4.53,20.8,8.95,31.2,13.42a19.28,19.28,0,0,0,3.09,1.39c6.35,1.43,10.11,5.62,12.42,11.4-1.43,4.64-4.36,1.68-6.37,1a149.32,149.32,0,0,1-20.69-8.64C226.6,138.65,222.78,137.88,221.23,144.81Z"/><path class="cls-34" d="M444.28,180.55c2.14,2.95,4.31.25,5.94-.41,10.91-4.4,21.67-9.18,32.48-13.84a42.75,42.75,0,0,1,4.37-1.86c1.71-.52,2.53.3,2.43,2.09s-2.11,3.74-.09,5.64c-14.81,6.46-29.6,13-44.46,19.31-2.59,1.11-4.89,3.06-7.91,3.12.53-2.89,2.35-5.19,3.76-7.63C442,184.86,442.19,182.18,444.28,180.55Z"/><path class="cls-35" d="M232.24,172.45c1.88-2.5-2-6.46,1-7.76,2.42-1,5.3,1.82,8,2.93,9.95,4.16,19.89,8.35,29.85,12.49,2,.85,4,2.26,6.4,1.69,1.1.65,1.19,1.86,1.64,2.88,1.38,3.17,4.37,5.59,4.35,9.41-3.7-.32-6.75-2.42-10-3.82C259.68,184.41,246,178.4,232.24,172.45Z"/><path class="cls-36" d="M378,202.44c-1-4.18-.23-8.54-1.61-12.71-.65-2-1.54-2.57-3.38-2.09-9.14,2.37-18.39,1.34-27.55.54-3-.26-3.57.44-3.52,3a42.22,42.22,0,0,1-2.66,15.09c-5.94,2.73-7.46,2-7.59-4,0-1.78-.39-3.65.58-5.34.19-1.57.29-3.16.59-4.72,1.45-7.59,2.55-8.37,10.14-7.92,11.12.66,22.25.89,33.33-.45,2.74-.33,4.35.23,5.09,3s1.8,5.62,2.5,8.48C385.34,201.09,384.56,202,378,202.44Z"/><path class="cls-37" d="M462.31,149.19c2.83,2.66,5-.3,7.17-1.13,9-3.48,17.82-7.41,26.72-11.13,1.21-.5,2.52-1.94,3.69-1.1,1.44,1,.84,2.92.35,4.38a8.48,8.48,0,0,0-.49,4.61c-13.72,5.94-27.42,11.91-41.16,17.78-1.11.47-2.37,2-3.58.64-.33-.36.6-2,1.12-2.94C458.15,156.57,460.24,152.89,462.31,149.19Z"/><path class="cls-38" d="M221.23,144.81c0-1.59,0-3.17.09-4.76s-2-3.11,0-4.29c1.57-.94,3,.69,4.4,1.28,9.44,3.93,18.83,8,28.3,11.9,1.38.56,3.1,2.67,4.69.08q3.12,5.55,6.26,11.09c.54.95,1.72,2.07,1,3-1.17,1.47-2.48-.11-3.58-.58-11.23-4.8-22.41-9.72-33.62-14.58C226.26,146.86,223.74,145.85,221.23,144.81Z"/><path class="cls-39" d="M425.62,213.16c10.05-2.63,19.07-7.85,28.73-11.46,3.79-1.42,7.41-3.26,11.15-4.82,3.23-1.34,3.82-.84,3.45,2.8-.14,1.41-1.74,2.92.34,4.14q-23.31,10.26-46.64,20.5c-.95.42-2.14,1.65-3,.55-.69-.85.37-2.05.88-3C422.17,219,423.91,216.07,425.62,213.16Z"/><path class="cls-39" d="M252.74,203.87a20.31,20.31,0,0,0,.17-3.38c-.57-5.09-.56-5.21,4.33-3.15,11.67,4.92,23.29,10,34.94,14.95a21.54,21.54,0,0,0,3.23.83c1.83,3.08,3.67,6.16,5.48,9.26.44.74,1.23,1.55.56,2.39s-1.6.06-2.36-.28q-18.61-8.2-37.22-16.45C258.81,206.69,255.78,205.26,252.74,203.87Z"/><path class="cls-40" d="M350,208.32c7.27,1.8,14.67.48,22,1,1.78.12,3.59,0,5.37.16,1.35.15,1.51,1.42,1.68,2.54-1.4,4.45-5.66,2.66-8.54,3.9q-13.54,4.31-27.08,8.63c-1.5.48-2.87,1.43-4.56,1.11-2.81-6.2-2.34-12.26.75-18.22C343.08,207.72,346.83,204.85,350,208.32Z"/><path class="cls-41" d="M512.87,323c14.65-.78,29.19,1.31,43.79,1.89,1.16,0,2.18.4,3-.75a14.5,14.5,0,0,1,2.74,11c-3.15.78-6.1-.78-9.23-.79-4.41,0-6.65,1.49-6.62,6.19,0,3.24.78,6.77-1.85,9.56-2.78-2.81-1.23-6.31-1.33-9.46-.26-8.07-.1-8.09-8.3-8.17-1.34,0-2.68,0-4,.07l-.47-.58a34.41,34.41,0,0,0-11.38-1.81c-2.5,0-4.5.44-4.08,3.65-.57,3,1,6.82-3.26,8.31A56.38,56.38,0,0,1,512.87,323Z"/><path class="cls-42" d="M408.7,242.15c2.06-5.74,6.3-8.85,11.92-11,9.28-3.56,18.32-7.74,27.46-11.66,1.25-.53,2.76-1.49,3.82-.68,1.53,1.17.42,2.88,0,4.35-1.79,5.59-3.33,11.31-8.37,15.1-4.06-.66-2.29-3.35-1.85-5.5a3,3,0,0,1,1.22-1.58c-.53.31-1,.82-1.48,1.09-8.28,4.17-16.87,7.67-25.45,11.17C413.55,244.41,410.37,246.61,408.7,242.15Z"/><path class="cls-33" d="M277.67,238.11c-5.24-4.56-7.1-10.77-8.45-17.24-.4-1.89.48-2.52,2.19-2a32.88,32.88,0,0,1,3.78,1.48c8.11,3.45,16.07,7.29,24.35,10.25,6.67,2.39,11.22,6.37,13.55,13-2.66,1.56-2.7,1.67-5.17.76-5.73-2.12-11.36-4.54-16.86-7.16C286.29,234.87,281.79,232.92,277.67,238.11Z"/><path class="cls-43" d="M321.51,153c-.16,1.11.08,2.67-.56,3.22-1.1,1-1.85-.59-2.54-1.27-3.75-3.65-7.63-7.17-11.07-11.09-6.83-7.76-7.26-17.18-6-26.78.19-1.46.35-4.49,4.34-1.83s6.9,6.55,11.61,7.86c.91,3.68,2,7.33,1.21,11.19-2.87,1.88-5.16.18-7.51-1.22-.72-.42-1.41-1.64-2.12-1.08-.44.35.29,1.67.63,2.5,2.13,5.26,6,9,10.77,11.84C321.86,148.35,321.2,150.77,321.51,153Z"/><path class="cls-44" d="M276,335.29c-.26-.37-.68-.7-.75-1.1-1.27-7.31-1.31-7.84-8.47-7.13-12,1.18-23.93,1.21-35.91,1.23-3,0-4,1.25-4,4,0,5-.46,10,.24,14.94-2.12-.63-1.69-2.43-1.7-3.93-.07-7.21-.19-14.43,1.22-21.56,5.44-.11,10.88-.37,16.32-.32,10.65.1,21.25-.76,31.87-1.35C275.55,325.13,277.12,330.11,276,335.29Z"/><path class="cls-45" d="M544.65,350.11c0-4.71.08-9.42,0-14.13,0-2.44.62-3.81,3.36-3.68a59.26,59.26,0,0,0,9.42,0c2.62-.31,3.32,1.89,5,2.83q.1,7.05.2,14.09c0,2.06-.77,3.68-3,3.53C554.48,352.44,549.26,352.92,544.65,350.11Z"/><path class="cls-46" d="M408.7,242.15c1.34,2.52,3,1,4.62.38,8.36-3.49,16.71-7,25.09-10.48,4.64-1.9,4.74-1.81,3.88,3.45-.22,1.33,0,2.17,1.19,2.76L405,254.89c-.78.34-1.62,1.12-2.44.27s-.17-1.67.3-2.4C405.1,249.37,406.07,245.31,408.7,242.15Z"/><path class="cls-47" d="M277.67,238.11c.34-.27.93-.5,1-.83,1.13-6.55,1.14-6.6,7.11-4.12,7.92,3.29,15.78,6.72,23.72,9.94,1,.42,2.23,1.86,3.6.45,1.89,3.29,3.79,6.56,5.63,9.88.28.5.53,1.36.29,1.74-.4.61-1.17.29-1.81,0-8.3-3.52-16.63-7-24.91-10.54C287.39,242.54,282.54,240.29,277.67,238.11Z"/><path class="cls-16" d="M407.85,141c-3-1.42-.65-3.12-.06-4.46,3.3-7.47,1.26-14.84-5.37-19.35-1.48-1-3-1-4.55-1-4.11,0-8.21,0-12.31,0-2.21-2.55-1.81-5.33-.72-8.17,7.25-5.77,16.83-5.79,21.28,0,.38,1,.29,2.25,1.27,3,2.33,6,6.26,11.26,8.49,17.34C415.39,134,411.74,137.59,407.85,141Z"/><path class="cls-48" d="M185.91,335.16c.06,3.37.2,6.74.15,10.11-.07,4.65-.69,5.27-5.3,6-12.48,2.05-13,1.58-12.9-10.74,0-1.34.11-2.69.17-4,1.51-5.08,5.65-5.82,10.07-6C181.7,330.35,184.87,331,185.91,335.16Z"/><path class="cls-49" d="M433.79,343.45c-4.8,2.23-9.79.82-14.69.66-2.33-.08-3.54-1.7-3.45-4.19.13-3.85.14-7.71.2-11.57,3.81-3.55,12-4.9,16.15-2.73a3.73,3.73,0,0,1,2.28,3.75C434.08,334.06,434.88,338.79,433.79,343.45Z"/><path class="cls-50" d="M311.64,343.24c-4.38,1.37-8.91,1.07-13.4,1.15-3.11.07-4.54-1.4-4.42-4.53.15-3.82.17-7.65.24-11.47,3.72-3.58,11.91-5,16.07-2.77,1.27.66,2.34,1.53,2.26,3C312.14,333.52,313.37,338.46,311.64,343.24Z"/><path class="cls-51" d="M350.2,125.74c0,1.12,0,2.25-.13,3.37-.37,4.1-3,5.66-6.93,4.14-4.38-1.7-6.23-5.58-8-9.44-1.22-2.62-2.06-5.41-3.13-8.11-.33-.81-.92-1.67-1.93-1.43a2.21,2.21,0,0,0-1.39,1.33c-.54,2.24-1.39,5.41-3.51,5-2.29-.44-.39-3.82-1.09-5.79.42-2.37.87-4.72,2.75-6.48,3.95-1,6.36,1.57,8.74,3.92,3.7,3.65,7.57,4.65,12,1.39C349.31,117.48,349.63,121.64,350.2,125.74Z"/><path class="cls-52" d="M217.31,347.4c-5.49,1.86-11,2.86-16.56.28-1.06-4-.06-8.12-.53-12.14-.57-4.92,2-6.53,6.31-6.5,3.15,0,6.35-.48,9.42.64a4.47,4.47,0,0,1,1.89,1.66C217.81,336.7,218.8,342.09,217.31,347.4Z"/><path class="cls-53" d="M511.8,342.12c2.12-3,.46-6.49,1.28-9.66,5.83-3.08,11.46-3.51,16.73,1.2.32,5.07,1,10.15-.34,15.18-5,2.49-10.05.26-15-.14C510.88,348.42,512.09,344.6,511.8,342.12Z"/><path class="cls-54" d="M168.1,295.45c0,7.94,0,15.88,0,23.82,0,4.93.06,4.93,4.71,5,12.92.13,25.75-2.09,38.69-1.51,1.83.08,3.16-.38,3-2.59,2.28,3.31,4.93,6.49,4.12,11-.46.56-.86.53-1.22-.1h0c-1.81-2.28-4.36-2.09-6.85-2a351.51,351.51,0,0,0-38.5,2.56,6.43,6.43,0,0,1-4-.5c-1.9-10-1.29-20-1.29-30.09C166.78,299.08,165.8,296.82,168.1,295.45Z"/><path class="cls-55" d="M410.57,95.8c3.26-1.28,5.72-3.62,8-6.17,1.6-1.81,3.1-2.08,4,.35,4.28,11.64,6.35,23.25-1.24,34.48l-3.12-6.6a42.62,42.62,0,0,0,.81-5.3c1.27-7.63,1-7.85-6.08-5.92C411.61,103.14,409.37,99.84,410.57,95.8Z"/><path class="cls-42" d="M347.57,113.63c0,2.41-.2,4.25-3.54,4.17-3.79-.1-7.27-.66-9.39-4-1.92-3-4.95-4-7.82-5.5.54-.71.94-1.87,1.63-2.07,4.38-1.27,7.22-3,4.17-8.17-.79-1.34.94-2.31,2.15-3a8.79,8.79,0,0,1,5.94-.77l0,2.83c-.56,2.89.69,5.17,2.15,7.55C344.64,107.58,347,110.13,347.57,113.63Z"/><path class="cls-56" d="M500.64,332.45c2.88,4.15,1.38,8.77,1.35,13.21,0,1.64-1.57,2.1-3,2.07-3.65-.07-7.3-.13-10.94-.37-2.69-.17-4-1.71-4-4.51.05-3-.1-5.92-.16-8.87C488.41,329.5,493.7,329,500.64,332.45Z"/><path class="cls-57" d="M57.08,332.64c12.54-1,25.08-2.05,37.62-2.95,2.07-.15,3.52-.53,3.73-2.85,2.18,3.05.86,6.47,1.07,9.73-6.38,1-13.08-.23-19.17,2.8-5.37.52-10.5-1.26-15.79-1.67C61.4,337.46,58.89,335.33,57.08,332.64Z"/><path class="cls-58" d="M469.17,344.63a18.89,18.89,0,0,1-16.54-1.07,28.25,28.25,0,0,1,0-11.51c4.38-4.95,9.86-2.89,15-2.2a2.93,2.93,0,0,1,2.39,3.54C469.46,337.12,470.73,341,469.17,344.63Z"/><path class="cls-59" d="M168.07,331a16.39,16.39,0,0,1,9-2.46c12.26.26,24.36-2.13,36.61-1.72,3.16.11,4,1.42,3.7,4.15-3.41,0-6.81,0-10.22,0-6.07.07-6.06.08-6.17,6.44-.06,3.4-.16,6.8-.24,10.2-2.35-3.5-.8-7.41-1.08-11.11-.38-4.95-1.45-6.36-6.15-5.2-2.62.64-6.8-.79-7.61,3.79-4.94-4.34-12.29-3.77-17.88,1.37Z"/><path class="cls-60" d="M452.94,319.92a9.47,9.47,0,0,0,4.48,1.32c13.14.1,26.29.16,39.43.54,3.69.1,4.19-1.61,3.92-4.48,2.79,3.87.68,8.27,1.32,12.37a2.58,2.58,0,0,1-2.23.22c-6.77-2.19-13.73-2.43-20.78-2.47-8.79-.05-17.69,1.09-26.28-1.87Z"/><path class="cls-61" d="M500.86,329.47a8.52,8.52,0,0,0,1.23.2c-.49.92-1,1.85-1.45,2.78-5.58.46-11.39-1.46-16.74,1.53a17.46,17.46,0,0,0-2.67-.3c-3.33.1-7.24-1.57-9.82.46s-.55,5.93-1.15,8.95c-.12.56-.71,1-1.09,1.54a17.17,17.17,0,0,0,0-2c-.44-3.72,1.83-9.44-1.17-10.75a16.93,16.93,0,0,0-15,.65c-1.15-.89-1-1.93-.37-3a2.14,2.14,0,0,1,.15-1.17c1-1.67,2.42-2.79,4.45-2.37,10.09,2.08,20.28.5,30.41,1A41.55,41.55,0,0,1,500.86,329.47Z"/><path class="cls-62" d="M378.77,328.24a2.7,2.7,0,0,1-1.2.18c-.19-1.42-.56-2.75-2.35-2.74-3.64,0-6.94-1.8-10.69-1.62-3.43.17-6.49-1.5-8.9-4.08,11.11,0,22.21,0,33.31-.14,2.33,0,5.21,1,6.27-2.45,1.41,6.37,3.32,12.74,0,19.12l.07-8.18C389.82,324.74,384.3,325,378.77,328.24Z"/><path class="cls-63" d="M373.39,264.06c.76.19,2.37.06,1.82,1.14-3.2,6.27-6.44,12.53-10.11,18.52-1.5,2.44-4.67,1.31-7,1.06-2.64-.28-3.31-3-4-5-.62-1.82,1.13-2.76,2.45-3.63,3.8-2.5,7.66-4.9,11.37-7.51,2-1.4,4.54-2.19,5.66-4.66Z"/><path class="cls-64" d="M648.47,331.14c6,.29,11.82,1.94,17.85,1.2q0,6.9,0,13.78c-1.54-2.75-3.22-5.15-7.06-4.25a5.37,5.37,0,0,1-3.28-.39c-4.14-2-7-.7-8.93,3.2C646.46,340.05,648.8,335.73,648.47,331.14Z"/><path class="cls-42" d="M339.32,208.24a119.93,119.93,0,0,1-.45,17.37c-3.21,1.71-7.93,4.34-9.91,2.84-2.65-2,0-6.71.59-10.19.59-3.27.32-6.8,2.51-9.66C334.46,208,336.78,206,339.32,208.24Z"/><path class="cls-65" d="M107.94,328.15c4.31,0,8.62.09,12.92-.11,4.47-.21,4.88-.69,4.89-5.37,0-9.06-.1-18.12-.17-27.18,2,.83,1.47,2.6,1.48,4.1,0,7.93.73,16-.21,23.78-.65,5.43.45,10.62.14,15.91a6.82,6.82,0,0,1-1.09-.23c-6.07-5.28-12-1.35-18,.23C107.91,335.57,107.93,331.86,107.94,328.15Z"/><path class="cls-66" d="M365.06,101c-8.95,3.61-14.79.25-16.16-9.31l4-1.55c9.71-1.08,10.59-.47,12.32,8.64Z"/><path class="cls-67" d="M311.64,343.24c.07-4.32.17-8.64.17-13,0-1.61-.19-3.51-2.39-3.36-5.13.35-10.48-1.48-15.36,1.47l.16-8.54,17.56.2c2.21,7,1.4,14.14,1.42,21.25A2.07,2.07,0,0,1,311.64,343.24Z"/><path class="cls-68" d="M433.79,343.45c-.05-4.26-.15-8.51-.11-12.76,0-2.85-1.22-4.14-4.07-3.84-4.59.48-9.42-1.31-13.76,1.5.09-2.86.17-5.71.25-8.57l17.54.3c2.11,7.19,1.44,14.56,1.3,21.88C434.93,342.46,434.19,343,433.79,343.45Z"/><path class="cls-69" d="M358,83.54a3.83,3.83,0,0,1-4.54-3.07c-.66-2.38-2.75-4.17-2.9-6.74,0-.81.78-1,1.45-1a23.34,23.34,0,0,0,4.64-.79c2.09-.64,3.51-3.65,5.81-2.5,2.05,1,1.38,4.1,2.74,6a5.57,5.57,0,0,1,1.35,3.74A20.73,20.73,0,0,0,358,83.54Z"/><path class="cls-70" d="M320.27,146.35c-.51.81-1.31,1.65-2.14,1-5.36-4.29-10.16-9-11.67-16.11-.23-1.08-.51-2.32.42-3.12.19-.16,1.51.75,2.12,1.36a16.26,16.26,0,0,0,9.5,4.84Z"/><path class="cls-71" d="M383.42,250.54a95.86,95.86,0,0,1-22.2,2.57c-7.52-.11-15-.19-22.55-.28a1,1,0,0,1-.66-1.05c1.35-2.43,3.63-1.15,5.48-1.27,6.95-.48,14,.51,20.89-1,3.91-1,7.92-.51,11.88-.81,2.56-.5,5.12-.89,7.64.24C384.51,249.69,384.07,250.15,383.42,250.54Z"/><path class="cls-72" d="M393.52,96c-2.35.11-4.11-.73-4.95-2.91s.78-3.39,2.09-4.62a9.82,9.82,0,0,1,11.4-1.22,5.06,5.06,0,0,1,2.79,5c0,3-2.41,2-4,2.38C398.42,95.11,396,95.52,393.52,96Z"/><path class="cls-73" d="M157.13,337.93c-2.49-1.88-4.69-3.37-8.32-1.73-2.84,1.29-6.61-.33-9.62,1.64.2-1.55.31-3.11.63-4.64.18-.85.52-2.11,1.12-2.35,4.29-1.73,8.93-2.89,13.43-2.22,3.79.57,2.55,4.6,3,7.31A8.51,8.51,0,0,1,157.13,337.93Z"/><path class="cls-74" d="M500.86,329.47c-12.75-1.78-25.59-.91-38.39-1.33-3.25-.1-6.46-2.26-9.66.16,0-.92,0-1.83,0-2.75,1.29-.34,2.35-1.63,3.79-1.22,8.91,2.5,18,1,27,1.09,5.25,0,10.21,1.73,15.42,1.61C500.38,327,500.65,328.33,500.86,329.47Z"/><path class="cls-62" d="M600.67,337.92a1.84,1.84,0,0,1-1.36,1.39l.15-12.61c6.14,2.69,12.58,1.54,18.94,1.5q0,4.85,0,9.7C612.47,335.86,606.56,333.42,600.67,337.92Z"/><path class="cls-75" d="M80.33,339.37c-.12-.87-.25-1.73-.38-2.6,6.52-.41,13-3.73,19.55-.2-.14,4.61,1.72,9.39-1.13,13.78-.71-3.27,1.65-7.67-1.34-9.64-2.13-1.4-6,.06-9.07-.16-2.65-.19-4.84,1-7.23,1.6Z"/><path class="cls-76" d="M380.58,88.57c.29.33.7.61.85,1,2.19,5.59,4.38,6.91-4.15,7.66a57.29,57.29,0,0,0-6.54,1.3c-5.12-4.31-6-7.76-2.85-11.45A48.06,48.06,0,0,0,380.58,88.57Z"/><path class="cls-77" d="M406.12,108c-2.62-2.56-5.65-3.81-9.16-2.18s-7.84-.49-11.06,2.4c-3.14-1.87-3.24-3.7.07-5.49,3.9.47,7.47-1,11.14-1.89C404.91,99.07,406,99.9,406.12,108Z"/><path class="cls-78" d="M339.32,208.24a13.19,13.19,0,0,0-7.26.36c-2.15-3.92-1.85-7.8.22-11.65a19,19,0,0,1,.1,2.61c-.76,7.65-1.52,7.69,6.91,6.68,6.34-.6,12.67-1.52,19.08-1,.92,1.8,2.59,1.28,4.07,1.3l13.88.12c-6.18,1.79-12.55,1-18.84,1.45-2.48.18-5,.17-7.48.24Z"/><path class="cls-79" d="M107.9,339.28c1.44-2.86,3.18-5,7-4.25a12.25,12.25,0,0,0,4.6-.34c5-.93,4.94-1,6.42,4.36-4.72.16-9.21,2.21-14,1.62-1.59-.2-2.5.75-2.57,2.4s-.18,3.17-.27,4.75C106.81,345.21,108.09,342.15,107.9,339.28Z"/><path class="cls-80" d="M368.27,87.88c-2.64,1-2,2.89-.56,4,2.27,1.78,2.5,4.19,3,6.61-1.25,1.79-2.53,1.4-3.74,0-.76-.88-1.31-.93-1.78.21-.65-.86-1.61-1.62-1.9-2.58-1.61-5.33-5.13-7.16-10.42-6.06.86-1.35,2.27-1.25,3.56-1.22,2.52,0,4.84-.29,6.55-2.41,2.07-2.58,4.19-1.56,6.3-.06C369.66,87.38,369.26,87.83,368.27,87.88Z"/><path class="cls-81" d="M412.91,106.64c1.83-2.62,5-5.39,7.32-4.47s1.07,5.22,1,8-.29,5.81-3,7.69A38.8,38.8,0,0,1,412.91,106.64Z"/><path class="cls-82" d="M386,102.77c-2.88,1.8-.59,3.65-.07,5.49-.09,2.66.48,5.35-.34,8-2.39,1.85-6,1.26-7.94,4-6.71-2.56-8.81-8.15-5.63-15,1.47,1.08,1.62,2.75,1.92,4.34.21,3.17,2.13,4.2,5,3.81,2.31-.32,3.67-1.51,2.85-4.1-.3-1.79-1.17-3.55-.17-5.37C383,103.47,384.15,101.91,386,102.77Z"/><path class="cls-83" d="M600.67,337.92c-.28-2.53.13-4.43,3.4-4.22a30.37,30.37,0,0,0,7.32,0c3.79-.69,5.56,1.34,7,4.22l.35,3.94a12.19,12.19,0,0,0-10.68-4A64.83,64.83,0,0,1,600.67,337.92Z"/><path class="cls-84" d="M381.57,104a6.72,6.72,0,0,1,1.48,5.3c-3,4.33-5.82,4.72-11,1.51-.6-1.83-.16-3.66-.06-5.49C374.88,102.72,378.3,103.91,381.57,104Z"/><path class="cls-85" d="M335.15,235c.78.34,2.15.57,2.24,1a22.56,22.56,0,0,1-.38,11c-.13.39-1.16.5-1.77.74-1.06-1.68-2.21-3.29-3.16-5C329.05,237.23,327.87,237.39,335.15,235Z"/><path class="cls-86" d="M375.42,131.3c-1.84-.28-4.41,0-2-2.85.91-1.09-.25-.84-.63-1s-.94-.13-1.29-.37a1.89,1.89,0,0,1-.89-2.33c.69-1.75,1.86-.59,2.72-.21a13.66,13.66,0,0,0,4.49,1.44c1.51.11,3.55.25,3.58,2.28s-2,2.21-3.46,2.75A9.94,9.94,0,0,1,375.42,131.3Z"/><path class="cls-87" d="M368.27,87.88l1-1.48c4.18-1.45,8.43-3.33,11.27,2.17C376.27,91.93,372.21,90.94,368.27,87.88Z"/><path class="cls-88" d="M415.88,128.4c-3-4.56-6-9.14-9.11-13.67-1-1.49.26-2.48.62-3.67.57.19,1.48.2,1.68.59,2.36,4.46,4.68,8.94,6.82,13.51C416.31,126,415.9,127.31,415.88,128.4Z"/><path class="cls-68" d="M433.63,320.09c.07-1.12.18-2.24.18-3.36.05-10.42.05-10.42,10.72-10.47.9,0,1.8,0,2.7-.05-2.18,3.09-5.36,1.36-8,1.41-3.3.05-4.2,1.22-4.23,4.38C435,314.69,436.59,317.84,433.63,320.09Z"/><path class="cls-64" d="M641.65,313.29c6.87-.22,6.86-.22,6.82,6.27,0,3.85,0,7.7,0,11.55-2.78-2.82-1.14-6.31-1.26-9.47C646.93,315.5,647.12,315.49,641.65,313.29Z"/><path class="cls-89" d="M322.54,104.56c-.75,1.16-.8,3.41-2.79,3-1.64-.34-3.38-1.7-3.24-3.62s2-1.19,3.22-1.23S322.51,102.48,322.54,104.56Z"/><path class="cls-90" d="M370.51,215.87c2.28-2.55,6.32-1.23,8.54-3.9.62.43,3.07.13,1.22,1.62-2,1.63-4.7,2.45-7.1,3.62C372.69,216,371.41,216.3,370.51,215.87Z"/><path class="cls-41" d="M511.81,299.42a26.68,26.68,0,0,1,0,16.69A109.4,109.4,0,0,1,511.81,299.42Z"/><path class="cls-59" d="M217.38,331a5.53,5.53,0,0,1,1.22.1c.08,4.3.18,8.6.23,12.91,0,1.32.14,2.78-1.52,3.38Z"/><path class="cls-41" d="M529.47,348.84q-.09-7.48-.19-15c-.43-1.26.3-1.6,1.34-1.68l.37.37c0,4.06,0,8.12-.11,12.18C530.85,346.21,531.4,348,529.47,348.84Z"/><path class="cls-67" d="M311.78,320.06c0-3.6.09-7.21.1-10.82,0-1.86.57-3.1,2.75-2.78-1.83,2.32-1.12,5.07-1.35,7.68C313.1,316.16,314.51,318.67,311.78,320.06Z"/><path class="cls-74" d="M452.66,329.47c.12,1,.25,2,.37,3-.14,3.69-.27,7.37-.4,11.06A20.38,20.38,0,0,1,452.66,329.47Z"/><path class="cls-16" d="M383.9,248.93l-7.64-.24C378.83,247.89,381.41,247,383.9,248.93Z"/><path class="cls-91" d="M365.21,156.35c-.67-14.23,7.65-17.39,16.55-18.08,2.81-.21,5.3-2.19,8.56-.72,4.07,1.83,4.42,1.62,1.54,4.66-3.45,3.64-5.95,8-9,11.86-1.85,2.35-.79,3.11,1.7,3.26,1.25.07,3-.6,3.49,1.16.45,1.56-1.07,2.39-2,3.27-4.4,4.14-9.79,5.52-15.64,5.06-3.09-.25-4.89-2.24-5.14-5.35C365.09,159.66,365.21,157.83,365.21,156.35Z"/><path class="cls-92" d="M358.3,160.21a28.93,28.93,0,0,1,0,4.75c-.53,3-3.95,5.76-5.64,4.29-3.2-2.78-5.35-1-8.3.14-4.18,1.61-10.55-2.08-11.75-6.75-.89-3.42-2.13-6.9-1.63-10.62.32-2.37-.82-5.58,2.24-6.51s6.64-1.55,9.64,1.06,5.38,5.47,4.65,9.88c-.17,1-.36,2.4.82,3s2.07-.48,2.87-1.2c1-.92,1.9-2,2.93-2.85s1.77-2.44,3.34-1.64.8,2.41.91,3.69c.08.9,0,1.81,0,2.72Z"/><path class="cls-93" d="M186,312.37c-.58-3.27.69-4.81,4.33-4.65,4.29.2,5.32,1,5.2,5-.12,3.84-1.3,4.65-5.56,4.93S185.78,315.37,186,312.37Z"/><path class="cls-94" d="M539.49,312.6c.14,3.95-.75,5-4.51,5.07-4.3.13-5-.66-5.19-5.09-.09-2.82.3-4.89,4-4.81C538,307.86,539.36,308.79,539.49,312.6Z"/><path class="cls-95" d="M476.6,319.85c-.52,0-1.89-.06-3.25-.18-1-.1-2.08-1-1.88-1.64,1-3.25,1.36-6.77,3.35-9.59,1.2-1.71,3.95-1,5,1.13a34.15,34.15,0,0,1,1.71,5.18C483,319.89,483,319.89,476.6,319.85Z"/><path class="cls-96" d="M245.89,315.79c.58-1.92,1.11-3.87,1.75-5.77a3.11,3.11,0,0,1,2.82-2.47,3.15,3.15,0,0,1,3.43,2.62c.62,2.8,2.5,5.36,1.71,8.43-2.55,1.51-5.32.74-8,.63C245.45,319.14,245.21,317.58,245.89,315.79Z"/><path class="cls-44" d="M245.89,315.79c.22,1.72.74,3,2.9,2.92s4.54-.08,6.81-.11c-3,3-6.59,1.66-9.78.94C244.09,319.15,244.56,317.06,245.89,315.79Z"/><path class="cls-97" d="M378.77,328.24c.05-2.05-.07-4.14,3-4.07,3.57.09,7.13.06,10.7,0,3,0,2.93,2.05,2.86,4.13Z"/><path class="cls-98" d="M530.62,332.18l-1.34,1.68c-5.19-2.87-10.8-.92-16.2-1.4-.3-2.65.36-4,3.54-4.25,5.26-.39,10.18,1.79,15.36,1.46.63,0,1,.3.6.79A13,13,0,0,1,530.62,332.18Z"/><path class="cls-99" d="M372.05,110.8c3.76.18,7.57.7,11-1.51,1.61,1.56,1.65,3.6,0,4.59-2.17,1.28-4.62,2.92-7.5,1.42C373.64,114.32,372.07,113.17,372.05,110.8Z"/></g></g></g></svg>