<svg xmlns="http://www.w3.org/2000/svg" viewBox="0 0 783.27 453.14"><defs><style>.cls-1{fill:#fefdfc;}.cls-2{fill:#f27b2c;}.cls-3{fill:#3a241f;}.cls-4{fill:#f37c2d;}.cls-5{fill:#f17b2d;}.cls-6{fill:#f37c2e;}.cls-7{fill:#f07c2f;}.cls-8{fill:#f0792b;}.cls-9{fill:#fcfbfb;}.cls-10{fill:#773e1b;}.cls-11{fill:#4e3934;}.cls-12{fill:#785e59;}.cls-13{fill:#896e69;}.cls-14{fill:#856a65;}.cls-15{fill:#654234;}.cls-16{fill:#4b3128;}.cls-17{fill:#5e4742;}.cls-18{fill:#674e47;}.cls-19{fill:#9d807c;}.cls-20{fill:#694230;}.cls-21{fill:#643f2f;}.cls-22{fill:#7a605b;}.cls-23{fill:#846965;}.cls-24{fill:#6d534d;}.cls-25{fill:#7f6560;}.cls-26{fill:#6f3b1b;}.cls-27{fill:#826763;}.cls-28{fill:#de7c39;}.cls-29{fill:#745a56;}.cls-30{fill:#604945;}.cls-31{fill:#e2762f;}.cls-32{fill:#664335;}.cls-33{fill:#7b615c;}.cls-34{fill:#79635e;}.cls-35{fill:#f0edec;}.cls-36{fill:#6f5752;}.cls-37{fill:#785f5a;}.cls-38{fill:#753d1a;}.cls-39{fill:#806661;}.cls-40{fill:#7f4624;}.cls-41{fill:#bcaeac;}.cls-42{fill:#db6f29;}.cls-43{fill:#816762;}.cls-44{fill:#6f5652;}.cls-45{fill:#c46528;}.cls-46{fill:#cc6727;}.cls-47{fill:#c26428;}.cls-48{fill:#793f1b;}.cls-49{fill:#d16b28;}.cls-50{fill:#af5b26;}.cls-51{fill:#723f21;}.cls-52{fill:#c06328;}.cls-53{fill:#b85f27;}.cls-54{fill:#cc6928;}.cls-55{fill:#cd6a2a;}.cls-56{fill:#d76d29;}.cls-57{fill:#aa5926;}.cls-58{fill:#c06227;}.cls-59{fill:#c36428;}.cls-60{fill:#fffcfa;}.cls-61{fill:#fffbf8;}.cls-62{fill:#fffcfb;}.cls-63{fill:#fffdfb;}.cls-64{fill:#fffbf9;}.cls-65{fill:#a0837f;}.cls-66{fill:#695450;}.cls-67{fill:#978480;}.cls-68{fill:#886e6a;}.cls-69{fill:#9d827e;}.cls-70{fill:#967975;}.cls-71{fill:#dbd3d0;}.cls-72{fill:#725954;}.cls-73{fill:#f2bb93;}.cls-74{fill:#e58d51;}.cls-75{fill:#664f4a;}.cls-76{fill:#3d2723;}.cls-77{fill:#e9ccb8;}.cls-78{fill:#7d625e;}.cls-79{fill:#9f837f;}.cls-80{fill:#7a605c;}.cls-81{fill:#cdbebb;}.cls-82{fill:#d1c7c5;}.cls-83{fill:#e3dedd;}.cls-84{fill:#9f8480;}.cls-85{fill:#a9908b;}.cls-86{fill:#bfb1ad;}.cls-87{fill:#f47d2e;}.cls-88{fill:#f0863e;}.cls-89{fill:#f6883e;}.cls-90{fill:#f47e30;}.cls-91{fill:#ef7c30;}.cls-92{fill:#f58133;}.cls-93{fill:#f58438;}.cls-94{fill:#f5f2f1;}</style></defs><g id="Layer_2" data-name="Layer 2"><g id="Layer_1-2" data-name="Layer 1"><g id="s87PJR.tif"><path class="cls-1" d="M398.69,420.82c-14.38,0-25.86,1-37.06-.29-11.63-1.38-22.7-1.83-34,2-4.1,1.4-9,.53-13.54.59-16.46.23-32.83,1.89-49.27,2.58-15.48.65-30.86,3.5-46.34,4.8-24.28,2-48.24,6.42-72.44,8.95-23.34,2.44-46.12,8-69.23,11.63-12.28,2-24.72,2.8-36.51-3.69-13.77-7.59-22.71-18.4-25.52-34-4.55-25.3-9.49-50.54-13.48-75.93-1.53-9.7-2.18-19.93.57-29.53,5.51-19.23,18.35-31.37,38-36.08,6.62-1.59,13.21-3.33,20.11-3a15.61,15.61,0,0,0,6.62-1.32,24.73,24.73,0,0,1,6.46-2c20-1.95,39.38-8,59.59-8.53,6.25-.15,11.92-3.31,18.28-3.65,7.08-.39,14.14-1,21.24-.71,2.27.1,4.53.3,6.73-.56,13.49-5.26,27.71-5.46,41.85-5.6a80.46,80.46,0,0,0,18.43-2.37c3.88-.94,4.54-1.94,2.72-5.53A130.18,130.18,0,0,1,230,201.46c-8.63-50.19,1.82-95.75,34.61-135.22,12.33-14.85,26.59-28,43.54-37.69A11.28,11.28,0,0,0,314,21.86c4-11.78,12.4-18.38,24.87-20.13,26.23-3.68,52-1.32,77.44,5.42,12.3,3.26,25,5.22,36.75,10.38,50.29,22,84.43,58.54,98.46,112,9.65,36.73,6.54,73-9,107.87-2.67,6-2.7,6.48,4.1,7.06,10.43.88,20.91,1.2,31.32,2.54,17.39,2.23,34.94,3.46,52.22,6.34,22,3.66,44.38,4.75,66,10,13,3.16,26.3,3.74,39.29,6.77,23.38,5.44,48.8,30.9,47.81,58.85-.88,24.92-.44,49.89-.12,74.83.28,22.59-23.94,49-47.65,49.32-15.18.21-30.05-.85-44.48-5.7-5.54-1.87-11.4-.6-16.82-1.91-18.24-4.41-37-5-55.34-8.58-19-3.72-38.19-4.34-57.26-6.68-28.39-3.49-56.91-5.46-85.48-6.77-11-.51-22.11-.19-33-1.69C427.27,419.6,411.43,422.65,398.69,420.82Z"/><path class="cls-2" d="M366,13.4c16.35-.14,33,2.85,49.47,7.33,10.91,3,22.15,4.66,32.6,9.28C498.82,52.41,531,89.86,541,145c6.69,36.85-.34,71.27-19.43,103.36-.58,1-1,2-1.61,3-2.06,3.13-.27,4,2.48,4.21,11.85,1,23.73,1.57,35.53,2.94,14,1.63,28.25,1.62,42.12,4.85,4.63,1.07,9.65.36,14.35,1.23,20,3.68,40.21,5.32,60.21,8.88,19.37,3.44,38.83,6.5,58.18,10.07,17.11,3.16,38,23.63,37,46-1.1,24.32-.76,48.75-.08,73.1.46,16.56-18,38.05-37.87,37.58-12.6-.3-24.9-1.53-36.8-5.47a49.32,49.32,0,0,0-14.93-2.43,48.54,48.54,0,0,1-17.48-3,11.5,11.5,0,0,0-4.09-.94c-12.81,0-25.46-2.2-37.79-5-16.41-3.69-33.2-2.39-49.52-5.32-15.39-2.77-31-2.56-46.4-4.7-11.48-1.6-23.18-1.6-34.79-2.21-5.93-.32-11.78-1.14-17.66-1.9-7.12-.93-14.54.09-21.83-.56-4.77-.43-9.67.33-14.25-1.79a6.18,6.18,0,0,0-3.33-.39c-23.44,3.42-47,.64-70.49,1.51a20.66,20.66,0,0,1-11.43-2.71c-4.51-2.7-8.31-2.21-12.66.38-4.66,2.79-10.19,3.77-15.47,4.07-19.53,1.09-39.1,2-58.66,2.23-6.1.08-11.5,2.51-17.51,2.89-24,1.51-47.8,4.24-71.62,7.48-15.08,2.05-30.13,5.61-45.56,4.86a9.92,9.92,0,0,0-5.76,1.14c-4.26,2.57-9.1,3.32-13.84,3.41-9.46.17-18.43,2.58-27.44,4.93a80.13,80.13,0,0,1-21.87,2.39c-15.49-.3-29.44-11.21-32.29-26.27-4.76-25.22-9.19-50.5-13.53-75.79-1.34-7.85-1-15.88-.35-23.76,1.1-12.67,14.11-25.77,28.07-28.47,6.64-1.28,13.24-3.19,20.16-2.68a10.27,10.27,0,0,0,5-.72c9.22-4.27,19.29-4,29-5.8,8.6-1.63,17.14-4.05,25.86-4.27,15-.39,29.23-6.51,44.34-5.81a65.78,65.78,0,0,0,22.92-2.85c12.14-3.69,25.21-3.38,38-2.87,1.69.06,3.67.79,5,.16,9.06-4.21,18.8-3.63,28.35-4.32,3.49-.26,4.66-1,2.52-4.55A172.43,172.43,0,0,1,249.76,223a139.08,139.08,0,0,1-9.57-53.07c1-40.2,14.25-75.79,43.39-104.7C294.91,54,306.87,43.74,321.34,36.74c3.34-1.62,5-3.74,5.13-7.83.3-7.8,5.38-12.42,13.35-13.76A147.88,147.88,0,0,1,366,13.4Z"/><path class="cls-3" d="M761.16,349.23a238.41,238.41,0,0,0,.7,24.73c.89,10.45.18,21-1,31.37-1.34,12.36-12.56,25.57-28.85,26.57a66,66,0,0,1-22.74-2.22c-11.47-3.43-23.3-4.15-34.89-6.4-16.34-3.16-33.06-4-49.21-7.53-16.9-3.72-34.16-2.8-51-6-15.88-3-32-2.52-48-4.92-10.87-1.64-22-1.35-33.06-1.86a110.48,110.48,0,0,1-18.47-2c-6.15-1.34-12.87,0-19.34.08s-13.1.27-18.86-3.68a4,4,0,0,0-4.78-.05c-4.34,2.87-9.23,2.38-14,2.38-16.17,0-32.35-.22-48.52.06-7.31.13-14.21-.74-20.24-4.95-3.09-2.14-5.47-1.83-8.41.1-7.84,5.16-16.68,6-25.9,6.86-13.82,1.29-27.74.32-41.49,2.46a23.51,23.51,0,0,1-10.14-.41,9.16,9.16,0,0,0-6.66.22c-5,2.41-10.43,2.67-15.78,2.59-12.51-.18-24.69,2.65-37.07,3.69-19.65,1.65-39.13,4.82-58.62,7.82a64.16,64.16,0,0,1-10.19.56c-6,0-11.62.47-17.32,3.1-4.46,2.05-9.9,2.75-14.9,2.73-9.54,0-18.21,3.74-27.4,5.08-8.4,1.24-16.76,2.56-24.9-1.65-7.88-4.06-12.44-10.2-13.94-18.95-3.94-23-7.92-46.08-12.27-69-1.34-7.06-1.24-14.07-1.38-21.13-.25-12.16,6.79-19.37,16.88-24.16a40,40,0,0,1,17.33-3.79c7.54.06,14.51-1.69,21.53-3.93,3.22-1,6.61-2.52,9.83-2.31,11,.73,21-4.44,31.75-4.83,1.4-.06,2.82-.67,4.19-.55,12.06,1.09,23.23-3.65,34.89-5.11,3.91-.49,8.37-1.41,11.79-.1,6.62,2.55,11.74,0,17.65-2.05,12.68-4.43,26-5,39.31-3.8,2.84.25,5.53.89,8.33-.26,10.75-4.42,22.12-4.13,33.41-4.16,2.5,0,5,1.1,7.49,1,4.13-.19,5.16-2.55,2.64-5.86a161.87,161.87,0,0,1-15.87-25c-26.07-51.74-17.67-120.31,26.05-163.15,13.11-12.86,27.56-23.43,44.23-31,3-1.36,4.78-1.72,2.12-5.71-3.54-5.33-1.52-9,4.6-10.49a30.61,30.61,0,0,1,5.82-1.09c22.17-1.24,44-.33,65.58,6.27,10.76,3.29,22.14,4.57,32.59,9.13,48.07,21,78.54,56.42,87.79,108.45,6.33,35.62-.43,69.17-19.57,100-2.82,4.55-6.34,8.66-9.51,13-2,2.7-1.37,4,2.11,3.94,19.31-.47,38.33,3.09,57.55,4.16a279.82,279.82,0,0,1,36.12,4.25c9.61,1.8,19.91.09,29.31,3.68,9.81,3.74,20.24.56,30.12,3.6,10.55,3.24,22.06,2.36,32.45,5.53,12.31,3.76,25,3.62,37.4,6.27,15.45,3.31,34.22,20.19,32.69,39.09C760.78,335.46,761.16,341.16,761.16,349.23Z"/><path class="cls-4" d="M696.07,401.08c-.54-.16-1.4-.62-1.58-.44-4.7,4.92-10.31,3.53-16,2.69-5.18-.77-9.24-2.59-11.09-7.81-.87-2.44-1.6-2.77-2.61,0-1.47,4-4.83,4.52-8.41,4-9.77-1.35-19.52-2.83-29.27-4.29-4.84-.73-7.65-3.4-7.91-8.44a13,13,0,0,0-.3-3.38c-.84-2.55-.58-6.69-4-6.65-4.33,0-2.32,4.29-2.75,6.72-1.28,7.17-3.68,9.13-10.82,8.33a22.77,22.77,0,0,0-3.38-.34C585,392,584.12,387,585.25,377c1.1-9.79,3.13-19.48,4.87-29.2,1.59-8.88,3.36-17.73,5-26.61.56-3,.31-5.14-3.75-3.42a8.6,8.6,0,0,1-4.2.11c-3.25-.44-3.87,1.38-3.85,4,0,5.1,0,10.2,0,15.3q0,18.7.11,37.41a12.16,12.16,0,0,1,.05,1.7c-1.6,11.05-.91,15.49-14,12a40.3,40.3,0,0,0-5.07-.51c-6.13-.84-7.75-2.36-7.82-8.76-.19-18.14-.14-36.27-.18-54.41,0-2.27,0-4.54-.06-6.8,0-2-.82-3.24-3.06-3-1.86.19-2.14,1.58-2.15,3,0,5.67-.15,11.34,0,17,.07,3.47,0,7.07-2.1,9.79-3,3.88-2.6,7.65-1,11.74s2.81,8.65,4.79,12.69c1.84,3.75,1,7.62,1.58,11.41.5,3.64-1.75,5.42-4.82,5.66a45.33,45.33,0,0,1-18.46-2,4.85,4.85,0,0,1-2.62-2c-1.78-3.45-3-7.92-5.2-.05-.73,2.58-4.4,2.38-6.88,2-9.57-1.57-19.21-1.33-28.84-1.56-6-.14-8.55-3-9.73-9.44-.58-3.13.26-8.14-3.51-8.54-5.47-.58-2.94,5.08-3.71,7.8-2.35,8.29-2,8.38-10.84,8.39-.57,0-1.14,0-1.71,0-15.27.52-14.63-2.21-13.75-16,.34-5.31,1.92-10.53,2.78-15.82.29-1.81,0-3.58-2.62-2.09-4.45,2.52-9.36,2.08-14.14,1.87-3.81-.17-4.95,1.38-4.85,5,.18,6.23.16,12.48,0,18.7-.2,5.83-1.28,7.23-7.13,7-6.19-.28-13.23,2.76-18.32-3.56a2,2,0,0,0-3-.14c-6.08,5.13-13.38,3.69-20.37,3.84-2.84.07-5.69.08-8.52-.05-8.74-.38-14.51-5.08-15.83-13.59-1-6.72-2.66-14.57.2-20.1,3.35-6.49.56-10.89-.15-16.51a161.47,161.47,0,0,1-.13-35.64c.79-8,7.85-14,16.71-14,9.42,0,19.42-2.65,28,3.93a2.13,2.13,0,0,0,3-.48c4.45-5.12,10.44-3.57,16-3.55,6.52,0,13,.59,19.54.93,9.89.51,15.74,6,16.75,15.71.2,2,.09,4,.36,5.93.34,2.52-.67,5.18.77,7.59.77-2.67,1.74-5.31,2.26-8,.91-4.72,1.41-9.51,2.33-14.22.87-4.44,3.41-6.94,8.35-6.55s9.68,0,14.42.68c6.65.95,7.95,2.61,9.21,9.12q3.38,17.44,6.8,34.87a32.57,32.57,0,0,0,1,3.15c1.23-1,.68-2.36.69-3.52.13-10.77.11-21.54.24-32.31.1-8.46,1-9.56,9.3-9.09,11.51.65,23.32-.84,34.32,4.12,2.64,1.19,4.91-.73,7.45-.7,13.33.11,26.49,1.93,39.66,3.74,5.28.72,6.72,4.42,6.55,9.26-.09,2.62.28,5.26.44,7.89a37.4,37.4,0,0,0,2.51-7.89c1.37-7,2.65-7.77,9.85-7.39a48.7,48.7,0,0,1,6.67,1.05c14.59,2.88,15.1,2.74,17,17.09,1.12,8.67,4.51,17,4,25.87-1.6.85-3.06.32-4.5-.45a5.32,5.32,0,0,1-1.56-1.71c-1.22-2.82-.69-6-1.74-8.85a16.1,16.1,0,0,1-.57-2.17c-.47-2.89-.36-5.93-2.29-8.43-2.21-4.12-1.62-9-3.46-13.15-1-2.36-3.21-2.31-5.19-2.76-.73-.13-1.44-.32-2.15-.52-3.19-.44-6.63-2-8.69,2.09-.22.67-.48,1.33-.73,2-1,2.26-1.08,4.7-1.49,7.09a18,18,0,0,1-.54,2c-.85,2.36-.82,4.88-1.27,7.32a19.91,19.91,0,0,1-.51,2.19c-.77,3.06-.31,6.2-.71,9.29-.56,3.31-1.39,6.57-2.1,9.85-2,5.76-2.64,11.78-3.21,17.8-1,3.59-1,7.34-1.67,11-.63,3.12-2.35,6.24-.06,9.37a17,17,0,0,0,1.66,1.16,8.61,8.61,0,0,0,6.86-.06,15.3,15.3,0,0,0,1.63-1.25c2.4-3.2.54-7.35,2.39-10.66a4.68,4.68,0,0,1,1.85-1.68c13.43-.37,15.58,1.33,17.43,13.71a9.26,9.26,0,0,0,1.92,2.76c3.23,1.8,6.6,2.91,10.35,2.24a16.57,16.57,0,0,0,1.71-1.16c2.27-5-1.53-8.18-3.7-11.84-1.81-3.29-2-6.87-2-10.51.42-3.63-1.25-7.06-1.13-10.59.11-3-.25-7.24,5.23-5.6.2.19.46.59.6.55,2-.56,1.08-2.21,1.09-3.34.14-12.34,0-24.68.27-37,.12-6.61,1.94-7.78,8.81-6.41-2.08,6.92-1.38,14-1.49,21.09-.08,4.52.38,9.14-2.2,13.22-.8,1.27-1.38,2.78-.86,4,6.31,15,1.12,30.88,3.65,46.11a18.06,18.06,0,0,0,1.23,2c2.38,2.29,4.87,2.57,7.49.38a22.86,22.86,0,0,0,1-2.12c.51-6.67-.09-13.33.32-20,.19-3.22-.08-7,4.73-7.38,2.55.78,3.09,3.07,4,5.14,1,3.56,1,7.45,3.27,10.63a61.94,61.94,0,0,1,2.17,8c.8,3.07-.08,6.6,2.54,9.17a11.24,11.24,0,0,0,3.43,2.26c2.71.84,5.41,1.65,7.68-1a19.27,19.27,0,0,0,.9-2.28c.39-17.47-.06-34.9.23-52.33.07-3.94-1.23-10,4.52-10.16,6.62-.24,4.74,6.16,5.32,10.28.69,4.94-1.61,10.1,1.15,14.87,1.49,1.58,2.81,3.31,4.15,5,2.63,5.56,8.36,3.32,12.57,4.94a9.06,9.06,0,0,1,2.26,1.29A13.69,13.69,0,0,1,722.11,374c-.11,4.45-.8,8.9-6.12,9.38s-4.61-4.43-5.55-7.68c-.4-.69-.76-1.41-1.13-2.12-3.34-4.28-7.41-2.73-11.43-1.41-.59.46-1.18.92-1.72,1.43-2.38,5-1.56,9.87,1,14.51S700.29,397.07,696.07,401.08Z"/><path class="cls-5" d="M239.18,304.4c.6-2.75,1.28-5.49,1.77-8.25,1.59-8.87,2.46-9.81,11.07-11,2.8-.4,5.62-.71,8.44-.83,11.15-.45,12.33.61,14.24,11.81,1.75,10.28,3.59,20.55,5.44,30.82.23,1.23,0,2.74,1.4,3.53a22.64,22.64,0,0,0,.54-3.33c.09-8.49.16-17,.15-25.47,0-4,.69-7.89.86-11.8.22-5.21,3.06-7.3,7.4-7.39,9.63-.19,19.13-2.1,28.79-1.65,10.47.49,16.74,6.46,16.83,17.11.18,20.94.13,41.9,0,62.84-.06,13.56-5.91,19.54-19.57,20.28-13,.7-26,1.29-38.93,1.93a8.1,8.1,0,0,1-.85,0c-4.15-.22-8.44,2.31-12.43-.41s-2.32-7.26-3.55-10.87c-.61-1.79-.79-4.18-3.54-4-2.18.15-2.54,1.88-2.7,3.65-.44,4.74,0,10-4.91,12.81-5.69,3.21-12.22,2.71-18.27,1.82a17.6,17.6,0,0,0-8.66.69c-6.19,2-12.77,3.26-19.21,2.76-11.49-.88-22.19,3.2-33.34,4.28-11.78,1.14-23.45,3.27-35.21,4.56-7.34.8-8.35-.28-9.81-7.25-.59-2.86.31-7.49-3.66-7.41-4.16.08-2.79,4.72-3.24,7.57-1.19,7.68-4.33,10.88-11.93,12-1.4.19-2.82.25-4.22.46-10.14,1.54-10.7,1.1-11.05-9-2.31-2.87-.92-6.1-.54-9,2.92-22.39,8-44.43,11.26-66.78.32-2.16.91-4.48,2.79-6.06,2.45-9.51,4-10.78,13.69-11.83,3.08-.33,6.11-1.15,9.19-1.43,6.81-.62,8.48.35,10,7.25,2.42,11.28,4.36,22.67,6.52,34,.2,1.07.05,3.08.95,2.93,1.47-.26.93-2.19.94-3.39.11-10.75.13-21.5.17-32.26,0-10.37.48-10.88,10.51-12.43,2-.3,3.87-.85,5.83-1.11,7.4-1,9.24.49,9.32,7.92.12,10.47,0,20.94,0,31.41,0,8.78,0,17.55,0,26.32,0,3,.22,5.87,4.47,5.45,3.36-.33,7.16.07,7.37-4.92.05-1.13-.38-2.76.21-3.31,5.82-5.45,1.28-10.57.41-16.26a126.27,126.27,0,0,1-.06-36.37c1.2-8.66,9.55-14.59,19.86-15.5,4.78-.42,9.56-.45,14.35-1.17,7.71-1.17,12.75,3.2,16.22,12.89.31,6.89,2.5,13.73.57,20.68-.2.75.25,1.66-.57,2.26,1.39-.59.49-1.78.59-2.63C235.83,315.5,238.81,310.26,239.18,304.4Z"/><path class="cls-6" d="M696.07,401.08c1.16-5.16,1.13-9.77-2.13-14.7a11.5,11.5,0,0,1,2.47-15.1c2.48,2.83,1.78,6.41,2.26,9.7,1.66,11.54,19.53,20.67,29.85,15.25,3.2-1.68,3.87-4.71,4-7.89.35-6.78.34-13.57.07-20.34-.34-8.64-3-12.82-11.74-14.08-12.94-1.87-15.21-9.27-13-23.55.49-3.14,2-6.12,5.75-6.45a9.17,9.17,0,0,1,8.71,4.26,8.58,8.58,0,0,1,1,2.31c1.16,3.61,1.45,9.35,6.9,7.2,4.33-1.7,2.56-7,1.54-10.67-2.29-8.17-22.27-14.77-29.19-9.83-3,2.18-3.84,5.49-4,9-.29,6.5-.23,13,0,19.5.11,2.74,1.21,5.64-1,8.11-3.43-2-5.24-3.86-3.77-8.72,1.41-4.67.37-10.08.38-15.16,0-1.5-.4-2.87-2.18-3-2.31-.22-2.84,1.35-2.85,3.2,0,5.93,0,11.86,0,17.8,0,12.71.07,25.42-.07,38.12,0,2.28,1.41,5.22-1.85,6.71-3.19-3.58-2.41-8-2.44-12.17-.11-19.55.1-39.1-.17-58.65,0-3.77,1.64-10.16-4.52-9.9-5.34.22-3.31,6.26-3.48,9.82-.36,7.92.06,15.87-.2,23.8-.12,3.52.7,8.78-3.45,9.38-3.62.53-4-4.72-5-7.78-2.95-9.76-5.48-19.65-8.14-29.49-.52-1.92-.94-3.86-1.61-5.73-1-2.81-2.41-5.57-5.89-4.94-3.32.61-2.95,3.87-3,6.27-.27,20.68,0,41.37-.17,62.05,0,4.18.71,8.58-2.24,12.26-3.45-1.29-2-4.27-2.06-6.53-.15-10.69,0-21.39-.1-32.08,0-2.68.57-5.37-2.15-7.69-2.31-2-2.21-6.25-.7-7.82,4.23-4.41,2.56-9.44,2.83-14.26.25-4.48.16-9,0-13.5-.1-3.15.82-5.51,3.94-6.67,2,.11,4,.32,6,.31,5.41,0,9.24,2.07,11.08,7.42.41,1.22,1.58,2.18,2.4,3.26.1-1.13.16-2.26.31-3.38a4.09,4.09,0,0,1,4.83-3.76c6.74.89,14.59-1.15,19.14,6.3,1,1.61,1.91,1.63,3.39.78,5.9-3.41,12-2.05,18.16-.8,3.6.72,7.09,1.8,10.76,2.34A18.57,18.57,0,0,1,740.56,329c.31,5.93.09,11.9.15,17.85,0,2.31-.05,4.53-2,6.23-.87.77-1.48,1.68-.74,2.89,4.52,7.35,2.29,15.49,2.67,23.3.31,6.22.12,12.47,0,18.7-.2,9.83-4.31,13.61-14.31,13.48-8-.1-15.52-2.81-23.15-4.78C700.25,405.87,697.41,404.25,696.07,401.08Z"/><path class="cls-7" d="M87.89,399.73c-2,5.75-6.25,8.23-12.22,8.56-2.78.15-5.49,1.21-8.26,1.66-7.95,1.28-10.09-.16-11.51-8.2-3.09-17.49-6-35-9-52.49-1.53-8.88-4.22-17.58-3.68-26.77.4-6.73,1.57-8.35,8.06-9.66.55-.11,1.13-.07,1.69-.17,15.18-2.94,15.16-2.94,17.94,11.83.22,1.19-.27,3.35,1.83,3,1.69-.26,1.15-2.24,1.32-3.53,2.38-17.32,2.18-15.52,19.1-19.15a9.87,9.87,0,0,1,8.16,1.37c4.06,11.88-.26,23.47-2.35,34.76C95.29,360.55,93.65,380.54,87.89,399.73Z"/><path class="cls-8" d="M398.08,35.51a1.73,1.73,0,0,1,1.62,1.66,12.61,12.61,0,0,1,.74,2.38c.81,2.18.07,4.34.1,6.5a9,9,0,0,1,2.25-5.52c.09-2,.91-3.44,3.08-3a61.94,61.94,0,0,1,13.56,4.59c1.78.84,2.59,1.94,2.49,3.87-.22,4.34,1.48,2.41,3.08.93s4.45-.89,4.26,0c-1.39,6.78,3,2.08,4.72,2.72a22.45,22.45,0,0,1,5.69,3.47c4.21,3.24,8.31,6.63,12.45,10,6.89,2.06,9.29,8,11.82,13.76,3,7.48,8.1,13.88,10.68,21.56,1.15,3.39,3.6,6.64-.32,9.84-1.16.95-.48,1.36.46,2.33,4.25,4.36,4.17,4.49-.1,8.46-.51.48-1.06.65-.63.89a20.69,20.69,0,0,0,2.29.83c1.07.43,2.5,1.23,2.23,2.18-.35,1.24-1.73.62-2.67.12-3.77-2-8.43.82-12-2.22C460.29,108.5,450,99.82,445.6,87.73c-1.07-3-6.77-3.91-7.43-8.49-5.27,1.9-3.74-7.19-10-5.76-3.42.79-7.39-4.13-11.47-6s-8.54-2.93-11.91-5.27c-2.95-2.05-6.31,2.14-8.11-1.73-2.92-5.89.8-12.76-2.82-18.53-1.28-1.72-3.27-3-3.22-5.52C392.83,33.8,395.48,34.83,398.08,35.51Z"/><path class="cls-9" d="M411.48,103.68c17.19,5.94,29.5,17,35.95,34.19,1,2.66,2,5.24,1.38,8.15-9.84,2.34-19.73,1.11-29.62.5-11.78-2.41-23.37-5.65-34.83-9.21-7.95-2.48-8.8-7.14-2.69-12.84,8.1-7.54,18.28-9.24,28.91-9.23a14.09,14.09,0,0,1,2.57.51c4.3,1.41,8.73,2.4,13.1,3.55,1.46.65,2.86,1.41,4.27,2.15.9.56,1.54,1.45,2.48,2a22.73,22.73,0,0,0-3-2.46c-13.83-7.06-28.07-8.76-42.88-3.39a9,9,0,0,1-4.92.65c-5.5-5.51,0-7.87,3.37-10.08,3.8-2.47,8.54-2.71,13-3.24,3.08-.37,6.17-.46,8.94-2.1A4.56,4.56,0,0,1,411.48,103.68Z"/><path class="cls-10" d="M391.12,37.3c1.55.83,3,2,4.9,1.86,2.75,7.1-.94,14.78,2,21.86,1.12.06,2.38.31,3-1,.79-1.69.5-4,3-4.64.19,1.64.34,3.3.62,4.93.12.7.56,2.31,1.26,1.38,3.93-5.19,3.43-.54,4.63,1.7,1.06,2,4.34-3.3,5.79,1.52.79,2.61,3.86,4,6.86,1.21,1.22-1.15,1.45,0,2,1.15,2.79,6.46,2.86,6.41,8.69,1.7.74-.6,1.48-2.2,2.45-1.32s-.41,1.92-1,2.81c-1.23,1.91-2.7,3.8-.75,6.08,1.73,2,3.37,1.32,5.08-.16s2.32-1,2.12,1.16c-.64,7.32-.61,7.35,5.84,5,.84-.31,1.6-.69,2.22.08a1.71,1.71,0,0,1-.25,2.25c-1.42,1.76-3.47,3.8-1.61,5.93,4.52,5.14,7.87,11,11.8,16.47,2.42,3.32,4.13,5.5,3.55,9.52-.17,1.17,1.06,2.55.64,4-.46,0-.93-.06-1.39-.1-4.74-.62-4.75-5.1-6.25-8.09-5.69-11.35-12.8-21.35-24.17-27.7-9.32-7.65-21.56-8.47-31.95-13.59-4.53-1.62-8.35-3.78-7.41-9.62a5.67,5.67,0,0,0-.07-2c-.06.5,0,1.06-.06,1.62-1.73,9.54-9.94,7.66-15.59,7.3-4-.26-6.94-.3-10.15,1.82-.92.6-2.19,0-3.09-.8,0-.62.09-1.25.14-1.87,1.26-7.44-2.43-13.8-4.4-20.55-1-3.28-4.29-6.06-2.35-10a2.81,2.81,0,0,0,1.48-2.78c-.18-2.87,1.17-4.14,4-4s5.8-.73,6.49,3.48a15.76,15.76,0,0,0,2.24,6.29c1.13,1.61-.09,5.73,3.24,4.65,2-.65,1.18-4.08.71-6.21-.5-2.29-3-5.23.71-6.19,2.67-.69,7-2.53,8.22,2.76l3.41-1.24C388.76,35.2,390,36.14,391.12,37.3Z"/><path class="cls-11" d="M403,236.49a5.93,5.93,0,0,0-3.66-3.64c-.52-1.93.69-3.09,1.87-4.3,1.62-1.66,5.41-3.17,3.38-5.51-1.3-1.48-3.95,2-5.81,3.45a81.31,81.31,0,0,0-11.17,10c-2.66,3.39-6.4,3.49-10.22,3.34-1.2-2.77.88-4.46,2.12-6.44,7.37-6.57,13.93-14,21.91-20,2.1-1.56,5.11-3.07,3.74-6.74-3.39-6.69-5.62-13.58-3.86-21.19,1.22-4.38,1.88-9,5.94-12,6.38-2.75,12.74-6,19.66-1.43,4.18,9.84,9.83,18.6,18.67,25-.17,2.15.51,4,2.51,4.9,2.68,1.17,2.62,3.32,2.53,5.6-3.75-1.28-7.81,1.18-11.69-1.58-2.67-1.91-4,1.84-5.51,3.41s.23,3.88,1.44,3.91c6.82.17,8.55,7.5,14,9.42-2.15,2.57-6.82,4.17-3.45,8.88-4.54,4-8.83,5.32-11.8-1.56-1.26-2.94-3.69-4-6.27-5.12-4.25-1.87-7.63-4.36-8.47-9.53-.93-5.73-3.39-2.08-5.35-.51-1.26,1.51-.69,3.16-.51,4.85C414,229,412.27,231.85,403,236.49Z"/><path class="cls-12" d="M345,148c.31-9.6.43-9.71,8.71-7.74.27.06.5.29.77.34,3.32.56,6.65.95,10,.06-2.77-2-6-2.46-9.27-3-12.74-2-12.77-2.13-6.05-13C354.93,115.24,363,108,372.25,102c8.26-5.75,16.86-5.61,25.68-1.48-.58,4.54-4.47,3.77-7.1,3.77-13.25,0-20,7.86-23.77,19.17a89.5,89.5,0,0,1-4.43,9.93c3.75,1.3,7.69,2,11.42,3.25,11,3.83,22.74,4.26,33.91,7.26,1.9.9,5.31.53,5.07,3.35-.22,2.48-3.26,2.7-5.49,2.91-13,1.24-25.75-.56-38.32-3.38-4.47-1-6.84.56-9.12,3.69A18.68,18.68,0,0,1,345,148Z"/><path class="cls-13" d="M442.13,47.28C460.6,54.6,476.24,66,489.73,80.42c19.49,20.89,30.51,45.51,34.49,73.82,3.54,25.21-1.43,48.78-11.47,71.5a127.25,127.25,0,0,1-23,34.36c-2.6,1.74-3.76.68-3.43-2.06.31-2.58,1.87-4.73,3.54-6.65,18.74-21.53,27.94-47,29.73-75,1.57-24.48-4.5-47.7-16.74-69C492.27,89,478.41,73.5,459.57,63c-2.31-1.19-3.68-3.4-5.55-5.07-4.84-2.58-9.92-4.78-14-8.64C439.89,47.79,440.52,47,442.13,47.28Z"/><path class="cls-14" d="M471.14,258.53a17.88,17.88,0,0,1-3,1.5,3.16,3.16,0,0,1-2.41-.09c-1.63-1.16.09-1.95.67-2.55,6.88-7.08,14.44-13.49,20-21.8,16.65-24.86,23.54-51.81,19.1-81.72-3.4-23-12.57-42.92-28.09-60.07-2.31-2.55-4.29-5.19-4.53-8.77,2.9-1.9,4.74,0,6.56,1.86a115.29,115.29,0,0,1,33,71c3.68,37.41-8.43,69.5-33.94,96.84A12.93,12.93,0,0,1,471.14,258.53Z"/><path class="cls-15" d="M310.94,258.43a2,2,0,0,1-1.88,1.62c-7.86-3.46-12.76-10.13-17.6-16.66-8.33-11.24-14-23.87-18.39-37.12-3.74-12.56-6.2-25.3-5.48-38.49,2-46.41,23.41-81.23,63-105.16,3.85-2.32,7.81-4.72,12.57-4.88a5.67,5.67,0,0,1,3.66,1.44c.54,4.39-3.35,4.74-5.85,6-38.58,20-59.78,52-65.65,94.54-.85,6.12-.14,12.41-.16,18.63,2.75,27.84,12.54,52.54,32.43,72.79C309.5,253.12,311.89,255.07,310.94,258.43Z"/><path class="cls-16" d="M398,101.84c-6.59-2.86-13.39-1.65-20.09-.74-1.86.25-3.7.92-5.64.88,0-1.17.07-2.35.11-3.53q3.17-3.32-.07-6.59l-.09-2c-2.73-2.08-2.65-5.82-4.86-8.2-3.17-.26-7.14,1-8.41-3.39-1.22-4.23,1.32-6.76,4.81-8.57a6.11,6.11,0,0,0,4.68-1.63c2.18-1.9,3.9-6.27,6.75-.66,3.8-1,7.73-.8,11.58-1.26,5.38-.63,4.05-5.14,4.3-8.62.05-.74,0-1.85.86-1.77.55,0,1.08,1.14,1.47,1.85s1,1.65.87,2.31c-1.59,6.17,2.68,8,7.07,9.76-3.88,3.57-8.59.93-12.84,1.7a14.52,14.52,0,0,1-2.09,0c.56,0,1.13,0,1.68,0,2.72.23,5.65-.71,8.07,1.33.78,2.89-1.36,3.28-3.29,3.6a46.61,46.61,0,0,1-6.15.17c2.25,0,4.55.32,6.73-.08,8.65-1.58,16.7.71,24.62,3.64,3.06,1.13,6.5,2.19,7.44,6.08-2.87,3.7-6.21,1.58-9.21.47-8.36-3.09-17.18-3.24-25.85-4.29A11.32,11.32,0,0,0,383,83.57c-1,.6-2,1.35-1.48,2.68a2,2,0,0,0,2.17.93c4.27-.48,8.44.57,12.68.8,5.57,2,12.71,1.42,15.1,8.85,0,.6,0,1.2,0,1.81-7.31.66-13.89-4.52-21.36-2.62a13.14,13.14,0,0,1-2.52.13c.84.58,1.74.08,2.61.11,3.09.08,6.24-.26,9.25.54s5.65,1.89,3.37,5.8C401,103.44,399.38,103.4,398,101.84Z"/><path class="cls-17" d="M367.23,243.28c-3.4,3.62-10.08,4.79-8.92,11.87.05.26-.71.82-1.17.94a1.29,1.29,0,0,1-1.65-1.38c.66-5.08-1.85-8.41-5.74-11.14a3.2,3.2,0,0,1-1.18-2.18c-.2-4.5-.23-9-1.81-13.33-.73-2,.75-4.92,2.48-4.7,5.21.67,4.29-2.57,4.23-5.44,0-1.38.41-3.8-.62-3.86-1.49-.09-.76,2.18-1.21,3.36-1.14,3-3.74,2-5.81,1.89-2.43-.15-2.45-1.8-1.55-3.62a2.56,2.56,0,0,0-1-3.67c-5.45-2.35-5.2-5.09-2-9.64,1.94-2.78,2.4-6.83,2.1-10.63-.15-1.86-.9-4.43,1-5.53,2.55-1.48,3.76,1.78,5.73,2.63,1.4.6,2.37,2.23,3.53,3.4.78,1.62-.07,3-.64,4.41,2.91,8.64,6.82,17.07,5.58,26.56-.07.51-.51.82.4,1.45,5.14,3.52,5.1,3.61,5.34,8.34.13,2.52-.2,5.11,1.47,7.3A5.56,5.56,0,0,1,367.23,243.28Z"/><path class="cls-18" d="M459.16,61.19c11.17,4.52,20.12,12.13,28.13,20.82a129.54,129.54,0,0,1,17.83,24.45c5.76,10.28,10.59,21.21,13.17,32.69,2.45,10.89,4.56,22.09,3.8,33.35-1.24,18.5-4.72,36.38-13,53.42-5.63,11.55-13.23,21.44-20.81,31.5-1.79,2.38-.7,2.72,1.48,2.68-1.59,2.56-3.3,2.47-5.1.23-1.22-.65-2.2-1.47-2.18-3,4.41-8.58,11.68-15.13,16.44-23.55Q536.16,168,497,103.41C487,86.91,473.13,74.07,456.65,64c-.59-.91-1.55-1.78-.48-2.91S458.18,60.55,459.16,61.19Z"/><path class="cls-19" d="M411.62,212.73c2.06-1.37,3.66-3.58,6.55-3.39,1.61.11,3.58-.85,4.66.83.9,1.38-.31,2.66-1.29,3.63-2.33,2.33-.94,3.88.91,5.52a17.77,17.77,0,0,0,7.14,4.22c3.47.94,8.52.81,5.8,7.15-.63,1.46,1.23,2.06,2.74,2.29,2.64.42,4.62-2.17,7.28-1.43l3.72,4.84c.29,5.12-3.34,7.2-7.14,9.15-5.69-.44-6.95-6.21-10.75-8.93-1.07-.76-2.05-2.33-3.55-1.36-1,.63-.48,2.08-.51,3.18-.09,3.64.58,7.41-1.84,10.66-3.68,2.51-7.15,5.62-12.19,4.38a7.67,7.67,0,0,1-2.3-6.94A130.57,130.57,0,0,0,411.62,212.73Z"/><path class="cls-20" d="M351.87,47.7l3.73,3-.67,1c-19.44,6.91-36.84,16.85-51.37,31.9A131.14,131.14,0,0,0,276,125.91c-8.29,19-10.09,38.74-7.77,59.08,1,14.86,6.28,28.41,12.39,41.76,1.43,3.11,4.3,6.35,1,10-6.8-3.32-8.35-10.26-10.85-16.32a128,128,0,0,1-7.68-73c4-24.86,15.09-46.33,31.77-65A125,125,0,0,1,340.67,50C344.16,48.5,347.66,46,351.87,47.7Z"/><path class="cls-21" d="M483.25,258.37a2.2,2.2,0,0,1,1.39,2c-4.89,2.3-9.59,3.21-13.5-1.8,19.83-18.9,33.58-41,37.86-68.61.94-6,1-12.22,2.43-18.29,1.19-5-.78-10.54-1.4-15.78a114.07,114.07,0,0,0-22.56-56.29C483.4,94.2,479.41,88.19,472.88,85c-2.53-1.48-1.93-2.6.41-3.52,3.77-1.84,5.88.87,7.92,3.11,24.54,27.07,37,58.69,34.6,95.36-1.26,19.15-7.67,37-17,53.8-3.2,7.61-8.69,13.57-14.06,19.66C483.7,254.66,480,255.6,483.25,258.37Z"/><path class="cls-22" d="M351.79,195.62l1.79-3.37c5.08-3.61,9-8.49,13.51-12.67,2.35-2.16,1.9-3.88-1.13-4.8-7.26-2.22-14.31-2.68-20.65,2.59-.84.69-2,1.87-2.69,1.69-1.75-.45-.83-2.26-1-3.48a9.36,9.36,0,0,1,1.78-7.15c8.06-6.45,21.08-7,31-1.39.61,7.27-.43,14.54.17,21.86.49,6,1.64,11.67,5,16.75-1,7.17-6,8.56-12,8.4-4.38-1.53-4.17-5.51-4.53-9-.58-5.49-1.44-10.12-8.88-7.08C352.87,198.49,351.46,197.53,351.79,195.62Z"/><path class="cls-23" d="M273.52,178.54c-1.84-27.14,5.26-52,20.3-74.4,11.33-16.89,25.81-30.56,44.34-39.62,3-1.47,6.41-2.27,8.76-4.91,6.46-5.24,8.75-4.88,10,1.54a113.58,113.58,0,0,0-50.42,32.69c-15.34,16.9-24.42,36.75-28.07,59.31-1.46,9-1.43,17.94-1.42,26.95.81,1.34.9,3.36-.53,3.45C273,183.77,275.28,179.83,273.52,178.54Z"/><path class="cls-24" d="M264.89,146.18c-2.81,12.81-2.41,25.88-1.39,38.68a116.25,116.25,0,0,0,15.64,49.21,4.35,4.35,0,0,0,3.38,2.27A42,42,0,0,1,299,258.05c0,2.86-.85,4.9-3.81,2.45a53.14,53.14,0,0,1-8.1-8.57c-14-18-23.2-38.26-26.68-60.72-2.68-17.32-3-34.78,2.83-51.77C265.31,141.32,262.93,144.28,264.89,146.18Z"/><path class="cls-25" d="M360.39,149.52c.59-2.12-2.9-4.41-.44-6a7.48,7.48,0,0,1,8,0c2.86,2.14,5.26,2.44,8.39,1.17a4.74,4.74,0,0,1,4,.58c9.71,5.61,20.3,1.26,30.38,2.65.74.1,1.17-.2,1.07-.72-.22-1.07-1.25-.76-1.91-1.1a12.55,12.55,0,0,1-1.9-1.47c3.44-1.59,6.93-1.23,10.44-.26,10.1.68,20.32-.75,30.34,1.61a9.87,9.87,0,0,1-1.53,7.07,8,8,0,0,1-6.84,1.69c-4.4-1.47-9-1.1-13.48-1a173.94,173.94,0,0,1-35.44-2.65c-1.38-.25.61,1.84-.6,2.49-3.9,2.59-8.15,1.73-12.35,1.36a27.76,27.76,0,0,0-8.19-1.35C366.66,153.23,362.92,152.84,360.39,149.52Z"/><path class="cls-26" d="M396.34,90c-5.18.68-10.34-1.62-15.58.05A3.72,3.72,0,0,1,376.5,88c-1.22-2.18,1.16-2.68,2-3.94,4.93-7.44,12.15-3.7,18.41-3.53,9.74.27,19,3.43,28.27,6.21,7.09-2.4,9.86,4.59,14.85,6.77,2.86,2.78,7.74,4.45,5.55,10a22.74,22.74,0,0,0,.27,2.47c.28,1.23,2,2.33.5,3.61-.21.18-1.87-.93-2.54-1.71-5.48-6.43-12.45-11-19.5-15.38-1.6-1-4-4.12-6.23-.37-4.35,2.91-8-.51-11.87-1.41a82.33,82.33,0,0,1-10.35-3.28,31.51,31.51,0,0,0-6.44-1.48,34.47,34.47,0,0,1,5.42,1.39A2.36,2.36,0,0,1,396.34,90Z"/><path class="cls-27" d="M264.89,146.18c-3-1.65-1.11-4.49-1.66-6.74a121,121,0,0,1,22.38-48.53c12.13-15.93,26.87-28.84,44.74-38,6.24-3.19,12.52-6.42,19.31-8.33,2.28-.65,5.24-.58,2.21,3.12a121.93,121.93,0,0,0-55.42,35.61c-14.12,15.63-24.42,33.42-29.67,53.88C266,140.11,264.32,143,264.89,146.18Z"/><path class="cls-28" d="M496.11,235.59c2.92-9.46,8.56-17.7,11.48-27.25,13.19-43.15,5.07-81.86-23.46-116.49C481,88,478.65,83.12,473.29,81.51c-1.39-3.44-6.12-3.14-7.46-6.63-1.5-1.19-3.22-2.34-.71-4.2,3.31-.53,5.11,1.88,7.24,3.69,44,37.56,57.27,94.94,33.85,147.6C504,227,502.84,233.57,496.11,235.59Z"/><path class="cls-29" d="M273.52,178.54c.51.61,1,1.2,1.51,1.81s-.56,2.45,1.31,2c.39-.1.45-1.44.66-2.21,3,6.12,2.6,13,4.22,19.43a104.94,104.94,0,0,0,30.06,51.74,21.25,21.25,0,0,1,3,3c1.29,1.86,5.31,3.06,3.56,5.44-1.46,2-4.68,0-6.89-1.29a169.37,169.37,0,0,1-24.82-33.6c-5.63-10.22-8.82-21-10.81-32.25C274.5,188,272.41,183.42,273.52,178.54Z"/><path class="cls-30" d="M360.39,149.52c3.55-.46,6.45,2.44,10,1.92-2.32,6.5-7.88,3.08-12,3.88-2.75.53-7.49-2.22-7.84,1.86-.41,4.83,4.78,3.42,7.78,3.52,5.91.19,11.81.13,17.56,1.8a27.23,27.23,0,0,1,8.9,3.53c2.43,2.1,2.72,4.73,1.77,7.61-2.63,7.9-2.27,16-.66,23.91,1.36,6.72-1.79,11.25-6.31,15.39-2,1.81-4.07,3.64-7,3.91-2.47-.56-5.56-.37-5.42-4.26a12.48,12.48,0,0,0,11.89-6.87c-2-4.85.5-10.14-1.51-15-2-6.33.91-12.41,1-18.62-.81-2.09-3.55-1.91-4.51-3.79-10.22-4.86-20.41-2.43-30.6.11-.3-5.79,4.64-11.85-.81-17.49A26.87,26.87,0,0,1,345,148C350.27,146.79,355.18,149.61,360.39,149.52Z"/><path class="cls-31" d="M299,258.05l-16.47-21.71c-5.65-12.25-11.72-24.3-14.64-37.66-1-4.47-1-8.94-1.68-13.38,4.18-.68,3.33,2.55,3.85,4.82,1.34,5.89,1.12,12.25,5.17,17.34,5.31,12,10.24,24.19,18.21,34.9,4.74,6.37,10.78,11.48,15.63,17.69l.05,0c-2.78,1.35-5.53,1.75-8.23-.2Z"/><path class="cls-32" d="M414.75,253.21c3.13-2.25,6.34-4.32,10.23-5,4.77-5.51,11.54-1.3,17-3.48,1.39-3.62,5.57-4.86,7.16-8.32l3.57,2.06c.49,3.46-3.25,4.29-4.26,6.81,2.06-1.79,4.12-3.58,7-4,1.87-.3,3.77-.94,5.5.46,1.19,2.16,3.39,1.14,5.12,1.61-.3,4.19-4.55,1.95-6.28,3.84-2.28,2.48-7.15,2.67-6.67,7.55a14.31,14.31,0,0,0,2.69,5.61c-6.83,4.53-13.6,1.95-20.38-.15,1.06-2.27,5.9-1.3,4.91-4.62-.73-2.44-4.08-2.67-6.67-2.78a18.51,18.51,0,0,0-5.8,1.1c-.71.25-2,.55-1.83,1.13.51,2.15,2.55.84,3.84,1.35,2.31.6,5.41.07,5.53,3.81-8,.05-16.1.75-23.94-1.73C410.43,255.34,412.85,254.44,414.75,253.21Z"/><path class="cls-33" d="M414.75,253.21l-3.33,5.2c-12.12-2.93-12.16-2.94-10-14.68.45-2.42,1.82-4.66,1.58-7.24,2.87-2.05,3-6.18,7.16-7.78,2.62-1,1.37-5.59.68-8.55-.61-2.63-2.64-5.26.76-7.43,1.44,10,5.12,19.83,1.83,30.33C412.52,246,411.57,250.2,414.75,253.21Z"/><path class="cls-34" d="M457.06,189.06c2.9.27,2.53,3.2,3.87,4.74-14.41,5.24-26.32-.34-30.57-14.42-.49-1.63-1.19-3.2-1.53-4.84-1.63-7.91-6.06-11.88-14.43-10.56-2.5-.06-5.07,1.08-7.53-.27-1.48-3.32-4.64-3.22-7.56-3.93-2.27-.56-5.73-1.46-1.79-4.75,5.63-1.48,11.22-1.63,16.58.84,1.94.89,3.5,1.21,5.56.3,7.6-3.4,15.44-2.44,23.26-.88,3.48,3.51,1.08,5.61-2.16,6.24-5.79,1.14-5.82,4.76-4.92,9.16.77,6.51,1.13,13.22,8.67,16.1C448.53,188.43,452.85,188.42,457.06,189.06Z"/><path class="cls-35" d="M433.85,171.55c-.12-.54-.21-1.08-.35-1.62-2.43-9.05-2.44-9.11,6.6-10.16,2.12-.25,3.79-.62,4.17-3,1-1,1.9-1.46,2.77.09q0,3.9-.1,7.81a17.28,17.28,0,0,0-.05,9.22c.73,6.83,5.32,11.1,10.17,15.2-4.49,3.49-8.81.84-13.18-.33C444.92,180.45,435.76,178.11,433.85,171.55Z"/><path class="cls-36" d="M448.86,222.67a9.15,9.15,0,0,0-2.39-.78c-1.94-.09-2.86,3.39-5.06,1.85-1.85-1.31-.92-3.67-.92-5.56,0-4.76-1.89-2.9-3.71-1.11-2.45,2.4-3.12,1.29-3.24-1.46a3.66,3.66,0,0,0-.85-2.29c-3.11-3.09-3.35-4.12-.79-6.46,1.63-1.48,4.16-1.89,5.05-4.28.5-1.32,1.22-2.76,2.85-2.42.41.09.61,2,.59,3.11-.05,4.18.88,3.81,2.84.76,1.16-1.8,2.35-.61,3.46.32,1.29,1.09,2.62,2.11,3.94,3.16C454.09,213,450.12,217.69,448.86,222.67Z"/><path class="cls-37" d="M372.17,215.92l5.14-3.38a3.22,3.22,0,0,1,1,2.23c.08,1.39-1.32,3.45-.45,3.9,1.77.92,2.7-1.34,3.86-2.35a100.6,100.6,0,0,1,8-6.22c2.35-1.65,4.77-3.22,7.74-1.29,1.26,1.64.38,3-.59,4.32-6,4.55-11.11,10.1-16.28,15.54-1.53,2.05-1.63,4.05.17,6l-3.37,5.13c-3.15,1.88-5.56,5.92-10.18,3.47a2.56,2.56,0,0,1-1.84-1.83c-1-2.62,1.06-4.15,2.18-6a7.29,7.29,0,0,0,0-8C363,219.82,363.41,218.61,372.17,215.92Z"/><path class="cls-38" d="M333,243.26c2.67-.54,6.61,1.41,7-3.57,5.38,2.69,3,6.56,1.56,10.29s-1.5,4.28.53,3.78,3.86.65,5.68.52c2.1-.16,4.6-2.15,5.47,1.25.69,2.68.92,5.88-2.15,7.49a34.57,34.57,0,0,0-6,4.55,2.7,2.7,0,0,1-3.08.44c-3.8-1.65-6.94-7.41-5.94-12,.85-3.87-1.89-6.24-3.09-9.27C334,245.55,332.14,244.41,333,243.26Z"/><path class="cls-39" d="M445.57,103.48c-.51-4.14-3.87-6-6.65-8.37-1.1-3.8-5.53-5.43-6.24-9.49a3,3,0,0,1,.87-2.09c14,7.65,21.65,20.32,27.32,34.53.41,1,.52,2.13,1.61,2.72,0,.83,0,1.66,0,2.5-.05,1.58.49,3.5-1.73,4.08-2.63.69-3.42-1.38-4-3.18C454.2,116.64,452,109,445.57,103.48Z"/><path class="cls-40" d="M87.89,399.73c0-1.68-.44-3.47,0-5,4.78-17.28,6.06-35.2,9.4-52.74,2.22-11.65,5.35-23.56,4-35.76,3.41,1,.29,5.36,3.31,6.59-.43,11.22-3,22.12-4.87,33.12-2.47,14.62-5.44,29.15-7.26,43.87a30.52,30.52,0,0,1-1.38,4.87C88.64,395.49,90.24,398.84,87.89,399.73Z"/><path class="cls-30" d="M447,156.83l-2.77-.09-17.61-.24c-2,0-3.89,0-5.54,1.39-3,2.51-5.19,1.93-8.74-.22-4.75-2.88-10.87-1-16.41-1-7.53,4.13-14.63,1.55-21.7-1.4-.84-3.3.8-3.25,3.11-2.28l13.64,0c2.08-2,4.79-2.07,7.2-1.57,12.33,2.56,24.68,1.65,37.06.76,1.66-.12,3.4-.28,4.94.71l7.06.13Z"/><path class="cls-41" d="M413.42,161.75c1.68-.09,3.36-.27,5-.26,6.94,0,9.54,2,11.37,8.65,1,3.75,1.77,7.57,2.72,11.34,1.56,6.15,4.69,10.1,11.67,11.38,5.64,1,11.15.55,16.71.94.33,2.89-1.8,3.09-3.73,3.16-3.86.13-7.74,0-11.61,0-12.24-3.08-16.38-12.67-19-23.51a18.55,18.55,0,0,0-3.79-5.44C420.86,164.23,414.26,167.25,413.42,161.75Z"/><path class="cls-42" d="M460.9,241.69c-5.36,1.35-11.14,2-13.32,8.42a1.73,1.73,0,0,1-2.1,1c-1.48-.45-1-1.54-1-2.66,0-5.59,5.17-6.94,8.17-10.05l8.68-3.26a7.85,7.85,0,0,1,5.78-.33c3,1.28,8.15,2.18,7.62,5.34-.41,2.5-5.71,1.92-8.55.56C463.86,239.63,462.54,240.66,460.9,241.69Z"/><path class="cls-43" d="M387.63,236.47c-2.43-2.13.43-2.81,1.23-3.72a61.4,61.4,0,0,1,12.69-11.06c1.68-1.08,2.8-5.56,5.77-1.74,2.16,2.78,1.09,6.59-1.94,8.55-2.09,1.35-4.88,1.7-6,4.35C394.92,232.36,391.75,235.93,387.63,236.47Z"/><path class="cls-44" d="M402.83,101.85c.08-2.7-1.61-3.2-3.84-3.19q-8,0-16-.09c-.94,0-2.44.54-2.63-1-.16-1.32,1.15-1.82,2.19-2.17,6.79-2.26,13.55-2.87,20.54-.5,2.95,1,5.58,2.55,8.41,3.74,0,1.68,0,3.36,0,5l-3.4.2C406.08,103.84,404,103.94,402.83,101.85Z"/><path class="cls-45" d="M357.13,37.27c2.91,7,6.13,13.82,7.7,21.24.67,3.13,2.09,6.5-.95,9.33-3.35-11.41-5.72-23.2-13.41-32.84-.47-.59-1.16-1.71-1-2a2.51,2.51,0,0,1,3.07-.52C354.83,33.33,355.87,35.43,357.13,37.27Z"/><path class="cls-46" d="M396.34,90c-.88-1.32-2.46-1.18-3.66-1.78-1.82-.91-4.17-.82-5.48-2.73,2.23-.08,4.54-.56,6.69-.17,8.27,1.49,16.18,4.33,24.18,6.82.24,1.07,2.28,2.44-.19,3.09-2.12.57-4,2.07-6.4,1.64C407.18,92.89,401.78,91.39,396.34,90Z"/><path class="cls-47" d="M341.61,250c-.58-3.42,1.09-7.18-1.56-10.29-.68-7.87-1.38-15.74-2-23.62-.08-1-.26-2.47,1.13-2.65a2.17,2.17,0,0,1,2.23,2.13c1.21,9.78,2.4,19.56,3.51,29.35C345.18,247.35,344.43,249.39,341.61,250Z"/><path class="cls-48" d="M386,256.72c-7-.12-13.8,1.54-20.65,2.71-1.12.19-2.27.69-2.7-.7a2.9,2.9,0,0,1,.71-2.21c2.36-2.88,4.89-5.35,9.17-4.86a81.37,81.37,0,0,0,8.42.16C382.76,253.31,386.89,252.42,386,256.72Z"/><path class="cls-49" d="M333,243.26c1,.86,2.49,1.63,2.67,2.63.15.84-1.67.69-2.67.81a12.81,12.81,0,0,0-2.88-1.73c-2-.59-4.17-2.83-6.2-.65-1.44,1.54-.72,3.78-.12,5.66.51,1.62,1.58,3.56-.09,4.63s-3.34-.54-4.28-1.85c-1.47-2.06-5.59-2.74-3.95-6.47,1.46-3.31,7.4-6.54,10.46-5.74A66.59,66.59,0,0,1,333,243.26Z"/><path class="cls-50" d="M332.61,134.52c-1.72-.18-2.26-.94-1.26-2.67a65.83,65.83,0,0,1,15.55-18.53c.56-.45,1.74-.85,2.22-.57,1.39.83.52,2-.17,2.77-4.87,5.35-10.43,10.16-12.74,17.4C335.7,134.51,334.14,134.54,332.61,134.52Z"/><path class="cls-51" d="M239.18,304.4c1.22,8.6-3.62,16.26-3.83,24.66,0,.91-.8,2.28-2.16,1.95-1.52-.38-2.72-2.08-2-3.16,5.87-8.42,1.67-18,3.34-26.86,2.26,1.61,1.17,4,1.47,6.1.15,1,.41,2,.61,3,1.28-.65.87-1.9,1-2.92A3.47,3.47,0,0,1,239.18,304.4Z"/><path class="cls-6" d="M638,345.26c-5,.5-3.73,4.44-3,6.85a27,27,0,0,1,1.16,10.49c-6.18-5.4-8.68-18.85-5.11-27.44,2-.45,3.48.87,5.13,1.6C638.76,339.19,638,342.31,638,345.26Z"/><path class="cls-21" d="M464.64,70.91c.39,1.32.79,2.64,1.19,4l-1.89,2c-5.56-3.2-7.17-9.78-11.82-13.76,2.42-1.07,1.88-3.21,1.9-5.16,2.64-.41,4.29.78,5.14,3.22-.91.06-2-.29-2.53.78-.07.15.55.65.85,1C460.13,65.37,464.08,66.62,464.64,70.91Z"/><path class="cls-52" d="M386,256.72c-.65-2.7-3.95-2.67-5.05-4.9,7.22-2,11.91,4,17.94,5.74.59.17.9,1.28,1.33,2a9.84,9.84,0,0,1-2.28.71C393.55,260.46,389.78,258.55,386,256.72Z"/><path class="cls-53" d="M337.82,149.57c-.44,1.5-.85,2.83-1.2,4.18-.21.8-.53,1.79-1.38,1.62a2.49,2.49,0,0,1-1.58-1.7c-.43-4.46-.72-8.92-3.12-12.9a1.76,1.76,0,0,1,.81-2.75c1.4-.59,2.93-.35,3.47,1.27C336,142.72,336.85,146.22,337.82,149.57Z"/><path class="cls-54" d="M452.39,255.08c-2.22-.15-4.42-.6-2.27-3.36,2.85-3.66,7.08-5.36,11.36-6.78,1.53-.5,3.43.05,4.54-1.64a7.36,7.36,0,0,1,1.51.76c.81.68,2.46.39,2.57,1.71.09,1.08-1.13.9-1.84.86a12.38,12.38,0,0,0-9.3,3.15c-1.42,2.15-3,4.11-5.48,5.15Z"/><path class="cls-55" d="M334.77,178c0-4,0-7.93,0-11.89a14.56,14.56,0,0,1,.76-3.18c1.14.63,1,1.75,1,2.78q0,13.17,0,26.33c0,1,.06,2.69-1.06,2.55s-.8-1.88-.8-3c0-4.53,0-9.06,0-13.59Z"/><path class="cls-56" d="M455.76,260.3c-4.17.22-4.82-1.82-3.37-5.22l-.07.08c2.19-1.29,3.94-3.48,6.83-3.33,1.38.1,3.38-.32,4,.43,1.18,1.37-.77,2.27-1.64,3.1C459.7,257.11,457.69,258.66,455.76,260.3Z"/><path class="cls-20" d="M356.91,61.15c.16-3.34-2.06-3.59-4.44-3.18a47.6,47.6,0,0,0-5.55,1.64L343,59.29c1.67-6.33,8.89-4.52,12.28-8.33l.32-.28C356.19,54.15,360.91,57.11,356.91,61.15Z"/><path class="cls-57" d="M367.34,81.67c5.48.45,4.36,4.8,4.86,8.2C366,89.83,367.41,85.32,367.34,81.67Z"/><path class="cls-58" d="M402.79,40.53c.26,2.85-1.18,5.15-2.43,7.52-2-2.32-.62-5.06-.91-7.59a16,16,0,0,1,.25-3.29C401.25,37.81,400.87,40.23,402.79,40.53Z"/><path class="cls-59" d="M372.29,91.86c2.41-.18,3.37.94,3.36,3.33s-.75,3.63-3.29,3.26C372.34,96.26,372.31,94.06,372.29,91.86Z"/><path class="cls-58" d="M391.12,37.3c-2.55.4-3.61-.78-3.46-3.25,3.54,0,7.22-1,10.42,1.46C395.86,36.48,392.86,34.45,391.12,37.3Z"/><path class="cls-32" d="M459.15,251.83a10.46,10.46,0,0,1-6.83,3.33,9.09,9.09,0,0,1,6.64-5.38C459,250.46,459.09,251.15,459.15,251.83Z"/><path class="cls-21" d="M442.13,47.28l-2.07,2L437.9,48c-1.33-.79-3.86-1.2-3.08-3.05.64-1.5,2.35.5,3.64.7S441.31,45.83,442.13,47.28Z"/><path class="cls-34" d="M446.89,173.86a8.41,8.41,0,0,1,.05-9.22A22.73,22.73,0,0,1,446.89,173.86Z"/><path class="cls-15" d="M300.88,259.88a20.93,20.93,0,0,0,8.23.2C306.3,263,303.55,263.16,300.88,259.88Z"/><path class="cls-60" d="M647,387.59c-1.21-2.39-.92-5-.92-7.51,0-23.21-.07-46.43.08-69.64,0-2.64-2-6.7,2.88-7.51,5.59-.93,10.06,1.88,11.41,6.74q5.65,20.4,11.36,40.79c.36,1.28.07,2.84,1.55,3.64.14-1.41.38-2.81.39-4.22.06-11.89,0-23.78.14-35.67,0-3.06-1.43-7.1,4.58-6.68,7.58.54,8.73,1,8.75,7,.08,24.92,0,49.83,0,74.74,0,1.13,0,2.27,0,3.4l.14,0a10.8,10.8,0,0,1-10.21,0c-1.31-.31-3.07.47-3.7-1.51-2.48-3.11-1.78-7.09-2.91-10.56-2.4-2.28-.78-5.61-2.16-8.15-2.5-2.83-1.57-6.73-3.1-9.86-2.13-1.36-1.14-3.56-1.47-5.41-3.29-2.47-2.9-6.4-3.88-9.79.22.24.21.7.3,1.35a25.78,25.78,0,0,1-.34,8.25c-1.81,10.18.63,20.61-1.37,30.83l0,.06a15,15,0,0,1-10.23,0l-.61-.35Z"/><path class="cls-61" d="M504.83,329.92c0-11.88-.05-23.76,0-35.65,0-6.77.15-6.95,6.42-6.65,7.34.36,14.69.87,22,1.7,6.86.77,11.18,5.57,11.33,12.54.2,9.62,0,19.24.1,28.86,0,3.71-1.09,6.95-4.17,8.75-3.7,2.17-3.16,4.68-2,7.87,2.88,7.67,5.45,15.45,8.39,23.09,1.48,3.85.42,5.06-3.58,5-8.16-.07-9.42-.81-12-8.57s-5.15-15.55-7.76-23.32c-.54-1.61-1.25-3.42-3.44-2.85-1.77.47-1.32,2.27-1.33,3.56-.08,7.64-.2,15.28,0,22.92.09,3.71-.51,5.65-5,5.54-8.85-.22-8.93,0-8.95-8.86C504.81,352.56,504.84,341.24,504.83,329.92Z"/><path class="cls-62" d="M631.11,335.16c.76,9.32,1.81,18.59,5.11,27.44-.21,3.4-.67,6.84,1.63,9.83,1.87,4.33,4.27,8.59,1.63,13.46l.19-.12c-4.76,2.57-8.93-1.47-13.48-1.22l-1.6-1.84c-1.2-1-.93-2.48-1-3.83-.37-11.42-3.69-13.78-16.22-11.51a.7.7,0,0,0-.19,1.06c-2.14,3.91,1.7,9.34-3.21,12.54h0c-3.41,1.24-6.8,1.49-10.17-.17l.11.07c-4.26-2.64-2.77-6.43-2-10.07,2.23-3.84-1.63-8.6,1.84-12.25,1.35-6.09,1.82-12.34,3.37-18.39.62-3.29,1.25-6.57,1.87-9.86,2-3.26-.7-7.32,1.78-10.5l-.08.1c1.9-2.59-.57-6.1,1.79-8.6l-.09.1c1.82-2.65-.37-6,1.59-8.67a.82.82,0,0,0,.15-1.24c1.89-7.53,7.18-4.58,11.76-3.81l0,0c2.41,2.25,6.24-.88,8.43,2.22q1.4,7.47,2.8,14.94c3.48,2.8.16,7.12,2.31,10.22l-.1-.12c2.6,3.06-.27,7.11,1.85,10.26Z"/><path class="cls-63" d="M473.79,285.61c9.64.28,9.44.31,11.06,9.68,4,23.1,8.23,46.16,12.31,69.25.44,2.49,2.63,5.74-2,6.75-5.87,1.27-10.09-.33-11.18-4.26a38.42,38.42,0,0,1-.86-5c-1.11-7.95-1.1-7.95-9-8.86s-7.8-.91-9.16,6.66a47.31,47.31,0,0,0-.59,5.05c-.25,3.46-1.93,4.7-5.51,4.76-8.75.12-9.05-.11-7.5-9,3.85-22,7.49-44,11.5-66C464.78,284,463.26,285.35,473.79,285.61Z"/><path class="cls-60" d="M697.65,353.76c-2.09-10.35-1.34-20.84-1.06-31.25.2-7.65,3.89-10.6,11.64-9.77a105.68,105.68,0,0,1,16.63,3.2c6,1.65,9.16,6.29,10.22,12.28a30.85,30.85,0,0,1,.11,5.09c.07,10.05-.31,10.16-10,7.54-3.1-.85-4.33-2.13-4.2-5.13a27.86,27.86,0,0,0-.1-5.09c-.41-2.8-4.57-5.59-7.63-5.13s-3,2.93-3.33,5.15a25.7,25.7,0,0,0-.05,3.4c.14,15-1.83,15,13.63,17.64,7.16,1.24,11.37,6.36,11.6,13.58.26,8.49.32,17,0,25.48-.26,6.87-3.51,9.54-10.41,9.21a65.49,65.49,0,0,1-16.7-2.88c-7.25-2.31-10.81-6.43-11.38-13.92-.3-3.94-.17-7.92-.23-11.88l-.21-.07c5.34-2.7,10.23-1.33,14.94,1.62l-.18-.22c2.4,2.37.83,5.34,1.18,8,.3,2.3,1.35,3.72,3.6,4,2.41.31,3.55-1.36,4.39-3.25,2.6-5.82,0-15.31-5.22-19.46l.08.14c-4.61-1.53-10.42.66-13.88-4.46Z"/><path class="cls-60" d="M377.33,284c2.27,0,4.54-.07,6.81,0,7.51.27,10.85,3.13,12,10.39a41.77,41.77,0,0,1,.29,5.93c.09,8.36-3.11,10.72-11.37,8.52-4.25-1.14-2.27-4.57-2.56-7-.62-5.15-2-6.36-6.93-5.8-2.44.28-3.6,1.4-3.61,3.75q0,8.06,0,16.13c0,2.88,1.71,3.94,4.39,3.92,2.84,0,5.68-.09,8.51.08,7.19.42,11.1,3.88,11.42,11.05.38,8.76.34,17.56,0,26.33-.23,6.54-4.17,10.69-10.57,11.17a110.89,110.89,0,0,1-17,0c-6.79-.53-9.91-4.06-10.55-11-.18-2-.1-4-.09-5.94,0-7.86.32-7.9,8.05-7.93,4.46,0,6.15,1.62,5.93,6-.12,2.38-.89,5.22,2.24,6.67,4.18,1.94,7.82-.17,8.13-4.86a43.6,43.6,0,0,0,0-5.94c-.27-4.18,1.69-9.18-1-12.36-2.88-3.4-8-1.09-12.17-1.41-7-.55-10.9-4.12-11.13-11.26q-.4-12.3,0-24.63c.25-8.08,4-11.46,12.33-11.73C372.79,284,375.06,284,377.33,284Z"/><path class="cls-63" d="M405.88,326c0-12.18.09-24.36-.05-36.54,0-3.86,1.06-5.69,5.31-5.51,7.65.32,15.33,0,23,.33,6.89.27,11.33,4.11,11.63,11,.46,10.74.42,21.53,0,32.27-.28,6.5-3.79,9.63-10.26,10.44a40.68,40.68,0,0,1-7.64-.11c-8.06-.54-8.07-.57-8.11,7.84,0,5.95-.17,11.9,0,17.85s-4,4.9-7.56,5.08c-3.84.19-6.49-.26-6.38-5.29C406.06,350.93,405.88,338.46,405.88,326Z"/><path class="cls-60" d="M562.85,340.15c0-9.91-.19-19.83.09-29.74.13-4.62-1.22-6.39-6.08-6.7-7.47-.48-7.49-1.14-7.27-8.09.11-3.31,1.21-4.67,4.51-4.33,10.13,1.06,20.27,2.12,30.42,3.09,5.55.53,4.66,4.54,4.75,8.19.12,4.48-2.7,3.86-5.71,3.75-6.78-.25-6.86-.12-6.88,6.78,0,19.54,0,39.09-.08,58.64,0,2,1.19,5.16-1.88,5.75-3.54.69-7.44.85-10.69-1.19-1.88-1.18-1.12-3.64-1.13-5.55-.06-10.2,0-20.4,0-30.6Z"/><path class="cls-6" d="M658.57,387.79q0-21.42,0-42.83c0-1.68.19-3.35.29-5,1.77,1.19,2.22,3.24,2.51,5,.67,4.11,3.22,7.85,2.47,12.22-3.76,0-3.66,2.56-3.65,5.2,0,6.45.08,12.9,0,19.35C660.16,383.82,661.05,386.28,658.57,387.79Z"/><path class="cls-6" d="M714.91,361.92c4.58-.08,6.68,2.07,6.48,6.73-.19,4.49-.11,9,0,13.5,0,2.87-.53,5.2-4,5.05-2.93-.13-5.8-.86-6.12-4.47-.3-3.35-.21-6.74-.29-10.12,2.72.78,1.84,3.05,2.11,4.89s-.92,4.69,2.07,4.56c2.41-.1,4.81-1.45,4.74-4.84-.11-4.74.84-9.7-4-13.06C715.35,363.75,715.24,362.68,714.91,361.92Z"/><path class="cls-6" d="M607.39,367.37c0-1.19.24-2.7,1.49-2.62,3.64.25,7.28.8,10.88,1.41,2.58.43,3.85,2.23,4,4.76.3,3.93.53,7.86.79,11.79-3.22-1.95-1.66-5.1-1.78-7.71-.18-3.73-1.53-6.13-5.51-5.86C613.79,369.38,610.91,366.69,607.39,367.37Z"/><path class="cls-6" d="M639.48,385.89c-.49-4.49-2.23-8.83-1.63-13.46,4.84,2.27,4.65,7,5.13,11.16C643.23,385.75,641.23,386,639.48,385.89Z"/><path class="cls-6" d="M711.14,372.83c-5-.51-9.77-2.8-14.94-1.62C703.51,366.82,706.49,367.15,711.14,372.83Z"/><path class="cls-6" d="M597.14,340.16a43.93,43.93,0,0,1-3.37,18.39C593.65,352.19,593.59,345.85,597.14,340.16Z"/><path class="cls-6" d="M701.11,357.6c4.19,2.85,9.53,2.12,13.88,4.46l-8.28.2C703.49,362.33,701.37,361.08,701.11,357.6Z"/><path class="cls-6" d="M626.19,384.55l13.48,1.22a2.43,2.43,0,0,1-3,1.93C633.13,386.73,629.31,386.79,626.19,384.55Z"/><path class="cls-6" d="M615.91,297.68a32.65,32.65,0,0,1-5.79-.34c-3.71-.88-4.82,1.57-6,4.15-.3-3-.33-6,4-5.51C610.78,296.26,613.89,294.58,615.91,297.68Z"/><path class="cls-6" d="M604,381c2.39-3.84.56-8.76,3.21-12.54.06,3,.09,6,.2,9C607.5,379.84,606.31,380.92,604,381Z"/><path class="cls-6" d="M665.33,362.56c2.52,2.82,2.55,6.42,3.1,9.86C663.93,370.22,665.7,366.05,665.33,362.56Z"/><path class="cls-6" d="M591.93,370.8c.84,3.32-2.09,7.39,2,10.07C589.53,378.57,589.26,377.19,591.93,370.8Z"/><path class="cls-6" d="M670.59,380.57c1.83,3.28,2.21,7,2.91,10.56C668.86,388.61,670.81,384.29,670.59,380.57Z"/><path class="cls-6" d="M600.79,319.8c-.24,3.56.23,7.24-1.78,10.5C599.64,326.81,597,322.76,600.79,319.8Z"/><path class="cls-6" d="M631.16,335.18c-2.1-3.15-2-6.71-1.85-10.26C633.2,327.75,630.42,331.78,631.16,335.18Z"/><path class="cls-6" d="M629.41,325c-2.29-3.07-1.15-6.9-2.31-10.22C631.72,317.36,628.71,321.62,629.41,325Z"/><path class="cls-6" d="M593.82,380.8,604,381C600.56,383.57,597.17,383.72,593.82,380.8Z"/><path class="cls-6" d="M648.31,387.83l10.23,0C655.12,390.37,651.71,390.41,648.31,387.83Z"/><path class="cls-6" d="M677.2,392.64h10.21C684,395.75,680.61,395.62,677.2,392.64Z"/><path class="cls-6" d="M602.5,311.3c-.43,2.9.51,6.09-1.79,8.6C601.2,317,599,313.56,602.5,311.3Z"/><path class="cls-6" d="M604,302.73c.14,3,.39,6-1.59,8.67C602.81,308.49,600.87,305.15,604,302.73Z"/><path class="cls-6" d="M624.3,299.88c-2.61-1.51-6.09.3-8.43-2.22C618.67,298.43,622.39,295.72,624.3,299.88Z"/><path class="cls-63" d="M288.89,329.12c0-12.19.14-24.38-.08-36.56-.07-3.91,1-5.15,5.1-5.71a210.38,210.38,0,0,1,23.76-1.51c8-.19,12,3.66,12.08,11.89q.25,30.18,0,60.36c-.06,7.31-3.09,11.32-10.4,12.23-9,1.11-18.1,1-27.17,1.33-4.08.13-3.25-3.1-3.27-5.47C288.86,353.49,288.89,341.3,288.89,329.12Z"/><path class="cls-64" d="M228.51,351.75c0,4.52.33,9.08-.08,13.56-.6,6.69-3.75,10.35-10.36,11.69a106.47,106.47,0,0,1-16.8,2c-6.83.27-10.44-3.28-11-10.11-.23-2.81.13-5.67-.17-8.47-.46-4.21,1.9-5.23,5.39-5.87,7.18-1.29,7.72-1.1,8.17,5.93.19,3,.11,5.75,4.31,5.68,3.93-.07,6.56-1.12,6.36-5.8s-.21-9.63,0-14.42c.2-4.15-1.52-5.77-5.53-5.14-1.11.17-2.2.56-3.31.71-11.37,1.55-15.38-1.61-15.67-12.85-.19-7.34-.23-14.72.29-22,.55-7.81,4.52-11.46,12.38-12.47,4.77-.61,9.53-1.42,14.31-1.62,6.92-.29,10.46,2.79,11.48,9.68.41,2.78.13,5.65.3,8.46.25,4.18-1.41,5.88-5.81,6.36-7.73.84-7.81,1.21-8.44-6.95-.23-2.95-.91-5.24-4.26-4.88-3,.32-6.53.41-6.5,4.95,0,5.09,0,10.19,0,15.28,0,3.39,2.05,4.4,5,4.08,2.52-.28,5-.9,7.54-1.07,7.77-.51,11.69,2.76,12.31,10.55.34,4.22.06,8.48.06,12.73Z"/><path class="cls-60" d="M258.2,288.92c9.35-.34,8.33-.84,10,8.24,4.14,22.77,8.4,45.52,12.6,68.29,1.23,6.65,1.21,6.66-5.17,6.95-7.49.35-7.5.35-8.71-6.71-.19-1.11-.15-2.27-.33-3.38-1-6.49-1.23-6.64-7.44-6.14a25.49,25.49,0,0,1-4.22.43c-4-.35-5.68,1.67-6.13,5.28-.34,2.81-.72,5.61-1,8.41s-1.88,4.47-4.82,5c-7.75,1.51-9.75-.31-8.4-8.2q6-35.06,12.07-70.09C247.93,289.42,248,289.43,258.2,288.92Z"/><path class="cls-63" d="M136,387.47c-2.83.4-4.29-.76-4.45-3.65a20.1,20.1,0,0,0-.64-2.45c-1.94-10.09-1.9-9.76-11.59-8.94-4.32.36-6.1,2.09-6.59,6-.32,2.52-.88,5-1,7.55-.11,3.19-1,5.08-4.56,5.92-8.92,2.11-10.17,1.19-8.66-7.67,4-23.32,7.83-46.67,12.06-69.94.49-2.69-.54-6.79,3.37-8,4.86-1.46,9.91-2.73,15-2.05,2.27.3,2.31,3,2.66,4.87q4.47,23.25,8.75,46.55c1.49,8.05,2.86,16.11,4.32,24.15,1.09,6,1.12,6-4.54,7.07C138.8,387.15,137.39,387.29,136,387.47Z"/><path class="cls-60" d="M152.41,342.34c0-12.18-.06-24.36,0-36.54.05-5.08,8.11-9.11,12.36-6.24,2,1.34,1.25,3.61,1.25,5.5q.08,28.05,0,56.09c0,10.75.1,10.82,11,8.93a24.87,24.87,0,0,1,2.49-.58c2.62-.19,5.83-1.88,6.76,2.54,1.07,5.08-.4,8.25-4.72,8.95-7.82,1.28-15.69,2.19-23.53,3.37-4.43.67-5.9-.94-5.79-5.48C152.59,366.71,152.41,354.52,152.41,342.34Z"/><path class="cls-63" d="M59.55,315.76c4.35-.46,4,2.81,4.37,5.53q3.36,23.41,6.74,46.83a11.85,11.85,0,0,0,.2,1.68c.29,1,.25,2.44,1.89,2.13.94-.17,1-1.13,1.11-1.95.09-1.12.08-2.26.23-3.38q3.42-25.16,6.9-50.3c.53-3.76,10.09-8.5,13.33-6.64,2,1.14.88,3.07.7,4.56-1.17,9.51-3.21,18.88-4.53,28.39-2.13,15.35-5.16,30.57-7.76,45.85-.47,2.79-.37,6.61-3,7.52-4.71,1.65-9.64,3.49-14.82,3-2-.19-2.16-2.19-2.48-3.92C60.34,383.43,58,371.83,56,360.18c-2.14-12.21-4-24.48-6-36.72-1-6.29-1-6.31,5.34-7.22C56.73,316,58.14,315.92,59.55,315.76Z"/><path class="cls-58" d="M398,61c-2.84-1.28-1.66-3.85-1.74-5.89-.2-5.32-.16-10.65-.22-16,2.45,1,1.82,3.19,1.85,5.05C398,49.82,398,55.42,398,61Z"/><path class="cls-65" d="M402.83,101.85c1.74.7,4.32-.77,5.25,2-.94,3.32-3.79,3.06-6.2,2.93-4.62-.24-8.77,1.88-13.27,2.23-3.69.3-5.88,3.08-7.53,6.12-.69,1.27.4,2,1.49,2.47a2.47,2.47,0,0,1-1.42,2.75,18.42,18.42,0,0,0-2.77,2c.9-.63,1.9-1.14,2.78-1.78,8-5.78,17-7.15,26.58-6.56,2.3.15,5.45-.7,5.43,3.35-7.29.52-14.57.67-21.61,3.25a25.46,25.46,0,0,0-11.28,8.54c-1.61,2-1.89,4.39,1.46,5.06,4.69.93,9,3,13.78,3.83,7.79,1.36,15.31,4.18,23,6.39l-10.44.26c-15.67.33-30.31-4.71-45.17-8.59-3.49-.9-4.19-2-1.25-4.71,1.31-1.22,1.66-3.43,2.2-5.36,5-17.89,12.95-25.46,29.95-24a29.9,29.9,0,0,0,4.22-.21Z"/><path class="cls-66" d="M413.17,117.34c-13.07-4-24.64-.68-35.25,7.21a38.23,38.23,0,0,0-3.05,2.93c-.55.5-1.21,1.38-2,.63s-.25-1.51.3-2.21a41.8,41.8,0,0,1,9.38-8.27c17-8.16,33.56-7.63,49.49,3,.34,1.76-.37,2.49-2.15,2.17-1.29-.21-2.7-.15-3.51-1.49-3.9-3-8.92-2.29-13.24-3.92Z"/><path class="cls-67" d="M429.91,122.75c1-.43,1.93-1,2.15-2.17a6.45,6.45,0,0,1,2.1,1.16c1.65,2,5.46,3.74,3.86,6.28-.92,1.47-3.44-2.39-5.71-3.11C431.37,124.62,430.7,123.5,429.91,122.75Z"/><path class="cls-65" d="M413.16,117.34c4.85-.15,9.68-.26,13.24,3.92C421.87,120.34,417.32,119.52,413.16,117.34Z"/><path class="cls-68" d="M433.55,83.53l.06,1.41c-.64.57-1.53,1.33-2.2,1-11.08-6.31-23.83-7.91-35.48-12.6-5.39-.05-10.77-.07-16.16-.16-1.31,0-3.29.33-3.41-1.45-.18-2.6,2.23-2,3.7-2,7.09-.08,14.17,0,21.26,0,5.45,2.19,11.11,3.73,16.72,5.46A43.79,43.79,0,0,1,433.55,83.53Z"/><path class="cls-69" d="M413.42,161.75c3.13,3.22,9.11.1,11.44,5.12-2.38,2.46-5.62,2.29-8.52,2.18-4.55-.16-6.91,2.18-8.56,5.89-3.53,2.6-2,7.62-5.06,10.47-.27.9-1.07.8-4.15,3.17-2,1.55.49,5.84-3,7.4-5.08-6.43-4.87-17.78.71-24.63,2.46-3,5-6.12,8.69-7.88l1.39-.21C408.93,163.78,410.77,160.9,413.42,161.75Z"/><path class="cls-69" d="M380.78,234.68c-6-1.94-6.16-2.61-1.81-6.78a105.59,105.59,0,0,0,17.15-15.64l1.74-3.1c0-.36,0-.73,0-1.09.43-1.47,1-2.79,2.83-2.91,2.65.18,4.89,1.62,7.37,2.33,1.55.86,2,2,.41,3.13C398.33,217.61,390,226.68,380.78,234.68Z"/><path class="cls-70" d="M423.47,190.52a34,34,0,0,1-11.54,10.77c-3.24,1.78-5,.21-5.46-2.63a34.8,34.8,0,0,1,.13-8.34c.09-1.13,1.12-2.39,2.15-2.21s.89,1.73,1,2.8c.14,1.55-.51,4,1.79,4,2.59-.08,4.47-2.17,5.69-4.44.58-1.06-.44-1.38-1.31-1.22-4.69.81-2.85-2.83-2.26-4.12,1.24-2.73,3.4-4.71,6.43-1.56C423.71,184.65,425.44,186.69,423.47,190.52Z"/><path class="cls-71" d="M408.05,207.49c-3.41,2.07-5.94.39-8.3-2-4.79-1.95-6.3-5.16-3.87-9.91.23-3,.37-6.09.75-9.1a2.58,2.58,0,0,1,1.59-1.74c.92-.28,1,.77,1.35,1.47.43.93-.91,3.15,1.37,2.6.78-.19.38-2.64,1.78-3.44A39,39,0,0,0,408.05,207.49Z"/><path class="cls-72" d="M407.78,174.94c0-2.06-.76-5,.28-6,1.64-1.47,4.48-1.93,6.87-2.16a94,94,0,0,1,9.93.06,8.27,8.27,0,0,1,1.77,6.63C420,169.53,414,173.76,407.78,174.94Z"/><path class="cls-72" d="M423.47,190.52c.88-3.3-2-4.8-3.39-7,2.32-1.18,1.31-3.23,1.5-5.06.13-1.35-4.08-1.49-.9-3.1a2.85,2.85,0,0,1,4.13,1.57c.94,3.3,3.24,6.52.56,10.17C424.65,188.09,424.89,189.78,423.47,190.52Z"/><path class="cls-73" d="M355.28,51c.65,2.65-1.22,3.4-3.11,4.21-3.08,1.32-6.66,1.55-9.17,4.12-26.52,10.82-45.78,29.61-59.16,54.51-8.78,16.34-13.81,33.89-14,52.61-4.94-1.29-3-5.3-2.87-8.15.69-12,4-23.45,8.12-34.67,14-34.28,38.56-57.88,72.88-71.56C350.31,51.08,352.65,50.12,355.28,51Z"/><path class="cls-74" d="M275,123.59c.44,4.07-1.59,7.55-2.66,11.28-2.56,8.84-4.27,17.83-4.08,27.08,0,1.62-.4,3.44,1.49,4.46-.3,14,2.21,27.55,5.43,41.05-1.52,2.18-1.51,2.18-2.13.94-3-6-3.34-12.67-4.75-19.07-.36-1.61-.13-3.36-2.14-4C263.68,164,265.13,143.16,275,123.59Z"/><path class="cls-75" d="M395.93,73.29c11.86.61,23,3.62,33.16,9.9,1.46.91,2.69,2,4.52,1.75.82,2.57,3,4.06,4.85,5.7s1,2.92.46,4.47c-4.81-2.43-8.12-7.32-13.75-8.41-7.59-5.92-16.55-7.84-25.82-8.41-6.47-.4-13-.06-19.48-.13-1.28,0-3.16.38-3.33-1.53-.19-2.14,1.81-1.74,3-1.77,4.51-.11,9-.09,13.55-.09A2.94,2.94,0,0,0,395.93,73.29Z"/><path class="cls-76" d="M372.17,215.92a50.17,50.17,0,0,0-4.95,4.47c-1.12,1.28-7.3,5.31,1.24,2.91,1.77-.5,1.84,1.49,2.06,2.86.87,5.34,1,10.39-4.26,13.88-.41.28-.58.93-.87,1.41-1.37.23-3.35,2.14-3.34-1.28,0-4.23,0-8.46-.08-12.69,0-1.43-1.18-3.48-2.29-2-2.21,3-3.12,4.36-2.68-.67.52-6-1.9-11.57-2.2-17.47-.12-2.38-.76-5.66-4.51-6.84-1.19-.37-3.67-4.6,1.5-4.91,3.43,3.8,4.65-1.15,6.8-1.93,3.32-1.23,4.5-1.62,5.48,2.75,1.21,5.36-.06,11.2,3.09,16.15C367.84,215.18,371.48,213.35,372.17,215.92Z"/><path class="cls-77" d="M464.64,70.91c-2.49-2.56-5.49-4.66-7.16-7.95,4.63.86,7.95,4,11.47,6.72C497.74,91.81,514.81,121,518.37,157c3.75,37.77-7.45,71.32-33.74,99.35a14.33,14.33,0,0,0-1.38,2.07c-.69.46-1.36,1-2.08,1.38-1.24.72-2.75,1.45-3.69-.05-.65-1,.7-1.87,1.43-2.6,6.46-6.59,12.6-13.44,17.2-21.51,4.53-3.06,6-8.2,8-12.72,20.18-46.82,15.38-90.64-16.47-131C481.12,83.65,473.72,76.35,464.64,70.91Z"/><path class="cls-78" d="M442,244.71c.27,2.47-1.1,4.33-3.26,3.41-4.73-2-9.17.07-13.73.07-.09-5,.81-10-.62-14.93a2.05,2.05,0,0,1,.44-2.28c1.05-1,1.87-.42,2.85.25,3.44,2.36,7.12,4.44,9.19,8.28C438.06,241.76,439.46,243.77,442,244.71Z"/><path class="cls-79" d="M379.19,190.39a16.07,16.07,0,0,1-.14,15.33c-1.8.09-3.84-.33-4.23-2.06-2.63-11.7-5.57-23.45-.82-35.34,2.32.32,5.1-1.11,6.77,1.75C378.28,176.69,377.12,183.42,379.19,190.39Z"/><path class="cls-80" d="M377.38,153c-1.38.05-2.79.06-3.38,1.69.39,3.41,3.38,6.37,1.79,10.13-7.66-2.42-15.56-1.46-23.37-1.65-1.87,0-4.48.79-5.21-1.54-.91-2.9-1.27-6.24.21-9,1.07-2,3.46-1.2,5.37-.75,5.91,1.41,11.82,2.8,17.61-.45C372.78,151.76,375.58,150.2,377.38,153Z"/><path class="cls-81" d="M440.22,153a213.61,213.61,0,0,1-49.2.1c-1-2.51-5.42-.47-5.2-2.86.13-1.4,4-.88,6.09-.66,14.86,1.6,29.77,1.66,44.68,1.85C438,151.41,439.42,151.49,440.22,153Z"/><path class="cls-69" d="M397.86,209.16c-6.5-.5-9.38,5.25-13.89,8.14-2.3,1.47-4,3.82-6,5.76-.84.82-2,1.5-2.92.72-.68-.6-.8-1.95-1-3-.53-3.36,3.93-4.79,3.27-8.24a55.06,55.06,0,0,1,4.42-5,7.25,7.25,0,0,0,2.39-7.53c-2.27-9.9-3.26-19.7,1.28-29.32.71-1.49-.83-2.49-1.58-3.61a2.65,2.65,0,0,1,1.95-1.33c5.47,1.13,4.45,5,3.48,8.62-1.71,6.26-3.92,12.4-2.63,19.06.11.58-.21,1.42-.12,1.48.91.54.49.4.41-.45-.18-2-1.5-5.66,1.61-5.44,3.66.26,3,4.82,4.11,7.52.21.49.59.64,1.3.37,1.23,4.11,5.48,7.27,3.88,12.26Z"/><path class="cls-69" d="M375.79,164.85c-2.05-2.62-2-6.23-4.19-8.87-.57-.67,1.43-1,2.4-1.26,7.39,0,14.53,2.68,22,2,2.35,2.36,5.34,1.2,8,1.37,5,.32,5,.22,2.33,5.18h0a2.28,2.28,0,0,1-2.17.56c-5.49-2.8-11.62-1.82-17.41-2.78-4.93-.81-1.92,3.2-2.2,5.17l-.75.91Z"/><path class="cls-82" d="M379.19,190.39c-.29.71-.59,1.41-.89,2.11-1.93-2.59-1.32-19.85.86-22.23.28-.31,1.06-.14,1.61-.2C381.62,177,378,183.48,379.19,190.39Z"/><path class="cls-83" d="M427,251.92c4.86-3,9.7-1.82,14.49.13,2.52,1,4.5,2.95,3.9,5.72-.49,2.25-3,2-5,2.11-1.67.05-3.34.17-5,.27h0c-1.89-1.81-4.49-1.12-6.68-1.88C425.5,256.84,424.51,254.84,427,251.92Z"/><path class="cls-84" d="M427,251.92c-.7,2.45.27,4.45,1.68,6.34a5.71,5.71,0,0,1-1.59.3c-2-.22-4.94,1-5.3-2.16C421.39,252.94,423.74,251.67,427,251.92Z"/><path class="cls-85" d="M433.85,171.55c4.51,3.63,9.07,7.19,12.26,12.14.54.85,2.15,1.54,1.52,2.47-.75,1.11-1.92-.43-2.9-.45-3.81-.08-.71,2-.85,3-4.45,0-7.06-3.25-7.88-6.58S432.89,175.39,433.85,171.55Z"/><path class="cls-86" d="M396.12,212.26c.35,2.59-1.24,4.21-2.94,5.74-4.32,3.89-8.24,8.36-14.21,9.9C384,221.94,389,215.92,396.12,212.26Z"/><path class="cls-87" d="M518.76,314c0-2.27,0-4.54,0-6.8.14-6.49,1-7,7.53-6.28,3.15.35,4.65,1.75,4.67,4.78,0,6.52,0,13,0,19.55,0,2.9-1.86,4.66-4.28,3.73-2.68-1-7.64,1.79-7.86-3.94-.14-3.67,0-7.36,0-11Z"/><path class="cls-88" d="M616.55,353.78c-6.32,0-8-1.67-7-7.51,1.38-8.64,3-17.23,4.6-25.83a12.89,12.89,0,0,1,1.15-2.66c.21.82.49,1.63.62,2.46,1.47,9.48,2.77,19,4.45,28.42C621,352.22,620.66,354.29,616.55,353.78Z"/><path class="cls-89" d="M479.55,337.44c.43,2.86-.61,4.72-3.6,3.94-2.83-.74-8.15,1.05-7.62-4.17,1-10,3.05-19.89,4.67-29.83a15.24,15.24,0,0,1,.45-1.6,6.83,6.83,0,0,1,1,1.91C476.18,317.6,477.86,327.52,479.55,337.44Z"/><path class="cls-90" d="M432.16,311.52c0,2.54.13,5.09,0,7.62-.13,2.08,1.06,4.92-1.84,5.84a15.66,15.66,0,0,1-9.19-.24c-1.46-.44-1.37-2.28-1.37-3.7,0-6.77.14-13.54-.08-20.31-.12-4,1.88-4.87,5.22-4.58,3.15.27,7.3-1.15,7.29,4.37,0,3.67,0,7.34,0,11Z"/><path class="cls-91" d="M302.74,328.26c0-8.48.23-17-.08-25.43-.18-4.69,1.82-5.79,6-5.74,6.23.08,7.24.36,7.28,5.36q.21,25.44,0,50.86c0,5.13-1.3,5.46-8,5.77-5.08.24-5.35-2.44-5.29-6.24C302.83,344.64,302.74,336.45,302.74,328.26Z"/><path class="cls-92" d="M256.5,344.14c-3.19.39-5.44-.24-4.5-5,1.59-8,2.66-16.16,4-24.25.25-1.55-.17-4.22,1.39-4.2,1.31,0,1,2.93,1.32,4.54,1.34,7.51,2.56,15,3.71,22.57C263.3,343.77,263,344.06,256.5,344.14Z"/><path class="cls-93" d="M126.76,353.64c.25,3.28.3,5.42-2.17,6.08-2.7.73-5.48,1.43-8.29.35-.62-.24-.6-.68-.51-1.37,1.56-10.89,3.07-21.79,4.61-32.69a16.42,16.42,0,0,1,.39-1.65,9.75,9.75,0,0,1,1,2.21C123.57,336,125.27,345.43,126.76,353.64Z"/><path class="cls-34" d="M404.18,162.88l2.17.38c-.78,2.6-3,4.05-4.88,5.64-8.81,7.52-8.33,16.86-5.59,26.72.12,3.76,2,6.84,3.87,9.91-.28,1.42,0,3.12-1.94,3.68-.56-4.42-3-8.08-4.82-12a6,6,0,0,1-1.82-3.71c-.23-4.66-1.21-9.29-.7-14C392.53,171.9,394,163.82,404.18,162.88Z"/><path class="cls-94" d="M404.18,162.88a24.23,24.23,0,0,0-11.69,15.41,44.81,44.81,0,0,0-.08,16l.58,2.95c-.56.68-1.28,1.22-1.79.12-1.11-2.37-2.06-4.81-3.08-7.23-.19,2.21-.35,4.42-.6,6.62,0,.41-.51.76-.78,1.14-.3-.76-.63-1.5-.88-2.27-2.58-7.82-1.52-15.44,1.61-22.81,1.49-3.52,1.44-5.86-2.9-6.56a16.93,16.93,0,0,1-3.46-2.41c-2.3-2.61-1.55-5.41,1.63-5.29,7,.27,14,1.22,21,2C404,160.56,404.05,162.07,404.18,162.88Z"/><path class="cls-69" d="M392.41,194.25a19.83,19.83,0,0,1,.08-16Q392.44,186.27,392.41,194.25Z"/></g></g></g></svg>